G04 EAGLE Gerber RS-274X export*
G75*
%MOMM*%
%FSLAX34Y34*%
%LPD*%
%IN*%
%IPPOS*%
%AMOC8*
5,1,8,0,0,1.08239X$1,22.5*%
G01*
%ADD10C,0.254000*%


D10*
X0Y22860D02*
X97Y20646D01*
X386Y18449D01*
X865Y16286D01*
X1532Y14173D01*
X2380Y12126D01*
X3403Y10160D01*
X4594Y8291D01*
X5942Y6533D01*
X7440Y4900D01*
X9073Y3402D01*
X10831Y2054D01*
X12700Y863D01*
X14666Y-160D01*
X16713Y-1008D01*
X18826Y-1675D01*
X20989Y-2154D01*
X23186Y-2443D01*
X25400Y-2540D01*
X232410Y-2540D01*
X234402Y-2453D01*
X236380Y-2193D01*
X238327Y-1761D01*
X240229Y-1161D01*
X242071Y-398D01*
X243840Y523D01*
X245522Y1594D01*
X247104Y2808D01*
X248574Y4156D01*
X249922Y5626D01*
X251136Y7208D01*
X252207Y8890D01*
X253128Y10659D01*
X253891Y12501D01*
X254491Y14403D01*
X254923Y16350D01*
X255183Y18328D01*
X255270Y20320D01*
X255270Y515620D01*
X255178Y517723D01*
X254903Y519810D01*
X254448Y521865D01*
X253815Y523873D01*
X253009Y525818D01*
X252037Y527685D01*
X250906Y529460D01*
X249625Y531130D01*
X248203Y532683D01*
X246650Y534105D01*
X244980Y535386D01*
X243205Y536517D01*
X241338Y537489D01*
X239393Y538295D01*
X237385Y538928D01*
X235330Y539383D01*
X233243Y539658D01*
X231140Y539750D01*
X211709Y539750D01*
X211709Y481330D01*
X45720Y481330D01*
X45720Y539750D01*
X24130Y539750D01*
X22027Y539658D01*
X19940Y539383D01*
X17885Y538928D01*
X15877Y538295D01*
X13932Y537489D01*
X12065Y536517D01*
X10290Y535386D01*
X8620Y534105D01*
X7068Y532683D01*
X5645Y531130D01*
X4364Y529460D01*
X3233Y527685D01*
X2261Y525818D01*
X1455Y523873D01*
X822Y521865D01*
X367Y519810D01*
X92Y517723D01*
X0Y515620D01*
X0Y22860D01*
X106079Y35430D02*
X106693Y35361D01*
X107295Y35223D01*
X107878Y35019D01*
X108435Y34751D01*
X108958Y34423D01*
X109441Y34038D01*
X109878Y33601D01*
X110263Y33118D01*
X110591Y32595D01*
X110859Y32038D01*
X111063Y31455D01*
X111201Y30853D01*
X111270Y30239D01*
X111270Y29621D01*
X111201Y29007D01*
X111063Y28405D01*
X110859Y27822D01*
X110591Y27265D01*
X110263Y26742D01*
X109878Y26259D01*
X109441Y25823D01*
X108958Y25437D01*
X108435Y25109D01*
X107878Y24841D01*
X107295Y24637D01*
X106693Y24499D01*
X106079Y24430D01*
X105461Y24430D01*
X104847Y24499D01*
X104245Y24637D01*
X103662Y24841D01*
X103105Y25109D01*
X102582Y25437D01*
X102099Y25823D01*
X101663Y26259D01*
X101277Y26742D01*
X100949Y27265D01*
X100681Y27822D01*
X100477Y28405D01*
X100339Y29007D01*
X100270Y29621D01*
X100270Y30239D01*
X100339Y30853D01*
X100477Y31455D01*
X100681Y32038D01*
X100949Y32595D01*
X101277Y33118D01*
X101663Y33601D01*
X102099Y34038D01*
X102582Y34423D01*
X103105Y34751D01*
X103662Y35019D01*
X104245Y35223D01*
X104847Y35361D01*
X105461Y35430D01*
X106079Y35430D01*
X151079Y35430D02*
X151693Y35361D01*
X152295Y35223D01*
X152878Y35019D01*
X153435Y34751D01*
X153958Y34423D01*
X154441Y34038D01*
X154878Y33601D01*
X155263Y33118D01*
X155591Y32595D01*
X155859Y32038D01*
X156063Y31455D01*
X156201Y30853D01*
X156270Y30239D01*
X156270Y29621D01*
X156201Y29007D01*
X156063Y28405D01*
X155859Y27822D01*
X155591Y27265D01*
X155263Y26742D01*
X154878Y26259D01*
X154441Y25823D01*
X153958Y25437D01*
X153435Y25109D01*
X152878Y24841D01*
X152295Y24637D01*
X151693Y24499D01*
X151079Y24430D01*
X150461Y24430D01*
X149847Y24499D01*
X149245Y24637D01*
X148662Y24841D01*
X148105Y25109D01*
X147582Y25437D01*
X147099Y25823D01*
X146663Y26259D01*
X146277Y26742D01*
X145949Y27265D01*
X145681Y27822D01*
X145477Y28405D01*
X145339Y29007D01*
X145270Y29621D01*
X145270Y30239D01*
X145339Y30853D01*
X145477Y31455D01*
X145681Y32038D01*
X145949Y32595D01*
X146277Y33118D01*
X146663Y33601D01*
X147099Y34038D01*
X147582Y34423D01*
X148105Y34751D01*
X148662Y35019D01*
X149245Y35223D01*
X149847Y35361D01*
X150461Y35430D01*
X151079Y35430D01*
X187032Y37230D02*
X187552Y37162D01*
X188059Y37026D01*
X188543Y36825D01*
X188997Y36563D01*
X189413Y36244D01*
X189784Y35873D01*
X190103Y35457D01*
X190365Y35003D01*
X190566Y34519D01*
X190702Y34012D01*
X190770Y33492D01*
X190770Y32968D01*
X190702Y32448D01*
X190566Y31941D01*
X190365Y31457D01*
X190103Y31003D01*
X189784Y30587D01*
X189413Y30216D01*
X188997Y29897D01*
X188543Y29635D01*
X188059Y29434D01*
X187552Y29298D01*
X187032Y29230D01*
X186508Y29230D01*
X185988Y29298D01*
X185481Y29434D01*
X184997Y29635D01*
X184543Y29897D01*
X184127Y30216D01*
X183756Y30587D01*
X183437Y31003D01*
X183175Y31457D01*
X182974Y31941D01*
X182838Y32448D01*
X182770Y32968D01*
X182770Y33492D01*
X182838Y34012D01*
X182974Y34519D01*
X183175Y35003D01*
X183437Y35457D01*
X183756Y35873D01*
X184127Y36244D01*
X184543Y36563D01*
X184997Y36825D01*
X185481Y37026D01*
X185988Y37162D01*
X186508Y37230D01*
X187032Y37230D01*
X187032Y41230D02*
X187552Y41162D01*
X188059Y41026D01*
X188543Y40825D01*
X188997Y40563D01*
X189413Y40244D01*
X189784Y39873D01*
X190103Y39457D01*
X190365Y39003D01*
X190566Y38519D01*
X190702Y38012D01*
X190770Y37492D01*
X190770Y36968D01*
X190702Y36448D01*
X190566Y35941D01*
X190365Y35457D01*
X190103Y35003D01*
X189784Y34587D01*
X189413Y34216D01*
X188997Y33897D01*
X188543Y33635D01*
X188059Y33434D01*
X187552Y33298D01*
X187032Y33230D01*
X186508Y33230D01*
X185988Y33298D01*
X185481Y33434D01*
X184997Y33635D01*
X184543Y33897D01*
X184127Y34216D01*
X183756Y34587D01*
X183437Y35003D01*
X183175Y35457D01*
X182974Y35941D01*
X182838Y36448D01*
X182770Y36968D01*
X182770Y37492D01*
X182838Y38012D01*
X182974Y38519D01*
X183175Y39003D01*
X183437Y39457D01*
X183756Y39873D01*
X184127Y40244D01*
X184543Y40563D01*
X184997Y40825D01*
X185481Y41026D01*
X185988Y41162D01*
X186508Y41230D01*
X187032Y41230D01*
X187032Y29230D02*
X187552Y29162D01*
X188059Y29026D01*
X188543Y28825D01*
X188997Y28563D01*
X189413Y28244D01*
X189784Y27873D01*
X190103Y27457D01*
X190365Y27003D01*
X190566Y26519D01*
X190702Y26012D01*
X190770Y25492D01*
X190770Y24968D01*
X190702Y24448D01*
X190566Y23941D01*
X190365Y23457D01*
X190103Y23003D01*
X189784Y22587D01*
X189413Y22216D01*
X188997Y21897D01*
X188543Y21635D01*
X188059Y21434D01*
X187552Y21298D01*
X187032Y21230D01*
X186508Y21230D01*
X185988Y21298D01*
X185481Y21434D01*
X184997Y21635D01*
X184543Y21897D01*
X184127Y22216D01*
X183756Y22587D01*
X183437Y23003D01*
X183175Y23457D01*
X182974Y23941D01*
X182838Y24448D01*
X182770Y24968D01*
X182770Y25492D01*
X182838Y26012D01*
X182974Y26519D01*
X183175Y27003D01*
X183437Y27457D01*
X183756Y27873D01*
X184127Y28244D01*
X184543Y28563D01*
X184997Y28825D01*
X185481Y29026D01*
X185988Y29162D01*
X186508Y29230D01*
X187032Y29230D01*
X187032Y25230D02*
X187552Y25162D01*
X188059Y25026D01*
X188543Y24825D01*
X188997Y24563D01*
X189413Y24244D01*
X189784Y23873D01*
X190103Y23457D01*
X190365Y23003D01*
X190566Y22519D01*
X190702Y22012D01*
X190770Y21492D01*
X190770Y20968D01*
X190702Y20448D01*
X190566Y19941D01*
X190365Y19457D01*
X190103Y19003D01*
X189784Y18587D01*
X189413Y18216D01*
X188997Y17897D01*
X188543Y17635D01*
X188059Y17434D01*
X187552Y17298D01*
X187032Y17230D01*
X186508Y17230D01*
X185988Y17298D01*
X185481Y17434D01*
X184997Y17635D01*
X184543Y17897D01*
X184127Y18216D01*
X183756Y18587D01*
X183437Y19003D01*
X183175Y19457D01*
X182974Y19941D01*
X182838Y20448D01*
X182770Y20968D01*
X182770Y21492D01*
X182838Y22012D01*
X182974Y22519D01*
X183175Y23003D01*
X183437Y23457D01*
X183756Y23873D01*
X184127Y24244D01*
X184543Y24563D01*
X184997Y24825D01*
X185481Y25026D01*
X185988Y25162D01*
X186508Y25230D01*
X187032Y25230D01*
X70032Y37230D02*
X70552Y37162D01*
X71059Y37026D01*
X71543Y36825D01*
X71997Y36563D01*
X72413Y36244D01*
X72784Y35873D01*
X73103Y35457D01*
X73365Y35003D01*
X73566Y34519D01*
X73702Y34012D01*
X73770Y33492D01*
X73770Y32968D01*
X73702Y32448D01*
X73566Y31941D01*
X73365Y31457D01*
X73103Y31003D01*
X72784Y30587D01*
X72413Y30216D01*
X71997Y29897D01*
X71543Y29635D01*
X71059Y29434D01*
X70552Y29298D01*
X70032Y29230D01*
X69508Y29230D01*
X68988Y29298D01*
X68481Y29434D01*
X67997Y29635D01*
X67543Y29897D01*
X67127Y30216D01*
X66756Y30587D01*
X66437Y31003D01*
X66175Y31457D01*
X65974Y31941D01*
X65838Y32448D01*
X65770Y32968D01*
X65770Y33492D01*
X65838Y34012D01*
X65974Y34519D01*
X66175Y35003D01*
X66437Y35457D01*
X66756Y35873D01*
X67127Y36244D01*
X67543Y36563D01*
X67997Y36825D01*
X68481Y37026D01*
X68988Y37162D01*
X69508Y37230D01*
X70032Y37230D01*
X70032Y41230D02*
X70552Y41162D01*
X71059Y41026D01*
X71543Y40825D01*
X71997Y40563D01*
X72413Y40244D01*
X72784Y39873D01*
X73103Y39457D01*
X73365Y39003D01*
X73566Y38519D01*
X73702Y38012D01*
X73770Y37492D01*
X73770Y36968D01*
X73702Y36448D01*
X73566Y35941D01*
X73365Y35457D01*
X73103Y35003D01*
X72784Y34587D01*
X72413Y34216D01*
X71997Y33897D01*
X71543Y33635D01*
X71059Y33434D01*
X70552Y33298D01*
X70032Y33230D01*
X69508Y33230D01*
X68988Y33298D01*
X68481Y33434D01*
X67997Y33635D01*
X67543Y33897D01*
X67127Y34216D01*
X66756Y34587D01*
X66437Y35003D01*
X66175Y35457D01*
X65974Y35941D01*
X65838Y36448D01*
X65770Y36968D01*
X65770Y37492D01*
X65838Y38012D01*
X65974Y38519D01*
X66175Y39003D01*
X66437Y39457D01*
X66756Y39873D01*
X67127Y40244D01*
X67543Y40563D01*
X67997Y40825D01*
X68481Y41026D01*
X68988Y41162D01*
X69508Y41230D01*
X70032Y41230D01*
X70032Y29230D02*
X70552Y29162D01*
X71059Y29026D01*
X71543Y28825D01*
X71997Y28563D01*
X72413Y28244D01*
X72784Y27873D01*
X73103Y27457D01*
X73365Y27003D01*
X73566Y26519D01*
X73702Y26012D01*
X73770Y25492D01*
X73770Y24968D01*
X73702Y24448D01*
X73566Y23941D01*
X73365Y23457D01*
X73103Y23003D01*
X72784Y22587D01*
X72413Y22216D01*
X71997Y21897D01*
X71543Y21635D01*
X71059Y21434D01*
X70552Y21298D01*
X70032Y21230D01*
X69508Y21230D01*
X68988Y21298D01*
X68481Y21434D01*
X67997Y21635D01*
X67543Y21897D01*
X67127Y22216D01*
X66756Y22587D01*
X66437Y23003D01*
X66175Y23457D01*
X65974Y23941D01*
X65838Y24448D01*
X65770Y24968D01*
X65770Y25492D01*
X65838Y26012D01*
X65974Y26519D01*
X66175Y27003D01*
X66437Y27457D01*
X66756Y27873D01*
X67127Y28244D01*
X67543Y28563D01*
X67997Y28825D01*
X68481Y29026D01*
X68988Y29162D01*
X69508Y29230D01*
X70032Y29230D01*
X70032Y25230D02*
X70552Y25162D01*
X71059Y25026D01*
X71543Y24825D01*
X71997Y24563D01*
X72413Y24244D01*
X72784Y23873D01*
X73103Y23457D01*
X73365Y23003D01*
X73566Y22519D01*
X73702Y22012D01*
X73770Y21492D01*
X73770Y20968D01*
X73702Y20448D01*
X73566Y19941D01*
X73365Y19457D01*
X73103Y19003D01*
X72784Y18587D01*
X72413Y18216D01*
X71997Y17897D01*
X71543Y17635D01*
X71059Y17434D01*
X70552Y17298D01*
X70032Y17230D01*
X69508Y17230D01*
X68988Y17298D01*
X68481Y17434D01*
X67997Y17635D01*
X67543Y17897D01*
X67127Y18216D01*
X66756Y18587D01*
X66437Y19003D01*
X66175Y19457D01*
X65974Y19941D01*
X65838Y20448D01*
X65770Y20968D01*
X65770Y21492D01*
X65838Y22012D01*
X65974Y22519D01*
X66175Y23003D01*
X66437Y23457D01*
X66756Y23873D01*
X67127Y24244D01*
X67543Y24563D01*
X67997Y24825D01*
X68481Y25026D01*
X68988Y25162D01*
X69508Y25230D01*
X70032Y25230D01*
M02*
