M48
;GenerationSoftware,Autodesk,EAGLE,9.6.2*%
;CreationDate,2023-02-28T06:24:37Z*%
FMAT,2
ICI,OFF
METRIC,TZ,000.000
T4C0.300
T3C0.800
T2C1.016
T1C1.100
%
G90
M71
T1
X10577Y2993
X15077Y2993
T2
X1397Y25908
X1397Y43688
X1397Y41148
X1397Y38608
X1397Y36068
X1397Y33528
X1397Y30988
X1397Y28448
X1397Y23368
X1397Y20828
X24257Y43688
X24257Y41148
X24257Y38608
X24257Y36068
X24257Y33528
X24257Y30988
X24257Y28448
X24257Y25908
X24257Y23368
X24257Y20828
T3
X18677Y3723
X18677Y3323
X18677Y2523
X18677Y2123
X6977Y3323
X6977Y3723
X6977Y2523
X6977Y2123
X6977Y2923
X18677Y2923
T4
X8763Y27559
X8890Y30099
X8763Y33655
X6080Y34791
X11811Y27559
X16764Y36322
X7874Y43180
X11684Y43180
X15494Y43053
X13208Y18288
X9144Y22225
X23876Y3556
X17526Y6985
X19050Y6985
X1397Y18796
X1397Y17018
X1397Y14732
X15113Y5715
X15113Y6477
X15113Y4953
X20828Y1016
X22479Y3683
X23495Y7239
X23876Y15748
X9652Y8890
X14478Y12954
X3302Y44958
X5207Y19431
X4572Y46355
X24765Y1778
X24892Y6604
X11938Y23622
X6477Y41783
X1270Y51181
X24257Y50673
X2286Y50419
X10668Y23622
X6477Y40513
X22352Y50673
X2413Y16002
X8128Y39243
X8075Y35698
X6858Y9652
X6223Y32893
X5969Y31750
X19558Y36830
X7747Y10033
X13716Y36703
X14986Y34417
X13716Y34417
X10795Y5715
X13589Y3810
X3175Y24638
X1270Y47498
X4699Y47498
X6223Y47498
X7874Y47498
X9652Y47498
X11430Y47498
X13081Y47498
X14859Y47498
X16510Y47498
X18542Y47498
X22479Y47371
X19685Y46736
X1270Y45974
X3048Y39370
X7874Y44958
X11684Y44958
X14478Y23622
X15494Y44958
X16764Y28448
X16764Y33528
X16764Y38608
X16764Y31115
X19050Y12827
X17018Y14478
X9271Y14351
X20701Y10541
X22987Y9906
X20574Y15240
X20828Y19431
X18796Y21844
X18288Y27305
M30