G04 EAGLE Gerber RS-274X export*
G75*
%MOMM*%
%FSLAX34Y34*%
%LPD*%
%INTop Copper*%
%IPPOS*%
%AMOC8*
5,1,8,0,0,1.08239X$1,22.5*%
G01*
%ADD10R,1.200000X0.550000*%
%ADD11R,1.000000X1.100000*%
%ADD12R,1.000000X0.900000*%
%ADD13R,0.600000X0.540000*%
%ADD14C,1.879600*%
%ADD15R,0.800000X1.000000*%
%ADD16R,1.000000X1.400000*%
%ADD17R,0.540000X0.600000*%
%ADD18C,0.300000*%
%ADD19R,0.482600X1.117600*%
%ADD20R,1.100000X1.000000*%
%ADD21R,0.500000X0.500000*%
%ADD22R,1.500000X0.800000*%
%ADD23R,0.800000X1.500000*%
%ADD24R,4.800000X4.800000*%
%ADD25R,0.500000X0.350000*%
%ADD26R,2.403600X2.368000*%
%ADD27C,0.087500*%
%ADD28R,0.700000X1.600000*%
%ADD29C,0.270000*%
%ADD30R,1.600000X0.940000*%
%ADD31C,0.037600*%
%ADD32R,0.600000X1.450000*%
%ADD33R,0.300000X1.450000*%
%ADD34C,1.158000*%
%ADD35C,0.706400*%
%ADD36C,0.508000*%
%ADD37C,0.200000*%
%ADD38C,0.609600*%
%ADD39C,0.406400*%
%ADD40C,0.304800*%
%ADD41C,0.254000*%

G36*
X232423Y226D02*
X232423Y226D01*
X232440Y224D01*
X235524Y467D01*
X235558Y477D01*
X235612Y484D01*
X241479Y2390D01*
X241512Y2410D01*
X241585Y2444D01*
X246576Y6070D01*
X246601Y6099D01*
X246660Y6154D01*
X250286Y11145D01*
X250301Y11181D01*
X250340Y11251D01*
X252246Y17118D01*
X252249Y17154D01*
X252263Y17206D01*
X252506Y20290D01*
X252504Y20303D01*
X252507Y20320D01*
X252507Y29579D01*
X252501Y29604D01*
X252504Y29630D01*
X252482Y29687D01*
X252468Y29747D01*
X252451Y29767D01*
X252442Y29791D01*
X252397Y29833D01*
X252358Y29881D01*
X252334Y29892D01*
X252315Y29909D01*
X252256Y29927D01*
X252199Y29952D01*
X252174Y29951D01*
X252149Y29958D01*
X252088Y29948D01*
X252026Y29945D01*
X252004Y29933D01*
X251978Y29929D01*
X251907Y29880D01*
X251874Y29863D01*
X251868Y29855D01*
X251858Y29848D01*
X251124Y29114D01*
X245786Y23775D01*
X236686Y23775D01*
X236636Y23764D01*
X236585Y23762D01*
X236553Y23744D01*
X236517Y23736D01*
X236478Y23703D01*
X236433Y23679D01*
X236412Y23649D01*
X236384Y23626D01*
X236363Y23579D01*
X236333Y23537D01*
X236325Y23495D01*
X236313Y23467D01*
X236314Y23437D01*
X236306Y23395D01*
X236306Y22918D01*
X235413Y22025D01*
X222149Y22025D01*
X221256Y22918D01*
X221256Y29682D01*
X222149Y30575D01*
X235413Y30575D01*
X236306Y29682D01*
X236306Y29205D01*
X236317Y29155D01*
X236319Y29104D01*
X236337Y29072D01*
X236345Y29036D01*
X236378Y28997D01*
X236402Y28952D01*
X236432Y28931D01*
X236455Y28903D01*
X236502Y28882D01*
X236544Y28852D01*
X236586Y28844D01*
X236614Y28832D01*
X236644Y28833D01*
X236686Y28825D01*
X243537Y28825D01*
X243611Y28842D01*
X243685Y28855D01*
X243696Y28862D01*
X243705Y28864D01*
X243734Y28888D01*
X243806Y28936D01*
X247554Y32684D01*
X247594Y32749D01*
X247638Y32811D01*
X247640Y32823D01*
X247645Y32832D01*
X247649Y32869D01*
X247665Y32953D01*
X247665Y137767D01*
X247648Y137841D01*
X247635Y137915D01*
X247628Y137926D01*
X247626Y137935D01*
X247602Y137964D01*
X247554Y138036D01*
X247356Y138234D01*
X247291Y138274D01*
X247229Y138318D01*
X247217Y138320D01*
X247208Y138325D01*
X247171Y138329D01*
X247087Y138345D01*
X239537Y138345D01*
X237765Y140117D01*
X237765Y149623D01*
X239537Y151395D01*
X249043Y151395D01*
X250815Y149623D01*
X250815Y142073D01*
X250832Y141999D01*
X250845Y141925D01*
X250852Y141914D01*
X250854Y141905D01*
X250878Y141876D01*
X250926Y141804D01*
X251124Y141606D01*
X251858Y140872D01*
X251880Y140859D01*
X251896Y140839D01*
X251953Y140814D01*
X252005Y140781D01*
X252031Y140779D01*
X252055Y140768D01*
X252116Y140770D01*
X252178Y140764D01*
X252202Y140774D01*
X252228Y140775D01*
X252282Y140804D01*
X252340Y140826D01*
X252357Y140845D01*
X252380Y140857D01*
X252415Y140908D01*
X252457Y140953D01*
X252465Y140978D01*
X252480Y140999D01*
X252496Y141084D01*
X252507Y141119D01*
X252505Y141129D01*
X252507Y141141D01*
X252507Y201852D01*
X252501Y201877D01*
X252504Y201903D01*
X252482Y201961D01*
X252468Y202021D01*
X252451Y202041D01*
X252442Y202065D01*
X252397Y202107D01*
X252358Y202155D01*
X252334Y202165D01*
X252315Y202183D01*
X252256Y202200D01*
X252199Y202225D01*
X252174Y202225D01*
X252149Y202232D01*
X252088Y202221D01*
X252026Y202219D01*
X252004Y202207D01*
X251978Y202202D01*
X251907Y202154D01*
X251874Y202136D01*
X251868Y202128D01*
X251858Y202121D01*
X248757Y199020D01*
X244743Y197357D01*
X240397Y197357D01*
X236383Y199020D01*
X233310Y202093D01*
X231647Y206107D01*
X231647Y210453D01*
X233310Y214467D01*
X235337Y216494D01*
X235364Y216537D01*
X235398Y216575D01*
X235409Y216610D01*
X235428Y216641D01*
X235433Y216692D01*
X235448Y216741D01*
X235441Y216777D01*
X235445Y216814D01*
X235427Y216861D01*
X235418Y216912D01*
X235394Y216947D01*
X235383Y216975D01*
X235361Y216996D01*
X235337Y217032D01*
X229928Y222441D01*
X229906Y222454D01*
X229890Y222474D01*
X229833Y222499D01*
X229781Y222532D01*
X229755Y222534D01*
X229732Y222545D01*
X229670Y222543D01*
X229608Y222548D01*
X229584Y222539D01*
X229558Y222538D01*
X229504Y222509D01*
X229446Y222487D01*
X229429Y222468D01*
X229406Y222456D01*
X229371Y222405D01*
X229329Y222360D01*
X229321Y222335D01*
X229306Y222314D01*
X229290Y222229D01*
X229279Y222194D01*
X229281Y222184D01*
X229279Y222172D01*
X229279Y187507D01*
X229290Y187457D01*
X229292Y187406D01*
X229310Y187374D01*
X229318Y187338D01*
X229351Y187299D01*
X229375Y187254D01*
X229405Y187233D01*
X229428Y187204D01*
X229475Y187183D01*
X229517Y187154D01*
X229559Y187146D01*
X229587Y187133D01*
X229617Y187135D01*
X229659Y187126D01*
X230086Y187126D01*
X230979Y186233D01*
X230979Y178970D01*
X230086Y178077D01*
X225587Y178077D01*
X225562Y178071D01*
X225536Y178074D01*
X225479Y178052D01*
X225418Y178037D01*
X225398Y178021D01*
X225374Y178012D01*
X225332Y177967D01*
X225285Y177927D01*
X225274Y177904D01*
X225257Y177885D01*
X225239Y177826D01*
X225214Y177769D01*
X225215Y177743D01*
X225207Y177719D01*
X225218Y177658D01*
X225220Y177596D01*
X225233Y177573D01*
X225237Y177548D01*
X225285Y177476D01*
X225303Y177444D01*
X225311Y177438D01*
X225318Y177428D01*
X225652Y177094D01*
X225716Y177054D01*
X225778Y177011D01*
X225790Y177008D01*
X225799Y177003D01*
X225836Y176999D01*
X225920Y176983D01*
X233349Y176983D01*
X235121Y175211D01*
X235121Y165705D01*
X233349Y163934D01*
X223843Y163934D01*
X222071Y165705D01*
X222071Y173376D01*
X222054Y173450D01*
X222041Y173525D01*
X222034Y173535D01*
X222032Y173545D01*
X222008Y173574D01*
X221960Y173645D01*
X219035Y176570D01*
X219035Y177697D01*
X219024Y177746D01*
X219022Y177797D01*
X219004Y177830D01*
X218996Y177865D01*
X218963Y177905D01*
X218939Y177950D01*
X218909Y177971D01*
X218886Y177999D01*
X218839Y178020D01*
X218797Y178049D01*
X218755Y178057D01*
X218728Y178070D01*
X218697Y178069D01*
X218655Y178077D01*
X214782Y178077D01*
X213889Y178970D01*
X213889Y186233D01*
X214782Y187126D01*
X221446Y187126D01*
X222165Y186407D01*
X222209Y186380D01*
X222246Y186345D01*
X222281Y186335D01*
X222312Y186315D01*
X222363Y186311D01*
X222412Y186296D01*
X222448Y186302D01*
X222485Y186299D01*
X222533Y186317D01*
X222583Y186326D01*
X222618Y186350D01*
X222647Y186361D01*
X222668Y186383D01*
X222703Y186407D01*
X223422Y187126D01*
X223849Y187126D01*
X223899Y187138D01*
X223950Y187140D01*
X223982Y187157D01*
X224018Y187166D01*
X224057Y187198D01*
X224102Y187223D01*
X224123Y187253D01*
X224151Y187276D01*
X224172Y187323D01*
X224202Y187364D01*
X224210Y187406D01*
X224222Y187434D01*
X224221Y187465D01*
X224229Y187507D01*
X224229Y222893D01*
X224212Y222967D01*
X224199Y223041D01*
X224192Y223052D01*
X224190Y223061D01*
X224166Y223090D01*
X224118Y223162D01*
X207346Y239934D01*
X207281Y239974D01*
X207219Y240018D01*
X207207Y240020D01*
X207198Y240025D01*
X207161Y240029D01*
X207077Y240045D01*
X179371Y240045D01*
X179346Y240039D01*
X179320Y240042D01*
X179263Y240020D01*
X179202Y240006D01*
X179182Y239989D01*
X179158Y239980D01*
X179116Y239935D01*
X179069Y239896D01*
X179058Y239872D01*
X179041Y239853D01*
X179023Y239794D01*
X178998Y239737D01*
X178999Y239712D01*
X178991Y239687D01*
X179002Y239626D01*
X179004Y239564D01*
X179017Y239542D01*
X179021Y239516D01*
X179069Y239445D01*
X179087Y239412D01*
X179095Y239406D01*
X179102Y239396D01*
X180706Y237792D01*
X183182Y235316D01*
X183247Y235276D01*
X183309Y235232D01*
X183321Y235230D01*
X183330Y235225D01*
X183367Y235221D01*
X183451Y235205D01*
X195722Y235205D01*
X195796Y235222D01*
X195871Y235235D01*
X195881Y235242D01*
X195890Y235244D01*
X195919Y235268D01*
X195991Y235316D01*
X196339Y235665D01*
X201421Y235665D01*
X203105Y233981D01*
X203105Y228299D01*
X201421Y226615D01*
X196339Y226615D01*
X195991Y226964D01*
X195926Y227004D01*
X195864Y227048D01*
X195852Y227050D01*
X195843Y227055D01*
X195806Y227059D01*
X195722Y227075D01*
X179926Y227075D01*
X174958Y232044D01*
X174893Y232084D01*
X174831Y232128D01*
X174819Y232130D01*
X174810Y232135D01*
X174773Y232139D01*
X174689Y232155D01*
X149879Y232155D01*
X149854Y232149D01*
X149828Y232152D01*
X149770Y232130D01*
X149710Y232116D01*
X149690Y232099D01*
X149666Y232090D01*
X149624Y232045D01*
X149577Y232006D01*
X149566Y231982D01*
X149549Y231963D01*
X149531Y231904D01*
X149506Y231847D01*
X149507Y231822D01*
X149499Y231797D01*
X149510Y231736D01*
X149512Y231674D01*
X149525Y231652D01*
X149529Y231626D01*
X149577Y231555D01*
X149595Y231522D01*
X149603Y231516D01*
X149610Y231506D01*
X150105Y231012D01*
X150105Y214748D01*
X149212Y213855D01*
X139948Y213855D01*
X139055Y214748D01*
X139055Y231012D01*
X139948Y231905D01*
X140135Y231905D01*
X140185Y231916D01*
X140236Y231918D01*
X140268Y231936D01*
X140304Y231944D01*
X140343Y231977D01*
X140388Y232001D01*
X140409Y232031D01*
X140437Y232054D01*
X140458Y232101D01*
X140488Y232143D01*
X140496Y232185D01*
X140508Y232213D01*
X140507Y232243D01*
X140515Y232285D01*
X140515Y233176D01*
X140498Y233250D01*
X140485Y233325D01*
X140478Y233335D01*
X140476Y233345D01*
X140452Y233373D01*
X140404Y233445D01*
X139723Y234125D01*
X139723Y237511D01*
X139711Y237563D01*
X139710Y237599D01*
X139700Y237616D01*
X139693Y237660D01*
X139686Y237670D01*
X139684Y237680D01*
X139660Y237708D01*
X139612Y237780D01*
X135188Y242204D01*
X135123Y242244D01*
X135061Y242288D01*
X135049Y242290D01*
X135040Y242295D01*
X135003Y242299D01*
X134919Y242315D01*
X83121Y242315D01*
X83047Y242298D01*
X82972Y242285D01*
X82962Y242278D01*
X82952Y242276D01*
X82924Y242252D01*
X82852Y242204D01*
X70264Y229615D01*
X56515Y229615D01*
X56465Y229604D01*
X56414Y229602D01*
X56382Y229584D01*
X56346Y229576D01*
X56307Y229543D01*
X56262Y229519D01*
X56241Y229489D01*
X56213Y229466D01*
X56192Y229419D01*
X56162Y229377D01*
X56154Y229335D01*
X56142Y229307D01*
X56143Y229277D01*
X56135Y229235D01*
X56135Y226567D01*
X56146Y226517D01*
X56148Y226466D01*
X56166Y226434D01*
X56174Y226398D01*
X56207Y226359D01*
X56231Y226314D01*
X56261Y226293D01*
X56284Y226265D01*
X56331Y226244D01*
X56373Y226214D01*
X56415Y226206D01*
X56443Y226194D01*
X56473Y226195D01*
X56515Y226187D01*
X64720Y226187D01*
X65613Y225294D01*
X65613Y200350D01*
X64720Y199457D01*
X56515Y199457D01*
X56465Y199446D01*
X56414Y199444D01*
X56382Y199426D01*
X56346Y199418D01*
X56307Y199385D01*
X56262Y199361D01*
X56241Y199331D01*
X56213Y199308D01*
X56192Y199261D01*
X56162Y199219D01*
X56154Y199177D01*
X56142Y199149D01*
X56143Y199119D01*
X56135Y199077D01*
X56135Y197554D01*
X56147Y197501D01*
X56148Y197472D01*
X56156Y197458D01*
X56165Y197405D01*
X56172Y197395D01*
X56174Y197385D01*
X56198Y197357D01*
X56246Y197285D01*
X57127Y196405D01*
X57127Y192215D01*
X54165Y189253D01*
X49975Y189253D01*
X47013Y192215D01*
X47013Y196405D01*
X47894Y197285D01*
X47934Y197350D01*
X47978Y197412D01*
X47980Y197424D01*
X47985Y197432D01*
X47989Y197469D01*
X47992Y197486D01*
X47998Y197500D01*
X47998Y197515D01*
X48005Y197554D01*
X48005Y199077D01*
X47994Y199127D01*
X47992Y199178D01*
X47974Y199210D01*
X47966Y199246D01*
X47933Y199285D01*
X47909Y199330D01*
X47879Y199351D01*
X47856Y199379D01*
X47809Y199400D01*
X47767Y199430D01*
X47725Y199438D01*
X47697Y199450D01*
X47667Y199449D01*
X47625Y199457D01*
X39420Y199457D01*
X38527Y200350D01*
X38527Y225294D01*
X39420Y226187D01*
X47625Y226187D01*
X47675Y226198D01*
X47726Y226200D01*
X47758Y226218D01*
X47794Y226226D01*
X47833Y226259D01*
X47878Y226283D01*
X47899Y226313D01*
X47927Y226336D01*
X47948Y226383D01*
X47978Y226425D01*
X47986Y226467D01*
X47998Y226495D01*
X47997Y226525D01*
X48005Y226567D01*
X48005Y229235D01*
X47994Y229285D01*
X47992Y229336D01*
X47974Y229368D01*
X47966Y229404D01*
X47933Y229443D01*
X47909Y229488D01*
X47879Y229509D01*
X47856Y229537D01*
X47809Y229558D01*
X47767Y229588D01*
X47725Y229596D01*
X47697Y229608D01*
X47667Y229607D01*
X47625Y229615D01*
X24363Y229615D01*
X24301Y229601D01*
X24238Y229594D01*
X24218Y229581D01*
X24194Y229576D01*
X24145Y229535D01*
X24092Y229501D01*
X24077Y229479D01*
X24061Y229466D01*
X24045Y229431D01*
X24012Y229381D01*
X23230Y227493D01*
X20157Y224420D01*
X16143Y222757D01*
X11797Y222757D01*
X7783Y224420D01*
X4710Y227493D01*
X3494Y230428D01*
X3487Y230439D01*
X3484Y230451D01*
X3448Y230495D01*
X3430Y230527D01*
X3416Y230537D01*
X3393Y230569D01*
X3382Y230575D01*
X3374Y230585D01*
X3306Y230615D01*
X3301Y230618D01*
X3289Y230627D01*
X3282Y230628D01*
X3240Y230650D01*
X3227Y230651D01*
X3215Y230656D01*
X3151Y230653D01*
X3147Y230654D01*
X3143Y230654D01*
X3138Y230653D01*
X3067Y230655D01*
X3055Y230650D01*
X3042Y230649D01*
X2982Y230617D01*
X2974Y230615D01*
X2968Y230610D01*
X2910Y230583D01*
X2901Y230573D01*
X2890Y230567D01*
X2854Y230516D01*
X2841Y230505D01*
X2834Y230489D01*
X2801Y230448D01*
X2798Y230436D01*
X2790Y230425D01*
X2779Y230368D01*
X2770Y230346D01*
X2771Y230323D01*
X2763Y230283D01*
X2763Y22860D01*
X2766Y22847D01*
X2764Y22830D01*
X3038Y19348D01*
X3049Y19314D01*
X3055Y19261D01*
X5207Y12638D01*
X5227Y12605D01*
X5261Y12532D01*
X9354Y6898D01*
X9383Y6873D01*
X9438Y6814D01*
X15072Y2721D01*
X15108Y2706D01*
X15178Y2667D01*
X21801Y515D01*
X21836Y512D01*
X21888Y498D01*
X25370Y224D01*
X25383Y226D01*
X25400Y223D01*
X232410Y223D01*
X232423Y226D01*
G37*
G36*
X222500Y232166D02*
X222500Y232166D01*
X222526Y232167D01*
X222580Y232196D01*
X222638Y232218D01*
X222655Y232237D01*
X222678Y232249D01*
X222713Y232300D01*
X222755Y232345D01*
X222763Y232370D01*
X222778Y232391D01*
X222793Y232472D01*
X222798Y232483D01*
X222798Y232489D01*
X222805Y232511D01*
X222803Y232521D01*
X222805Y232533D01*
X222805Y247717D01*
X222788Y247791D01*
X222775Y247865D01*
X222768Y247876D01*
X222766Y247885D01*
X222742Y247914D01*
X222694Y247986D01*
X220624Y250056D01*
X220602Y250069D01*
X220586Y250089D01*
X220529Y250114D01*
X220477Y250147D01*
X220451Y250149D01*
X220427Y250160D01*
X220366Y250158D01*
X220304Y250164D01*
X220280Y250154D01*
X220254Y250153D01*
X220200Y250124D01*
X220142Y250102D01*
X220125Y250083D01*
X220102Y250071D01*
X220067Y250020D01*
X220025Y249975D01*
X220017Y249950D01*
X220002Y249929D01*
X219986Y249844D01*
X219975Y249809D01*
X219977Y249799D01*
X219975Y249787D01*
X219975Y248809D01*
X218971Y247805D01*
X201929Y247805D01*
X200925Y248809D01*
X200925Y259251D01*
X201730Y260056D01*
X201741Y260074D01*
X201752Y260083D01*
X201762Y260105D01*
X201791Y260137D01*
X201802Y260172D01*
X201821Y260203D01*
X201826Y260254D01*
X201841Y260303D01*
X201834Y260339D01*
X201838Y260376D01*
X201820Y260423D01*
X201811Y260474D01*
X201787Y260509D01*
X201776Y260538D01*
X201754Y260558D01*
X201730Y260594D01*
X200925Y261398D01*
X200925Y272062D01*
X201675Y272811D01*
X201702Y272854D01*
X201736Y272892D01*
X201747Y272927D01*
X201766Y272958D01*
X201771Y273009D01*
X201786Y273058D01*
X201779Y273094D01*
X201783Y273131D01*
X201765Y273178D01*
X201756Y273229D01*
X201732Y273264D01*
X201721Y273293D01*
X201699Y273314D01*
X201675Y273349D01*
X200925Y274098D01*
X200925Y284762D01*
X201675Y285511D01*
X201702Y285554D01*
X201736Y285592D01*
X201747Y285627D01*
X201766Y285658D01*
X201771Y285709D01*
X201786Y285758D01*
X201779Y285794D01*
X201783Y285831D01*
X201765Y285878D01*
X201756Y285929D01*
X201732Y285964D01*
X201721Y285993D01*
X201699Y286014D01*
X201683Y286037D01*
X201679Y286043D01*
X201678Y286045D01*
X201675Y286049D01*
X200925Y286798D01*
X200925Y297462D01*
X201675Y298211D01*
X201702Y298254D01*
X201736Y298292D01*
X201747Y298327D01*
X201766Y298358D01*
X201771Y298409D01*
X201786Y298458D01*
X201779Y298494D01*
X201783Y298531D01*
X201765Y298578D01*
X201756Y298629D01*
X201732Y298664D01*
X201721Y298693D01*
X201699Y298714D01*
X201675Y298749D01*
X200925Y299498D01*
X200925Y310162D01*
X201675Y310911D01*
X201702Y310954D01*
X201736Y310992D01*
X201747Y311027D01*
X201766Y311058D01*
X201771Y311109D01*
X201786Y311158D01*
X201779Y311194D01*
X201783Y311231D01*
X201765Y311278D01*
X201756Y311329D01*
X201732Y311364D01*
X201721Y311393D01*
X201699Y311414D01*
X201675Y311449D01*
X200925Y312198D01*
X200925Y322862D01*
X201675Y323611D01*
X201702Y323654D01*
X201736Y323692D01*
X201747Y323727D01*
X201766Y323758D01*
X201771Y323809D01*
X201786Y323858D01*
X201779Y323894D01*
X201783Y323931D01*
X201765Y323978D01*
X201756Y324029D01*
X201732Y324064D01*
X201721Y324093D01*
X201699Y324114D01*
X201675Y324149D01*
X200925Y324898D01*
X200925Y335562D01*
X201675Y336311D01*
X201702Y336354D01*
X201736Y336392D01*
X201747Y336427D01*
X201766Y336458D01*
X201771Y336509D01*
X201786Y336558D01*
X201779Y336594D01*
X201783Y336631D01*
X201765Y336678D01*
X201756Y336729D01*
X201732Y336764D01*
X201721Y336793D01*
X201699Y336814D01*
X201675Y336849D01*
X200925Y337598D01*
X200925Y348262D01*
X201675Y349011D01*
X201702Y349054D01*
X201736Y349092D01*
X201747Y349127D01*
X201766Y349158D01*
X201771Y349209D01*
X201786Y349258D01*
X201779Y349294D01*
X201783Y349331D01*
X201765Y349378D01*
X201756Y349429D01*
X201732Y349464D01*
X201721Y349493D01*
X201699Y349514D01*
X201679Y349543D01*
X201678Y349545D01*
X201677Y349546D01*
X201675Y349549D01*
X200925Y350298D01*
X200925Y360962D01*
X201675Y361711D01*
X201702Y361754D01*
X201736Y361792D01*
X201747Y361827D01*
X201766Y361858D01*
X201771Y361909D01*
X201786Y361958D01*
X201779Y361994D01*
X201783Y362031D01*
X201765Y362078D01*
X201756Y362129D01*
X201732Y362164D01*
X201721Y362193D01*
X201699Y362214D01*
X201675Y362249D01*
X200925Y362998D01*
X200925Y365395D01*
X200914Y365445D01*
X200912Y365496D01*
X200894Y365528D01*
X200886Y365564D01*
X200853Y365603D01*
X200829Y365648D01*
X200799Y365669D01*
X200776Y365697D01*
X200729Y365718D01*
X200687Y365748D01*
X200645Y365756D01*
X200617Y365768D01*
X200587Y365767D01*
X200545Y365775D01*
X200364Y365775D01*
X200290Y365758D01*
X200215Y365745D01*
X200205Y365738D01*
X200195Y365736D01*
X200167Y365712D01*
X200095Y365664D01*
X197675Y363243D01*
X193485Y363243D01*
X190523Y366205D01*
X190523Y370395D01*
X193485Y373357D01*
X197675Y373357D01*
X200095Y370936D01*
X200160Y370896D01*
X200222Y370852D01*
X200234Y370850D01*
X200242Y370845D01*
X200279Y370841D01*
X200364Y370825D01*
X200545Y370825D01*
X200595Y370836D01*
X200646Y370838D01*
X200678Y370856D01*
X200714Y370864D01*
X200753Y370897D01*
X200798Y370921D01*
X200819Y370951D01*
X200847Y370974D01*
X200868Y371021D01*
X200898Y371063D01*
X200906Y371105D01*
X200918Y371133D01*
X200917Y371163D01*
X200925Y371205D01*
X200925Y373662D01*
X201675Y374411D01*
X201702Y374454D01*
X201736Y374492D01*
X201747Y374527D01*
X201766Y374558D01*
X201771Y374609D01*
X201786Y374658D01*
X201779Y374694D01*
X201783Y374731D01*
X201765Y374778D01*
X201756Y374829D01*
X201732Y374864D01*
X201721Y374893D01*
X201699Y374914D01*
X201675Y374949D01*
X200925Y375698D01*
X200925Y386362D01*
X201675Y387111D01*
X201702Y387154D01*
X201736Y387192D01*
X201747Y387227D01*
X201766Y387258D01*
X201771Y387309D01*
X201786Y387358D01*
X201779Y387394D01*
X201783Y387431D01*
X201765Y387478D01*
X201756Y387529D01*
X201732Y387564D01*
X201721Y387593D01*
X201699Y387614D01*
X201675Y387649D01*
X200925Y388398D01*
X200925Y399062D01*
X201675Y399811D01*
X201702Y399854D01*
X201736Y399892D01*
X201747Y399927D01*
X201766Y399958D01*
X201771Y400009D01*
X201786Y400058D01*
X201779Y400094D01*
X201783Y400131D01*
X201765Y400178D01*
X201756Y400229D01*
X201732Y400264D01*
X201721Y400293D01*
X201699Y400314D01*
X201675Y400349D01*
X200925Y401098D01*
X200925Y411762D01*
X201675Y412511D01*
X201702Y412554D01*
X201736Y412592D01*
X201747Y412627D01*
X201766Y412658D01*
X201771Y412709D01*
X201786Y412758D01*
X201779Y412794D01*
X201783Y412831D01*
X201765Y412878D01*
X201756Y412929D01*
X201732Y412964D01*
X201721Y412993D01*
X201699Y413014D01*
X201675Y413049D01*
X200925Y413798D01*
X200925Y424462D01*
X201818Y425355D01*
X219085Y425355D01*
X219098Y425347D01*
X219114Y425327D01*
X219171Y425301D01*
X219223Y425269D01*
X219249Y425266D01*
X219273Y425256D01*
X219334Y425258D01*
X219396Y425252D01*
X219420Y425261D01*
X219446Y425262D01*
X219500Y425292D01*
X219558Y425314D01*
X219575Y425333D01*
X219598Y425345D01*
X219633Y425396D01*
X219675Y425441D01*
X219683Y425466D01*
X219698Y425487D01*
X219714Y425571D01*
X219725Y425607D01*
X219723Y425617D01*
X219725Y425629D01*
X219725Y427766D01*
X231364Y439405D01*
X231539Y439405D01*
X231601Y439419D01*
X231664Y439426D01*
X231684Y439439D01*
X231708Y439444D01*
X231757Y439485D01*
X231810Y439519D01*
X231825Y439541D01*
X231841Y439554D01*
X231857Y439589D01*
X231890Y439639D01*
X233310Y443067D01*
X236383Y446140D01*
X240397Y447803D01*
X244743Y447803D01*
X248757Y446140D01*
X251858Y443039D01*
X251880Y443025D01*
X251896Y443005D01*
X251953Y442980D01*
X252005Y442948D01*
X252031Y442945D01*
X252055Y442935D01*
X252116Y442937D01*
X252178Y442931D01*
X252202Y442940D01*
X252228Y442941D01*
X252282Y442971D01*
X252340Y442993D01*
X252357Y443012D01*
X252380Y443024D01*
X252415Y443074D01*
X252457Y443120D01*
X252465Y443144D01*
X252480Y443166D01*
X252496Y443250D01*
X252507Y443286D01*
X252505Y443296D01*
X252507Y443308D01*
X252507Y480020D01*
X252496Y480070D01*
X252494Y480121D01*
X252476Y480153D01*
X252468Y480189D01*
X252435Y480228D01*
X252411Y480273D01*
X252381Y480294D01*
X252358Y480322D01*
X252311Y480343D01*
X252269Y480373D01*
X252227Y480381D01*
X252199Y480393D01*
X252169Y480392D01*
X252127Y480400D01*
X247317Y480400D01*
X247267Y480389D01*
X247216Y480387D01*
X247184Y480369D01*
X247148Y480361D01*
X247109Y480328D01*
X247064Y480304D01*
X247043Y480274D01*
X247015Y480251D01*
X246994Y480204D01*
X246964Y480162D01*
X246956Y480120D01*
X246944Y480092D01*
X246945Y480062D01*
X246937Y480020D01*
X246937Y474536D01*
X246954Y474462D01*
X246967Y474388D01*
X246974Y474377D01*
X246976Y474368D01*
X247000Y474339D01*
X247048Y474267D01*
X248365Y472951D01*
X248365Y467869D01*
X246681Y466185D01*
X240999Y466185D01*
X240443Y466742D01*
X240378Y466782D01*
X240316Y466826D01*
X240304Y466828D01*
X240295Y466833D01*
X240258Y466837D01*
X240174Y466853D01*
X238361Y466853D01*
X238287Y466836D01*
X238212Y466823D01*
X238202Y466816D01*
X238192Y466814D01*
X238163Y466790D01*
X238092Y466742D01*
X234808Y463458D01*
X234768Y463394D01*
X234724Y463331D01*
X234722Y463319D01*
X234717Y463311D01*
X234713Y463274D01*
X234697Y463189D01*
X234697Y454457D01*
X226263Y446023D01*
X195377Y446023D01*
X193182Y448218D01*
X180248Y461152D01*
X180183Y461192D01*
X180122Y461236D01*
X180109Y461238D01*
X180101Y461243D01*
X180064Y461247D01*
X179979Y461263D01*
X50742Y461263D01*
X50668Y461246D01*
X50593Y461233D01*
X50583Y461226D01*
X50573Y461224D01*
X50545Y461200D01*
X50473Y461152D01*
X47815Y458493D01*
X43625Y458493D01*
X40663Y461455D01*
X40663Y465203D01*
X40652Y465253D01*
X40650Y465304D01*
X40632Y465336D01*
X40624Y465372D01*
X40591Y465411D01*
X40567Y465456D01*
X40537Y465477D01*
X40514Y465505D01*
X40467Y465526D01*
X40425Y465556D01*
X40383Y465564D01*
X40355Y465576D01*
X40325Y465575D01*
X40283Y465583D01*
X36686Y465583D01*
X36612Y465566D01*
X36538Y465553D01*
X36527Y465546D01*
X36518Y465544D01*
X36489Y465520D01*
X36417Y465472D01*
X35861Y464915D01*
X30179Y464915D01*
X28495Y466599D01*
X28495Y471681D01*
X29950Y473135D01*
X29990Y473200D01*
X30034Y473262D01*
X30036Y473274D01*
X30041Y473283D01*
X30045Y473320D01*
X30061Y473404D01*
X30061Y480020D01*
X30050Y480070D01*
X30048Y480121D01*
X30030Y480153D01*
X30022Y480189D01*
X29989Y480228D01*
X29965Y480273D01*
X29935Y480294D01*
X29912Y480322D01*
X29865Y480343D01*
X29823Y480373D01*
X29781Y480381D01*
X29753Y480393D01*
X29723Y480392D01*
X29681Y480400D01*
X3143Y480400D01*
X3093Y480389D01*
X3042Y480387D01*
X3010Y480369D01*
X2974Y480361D01*
X2935Y480328D01*
X2890Y480304D01*
X2869Y480274D01*
X2841Y480251D01*
X2820Y480204D01*
X2790Y480162D01*
X2782Y480120D01*
X2770Y480092D01*
X2771Y480062D01*
X2763Y480020D01*
X2763Y440277D01*
X2766Y440265D01*
X2764Y440252D01*
X2785Y440181D01*
X2802Y440109D01*
X2810Y440099D01*
X2814Y440086D01*
X2865Y440032D01*
X2912Y439975D01*
X2924Y439970D01*
X2933Y439960D01*
X3003Y439934D01*
X3071Y439904D01*
X3084Y439905D01*
X3096Y439900D01*
X3169Y439908D01*
X3244Y439911D01*
X3255Y439917D01*
X3268Y439918D01*
X3331Y439958D01*
X3396Y439993D01*
X3403Y440004D01*
X3414Y440011D01*
X3494Y440132D01*
X4710Y443067D01*
X7783Y446140D01*
X11797Y447803D01*
X16143Y447803D01*
X20157Y446140D01*
X23230Y443067D01*
X24893Y439053D01*
X24893Y434707D01*
X23473Y431280D01*
X23463Y431217D01*
X23445Y431156D01*
X23449Y431132D01*
X23445Y431109D01*
X23463Y431048D01*
X23474Y430985D01*
X23489Y430963D01*
X23495Y430943D01*
X23521Y430916D01*
X23555Y430865D01*
X32654Y421766D01*
X32719Y421726D01*
X32781Y421682D01*
X32793Y421680D01*
X32802Y421675D01*
X32839Y421671D01*
X32923Y421655D01*
X36355Y421655D01*
X36405Y421666D01*
X36456Y421668D01*
X36488Y421686D01*
X36524Y421694D01*
X36563Y421727D01*
X36608Y421751D01*
X36629Y421781D01*
X36657Y421804D01*
X36678Y421851D01*
X36708Y421893D01*
X36716Y421935D01*
X36728Y421963D01*
X36727Y421993D01*
X36735Y422035D01*
X36735Y424462D01*
X37628Y425355D01*
X54892Y425355D01*
X55785Y424462D01*
X55785Y422035D01*
X55796Y421985D01*
X55798Y421934D01*
X55816Y421902D01*
X55824Y421866D01*
X55857Y421827D01*
X55881Y421782D01*
X55911Y421761D01*
X55934Y421733D01*
X55981Y421712D01*
X56023Y421682D01*
X56065Y421674D01*
X56093Y421662D01*
X56123Y421663D01*
X56165Y421655D01*
X61286Y421655D01*
X61360Y421672D01*
X61435Y421685D01*
X61445Y421692D01*
X61455Y421694D01*
X61483Y421718D01*
X61555Y421766D01*
X62675Y422887D01*
X66865Y422887D01*
X69827Y419925D01*
X69827Y415735D01*
X66865Y412773D01*
X62675Y412773D01*
X59713Y415735D01*
X59713Y416225D01*
X59702Y416275D01*
X59700Y416326D01*
X59682Y416358D01*
X59674Y416394D01*
X59641Y416433D01*
X59617Y416478D01*
X59587Y416499D01*
X59564Y416527D01*
X59517Y416548D01*
X59475Y416578D01*
X59433Y416586D01*
X59405Y416598D01*
X59375Y416597D01*
X59333Y416605D01*
X56165Y416605D01*
X56115Y416594D01*
X56064Y416592D01*
X56032Y416574D01*
X55996Y416566D01*
X55957Y416533D01*
X55912Y416509D01*
X55891Y416479D01*
X55863Y416456D01*
X55842Y416409D01*
X55812Y416367D01*
X55804Y416325D01*
X55792Y416297D01*
X55792Y416289D01*
X55793Y416265D01*
X55785Y416225D01*
X55785Y413798D01*
X55035Y413049D01*
X55025Y413032D01*
X55016Y413025D01*
X55006Y413003D01*
X54974Y412968D01*
X54963Y412933D01*
X54944Y412902D01*
X54939Y412851D01*
X54924Y412802D01*
X54931Y412766D01*
X54927Y412729D01*
X54945Y412682D01*
X54954Y412631D01*
X54978Y412596D01*
X54989Y412567D01*
X55011Y412546D01*
X55035Y412511D01*
X55785Y411762D01*
X55785Y409335D01*
X55796Y409285D01*
X55798Y409234D01*
X55816Y409202D01*
X55824Y409166D01*
X55857Y409127D01*
X55881Y409082D01*
X55911Y409061D01*
X55934Y409033D01*
X55981Y409012D01*
X56023Y408982D01*
X56065Y408974D01*
X56093Y408962D01*
X56123Y408963D01*
X56165Y408955D01*
X61286Y408955D01*
X61360Y408972D01*
X61435Y408985D01*
X61445Y408992D01*
X61455Y408994D01*
X61483Y409018D01*
X61555Y409066D01*
X62675Y410187D01*
X66865Y410187D01*
X69827Y407225D01*
X69827Y403035D01*
X66865Y400073D01*
X62675Y400073D01*
X59713Y403035D01*
X59713Y403525D01*
X59702Y403575D01*
X59700Y403626D01*
X59682Y403658D01*
X59674Y403694D01*
X59641Y403733D01*
X59617Y403778D01*
X59587Y403799D01*
X59564Y403827D01*
X59517Y403848D01*
X59475Y403878D01*
X59433Y403886D01*
X59405Y403898D01*
X59375Y403897D01*
X59333Y403905D01*
X56165Y403905D01*
X56115Y403894D01*
X56064Y403892D01*
X56032Y403874D01*
X55996Y403866D01*
X55957Y403833D01*
X55912Y403809D01*
X55891Y403779D01*
X55863Y403756D01*
X55842Y403709D01*
X55812Y403667D01*
X55804Y403625D01*
X55792Y403597D01*
X55793Y403567D01*
X55785Y403525D01*
X55785Y401098D01*
X55035Y400349D01*
X55008Y400306D01*
X54974Y400268D01*
X54963Y400233D01*
X54944Y400202D01*
X54939Y400151D01*
X54924Y400102D01*
X54931Y400066D01*
X54927Y400029D01*
X54945Y399982D01*
X54954Y399931D01*
X54978Y399896D01*
X54989Y399867D01*
X55011Y399846D01*
X55035Y399811D01*
X55785Y399062D01*
X55785Y396635D01*
X55796Y396585D01*
X55798Y396534D01*
X55816Y396502D01*
X55824Y396466D01*
X55857Y396427D01*
X55881Y396382D01*
X55911Y396361D01*
X55934Y396333D01*
X55981Y396312D01*
X56023Y396282D01*
X56065Y396274D01*
X56093Y396262D01*
X56123Y396263D01*
X56165Y396255D01*
X77796Y396255D01*
X77870Y396272D01*
X77945Y396285D01*
X77955Y396292D01*
X77965Y396294D01*
X77993Y396318D01*
X78065Y396366D01*
X79185Y397487D01*
X83375Y397487D01*
X86337Y394525D01*
X86337Y390335D01*
X83375Y387373D01*
X79185Y387373D01*
X76223Y390335D01*
X76223Y390825D01*
X76212Y390875D01*
X76210Y390926D01*
X76192Y390958D01*
X76184Y390994D01*
X76151Y391033D01*
X76127Y391078D01*
X76097Y391099D01*
X76074Y391127D01*
X76027Y391148D01*
X75985Y391178D01*
X75943Y391186D01*
X75915Y391198D01*
X75885Y391197D01*
X75843Y391205D01*
X56165Y391205D01*
X56115Y391194D01*
X56064Y391192D01*
X56032Y391174D01*
X55996Y391166D01*
X55957Y391133D01*
X55912Y391109D01*
X55891Y391079D01*
X55863Y391056D01*
X55842Y391009D01*
X55812Y390967D01*
X55804Y390925D01*
X55792Y390897D01*
X55793Y390867D01*
X55785Y390825D01*
X55785Y388398D01*
X55035Y387649D01*
X55008Y387606D01*
X54974Y387568D01*
X54963Y387533D01*
X54944Y387502D01*
X54939Y387451D01*
X54924Y387402D01*
X54931Y387366D01*
X54927Y387329D01*
X54945Y387282D01*
X54954Y387231D01*
X54978Y387196D01*
X54989Y387167D01*
X55011Y387146D01*
X55035Y387111D01*
X55785Y386362D01*
X55785Y383935D01*
X55796Y383885D01*
X55798Y383834D01*
X55816Y383802D01*
X55824Y383766D01*
X55857Y383727D01*
X55881Y383682D01*
X55911Y383661D01*
X55934Y383633D01*
X55981Y383612D01*
X56023Y383582D01*
X56065Y383574D01*
X56093Y383562D01*
X56123Y383563D01*
X56165Y383555D01*
X59436Y383555D01*
X68317Y374674D01*
X68381Y374634D01*
X68443Y374590D01*
X68455Y374588D01*
X68464Y374583D01*
X68501Y374579D01*
X68585Y374563D01*
X133198Y374563D01*
X135562Y372198D01*
X135627Y372158D01*
X135689Y372114D01*
X135701Y372112D01*
X135710Y372107D01*
X135747Y372103D01*
X135831Y372087D01*
X139255Y372087D01*
X142217Y369125D01*
X142217Y364935D01*
X139255Y361973D01*
X136545Y361973D01*
X136520Y361967D01*
X136494Y361970D01*
X136437Y361948D01*
X136377Y361934D01*
X136357Y361917D01*
X136333Y361908D01*
X136291Y361863D01*
X136243Y361824D01*
X136232Y361800D01*
X136215Y361781D01*
X136197Y361722D01*
X136172Y361665D01*
X136173Y361640D01*
X136166Y361615D01*
X136176Y361554D01*
X136179Y361492D01*
X136191Y361470D01*
X136195Y361444D01*
X136244Y361373D01*
X136261Y361340D01*
X136269Y361334D01*
X136276Y361324D01*
X148262Y349338D01*
X148327Y349298D01*
X148389Y349254D01*
X148401Y349252D01*
X148410Y349247D01*
X148447Y349243D01*
X148531Y349227D01*
X151955Y349227D01*
X154917Y346265D01*
X154917Y342075D01*
X151955Y339113D01*
X147765Y339113D01*
X144803Y342075D01*
X144803Y345499D01*
X144791Y345550D01*
X144790Y345590D01*
X144780Y345609D01*
X144773Y345647D01*
X144766Y345658D01*
X144764Y345667D01*
X144740Y345696D01*
X144692Y345768D01*
X140334Y350126D01*
X140312Y350139D01*
X140296Y350159D01*
X140239Y350184D01*
X140187Y350217D01*
X140161Y350219D01*
X140137Y350230D01*
X140076Y350228D01*
X140014Y350234D01*
X139990Y350224D01*
X139964Y350223D01*
X139910Y350194D01*
X139852Y350172D01*
X139835Y350153D01*
X139812Y350141D01*
X139777Y350090D01*
X139735Y350045D01*
X139727Y350020D01*
X139712Y349999D01*
X139696Y349914D01*
X139685Y349879D01*
X139687Y349869D01*
X139685Y349857D01*
X139685Y348954D01*
X139702Y348880D01*
X139715Y348805D01*
X139722Y348795D01*
X139724Y348785D01*
X139748Y348757D01*
X139796Y348685D01*
X142217Y346265D01*
X142217Y342075D01*
X139255Y339113D01*
X135065Y339113D01*
X132103Y342075D01*
X132103Y346265D01*
X134524Y348685D01*
X134564Y348750D01*
X134608Y348812D01*
X134610Y348824D01*
X134615Y348832D01*
X134619Y348869D01*
X134635Y348954D01*
X134635Y350312D01*
X134618Y350386D01*
X134605Y350461D01*
X134598Y350471D01*
X134596Y350481D01*
X134572Y350510D01*
X134524Y350581D01*
X122973Y362132D01*
X122908Y362172D01*
X122846Y362216D01*
X122834Y362218D01*
X122826Y362223D01*
X122789Y362227D01*
X122704Y362243D01*
X83547Y362243D01*
X83522Y362237D01*
X83496Y362240D01*
X83439Y362218D01*
X83378Y362204D01*
X83358Y362187D01*
X83334Y362178D01*
X83292Y362133D01*
X83245Y362094D01*
X83234Y362070D01*
X83217Y362051D01*
X83199Y361992D01*
X83174Y361936D01*
X83175Y361910D01*
X83167Y361885D01*
X83178Y361824D01*
X83180Y361762D01*
X83193Y361740D01*
X83197Y361714D01*
X83245Y361643D01*
X83263Y361610D01*
X83271Y361604D01*
X83278Y361594D01*
X85803Y359070D01*
X85803Y354881D01*
X82755Y351833D01*
X82735Y351822D01*
X82714Y351792D01*
X82686Y351769D01*
X82665Y351722D01*
X82635Y351680D01*
X82627Y351639D01*
X82615Y351611D01*
X82616Y351580D01*
X82608Y351538D01*
X82608Y267560D01*
X82625Y267486D01*
X82638Y267412D01*
X82645Y267401D01*
X82647Y267392D01*
X82671Y267363D01*
X82719Y267291D01*
X94914Y255096D01*
X94979Y255056D01*
X95041Y255012D01*
X95053Y255010D01*
X95062Y255005D01*
X95099Y255001D01*
X95183Y254985D01*
X139798Y254985D01*
X149577Y245206D01*
X149641Y245166D01*
X149703Y245122D01*
X149716Y245120D01*
X149724Y245115D01*
X149761Y245111D01*
X149846Y245095D01*
X209326Y245095D01*
X210916Y243504D01*
X222156Y232264D01*
X222178Y232251D01*
X222194Y232231D01*
X222251Y232206D01*
X222303Y232173D01*
X222329Y232171D01*
X222353Y232160D01*
X222414Y232162D01*
X222476Y232156D01*
X222500Y232166D01*
G37*
%LPC*%
G36*
X202711Y3559D02*
X202711Y3559D01*
X201818Y4452D01*
X201818Y5638D01*
X201806Y5688D01*
X201804Y5739D01*
X201787Y5771D01*
X201778Y5807D01*
X201746Y5847D01*
X201722Y5891D01*
X201692Y5912D01*
X201668Y5941D01*
X201622Y5962D01*
X201580Y5991D01*
X201538Y5999D01*
X201510Y6012D01*
X201480Y6011D01*
X201438Y6019D01*
X201288Y6019D01*
X201214Y6001D01*
X201139Y5988D01*
X201129Y5982D01*
X201119Y5979D01*
X201090Y5955D01*
X201019Y5907D01*
X200215Y5103D01*
X196025Y5103D01*
X193063Y8065D01*
X193063Y12255D01*
X196025Y15217D01*
X200215Y15217D01*
X201169Y14262D01*
X201191Y14249D01*
X201207Y14229D01*
X201264Y14204D01*
X201316Y14171D01*
X201342Y14169D01*
X201365Y14158D01*
X201427Y14160D01*
X201488Y14154D01*
X201513Y14164D01*
X201538Y14165D01*
X201593Y14194D01*
X201650Y14216D01*
X201668Y14235D01*
X201691Y14247D01*
X201726Y14298D01*
X201768Y14343D01*
X201776Y14368D01*
X201790Y14389D01*
X201807Y14474D01*
X201817Y14509D01*
X201816Y14519D01*
X201818Y14531D01*
X201818Y15715D01*
X202711Y16608D01*
X209462Y16608D01*
X209536Y16625D01*
X209610Y16638D01*
X209620Y16645D01*
X209630Y16648D01*
X209659Y16671D01*
X209730Y16720D01*
X211724Y18713D01*
X211764Y18778D01*
X211808Y18840D01*
X211810Y18852D01*
X211815Y18860D01*
X211819Y18897D01*
X211835Y18982D01*
X211835Y51455D01*
X211824Y51505D01*
X211822Y51556D01*
X211804Y51588D01*
X211796Y51624D01*
X211763Y51663D01*
X211739Y51708D01*
X211709Y51729D01*
X211686Y51757D01*
X211639Y51778D01*
X211597Y51808D01*
X211555Y51816D01*
X211527Y51828D01*
X211497Y51827D01*
X211455Y51835D01*
X210248Y51835D01*
X209355Y52728D01*
X209355Y66247D01*
X209349Y66272D01*
X209352Y66298D01*
X209330Y66356D01*
X209316Y66416D01*
X209299Y66436D01*
X209290Y66460D01*
X209245Y66502D01*
X209206Y66550D01*
X209182Y66560D01*
X209163Y66578D01*
X209104Y66595D01*
X209047Y66621D01*
X209022Y66620D01*
X208997Y66627D01*
X208936Y66616D01*
X208874Y66614D01*
X208852Y66602D01*
X208826Y66597D01*
X208755Y66549D01*
X208722Y66531D01*
X208716Y66523D01*
X208706Y66516D01*
X206447Y64257D01*
X206407Y64193D01*
X206363Y64130D01*
X206361Y64118D01*
X206356Y64110D01*
X206352Y64073D01*
X206336Y63988D01*
X206336Y49955D01*
X206347Y49905D01*
X206349Y49854D01*
X206367Y49822D01*
X206375Y49786D01*
X206408Y49747D01*
X206432Y49702D01*
X206462Y49681D01*
X206485Y49653D01*
X206532Y49632D01*
X206574Y49602D01*
X206616Y49594D01*
X206644Y49582D01*
X206674Y49583D01*
X206716Y49575D01*
X209411Y49575D01*
X210304Y48682D01*
X210304Y41918D01*
X209411Y41025D01*
X196147Y41025D01*
X195541Y41632D01*
X195476Y41672D01*
X195414Y41716D01*
X195402Y41718D01*
X195394Y41723D01*
X195357Y41727D01*
X195272Y41743D01*
X192981Y41743D01*
X192907Y41726D01*
X192832Y41713D01*
X192822Y41706D01*
X192812Y41704D01*
X192783Y41680D01*
X192712Y41632D01*
X181605Y30525D01*
X179410Y28330D01*
X113960Y28330D01*
X111765Y30525D01*
X105540Y36750D01*
X103345Y38945D01*
X103345Y45748D01*
X103339Y45773D01*
X103342Y45799D01*
X103320Y45857D01*
X103306Y45917D01*
X103289Y45937D01*
X103280Y45961D01*
X103235Y46003D01*
X103196Y46050D01*
X103172Y46061D01*
X103153Y46079D01*
X103094Y46096D01*
X103037Y46121D01*
X103012Y46120D01*
X102987Y46128D01*
X102926Y46117D01*
X102864Y46115D01*
X102842Y46102D01*
X102816Y46098D01*
X102745Y46050D01*
X102712Y46032D01*
X102706Y46024D01*
X102696Y46017D01*
X101648Y44969D01*
X97092Y44969D01*
X93869Y48192D01*
X93869Y52748D01*
X97092Y55971D01*
X99395Y55971D01*
X99420Y55977D01*
X99446Y55974D01*
X99504Y55996D01*
X99564Y56010D01*
X99584Y56027D01*
X99608Y56036D01*
X99650Y56081D01*
X99697Y56120D01*
X99708Y56144D01*
X99725Y56163D01*
X99743Y56222D01*
X99768Y56279D01*
X99767Y56304D01*
X99775Y56329D01*
X99764Y56390D01*
X99762Y56452D01*
X99749Y56474D01*
X99745Y56500D01*
X99697Y56571D01*
X99679Y56604D01*
X99671Y56610D01*
X99664Y56620D01*
X99245Y57038D01*
X99245Y72827D01*
X99228Y72901D01*
X99215Y72975D01*
X99208Y72986D01*
X99206Y72995D01*
X99182Y73024D01*
X99134Y73096D01*
X99099Y73131D01*
X99034Y73171D01*
X98972Y73215D01*
X98960Y73217D01*
X98951Y73222D01*
X98914Y73226D01*
X98830Y73242D01*
X85747Y73242D01*
X69770Y89220D01*
X69770Y90945D01*
X69758Y90994D01*
X69756Y91045D01*
X69739Y91078D01*
X69730Y91113D01*
X69698Y91153D01*
X69673Y91197D01*
X69643Y91219D01*
X69620Y91247D01*
X69573Y91268D01*
X69532Y91297D01*
X69490Y91305D01*
X69462Y91318D01*
X69431Y91317D01*
X69389Y91325D01*
X68663Y91325D01*
X67770Y92218D01*
X67770Y98881D01*
X68663Y99774D01*
X75926Y99774D01*
X76819Y98881D01*
X76819Y92218D01*
X75926Y91325D01*
X75724Y91325D01*
X75699Y91319D01*
X75673Y91321D01*
X75615Y91299D01*
X75555Y91285D01*
X75535Y91269D01*
X75511Y91260D01*
X75469Y91214D01*
X75421Y91175D01*
X75411Y91152D01*
X75393Y91133D01*
X75376Y91073D01*
X75350Y91017D01*
X75351Y90991D01*
X75344Y90967D01*
X75355Y90906D01*
X75357Y90844D01*
X75369Y90821D01*
X75374Y90796D01*
X75422Y90724D01*
X75440Y90692D01*
X75448Y90686D01*
X75455Y90676D01*
X81916Y84214D01*
X81938Y84201D01*
X81954Y84181D01*
X82011Y84156D01*
X82063Y84123D01*
X82089Y84121D01*
X82113Y84110D01*
X82174Y84112D01*
X82236Y84106D01*
X82260Y84116D01*
X82286Y84117D01*
X82340Y84146D01*
X82398Y84168D01*
X82415Y84187D01*
X82438Y84199D01*
X82473Y84250D01*
X82515Y84295D01*
X82523Y84320D01*
X82538Y84341D01*
X82554Y84426D01*
X82565Y84461D01*
X82563Y84471D01*
X82565Y84483D01*
X82565Y91405D01*
X82554Y91455D01*
X82552Y91506D01*
X82534Y91538D01*
X82526Y91574D01*
X82493Y91613D01*
X82469Y91658D01*
X82439Y91679D01*
X82416Y91707D01*
X82369Y91728D01*
X82327Y91758D01*
X82285Y91766D01*
X82257Y91778D01*
X82227Y91777D01*
X82185Y91785D01*
X81458Y91785D01*
X80565Y92678D01*
X80565Y99342D01*
X81458Y100235D01*
X88722Y100235D01*
X89615Y99342D01*
X89615Y92678D01*
X88722Y91785D01*
X87995Y91785D01*
X87945Y91774D01*
X87894Y91772D01*
X87862Y91754D01*
X87826Y91746D01*
X87787Y91713D01*
X87742Y91689D01*
X87721Y91659D01*
X87693Y91636D01*
X87672Y91589D01*
X87642Y91547D01*
X87634Y91505D01*
X87622Y91477D01*
X87623Y91447D01*
X87615Y91405D01*
X87615Y86293D01*
X87632Y86219D01*
X87645Y86145D01*
X87652Y86134D01*
X87654Y86125D01*
X87678Y86096D01*
X87726Y86024D01*
X90922Y82829D01*
X90987Y82788D01*
X91049Y82745D01*
X91061Y82742D01*
X91069Y82737D01*
X91106Y82734D01*
X91191Y82717D01*
X101189Y82717D01*
X101214Y82723D01*
X101240Y82721D01*
X101297Y82743D01*
X101358Y82757D01*
X101378Y82773D01*
X101402Y82782D01*
X101444Y82828D01*
X101491Y82867D01*
X101502Y82890D01*
X101519Y82909D01*
X101537Y82969D01*
X101562Y83025D01*
X101561Y83051D01*
X101569Y83075D01*
X101558Y83136D01*
X101556Y83198D01*
X101543Y83221D01*
X101539Y83246D01*
X101491Y83318D01*
X101473Y83350D01*
X101465Y83356D01*
X101458Y83366D01*
X96856Y87968D01*
X95265Y89559D01*
X95265Y91405D01*
X95254Y91455D01*
X95252Y91506D01*
X95234Y91538D01*
X95226Y91574D01*
X95193Y91613D01*
X95169Y91658D01*
X95139Y91679D01*
X95116Y91707D01*
X95069Y91728D01*
X95027Y91758D01*
X94985Y91766D01*
X94957Y91778D01*
X94927Y91777D01*
X94885Y91785D01*
X94158Y91785D01*
X93265Y92678D01*
X93265Y99342D01*
X94158Y100235D01*
X101422Y100235D01*
X102315Y99342D01*
X102315Y92678D01*
X101422Y91785D01*
X101098Y91785D01*
X101073Y91779D01*
X101047Y91782D01*
X100989Y91760D01*
X100929Y91746D01*
X100909Y91729D01*
X100885Y91720D01*
X100843Y91675D01*
X100795Y91636D01*
X100785Y91612D01*
X100767Y91593D01*
X100750Y91534D01*
X100725Y91477D01*
X100725Y91452D01*
X100718Y91427D01*
X100729Y91366D01*
X100731Y91304D01*
X100743Y91282D01*
X100748Y91256D01*
X100796Y91185D01*
X100814Y91152D01*
X100822Y91146D01*
X100829Y91136D01*
X111068Y80897D01*
X111133Y80857D01*
X111195Y80813D01*
X111207Y80811D01*
X111215Y80806D01*
X111252Y80802D01*
X111337Y80786D01*
X121564Y80786D01*
X121614Y80797D01*
X121665Y80799D01*
X121697Y80817D01*
X121733Y80825D01*
X121772Y80858D01*
X121817Y80882D01*
X121838Y80912D01*
X121866Y80935D01*
X121887Y80982D01*
X121917Y81024D01*
X121925Y81065D01*
X121937Y81093D01*
X121936Y81124D01*
X121944Y81166D01*
X121944Y87142D01*
X122837Y88035D01*
X124214Y88035D01*
X124239Y88041D01*
X124264Y88038D01*
X124322Y88060D01*
X124382Y88074D01*
X124402Y88091D01*
X124426Y88100D01*
X124468Y88145D01*
X124516Y88184D01*
X124526Y88208D01*
X124544Y88227D01*
X124562Y88286D01*
X124587Y88343D01*
X124586Y88368D01*
X124593Y88393D01*
X124583Y88454D01*
X124580Y88516D01*
X124568Y88538D01*
X124563Y88564D01*
X124515Y88635D01*
X124497Y88668D01*
X124489Y88674D01*
X124482Y88684D01*
X113849Y99317D01*
X113784Y99357D01*
X113722Y99401D01*
X113710Y99403D01*
X113702Y99409D01*
X113665Y99412D01*
X113580Y99429D01*
X107400Y99429D01*
X106506Y100322D01*
X106506Y112585D01*
X107400Y113478D01*
X108586Y113478D01*
X108636Y113490D01*
X108687Y113492D01*
X108719Y113509D01*
X108755Y113518D01*
X108794Y113550D01*
X108839Y113574D01*
X108860Y113604D01*
X108888Y113628D01*
X108909Y113674D01*
X108939Y113716D01*
X108947Y113758D01*
X108959Y113786D01*
X108958Y113816D01*
X108966Y113858D01*
X108966Y123605D01*
X118568Y133206D01*
X118581Y133228D01*
X118601Y133244D01*
X118627Y133301D01*
X118659Y133353D01*
X118662Y133379D01*
X118672Y133403D01*
X118670Y133464D01*
X118676Y133526D01*
X118667Y133550D01*
X118666Y133576D01*
X118636Y133630D01*
X118614Y133688D01*
X118595Y133705D01*
X118583Y133728D01*
X118532Y133763D01*
X118487Y133805D01*
X118462Y133813D01*
X118441Y133828D01*
X118357Y133844D01*
X118321Y133855D01*
X118311Y133853D01*
X118299Y133855D01*
X114948Y133855D01*
X114055Y134748D01*
X114055Y151012D01*
X114948Y151905D01*
X124212Y151905D01*
X125105Y151012D01*
X125105Y134748D01*
X124810Y134454D01*
X124797Y134432D01*
X124777Y134416D01*
X124751Y134359D01*
X124719Y134307D01*
X124716Y134281D01*
X124706Y134257D01*
X124708Y134196D01*
X124702Y134134D01*
X124711Y134110D01*
X124712Y134084D01*
X124742Y134030D01*
X124764Y133972D01*
X124783Y133955D01*
X124795Y133932D01*
X124846Y133897D01*
X124891Y133855D01*
X124916Y133847D01*
X124937Y133832D01*
X125021Y133816D01*
X125057Y133805D01*
X125067Y133807D01*
X125079Y133805D01*
X126581Y133805D01*
X126606Y133811D01*
X126632Y133808D01*
X126690Y133830D01*
X126750Y133844D01*
X126770Y133861D01*
X126794Y133870D01*
X126836Y133915D01*
X126883Y133954D01*
X126894Y133978D01*
X126911Y133997D01*
X126929Y134056D01*
X126954Y134113D01*
X126953Y134138D01*
X126961Y134163D01*
X126950Y134224D01*
X126948Y134286D01*
X126935Y134308D01*
X126931Y134334D01*
X126883Y134405D01*
X126865Y134438D01*
X126857Y134444D01*
X126850Y134454D01*
X126555Y134748D01*
X126555Y151012D01*
X127448Y151905D01*
X136712Y151905D01*
X137605Y151012D01*
X137605Y134748D01*
X137310Y134454D01*
X137297Y134432D01*
X137277Y134416D01*
X137251Y134359D01*
X137219Y134307D01*
X137216Y134281D01*
X137206Y134257D01*
X137208Y134196D01*
X137202Y134134D01*
X137211Y134110D01*
X137212Y134084D01*
X137242Y134030D01*
X137264Y133972D01*
X137283Y133955D01*
X137295Y133932D01*
X137346Y133897D01*
X137391Y133855D01*
X137416Y133847D01*
X137437Y133832D01*
X137521Y133816D01*
X137557Y133805D01*
X137567Y133807D01*
X137579Y133805D01*
X139081Y133805D01*
X139106Y133811D01*
X139132Y133808D01*
X139190Y133830D01*
X139250Y133844D01*
X139270Y133861D01*
X139294Y133870D01*
X139336Y133915D01*
X139383Y133954D01*
X139394Y133978D01*
X139411Y133997D01*
X139429Y134056D01*
X139454Y134113D01*
X139453Y134138D01*
X139461Y134163D01*
X139450Y134224D01*
X139448Y134286D01*
X139435Y134308D01*
X139431Y134334D01*
X139383Y134405D01*
X139365Y134438D01*
X139357Y134444D01*
X139350Y134454D01*
X139055Y134748D01*
X139055Y151012D01*
X139948Y151905D01*
X149212Y151905D01*
X150105Y151012D01*
X150105Y134748D01*
X149212Y133855D01*
X149025Y133855D01*
X148975Y133844D01*
X148924Y133842D01*
X148892Y133824D01*
X148856Y133816D01*
X148817Y133783D01*
X148772Y133759D01*
X148751Y133729D01*
X148723Y133706D01*
X148702Y133659D01*
X148672Y133617D01*
X148664Y133575D01*
X148652Y133547D01*
X148653Y133517D01*
X148645Y133475D01*
X148645Y132984D01*
X148662Y132910D01*
X148675Y132835D01*
X148682Y132825D01*
X148684Y132815D01*
X148708Y132787D01*
X148756Y132715D01*
X149837Y131635D01*
X149837Y127445D01*
X146875Y124483D01*
X142685Y124483D01*
X141605Y125564D01*
X141540Y125604D01*
X141478Y125648D01*
X141466Y125650D01*
X141458Y125655D01*
X141421Y125659D01*
X141336Y125675D01*
X122691Y125675D01*
X122617Y125658D01*
X122542Y125645D01*
X122532Y125638D01*
X122522Y125636D01*
X122494Y125612D01*
X122422Y125564D01*
X117207Y120349D01*
X117167Y120284D01*
X117123Y120222D01*
X117121Y120210D01*
X117116Y120202D01*
X117112Y120165D01*
X117096Y120080D01*
X117096Y113858D01*
X117107Y113809D01*
X117109Y113758D01*
X117127Y113725D01*
X117135Y113690D01*
X117168Y113650D01*
X117192Y113605D01*
X117222Y113584D01*
X117246Y113556D01*
X117292Y113535D01*
X117334Y113506D01*
X117376Y113498D01*
X117404Y113485D01*
X117434Y113486D01*
X117476Y113478D01*
X118663Y113478D01*
X119556Y112585D01*
X119556Y103828D01*
X119573Y103754D01*
X119586Y103679D01*
X119593Y103669D01*
X119595Y103659D01*
X119619Y103630D01*
X119667Y103559D01*
X121295Y101931D01*
X121317Y101917D01*
X121333Y101898D01*
X121390Y101872D01*
X121442Y101840D01*
X121468Y101837D01*
X121492Y101827D01*
X121553Y101829D01*
X121615Y101823D01*
X121639Y101832D01*
X121665Y101833D01*
X121719Y101863D01*
X121777Y101885D01*
X121794Y101904D01*
X121817Y101916D01*
X121852Y101966D01*
X121894Y102012D01*
X121902Y102037D01*
X121917Y102058D01*
X121933Y102142D01*
X121944Y102178D01*
X121942Y102188D01*
X121944Y102200D01*
X121944Y106142D01*
X122837Y107035D01*
X136101Y107035D01*
X136994Y106142D01*
X136994Y99378D01*
X136101Y98485D01*
X125659Y98485D01*
X125634Y98479D01*
X125608Y98482D01*
X125550Y98460D01*
X125490Y98446D01*
X125470Y98429D01*
X125446Y98420D01*
X125404Y98375D01*
X125357Y98336D01*
X125346Y98312D01*
X125328Y98293D01*
X125311Y98234D01*
X125286Y98177D01*
X125287Y98152D01*
X125279Y98127D01*
X125290Y98066D01*
X125292Y98004D01*
X125305Y97982D01*
X125309Y97956D01*
X125357Y97885D01*
X125375Y97852D01*
X125383Y97846D01*
X125390Y97836D01*
X130831Y92395D01*
X133026Y90200D01*
X133026Y88415D01*
X133037Y88365D01*
X133039Y88314D01*
X133057Y88282D01*
X133065Y88246D01*
X133098Y88207D01*
X133122Y88162D01*
X133152Y88141D01*
X133175Y88113D01*
X133222Y88092D01*
X133264Y88062D01*
X133306Y88054D01*
X133334Y88042D01*
X133364Y88043D01*
X133406Y88035D01*
X136101Y88035D01*
X136994Y87142D01*
X136994Y81166D01*
X137005Y81116D01*
X137007Y81065D01*
X137025Y81033D01*
X137033Y80997D01*
X137066Y80958D01*
X137090Y80913D01*
X137120Y80892D01*
X137143Y80863D01*
X137190Y80843D01*
X137232Y80813D01*
X137274Y80805D01*
X137302Y80793D01*
X137332Y80794D01*
X137374Y80786D01*
X140786Y80786D01*
X140811Y80791D01*
X140837Y80789D01*
X140895Y80811D01*
X140955Y80825D01*
X140975Y80841D01*
X140999Y80851D01*
X141041Y80896D01*
X141088Y80935D01*
X141099Y80959D01*
X141116Y80978D01*
X141134Y81037D01*
X141159Y81093D01*
X141158Y81119D01*
X141166Y81144D01*
X141155Y81205D01*
X141153Y81266D01*
X141140Y81289D01*
X141136Y81315D01*
X141088Y81386D01*
X141070Y81419D01*
X141062Y81424D01*
X141055Y81435D01*
X139475Y83014D01*
X139475Y106987D01*
X139458Y107061D01*
X139445Y107135D01*
X139438Y107146D01*
X139436Y107155D01*
X139412Y107184D01*
X139364Y107256D01*
X135013Y111607D01*
X135013Y112245D01*
X135001Y112295D01*
X134999Y112346D01*
X134981Y112378D01*
X134973Y112414D01*
X134941Y112453D01*
X134916Y112498D01*
X134886Y112519D01*
X134863Y112547D01*
X134816Y112568D01*
X134775Y112598D01*
X134733Y112606D01*
X134705Y112618D01*
X134674Y112617D01*
X134632Y112625D01*
X134206Y112625D01*
X133313Y113518D01*
X133313Y120782D01*
X134206Y121675D01*
X140869Y121675D01*
X141588Y120955D01*
X141632Y120928D01*
X141669Y120894D01*
X141704Y120883D01*
X141736Y120864D01*
X141786Y120859D01*
X141835Y120844D01*
X141872Y120851D01*
X141908Y120847D01*
X141956Y120865D01*
X142006Y120874D01*
X142041Y120898D01*
X142070Y120909D01*
X142091Y120931D01*
X142126Y120955D01*
X142846Y121675D01*
X149509Y121675D01*
X150402Y120782D01*
X150402Y120055D01*
X150414Y120005D01*
X150416Y119954D01*
X150433Y119922D01*
X150441Y119886D01*
X150474Y119847D01*
X150498Y119802D01*
X150528Y119781D01*
X150552Y119753D01*
X150598Y119732D01*
X150640Y119702D01*
X150682Y119694D01*
X150710Y119682D01*
X150740Y119683D01*
X150782Y119675D01*
X223785Y119675D01*
X223835Y119686D01*
X223886Y119688D01*
X223918Y119706D01*
X223954Y119714D01*
X223993Y119747D01*
X224038Y119771D01*
X224059Y119801D01*
X224087Y119824D01*
X224108Y119871D01*
X224138Y119913D01*
X224146Y119955D01*
X224158Y119983D01*
X224157Y120013D01*
X224165Y120055D01*
X224165Y121615D01*
X224154Y121665D01*
X224152Y121716D01*
X224134Y121748D01*
X224126Y121784D01*
X224093Y121823D01*
X224069Y121868D01*
X224039Y121889D01*
X224016Y121917D01*
X223969Y121938D01*
X223927Y121968D01*
X223885Y121976D01*
X223857Y121988D01*
X223827Y121987D01*
X223785Y121995D01*
X223645Y121995D01*
X222752Y122888D01*
X222752Y135328D01*
X223645Y136221D01*
X229735Y136221D01*
X230628Y135328D01*
X230628Y122888D01*
X229735Y121995D01*
X229595Y121995D01*
X229545Y121984D01*
X229494Y121982D01*
X229462Y121964D01*
X229426Y121956D01*
X229387Y121923D01*
X229342Y121899D01*
X229321Y121869D01*
X229293Y121846D01*
X229272Y121799D01*
X229242Y121757D01*
X229234Y121715D01*
X229222Y121687D01*
X229223Y121657D01*
X229215Y121615D01*
X229215Y120673D01*
X229221Y120648D01*
X229218Y120622D01*
X229240Y120565D01*
X229254Y120505D01*
X229271Y120485D01*
X229280Y120461D01*
X229325Y120419D01*
X229364Y120371D01*
X229388Y120360D01*
X229407Y120343D01*
X229466Y120325D01*
X229523Y120300D01*
X229548Y120301D01*
X229573Y120294D01*
X229634Y120304D01*
X229696Y120307D01*
X229718Y120319D01*
X229744Y120323D01*
X229815Y120372D01*
X229848Y120389D01*
X229854Y120397D01*
X229864Y120404D01*
X233524Y124065D01*
X236885Y124065D01*
X236935Y124076D01*
X236986Y124078D01*
X237018Y124096D01*
X237054Y124104D01*
X237093Y124137D01*
X237138Y124161D01*
X237159Y124191D01*
X237187Y124214D01*
X237208Y124261D01*
X237238Y124303D01*
X237246Y124345D01*
X237258Y124373D01*
X237257Y124403D01*
X237265Y124445D01*
X237265Y124872D01*
X238158Y125765D01*
X245422Y125765D01*
X246315Y124872D01*
X246315Y118208D01*
X245595Y117489D01*
X245568Y117446D01*
X245534Y117408D01*
X245523Y117373D01*
X245504Y117342D01*
X245499Y117291D01*
X245484Y117242D01*
X245491Y117206D01*
X245487Y117169D01*
X245505Y117122D01*
X245514Y117071D01*
X245538Y117036D01*
X245549Y117007D01*
X245571Y116986D01*
X245595Y116951D01*
X246315Y116232D01*
X246315Y109568D01*
X245422Y108675D01*
X244695Y108675D01*
X244645Y108664D01*
X244594Y108662D01*
X244562Y108644D01*
X244526Y108636D01*
X244487Y108603D01*
X244442Y108579D01*
X244421Y108549D01*
X244393Y108526D01*
X244372Y108479D01*
X244342Y108437D01*
X244334Y108395D01*
X244322Y108367D01*
X244323Y108337D01*
X244315Y108295D01*
X244315Y68024D01*
X234126Y57835D01*
X222785Y57835D01*
X222735Y57824D01*
X222684Y57822D01*
X222652Y57804D01*
X222616Y57796D01*
X222577Y57763D01*
X222532Y57739D01*
X222511Y57709D01*
X222483Y57686D01*
X222462Y57639D01*
X222432Y57597D01*
X222424Y57555D01*
X222412Y57527D01*
X222413Y57497D01*
X222405Y57455D01*
X222405Y52728D01*
X221512Y51835D01*
X220345Y51835D01*
X220295Y51824D01*
X220244Y51822D01*
X220212Y51804D01*
X220176Y51796D01*
X220137Y51763D01*
X220092Y51739D01*
X220071Y51709D01*
X220043Y51686D01*
X220022Y51639D01*
X219992Y51597D01*
X219984Y51555D01*
X219972Y51527D01*
X219973Y51497D01*
X219965Y51455D01*
X219965Y49745D01*
X219976Y49695D01*
X219978Y49644D01*
X219996Y49612D01*
X220004Y49576D01*
X220037Y49537D01*
X220061Y49492D01*
X220091Y49471D01*
X220114Y49443D01*
X220161Y49422D01*
X220203Y49392D01*
X220245Y49384D01*
X220273Y49372D01*
X220303Y49373D01*
X220345Y49365D01*
X221782Y49365D01*
X221856Y49382D01*
X221931Y49395D01*
X221941Y49402D01*
X221951Y49404D01*
X221979Y49428D01*
X222051Y49476D01*
X222149Y49575D01*
X235413Y49575D01*
X236306Y48682D01*
X236306Y41918D01*
X235413Y41025D01*
X222149Y41025D01*
X222051Y41124D01*
X221986Y41164D01*
X221924Y41208D01*
X221912Y41210D01*
X221904Y41215D01*
X221867Y41219D01*
X221782Y41235D01*
X220345Y41235D01*
X220295Y41224D01*
X220244Y41222D01*
X220212Y41204D01*
X220176Y41196D01*
X220137Y41163D01*
X220092Y41139D01*
X220071Y41109D01*
X220043Y41086D01*
X220022Y41039D01*
X219992Y40997D01*
X219984Y40955D01*
X219972Y40927D01*
X219973Y40897D01*
X219965Y40855D01*
X219965Y15457D01*
X215979Y11471D01*
X215939Y11407D01*
X215895Y11345D01*
X215893Y11332D01*
X215887Y11324D01*
X215884Y11287D01*
X215867Y11202D01*
X215867Y4452D01*
X214974Y3559D01*
X202711Y3559D01*
G37*
%LPD*%
G36*
X223233Y453154D02*
X223233Y453154D01*
X223308Y453167D01*
X223318Y453174D01*
X223328Y453176D01*
X223357Y453200D01*
X223428Y453248D01*
X227472Y457292D01*
X227512Y457356D01*
X227556Y457419D01*
X227558Y457431D01*
X227563Y457439D01*
X227567Y457476D01*
X227583Y457561D01*
X227583Y466293D01*
X235257Y473967D01*
X239443Y473967D01*
X239493Y473978D01*
X239544Y473980D01*
X239576Y473998D01*
X239612Y474006D01*
X239651Y474039D01*
X239696Y474063D01*
X239717Y474093D01*
X239745Y474116D01*
X239766Y474163D01*
X239796Y474205D01*
X239804Y474247D01*
X239816Y474275D01*
X239815Y474305D01*
X239823Y474347D01*
X239823Y480020D01*
X239812Y480070D01*
X239810Y480121D01*
X239792Y480153D01*
X239784Y480189D01*
X239751Y480228D01*
X239727Y480273D01*
X239697Y480294D01*
X239674Y480322D01*
X239627Y480343D01*
X239585Y480373D01*
X239543Y480381D01*
X239515Y480393D01*
X239485Y480392D01*
X239443Y480400D01*
X214844Y480400D01*
X214770Y480383D01*
X214695Y480370D01*
X214685Y480363D01*
X214675Y480361D01*
X214646Y480337D01*
X214575Y480289D01*
X213890Y479604D01*
X213877Y479583D01*
X213859Y479568D01*
X213856Y479566D01*
X213831Y479509D01*
X213799Y479457D01*
X213796Y479431D01*
X213786Y479407D01*
X213788Y479346D01*
X213782Y479284D01*
X213791Y479260D01*
X213792Y479234D01*
X213822Y479180D01*
X213844Y479122D01*
X213863Y479105D01*
X213875Y479082D01*
X213925Y479047D01*
X213971Y479005D01*
X213996Y478997D01*
X214017Y478982D01*
X214101Y478966D01*
X214137Y478955D01*
X214147Y478957D01*
X214159Y478955D01*
X219082Y478955D01*
X219975Y478062D01*
X219975Y467398D01*
X219082Y466505D01*
X201818Y466505D01*
X200925Y467398D01*
X200925Y478187D01*
X200914Y478237D01*
X200912Y478288D01*
X200894Y478320D01*
X200886Y478356D01*
X200853Y478395D01*
X200829Y478440D01*
X200799Y478461D01*
X200776Y478489D01*
X200729Y478510D01*
X200687Y478540D01*
X200645Y478548D01*
X200617Y478560D01*
X200587Y478559D01*
X200545Y478567D01*
X44576Y478567D01*
X42854Y480289D01*
X42789Y480329D01*
X42727Y480373D01*
X42715Y480375D01*
X42707Y480380D01*
X42670Y480384D01*
X42585Y480400D01*
X36539Y480400D01*
X36489Y480389D01*
X36438Y480387D01*
X36406Y480369D01*
X36370Y480361D01*
X36331Y480328D01*
X36286Y480304D01*
X36265Y480274D01*
X36237Y480251D01*
X36216Y480204D01*
X36186Y480162D01*
X36178Y480120D01*
X36166Y480092D01*
X36167Y480062D01*
X36159Y480020D01*
X36159Y473224D01*
X36172Y473169D01*
X36172Y473153D01*
X36177Y473144D01*
X36189Y473076D01*
X36196Y473065D01*
X36198Y473056D01*
X36222Y473027D01*
X36270Y472955D01*
X36417Y472808D01*
X36482Y472768D01*
X36544Y472724D01*
X36556Y472722D01*
X36565Y472717D01*
X36602Y472713D01*
X36686Y472697D01*
X44143Y472697D01*
X48352Y468488D01*
X48416Y468448D01*
X48479Y468404D01*
X48491Y468402D01*
X48499Y468397D01*
X48536Y468393D01*
X48621Y468377D01*
X183083Y468377D01*
X185278Y466182D01*
X198212Y453248D01*
X198276Y453208D01*
X198339Y453164D01*
X198351Y453162D01*
X198359Y453157D01*
X198396Y453153D01*
X198481Y453137D01*
X223159Y453137D01*
X223233Y453154D01*
G37*
G36*
X176380Y35461D02*
X176380Y35461D01*
X176455Y35474D01*
X176465Y35481D01*
X176475Y35483D01*
X176503Y35507D01*
X176575Y35555D01*
X189877Y48857D01*
X195272Y48857D01*
X195346Y48874D01*
X195421Y48887D01*
X195431Y48894D01*
X195441Y48896D01*
X195469Y48920D01*
X195541Y48968D01*
X196147Y49575D01*
X198842Y49575D01*
X198892Y49586D01*
X198943Y49588D01*
X198975Y49606D01*
X199011Y49614D01*
X199050Y49647D01*
X199095Y49671D01*
X199116Y49701D01*
X199144Y49724D01*
X199165Y49771D01*
X199195Y49813D01*
X199203Y49855D01*
X199215Y49883D01*
X199214Y49913D01*
X199222Y49955D01*
X199222Y67092D01*
X204612Y72482D01*
X205316Y73186D01*
X205330Y73208D01*
X205350Y73224D01*
X205375Y73281D01*
X205408Y73333D01*
X205410Y73359D01*
X205421Y73383D01*
X205418Y73444D01*
X205424Y73506D01*
X205415Y73530D01*
X205414Y73556D01*
X205384Y73610D01*
X205362Y73668D01*
X205344Y73685D01*
X205331Y73708D01*
X205281Y73743D01*
X205235Y73785D01*
X205211Y73793D01*
X205190Y73808D01*
X205105Y73824D01*
X205069Y73835D01*
X205059Y73833D01*
X205047Y73835D01*
X200748Y73835D01*
X199855Y74728D01*
X199855Y77365D01*
X199844Y77415D01*
X199842Y77466D01*
X199824Y77498D01*
X199816Y77534D01*
X199783Y77573D01*
X199759Y77618D01*
X199729Y77639D01*
X199706Y77667D01*
X199659Y77688D01*
X199617Y77718D01*
X199575Y77726D01*
X199547Y77738D01*
X199517Y77737D01*
X199475Y77745D01*
X195750Y77745D01*
X195700Y77734D01*
X195649Y77732D01*
X195617Y77714D01*
X195581Y77706D01*
X195541Y77673D01*
X195497Y77649D01*
X195476Y77619D01*
X195447Y77596D01*
X195426Y77549D01*
X195397Y77507D01*
X195389Y77465D01*
X195376Y77437D01*
X195377Y77407D01*
X195369Y77365D01*
X195369Y76178D01*
X194476Y75285D01*
X185213Y75285D01*
X184320Y76178D01*
X184320Y81429D01*
X184302Y81503D01*
X184289Y81578D01*
X184283Y81588D01*
X184280Y81598D01*
X184257Y81626D01*
X184208Y81698D01*
X180872Y85034D01*
X180808Y85074D01*
X180746Y85118D01*
X180734Y85120D01*
X180725Y85125D01*
X180688Y85129D01*
X180603Y85145D01*
X179935Y85145D01*
X179885Y85134D01*
X179834Y85132D01*
X179802Y85114D01*
X179766Y85106D01*
X179727Y85073D01*
X179682Y85049D01*
X179661Y85019D01*
X179633Y84996D01*
X179612Y84949D01*
X179582Y84907D01*
X179574Y84865D01*
X179562Y84837D01*
X179563Y84807D01*
X179555Y84765D01*
X179555Y83078D01*
X178662Y82185D01*
X167398Y82185D01*
X166670Y82914D01*
X166627Y82941D01*
X166589Y82975D01*
X166554Y82986D01*
X166523Y83005D01*
X166472Y83010D01*
X166423Y83025D01*
X166387Y83018D01*
X166350Y83022D01*
X166303Y83004D01*
X166252Y82995D01*
X166217Y82971D01*
X166188Y82960D01*
X166168Y82938D01*
X166132Y82914D01*
X162914Y79695D01*
X162470Y79695D01*
X162396Y79678D01*
X162321Y79665D01*
X162311Y79658D01*
X162301Y79656D01*
X162273Y79632D01*
X162201Y79584D01*
X162103Y79485D01*
X151063Y79485D01*
X151038Y79479D01*
X151012Y79482D01*
X150955Y79460D01*
X150895Y79446D01*
X150875Y79429D01*
X150851Y79420D01*
X150809Y79375D01*
X150761Y79336D01*
X150750Y79312D01*
X150733Y79293D01*
X150715Y79234D01*
X150690Y79177D01*
X150691Y79152D01*
X150684Y79127D01*
X150694Y79066D01*
X150697Y79004D01*
X150709Y78982D01*
X150713Y78956D01*
X150762Y78885D01*
X150779Y78852D01*
X150787Y78846D01*
X150794Y78836D01*
X155295Y74336D01*
X155295Y74075D01*
X155306Y74025D01*
X155308Y73974D01*
X155326Y73942D01*
X155334Y73906D01*
X155367Y73867D01*
X155391Y73822D01*
X155421Y73801D01*
X155444Y73773D01*
X155491Y73752D01*
X155533Y73722D01*
X155575Y73714D01*
X155603Y73702D01*
X155633Y73703D01*
X155675Y73695D01*
X156402Y73695D01*
X157295Y72802D01*
X157295Y57038D01*
X156876Y56620D01*
X156863Y56598D01*
X156843Y56582D01*
X156817Y56525D01*
X156785Y56473D01*
X156782Y56447D01*
X156772Y56423D01*
X156774Y56362D01*
X156768Y56300D01*
X156777Y56276D01*
X156778Y56250D01*
X156808Y56196D01*
X156830Y56138D01*
X156849Y56121D01*
X156861Y56098D01*
X156912Y56063D01*
X156957Y56021D01*
X156982Y56013D01*
X157003Y55998D01*
X157087Y55982D01*
X157123Y55971D01*
X157133Y55973D01*
X157145Y55971D01*
X159448Y55971D01*
X162671Y52748D01*
X162671Y48192D01*
X159448Y44969D01*
X154892Y44969D01*
X153844Y46017D01*
X153822Y46031D01*
X153806Y46050D01*
X153749Y46076D01*
X153697Y46108D01*
X153671Y46111D01*
X153647Y46121D01*
X153586Y46119D01*
X153524Y46125D01*
X153500Y46116D01*
X153474Y46115D01*
X153420Y46085D01*
X153362Y46063D01*
X153345Y46044D01*
X153322Y46032D01*
X153287Y45982D01*
X153245Y45936D01*
X153237Y45911D01*
X153222Y45890D01*
X153206Y45806D01*
X153195Y45770D01*
X153197Y45760D01*
X153195Y45748D01*
X153195Y35824D01*
X153206Y35774D01*
X153208Y35723D01*
X153226Y35691D01*
X153234Y35655D01*
X153267Y35615D01*
X153291Y35571D01*
X153321Y35550D01*
X153344Y35521D01*
X153391Y35500D01*
X153433Y35471D01*
X153475Y35463D01*
X153503Y35450D01*
X153533Y35451D01*
X153575Y35443D01*
X176306Y35443D01*
X176380Y35461D01*
G37*
G36*
X3169Y236708D02*
X3169Y236708D01*
X3244Y236711D01*
X3255Y236717D01*
X3268Y236718D01*
X3331Y236758D01*
X3396Y236793D01*
X3403Y236804D01*
X3414Y236811D01*
X3494Y236932D01*
X4710Y239867D01*
X7783Y242940D01*
X11797Y244603D01*
X16143Y244603D01*
X20157Y242940D01*
X23230Y239867D01*
X24012Y237979D01*
X24049Y237928D01*
X24079Y237872D01*
X24099Y237858D01*
X24113Y237839D01*
X24169Y237809D01*
X24221Y237772D01*
X24247Y237767D01*
X24266Y237757D01*
X24304Y237756D01*
X24363Y237745D01*
X66739Y237745D01*
X66813Y237762D01*
X66888Y237775D01*
X66898Y237782D01*
X66908Y237784D01*
X66936Y237808D01*
X67008Y237856D01*
X75263Y246111D01*
X75290Y246154D01*
X75324Y246192D01*
X75335Y246227D01*
X75354Y246258D01*
X75359Y246309D01*
X75373Y246358D01*
X75367Y246394D01*
X75371Y246431D01*
X75353Y246479D01*
X75344Y246529D01*
X75320Y246564D01*
X75309Y246593D01*
X75287Y246614D01*
X75263Y246649D01*
X59358Y262554D01*
X59293Y262594D01*
X59231Y262638D01*
X59219Y262640D01*
X59211Y262645D01*
X59174Y262649D01*
X59089Y262665D01*
X56165Y262665D01*
X56115Y262654D01*
X56064Y262652D01*
X56032Y262634D01*
X55996Y262626D01*
X55957Y262593D01*
X55912Y262569D01*
X55891Y262539D01*
X55863Y262516D01*
X55842Y262469D01*
X55812Y262427D01*
X55804Y262385D01*
X55792Y262357D01*
X55793Y262327D01*
X55785Y262285D01*
X55785Y261398D01*
X54892Y260505D01*
X37628Y260505D01*
X36735Y261398D01*
X36735Y272062D01*
X37485Y272811D01*
X37512Y272854D01*
X37546Y272892D01*
X37557Y272927D01*
X37576Y272958D01*
X37581Y273009D01*
X37596Y273058D01*
X37589Y273094D01*
X37593Y273131D01*
X37575Y273178D01*
X37566Y273229D01*
X37542Y273264D01*
X37531Y273293D01*
X37509Y273314D01*
X37485Y273349D01*
X36735Y274098D01*
X36735Y276525D01*
X36724Y276575D01*
X36722Y276626D01*
X36704Y276658D01*
X36696Y276694D01*
X36663Y276733D01*
X36639Y276778D01*
X36609Y276799D01*
X36586Y276827D01*
X36539Y276848D01*
X36497Y276878D01*
X36455Y276886D01*
X36427Y276898D01*
X36397Y276897D01*
X36355Y276905D01*
X27903Y276905D01*
X27829Y276888D01*
X27755Y276875D01*
X27744Y276868D01*
X27735Y276866D01*
X27706Y276842D01*
X27634Y276794D01*
X19869Y269028D01*
X19849Y268996D01*
X19821Y268969D01*
X19803Y268923D01*
X19777Y268881D01*
X19774Y268843D01*
X19760Y268807D01*
X19766Y268758D01*
X19761Y268709D01*
X19775Y268673D01*
X19779Y268634D01*
X19805Y268593D01*
X19823Y268547D01*
X19851Y268521D01*
X19871Y268488D01*
X19922Y268455D01*
X19950Y268429D01*
X19970Y268423D01*
X19992Y268408D01*
X20157Y268340D01*
X23230Y265267D01*
X24893Y261253D01*
X24893Y256907D01*
X23230Y252893D01*
X20157Y249820D01*
X16143Y248157D01*
X11797Y248157D01*
X7783Y249820D01*
X4710Y252893D01*
X3494Y255828D01*
X3487Y255839D01*
X3484Y255851D01*
X3437Y255909D01*
X3393Y255969D01*
X3382Y255975D01*
X3374Y255985D01*
X3306Y256015D01*
X3240Y256050D01*
X3227Y256051D01*
X3215Y256056D01*
X3141Y256053D01*
X3067Y256055D01*
X3055Y256050D01*
X3042Y256049D01*
X2977Y256014D01*
X2910Y255983D01*
X2901Y255973D01*
X2890Y255967D01*
X2847Y255906D01*
X2801Y255848D01*
X2798Y255836D01*
X2790Y255825D01*
X2763Y255683D01*
X2763Y237077D01*
X2766Y237065D01*
X2764Y237052D01*
X2785Y236981D01*
X2802Y236909D01*
X2810Y236899D01*
X2814Y236886D01*
X2865Y236832D01*
X2912Y236775D01*
X2924Y236770D01*
X2933Y236760D01*
X3003Y236734D01*
X3071Y236704D01*
X3084Y236705D01*
X3096Y236700D01*
X3169Y236708D01*
G37*
G36*
X213324Y74974D02*
X213324Y74974D01*
X213386Y74976D01*
X213408Y74988D01*
X213434Y74993D01*
X213505Y75041D01*
X213538Y75059D01*
X213544Y75067D01*
X213554Y75074D01*
X218744Y80264D01*
X218784Y80328D01*
X218828Y80391D01*
X218830Y80403D01*
X218835Y80411D01*
X218839Y80448D01*
X218855Y80533D01*
X218855Y87107D01*
X218838Y87181D01*
X218825Y87256D01*
X218818Y87266D01*
X218816Y87276D01*
X218792Y87305D01*
X218744Y87376D01*
X214538Y91582D01*
X214474Y91622D01*
X214411Y91666D01*
X214399Y91668D01*
X214391Y91673D01*
X214354Y91677D01*
X214269Y91693D01*
X197917Y91693D01*
X195722Y93888D01*
X191436Y98174D01*
X191372Y98214D01*
X191310Y98258D01*
X191297Y98260D01*
X191289Y98265D01*
X191252Y98269D01*
X191167Y98285D01*
X185213Y98285D01*
X184320Y99178D01*
X184320Y110442D01*
X185213Y111335D01*
X194476Y111335D01*
X195369Y110442D01*
X195369Y104458D01*
X195387Y104384D01*
X195400Y104309D01*
X195406Y104299D01*
X195409Y104289D01*
X195433Y104261D01*
X195481Y104189D01*
X200752Y98918D01*
X200816Y98878D01*
X200878Y98834D01*
X200891Y98832D01*
X200899Y98827D01*
X200936Y98823D01*
X201021Y98807D01*
X212872Y98807D01*
X212922Y98818D01*
X212973Y98820D01*
X213005Y98838D01*
X213041Y98846D01*
X213080Y98879D01*
X213125Y98903D01*
X213146Y98933D01*
X213174Y98956D01*
X213195Y99003D01*
X213225Y99045D01*
X213233Y99087D01*
X213245Y99115D01*
X213244Y99145D01*
X213252Y99187D01*
X213252Y111452D01*
X214145Y112345D01*
X217837Y112345D01*
X217911Y112362D01*
X217985Y112375D01*
X217996Y112382D01*
X218005Y112384D01*
X218034Y112408D01*
X218106Y112456D01*
X219613Y113964D01*
X219614Y113964D01*
X219625Y113976D01*
X219639Y113998D01*
X219659Y114014D01*
X219684Y114071D01*
X219717Y114123D01*
X219719Y114149D01*
X219730Y114173D01*
X219728Y114234D01*
X219734Y114295D01*
X219724Y114320D01*
X219723Y114346D01*
X219694Y114400D01*
X219672Y114457D01*
X219653Y114475D01*
X219641Y114498D01*
X219590Y114533D01*
X219545Y114575D01*
X219520Y114583D01*
X219499Y114598D01*
X219415Y114614D01*
X219379Y114625D01*
X219369Y114623D01*
X219357Y114625D01*
X158376Y114625D01*
X158326Y114614D01*
X158275Y114612D01*
X158243Y114594D01*
X158207Y114586D01*
X158168Y114553D01*
X158123Y114529D01*
X158102Y114499D01*
X158074Y114476D01*
X158053Y114429D01*
X158023Y114387D01*
X158015Y114345D01*
X158003Y114317D01*
X158004Y114287D01*
X157996Y114245D01*
X157996Y107415D01*
X158007Y107365D01*
X158009Y107314D01*
X158027Y107282D01*
X158035Y107246D01*
X158068Y107207D01*
X158092Y107162D01*
X158122Y107141D01*
X158145Y107113D01*
X158192Y107092D01*
X158234Y107062D01*
X158276Y107054D01*
X158304Y107042D01*
X158334Y107043D01*
X158376Y107035D01*
X162103Y107035D01*
X162996Y106142D01*
X162996Y99378D01*
X162103Y98485D01*
X148839Y98485D01*
X147946Y99378D01*
X147946Y106142D01*
X148839Y107035D01*
X152566Y107035D01*
X152616Y107046D01*
X152667Y107048D01*
X152699Y107066D01*
X152735Y107074D01*
X152774Y107107D01*
X152819Y107131D01*
X152840Y107161D01*
X152868Y107184D01*
X152889Y107231D01*
X152919Y107273D01*
X152927Y107315D01*
X152939Y107343D01*
X152938Y107373D01*
X152946Y107415D01*
X152946Y114245D01*
X152935Y114295D01*
X152933Y114346D01*
X152915Y114378D01*
X152907Y114414D01*
X152874Y114453D01*
X152850Y114498D01*
X152820Y114519D01*
X152797Y114547D01*
X152750Y114568D01*
X152708Y114598D01*
X152666Y114606D01*
X152638Y114618D01*
X152608Y114617D01*
X152566Y114625D01*
X150782Y114625D01*
X150733Y114614D01*
X150682Y114612D01*
X150649Y114594D01*
X150614Y114586D01*
X150574Y114553D01*
X150529Y114529D01*
X150508Y114499D01*
X150480Y114476D01*
X150459Y114429D01*
X150430Y114387D01*
X150422Y114345D01*
X150409Y114317D01*
X150410Y114287D01*
X150402Y114245D01*
X150402Y113518D01*
X149509Y112625D01*
X142846Y112625D01*
X142126Y113345D01*
X142083Y113372D01*
X142045Y113406D01*
X142010Y113417D01*
X141979Y113436D01*
X141928Y113441D01*
X141879Y113456D01*
X141843Y113449D01*
X141807Y113453D01*
X141759Y113435D01*
X141709Y113426D01*
X141673Y113402D01*
X141645Y113391D01*
X141624Y113369D01*
X141588Y113345D01*
X141271Y113027D01*
X141261Y113012D01*
X141256Y113007D01*
X141248Y112991D01*
X141244Y112984D01*
X141209Y112947D01*
X141199Y112911D01*
X141180Y112880D01*
X141175Y112829D01*
X141160Y112780D01*
X141166Y112744D01*
X141163Y112708D01*
X141181Y112660D01*
X141190Y112610D01*
X141214Y112574D01*
X141225Y112546D01*
X141247Y112525D01*
X141271Y112490D01*
X142934Y110826D01*
X144525Y109236D01*
X144525Y85263D01*
X144542Y85189D01*
X144555Y85115D01*
X144562Y85104D01*
X144564Y85095D01*
X144588Y85066D01*
X144636Y84994D01*
X147297Y82333D01*
X147319Y82320D01*
X147335Y82300D01*
X147392Y82275D01*
X147444Y82242D01*
X147470Y82240D01*
X147494Y82229D01*
X147555Y82231D01*
X147617Y82225D01*
X147641Y82235D01*
X147667Y82236D01*
X147721Y82265D01*
X147779Y82287D01*
X147796Y82306D01*
X147819Y82318D01*
X147854Y82369D01*
X147896Y82414D01*
X147904Y82439D01*
X147919Y82460D01*
X147935Y82545D01*
X147946Y82580D01*
X147944Y82590D01*
X147946Y82602D01*
X147946Y87142D01*
X148839Y88035D01*
X159599Y88035D01*
X159673Y88052D01*
X159748Y88065D01*
X159758Y88072D01*
X159768Y88074D01*
X159796Y88098D01*
X159868Y88146D01*
X164996Y93275D01*
X166125Y93275D01*
X166175Y93286D01*
X166226Y93288D01*
X166258Y93306D01*
X166294Y93314D01*
X166333Y93347D01*
X166378Y93371D01*
X166399Y93401D01*
X166427Y93424D01*
X166448Y93471D01*
X166478Y93513D01*
X166486Y93555D01*
X166498Y93583D01*
X166497Y93613D01*
X166505Y93655D01*
X166505Y95342D01*
X167398Y96235D01*
X178662Y96235D01*
X179555Y95342D01*
X179555Y93655D01*
X179566Y93605D01*
X179568Y93554D01*
X179586Y93522D01*
X179594Y93486D01*
X179627Y93447D01*
X179651Y93402D01*
X179681Y93381D01*
X179704Y93353D01*
X179751Y93332D01*
X179793Y93302D01*
X179835Y93294D01*
X179863Y93282D01*
X179893Y93283D01*
X179935Y93275D01*
X184128Y93275D01*
X188957Y88446D01*
X189021Y88406D01*
X189083Y88362D01*
X189096Y88360D01*
X189104Y88355D01*
X189141Y88351D01*
X189226Y88335D01*
X194476Y88335D01*
X195369Y87442D01*
X195369Y86255D01*
X195381Y86205D01*
X195383Y86154D01*
X195400Y86122D01*
X195409Y86086D01*
X195441Y86047D01*
X195466Y86002D01*
X195496Y85981D01*
X195519Y85953D01*
X195566Y85932D01*
X195607Y85902D01*
X195649Y85894D01*
X195677Y85882D01*
X195708Y85883D01*
X195750Y85875D01*
X199475Y85875D01*
X199525Y85886D01*
X199576Y85888D01*
X199608Y85906D01*
X199644Y85914D01*
X199683Y85947D01*
X199728Y85971D01*
X199749Y86001D01*
X199777Y86024D01*
X199798Y86071D01*
X199828Y86113D01*
X199836Y86155D01*
X199848Y86183D01*
X199847Y86213D01*
X199855Y86255D01*
X199855Y89992D01*
X200748Y90885D01*
X212012Y90885D01*
X212905Y89992D01*
X212905Y75343D01*
X212911Y75318D01*
X212908Y75292D01*
X212930Y75234D01*
X212944Y75174D01*
X212961Y75154D01*
X212970Y75130D01*
X213015Y75088D01*
X213054Y75040D01*
X213078Y75030D01*
X213097Y75012D01*
X213156Y74995D01*
X213213Y74969D01*
X213238Y74970D01*
X213263Y74963D01*
X213324Y74974D01*
G37*
%LPC*%
G36*
X61138Y2885D02*
X61138Y2885D01*
X60245Y3778D01*
X60245Y6657D01*
X60228Y6731D01*
X60215Y6806D01*
X60208Y6816D01*
X60206Y6826D01*
X60182Y6854D01*
X60134Y6926D01*
X57236Y9824D01*
X57171Y9864D01*
X57109Y9908D01*
X57097Y9910D01*
X57089Y9915D01*
X57052Y9919D01*
X56967Y9935D01*
X54314Y9935D01*
X52836Y11414D01*
X52771Y11454D01*
X52709Y11498D01*
X52697Y11500D01*
X52688Y11505D01*
X52651Y11509D01*
X52567Y11525D01*
X48438Y11525D01*
X47545Y12418D01*
X47545Y19082D01*
X48438Y19975D01*
X49165Y19975D01*
X49215Y19986D01*
X49266Y19988D01*
X49298Y20006D01*
X49334Y20014D01*
X49373Y20047D01*
X49418Y20071D01*
X49439Y20101D01*
X49467Y20124D01*
X49488Y20171D01*
X49518Y20213D01*
X49526Y20255D01*
X49538Y20283D01*
X49538Y20302D01*
X49538Y20304D01*
X49538Y20317D01*
X49545Y20355D01*
X49545Y26966D01*
X49528Y27040D01*
X49515Y27115D01*
X49508Y27125D01*
X49506Y27135D01*
X49482Y27163D01*
X49434Y27235D01*
X47013Y29655D01*
X47013Y33845D01*
X49365Y36196D01*
X49378Y36218D01*
X49398Y36234D01*
X49424Y36291D01*
X49456Y36343D01*
X49459Y36369D01*
X49469Y36393D01*
X49467Y36454D01*
X49473Y36516D01*
X49464Y36540D01*
X49463Y36566D01*
X49433Y36620D01*
X49411Y36678D01*
X49392Y36695D01*
X49380Y36718D01*
X49329Y36753D01*
X49284Y36795D01*
X49259Y36803D01*
X49238Y36818D01*
X49154Y36834D01*
X49118Y36845D01*
X49108Y36843D01*
X49096Y36845D01*
X31225Y36845D01*
X31175Y36834D01*
X31124Y36832D01*
X31092Y36814D01*
X31056Y36806D01*
X31017Y36773D01*
X30972Y36749D01*
X30951Y36719D01*
X30923Y36696D01*
X30902Y36649D01*
X30872Y36607D01*
X30864Y36565D01*
X30852Y36537D01*
X30853Y36507D01*
X30845Y36465D01*
X30845Y20195D01*
X30856Y20145D01*
X30858Y20094D01*
X30876Y20062D01*
X30884Y20026D01*
X30917Y19987D01*
X30941Y19942D01*
X30971Y19921D01*
X30994Y19893D01*
X31041Y19872D01*
X31083Y19842D01*
X31125Y19834D01*
X31153Y19822D01*
X31183Y19823D01*
X31225Y19815D01*
X33952Y19815D01*
X34845Y18922D01*
X34845Y8658D01*
X33952Y7765D01*
X22688Y7765D01*
X21795Y8658D01*
X21795Y18922D01*
X22688Y19815D01*
X25415Y19815D01*
X25465Y19826D01*
X25516Y19828D01*
X25548Y19846D01*
X25584Y19854D01*
X25623Y19887D01*
X25668Y19911D01*
X25689Y19941D01*
X25717Y19964D01*
X25738Y20011D01*
X25768Y20053D01*
X25776Y20095D01*
X25788Y20123D01*
X25787Y20153D01*
X25795Y20195D01*
X25795Y48385D01*
X25784Y48435D01*
X25782Y48486D01*
X25764Y48518D01*
X25756Y48554D01*
X25723Y48593D01*
X25699Y48638D01*
X25669Y48659D01*
X25646Y48687D01*
X25599Y48708D01*
X25557Y48738D01*
X25515Y48746D01*
X25487Y48758D01*
X25457Y48757D01*
X25415Y48765D01*
X22688Y48765D01*
X21795Y49658D01*
X21795Y59922D01*
X22688Y60815D01*
X33952Y60815D01*
X34845Y59922D01*
X34845Y49658D01*
X33952Y48765D01*
X31225Y48765D01*
X31175Y48754D01*
X31124Y48752D01*
X31092Y48734D01*
X31056Y48726D01*
X31017Y48693D01*
X30972Y48669D01*
X30951Y48639D01*
X30923Y48616D01*
X30902Y48569D01*
X30872Y48527D01*
X30864Y48485D01*
X30852Y48457D01*
X30853Y48427D01*
X30845Y48385D01*
X30845Y42275D01*
X30856Y42225D01*
X30858Y42174D01*
X30876Y42142D01*
X30884Y42106D01*
X30917Y42067D01*
X30941Y42022D01*
X30971Y42001D01*
X30994Y41973D01*
X31041Y41952D01*
X31083Y41922D01*
X31125Y41914D01*
X31153Y41902D01*
X31183Y41903D01*
X31225Y41895D01*
X53407Y41895D01*
X53481Y41912D01*
X53555Y41925D01*
X53566Y41932D01*
X53575Y41934D01*
X53604Y41958D01*
X53676Y42006D01*
X54522Y42852D01*
X54562Y42917D01*
X54606Y42979D01*
X54608Y42991D01*
X54613Y43000D01*
X54617Y43037D01*
X54633Y43121D01*
X54633Y45275D01*
X57595Y48237D01*
X61785Y48237D01*
X64747Y45275D01*
X64747Y41085D01*
X61785Y38123D01*
X57595Y38123D01*
X57534Y38185D01*
X57490Y38212D01*
X57453Y38247D01*
X57418Y38257D01*
X57386Y38277D01*
X57336Y38281D01*
X57287Y38296D01*
X57250Y38290D01*
X57214Y38293D01*
X57166Y38275D01*
X57116Y38266D01*
X57081Y38242D01*
X57052Y38232D01*
X57031Y38209D01*
X56996Y38185D01*
X55656Y36845D01*
X55044Y36845D01*
X55019Y36839D01*
X54993Y36842D01*
X54935Y36820D01*
X54875Y36806D01*
X54855Y36789D01*
X54831Y36780D01*
X54789Y36735D01*
X54742Y36696D01*
X54731Y36672D01*
X54714Y36653D01*
X54696Y36594D01*
X54671Y36537D01*
X54672Y36512D01*
X54664Y36487D01*
X54675Y36426D01*
X54677Y36364D01*
X54690Y36342D01*
X54694Y36316D01*
X54742Y36245D01*
X54760Y36212D01*
X54768Y36206D01*
X54775Y36196D01*
X57127Y33845D01*
X57127Y29655D01*
X54706Y27235D01*
X54666Y27170D01*
X54622Y27108D01*
X54620Y27096D01*
X54615Y27088D01*
X54611Y27051D01*
X54595Y26966D01*
X54595Y20355D01*
X54606Y20305D01*
X54608Y20254D01*
X54626Y20222D01*
X54634Y20186D01*
X54667Y20147D01*
X54691Y20102D01*
X54721Y20081D01*
X54744Y20053D01*
X54791Y20032D01*
X54833Y20002D01*
X54875Y19994D01*
X54903Y19982D01*
X54933Y19983D01*
X54975Y19975D01*
X55702Y19975D01*
X56595Y19082D01*
X56595Y15365D01*
X56606Y15315D01*
X56608Y15264D01*
X56626Y15232D01*
X56634Y15196D01*
X56667Y15157D01*
X56691Y15112D01*
X56721Y15091D01*
X56744Y15063D01*
X56791Y15042D01*
X56833Y15012D01*
X56875Y15004D01*
X56903Y14992D01*
X56933Y14993D01*
X56975Y14985D01*
X59216Y14985D01*
X59596Y14605D01*
X59618Y14591D01*
X59634Y14571D01*
X59691Y14546D01*
X59743Y14513D01*
X59769Y14511D01*
X59793Y14500D01*
X59854Y14503D01*
X59916Y14497D01*
X59940Y14506D01*
X59966Y14507D01*
X60020Y14536D01*
X60078Y14558D01*
X60095Y14577D01*
X60118Y14590D01*
X60153Y14640D01*
X60195Y14685D01*
X60203Y14710D01*
X60218Y14731D01*
X60234Y14816D01*
X60245Y14852D01*
X60243Y14861D01*
X60245Y14873D01*
X60245Y19082D01*
X61138Y19975D01*
X66953Y19975D01*
X67003Y19986D01*
X67054Y19988D01*
X67086Y20006D01*
X67122Y20014D01*
X67161Y20047D01*
X67206Y20071D01*
X67227Y20101D01*
X67255Y20124D01*
X67276Y20171D01*
X67306Y20213D01*
X67314Y20255D01*
X67326Y20283D01*
X67326Y20302D01*
X67326Y20304D01*
X67326Y20317D01*
X67333Y20355D01*
X67333Y23685D01*
X70295Y26647D01*
X74485Y26647D01*
X77447Y23685D01*
X77447Y19495D01*
X74485Y16533D01*
X71061Y16533D01*
X70987Y16516D01*
X70913Y16503D01*
X70902Y16496D01*
X70893Y16494D01*
X70864Y16470D01*
X70792Y16422D01*
X69406Y15036D01*
X69366Y14971D01*
X69322Y14909D01*
X69320Y14897D01*
X69315Y14888D01*
X69311Y14851D01*
X69295Y14767D01*
X69295Y12418D01*
X68575Y11699D01*
X68548Y11656D01*
X68514Y11618D01*
X68503Y11583D01*
X68484Y11552D01*
X68479Y11501D01*
X68464Y11452D01*
X68471Y11416D01*
X68467Y11379D01*
X68485Y11332D01*
X68494Y11281D01*
X68518Y11246D01*
X68529Y11217D01*
X68551Y11196D01*
X68575Y11161D01*
X69295Y10442D01*
X69295Y3778D01*
X68402Y2885D01*
X61138Y2885D01*
G37*
%LPD*%
%LPC*%
G36*
X22550Y72991D02*
X22550Y72991D01*
X21657Y73884D01*
X21657Y84147D01*
X22550Y85041D01*
X25277Y85041D01*
X25327Y85052D01*
X25378Y85054D01*
X25410Y85072D01*
X25446Y85080D01*
X25485Y85113D01*
X25530Y85137D01*
X25551Y85167D01*
X25579Y85190D01*
X25600Y85237D01*
X25630Y85279D01*
X25638Y85320D01*
X25650Y85348D01*
X25649Y85379D01*
X25657Y85421D01*
X25657Y96574D01*
X25640Y96648D01*
X25627Y96723D01*
X25620Y96733D01*
X25618Y96743D01*
X25594Y96771D01*
X25546Y96843D01*
X22883Y99505D01*
X22883Y103695D01*
X25546Y106357D01*
X25586Y106422D01*
X25630Y106484D01*
X25632Y106496D01*
X25637Y106504D01*
X25641Y106541D01*
X25657Y106626D01*
X25657Y113611D01*
X25646Y113661D01*
X25644Y113712D01*
X25626Y113744D01*
X25618Y113780D01*
X25585Y113819D01*
X25561Y113864D01*
X25531Y113885D01*
X25508Y113913D01*
X25461Y113934D01*
X25419Y113964D01*
X25377Y113972D01*
X25349Y113984D01*
X25319Y113983D01*
X25277Y113991D01*
X22550Y113991D01*
X21657Y114884D01*
X21657Y125147D01*
X22550Y126041D01*
X33814Y126041D01*
X34707Y125147D01*
X34707Y114884D01*
X33814Y113991D01*
X31087Y113991D01*
X31037Y113980D01*
X30986Y113978D01*
X30954Y113960D01*
X30918Y113952D01*
X30879Y113919D01*
X30834Y113895D01*
X30813Y113865D01*
X30785Y113841D01*
X30764Y113795D01*
X30734Y113753D01*
X30726Y113711D01*
X30714Y113683D01*
X30715Y113653D01*
X30707Y113611D01*
X30707Y106142D01*
X30724Y106068D01*
X30737Y105993D01*
X30744Y105983D01*
X30746Y105973D01*
X30770Y105945D01*
X30818Y105873D01*
X32997Y103695D01*
X32997Y99505D01*
X30818Y97327D01*
X30778Y97262D01*
X30734Y97200D01*
X30732Y97188D01*
X30727Y97180D01*
X30723Y97143D01*
X30707Y97058D01*
X30707Y85421D01*
X30718Y85371D01*
X30720Y85320D01*
X30738Y85288D01*
X30746Y85252D01*
X30779Y85213D01*
X30803Y85168D01*
X30833Y85147D01*
X30856Y85119D01*
X30903Y85098D01*
X30945Y85068D01*
X30987Y85060D01*
X31014Y85048D01*
X31045Y85049D01*
X31087Y85041D01*
X33814Y85041D01*
X34707Y84147D01*
X34707Y73884D01*
X33814Y72991D01*
X22550Y72991D01*
G37*
%LPD*%
G36*
X36430Y345846D02*
X36430Y345846D01*
X36456Y345847D01*
X36510Y345876D01*
X36568Y345898D01*
X36585Y345917D01*
X36608Y345929D01*
X36643Y345980D01*
X36685Y346025D01*
X36693Y346050D01*
X36708Y346071D01*
X36724Y346155D01*
X36735Y346191D01*
X36733Y346201D01*
X36735Y346213D01*
X36735Y348262D01*
X37485Y349011D01*
X37512Y349054D01*
X37546Y349092D01*
X37557Y349127D01*
X37576Y349158D01*
X37581Y349209D01*
X37596Y349258D01*
X37589Y349294D01*
X37593Y349331D01*
X37575Y349378D01*
X37566Y349429D01*
X37542Y349464D01*
X37531Y349493D01*
X37509Y349514D01*
X37489Y349543D01*
X37488Y349545D01*
X37487Y349546D01*
X37485Y349549D01*
X36735Y350298D01*
X36735Y360962D01*
X37485Y361711D01*
X37512Y361754D01*
X37546Y361792D01*
X37557Y361827D01*
X37576Y361858D01*
X37581Y361909D01*
X37596Y361958D01*
X37589Y361994D01*
X37593Y362031D01*
X37575Y362078D01*
X37566Y362129D01*
X37542Y362164D01*
X37531Y362193D01*
X37509Y362214D01*
X37485Y362249D01*
X36735Y362998D01*
X36735Y373662D01*
X37485Y374411D01*
X37512Y374454D01*
X37546Y374492D01*
X37557Y374527D01*
X37576Y374558D01*
X37581Y374609D01*
X37596Y374658D01*
X37589Y374694D01*
X37593Y374731D01*
X37575Y374778D01*
X37566Y374829D01*
X37542Y374864D01*
X37531Y374893D01*
X37509Y374914D01*
X37485Y374949D01*
X36735Y375698D01*
X36735Y386362D01*
X37485Y387111D01*
X37512Y387154D01*
X37546Y387192D01*
X37557Y387227D01*
X37576Y387258D01*
X37581Y387309D01*
X37596Y387358D01*
X37589Y387394D01*
X37593Y387431D01*
X37575Y387478D01*
X37566Y387529D01*
X37542Y387564D01*
X37531Y387593D01*
X37509Y387614D01*
X37485Y387649D01*
X36735Y388398D01*
X36735Y399062D01*
X37485Y399811D01*
X37512Y399854D01*
X37546Y399892D01*
X37557Y399927D01*
X37576Y399958D01*
X37581Y400009D01*
X37596Y400058D01*
X37589Y400094D01*
X37593Y400131D01*
X37575Y400178D01*
X37566Y400229D01*
X37542Y400264D01*
X37531Y400293D01*
X37509Y400314D01*
X37485Y400349D01*
X36735Y401098D01*
X36735Y403525D01*
X36724Y403575D01*
X36722Y403626D01*
X36704Y403658D01*
X36696Y403694D01*
X36663Y403733D01*
X36639Y403778D01*
X36609Y403799D01*
X36586Y403827D01*
X36539Y403848D01*
X36497Y403878D01*
X36455Y403886D01*
X36427Y403898D01*
X36397Y403897D01*
X36355Y403905D01*
X22000Y403905D01*
X21926Y403888D01*
X21851Y403875D01*
X21841Y403868D01*
X21831Y403866D01*
X21802Y403842D01*
X21731Y403794D01*
X20157Y402220D01*
X16143Y400557D01*
X11797Y400557D01*
X7783Y402220D01*
X4710Y405293D01*
X3494Y408228D01*
X3487Y408239D01*
X3484Y408251D01*
X3437Y408309D01*
X3393Y408369D01*
X3382Y408375D01*
X3374Y408385D01*
X3306Y408415D01*
X3240Y408450D01*
X3227Y408451D01*
X3215Y408456D01*
X3141Y408453D01*
X3067Y408455D01*
X3055Y408450D01*
X3042Y408449D01*
X2977Y408414D01*
X2910Y408383D01*
X2901Y408373D01*
X2890Y408367D01*
X2847Y408306D01*
X2801Y408248D01*
X2798Y408236D01*
X2790Y408225D01*
X2763Y408083D01*
X2763Y389477D01*
X2766Y389465D01*
X2764Y389452D01*
X2785Y389381D01*
X2802Y389309D01*
X2810Y389299D01*
X2814Y389286D01*
X2865Y389232D01*
X2912Y389175D01*
X2924Y389170D01*
X2933Y389160D01*
X3003Y389134D01*
X3071Y389104D01*
X3084Y389105D01*
X3096Y389100D01*
X3169Y389108D01*
X3244Y389111D01*
X3255Y389117D01*
X3268Y389118D01*
X3331Y389158D01*
X3396Y389193D01*
X3403Y389204D01*
X3414Y389211D01*
X3494Y389332D01*
X4710Y392267D01*
X7783Y395340D01*
X11797Y397003D01*
X16143Y397003D01*
X20157Y395340D01*
X23230Y392267D01*
X24893Y388253D01*
X24893Y387775D01*
X24910Y387701D01*
X24923Y387627D01*
X24930Y387616D01*
X24932Y387607D01*
X24956Y387578D01*
X25004Y387506D01*
X35545Y376966D01*
X35545Y346643D01*
X35562Y346569D01*
X35575Y346495D01*
X35582Y346484D01*
X35584Y346475D01*
X35608Y346446D01*
X35653Y346378D01*
X35654Y346378D01*
X35654Y346377D01*
X35656Y346374D01*
X36086Y345944D01*
X36108Y345931D01*
X36124Y345911D01*
X36181Y345886D01*
X36233Y345853D01*
X36259Y345851D01*
X36283Y345840D01*
X36344Y345842D01*
X36406Y345836D01*
X36430Y345846D01*
G37*
G36*
X238960Y75776D02*
X238960Y75776D01*
X238986Y75777D01*
X239040Y75807D01*
X239098Y75829D01*
X239115Y75848D01*
X239138Y75860D01*
X239173Y75911D01*
X239215Y75956D01*
X239223Y75981D01*
X239238Y76002D01*
X239254Y76086D01*
X239265Y76122D01*
X239263Y76132D01*
X239265Y76144D01*
X239265Y108295D01*
X239254Y108345D01*
X239252Y108396D01*
X239234Y108428D01*
X239226Y108464D01*
X239193Y108503D01*
X239169Y108548D01*
X239139Y108569D01*
X239116Y108597D01*
X239069Y108618D01*
X239027Y108648D01*
X238985Y108656D01*
X238957Y108668D01*
X238927Y108667D01*
X238885Y108675D01*
X238158Y108675D01*
X237265Y109568D01*
X237265Y110125D01*
X237254Y110175D01*
X237252Y110226D01*
X237234Y110258D01*
X237226Y110294D01*
X237193Y110333D01*
X237169Y110378D01*
X237139Y110399D01*
X237116Y110427D01*
X237069Y110448D01*
X237027Y110478D01*
X236985Y110486D01*
X236957Y110498D01*
X236927Y110497D01*
X236885Y110505D01*
X223453Y110505D01*
X223379Y110488D01*
X223305Y110475D01*
X223294Y110468D01*
X223285Y110466D01*
X223256Y110442D01*
X223184Y110394D01*
X221239Y108449D01*
X221199Y108384D01*
X221155Y108322D01*
X221153Y108310D01*
X221148Y108301D01*
X221144Y108264D01*
X221128Y108180D01*
X221128Y99012D01*
X220235Y98119D01*
X218979Y98119D01*
X218954Y98113D01*
X218928Y98116D01*
X218870Y98094D01*
X218810Y98080D01*
X218790Y98063D01*
X218766Y98054D01*
X218724Y98009D01*
X218676Y97970D01*
X218666Y97946D01*
X218648Y97927D01*
X218631Y97868D01*
X218605Y97811D01*
X218606Y97786D01*
X218599Y97761D01*
X218610Y97700D01*
X218612Y97638D01*
X218624Y97616D01*
X218629Y97590D01*
X218677Y97519D01*
X218695Y97486D01*
X218703Y97480D01*
X218710Y97470D01*
X219568Y96612D01*
X225184Y90996D01*
X225248Y90956D01*
X225311Y90912D01*
X225323Y90910D01*
X225331Y90905D01*
X225368Y90901D01*
X225453Y90885D01*
X231012Y90885D01*
X231905Y89992D01*
X231905Y78293D01*
X231922Y78219D01*
X231935Y78145D01*
X231942Y78134D01*
X231944Y78125D01*
X231968Y78096D01*
X232016Y78024D01*
X232482Y77558D01*
X232547Y77518D01*
X232609Y77474D01*
X232621Y77472D01*
X232630Y77467D01*
X232667Y77463D01*
X232751Y77447D01*
X237045Y77447D01*
X238616Y75875D01*
X238638Y75862D01*
X238654Y75842D01*
X238711Y75816D01*
X238763Y75784D01*
X238789Y75781D01*
X238813Y75771D01*
X238874Y75773D01*
X238936Y75767D01*
X238960Y75776D01*
G37*
%LPC*%
G36*
X221997Y138345D02*
X221997Y138345D01*
X220225Y140117D01*
X220225Y148366D01*
X220208Y148440D01*
X220195Y148515D01*
X220188Y148525D01*
X220186Y148535D01*
X220162Y148564D01*
X220114Y148635D01*
X218122Y150627D01*
X218122Y152995D01*
X218110Y153045D01*
X218108Y153096D01*
X218091Y153128D01*
X218082Y153164D01*
X218050Y153203D01*
X218026Y153248D01*
X217996Y153269D01*
X217972Y153297D01*
X217926Y153318D01*
X217884Y153348D01*
X217842Y153356D01*
X217814Y153368D01*
X217783Y153367D01*
X217742Y153375D01*
X213898Y153375D01*
X213005Y154268D01*
X213005Y161532D01*
X213898Y162425D01*
X220562Y162425D01*
X221281Y161705D01*
X221324Y161678D01*
X221362Y161644D01*
X221397Y161633D01*
X221428Y161614D01*
X221479Y161609D01*
X221528Y161594D01*
X221564Y161601D01*
X221601Y161597D01*
X221648Y161615D01*
X221699Y161624D01*
X221734Y161648D01*
X221763Y161659D01*
X221784Y161681D01*
X221819Y161705D01*
X222538Y162425D01*
X229202Y162425D01*
X230095Y161532D01*
X230095Y160805D01*
X230106Y160755D01*
X230108Y160704D01*
X230126Y160672D01*
X230134Y160636D01*
X230167Y160597D01*
X230191Y160552D01*
X230221Y160531D01*
X230244Y160503D01*
X230291Y160482D01*
X230333Y160452D01*
X230375Y160444D01*
X230403Y160432D01*
X230433Y160433D01*
X230475Y160425D01*
X234396Y160425D01*
X234470Y160442D01*
X234545Y160455D01*
X234555Y160462D01*
X234565Y160464D01*
X234593Y160488D01*
X234665Y160536D01*
X236665Y162537D01*
X240855Y162537D01*
X243817Y159575D01*
X243817Y155385D01*
X240855Y152423D01*
X236665Y152423D01*
X233825Y155264D01*
X233760Y155304D01*
X233698Y155348D01*
X233686Y155350D01*
X233678Y155355D01*
X233641Y155359D01*
X233556Y155375D01*
X230475Y155375D01*
X230425Y155364D01*
X230374Y155362D01*
X230342Y155344D01*
X230306Y155336D01*
X230267Y155303D01*
X230222Y155279D01*
X230201Y155249D01*
X230173Y155226D01*
X230152Y155179D01*
X230122Y155137D01*
X230114Y155095D01*
X230102Y155067D01*
X230102Y155058D01*
X230102Y155057D01*
X230103Y155035D01*
X230095Y154995D01*
X230095Y154268D01*
X229202Y153375D01*
X223552Y153375D01*
X223502Y153364D01*
X223451Y153362D01*
X223419Y153344D01*
X223383Y153336D01*
X223343Y153303D01*
X223299Y153279D01*
X223278Y153249D01*
X223249Y153226D01*
X223228Y153179D01*
X223199Y153137D01*
X223191Y153095D01*
X223178Y153067D01*
X223179Y153037D01*
X223171Y152995D01*
X223171Y152876D01*
X223189Y152802D01*
X223202Y152728D01*
X223208Y152718D01*
X223211Y152708D01*
X223235Y152679D01*
X223283Y152608D01*
X224384Y151506D01*
X224449Y151466D01*
X224511Y151422D01*
X224523Y151420D01*
X224531Y151415D01*
X224568Y151411D01*
X224653Y151395D01*
X231503Y151395D01*
X233275Y149623D01*
X233275Y140117D01*
X231503Y138345D01*
X221997Y138345D01*
G37*
%LPD*%
%LPC*%
G36*
X169996Y42739D02*
X169996Y42739D01*
X167308Y43852D01*
X165250Y45910D01*
X164137Y48598D01*
X164137Y63088D01*
X165250Y65777D01*
X167308Y67834D01*
X169996Y68948D01*
X172906Y68948D01*
X175595Y67834D01*
X177653Y65777D01*
X178766Y63088D01*
X178766Y48598D01*
X177653Y45910D01*
X175595Y43852D01*
X172906Y42739D01*
X169996Y42739D01*
G37*
%LPD*%
%LPC*%
G36*
X83684Y42683D02*
X83684Y42683D01*
X80996Y43796D01*
X78938Y45854D01*
X77825Y48542D01*
X77825Y63032D01*
X78938Y65721D01*
X80996Y67778D01*
X83684Y68892D01*
X86594Y68892D01*
X89283Y67778D01*
X91340Y65721D01*
X92454Y63032D01*
X92454Y48542D01*
X91340Y45854D01*
X89283Y43796D01*
X86594Y42683D01*
X83684Y42683D01*
G37*
%LPD*%
%LPC*%
G36*
X102448Y213855D02*
X102448Y213855D01*
X101555Y214748D01*
X101555Y231012D01*
X102448Y231905D01*
X102926Y231905D01*
X102951Y231911D01*
X102977Y231908D01*
X103035Y231930D01*
X103095Y231944D01*
X103115Y231961D01*
X103139Y231970D01*
X103181Y232015D01*
X103228Y232054D01*
X103239Y232078D01*
X103256Y232097D01*
X103274Y232156D01*
X103299Y232213D01*
X103298Y232238D01*
X103306Y232263D01*
X103295Y232324D01*
X103293Y232386D01*
X103280Y232408D01*
X103276Y232434D01*
X103228Y232505D01*
X103210Y232538D01*
X103202Y232544D01*
X103195Y232554D01*
X101623Y234125D01*
X101623Y238315D01*
X104585Y241277D01*
X108775Y241277D01*
X111737Y238315D01*
X111737Y234125D01*
X110165Y232554D01*
X110152Y232532D01*
X110132Y232516D01*
X110106Y232459D01*
X110074Y232407D01*
X110071Y232381D01*
X110061Y232357D01*
X110063Y232296D01*
X110057Y232234D01*
X110066Y232210D01*
X110067Y232184D01*
X110097Y232130D01*
X110119Y232072D01*
X110138Y232055D01*
X110150Y232032D01*
X110201Y231997D01*
X110246Y231955D01*
X110271Y231947D01*
X110292Y231932D01*
X110376Y231916D01*
X110412Y231905D01*
X110422Y231907D01*
X110434Y231905D01*
X111712Y231905D01*
X112605Y231012D01*
X112605Y214748D01*
X111712Y213855D01*
X102448Y213855D01*
G37*
%LPD*%
%LPC*%
G36*
X114948Y213855D02*
X114948Y213855D01*
X114055Y214748D01*
X114055Y231012D01*
X114948Y231905D01*
X115626Y231905D01*
X115651Y231911D01*
X115677Y231908D01*
X115735Y231930D01*
X115795Y231944D01*
X115815Y231961D01*
X115839Y231970D01*
X115881Y232015D01*
X115928Y232054D01*
X115939Y232078D01*
X115956Y232097D01*
X115974Y232156D01*
X115999Y232213D01*
X115998Y232238D01*
X116006Y232263D01*
X115995Y232324D01*
X115993Y232386D01*
X115980Y232408D01*
X115976Y232434D01*
X115928Y232505D01*
X115910Y232538D01*
X115902Y232544D01*
X115895Y232554D01*
X114323Y234125D01*
X114323Y238315D01*
X117285Y241277D01*
X121475Y241277D01*
X124437Y238315D01*
X124437Y234125D01*
X122865Y232554D01*
X122852Y232532D01*
X122832Y232516D01*
X122806Y232459D01*
X122774Y232407D01*
X122771Y232381D01*
X122761Y232357D01*
X122763Y232296D01*
X122757Y232234D01*
X122766Y232210D01*
X122767Y232184D01*
X122797Y232130D01*
X122819Y232072D01*
X122838Y232055D01*
X122850Y232032D01*
X122901Y231997D01*
X122946Y231955D01*
X122971Y231947D01*
X122992Y231932D01*
X123076Y231916D01*
X123112Y231905D01*
X123122Y231907D01*
X123134Y231905D01*
X124212Y231905D01*
X125105Y231012D01*
X125105Y214748D01*
X124212Y213855D01*
X114948Y213855D01*
G37*
%LPD*%
%LPC*%
G36*
X138875Y1293D02*
X138875Y1293D01*
X135913Y4255D01*
X135913Y8445D01*
X137360Y9891D01*
X137387Y9934D01*
X137421Y9972D01*
X137432Y10007D01*
X137451Y10038D01*
X137456Y10089D01*
X137471Y10138D01*
X137464Y10174D01*
X137468Y10211D01*
X137450Y10259D01*
X137441Y10309D01*
X137417Y10344D01*
X137406Y10373D01*
X137384Y10394D01*
X137360Y10429D01*
X135913Y11875D01*
X135913Y16065D01*
X137360Y17511D01*
X137387Y17554D01*
X137421Y17592D01*
X137432Y17627D01*
X137451Y17658D01*
X137456Y17709D01*
X137471Y17758D01*
X137464Y17794D01*
X137468Y17831D01*
X137450Y17878D01*
X137441Y17929D01*
X137417Y17964D01*
X137406Y17993D01*
X137384Y18014D01*
X137360Y18049D01*
X135913Y19495D01*
X135913Y23685D01*
X138875Y26647D01*
X143065Y26647D01*
X146027Y23685D01*
X146027Y19495D01*
X144580Y18049D01*
X144553Y18006D01*
X144519Y17968D01*
X144508Y17933D01*
X144489Y17902D01*
X144484Y17851D01*
X144469Y17802D01*
X144476Y17766D01*
X144472Y17729D01*
X144490Y17681D01*
X144499Y17631D01*
X144523Y17596D01*
X144534Y17567D01*
X144556Y17546D01*
X144580Y17511D01*
X146027Y16065D01*
X146027Y11875D01*
X144580Y10429D01*
X144553Y10386D01*
X144519Y10348D01*
X144508Y10313D01*
X144489Y10282D01*
X144484Y10231D01*
X144469Y10182D01*
X144476Y10146D01*
X144472Y10109D01*
X144490Y10062D01*
X144499Y10011D01*
X144523Y9976D01*
X144534Y9947D01*
X144556Y9926D01*
X144580Y9891D01*
X146027Y8445D01*
X146027Y4255D01*
X143065Y1293D01*
X138875Y1293D01*
G37*
%LPD*%
%LPC*%
G36*
X196147Y22025D02*
X196147Y22025D01*
X195254Y22918D01*
X195254Y23125D01*
X195243Y23175D01*
X195241Y23226D01*
X195223Y23258D01*
X195215Y23294D01*
X195182Y23333D01*
X195158Y23378D01*
X195128Y23399D01*
X195105Y23427D01*
X195058Y23448D01*
X195016Y23478D01*
X194974Y23486D01*
X194946Y23498D01*
X194916Y23497D01*
X194874Y23505D01*
X193799Y23505D01*
X193725Y23488D01*
X193650Y23475D01*
X193640Y23468D01*
X193630Y23466D01*
X193602Y23442D01*
X193530Y23394D01*
X192742Y22605D01*
X185478Y22605D01*
X184585Y23498D01*
X184585Y30162D01*
X185478Y31055D01*
X192742Y31055D01*
X193635Y30162D01*
X193635Y29475D01*
X193646Y29425D01*
X193648Y29374D01*
X193666Y29342D01*
X193674Y29306D01*
X193707Y29267D01*
X193731Y29222D01*
X193761Y29201D01*
X193784Y29173D01*
X193831Y29152D01*
X193873Y29122D01*
X193915Y29114D01*
X193943Y29102D01*
X193973Y29103D01*
X194015Y29095D01*
X194874Y29095D01*
X194924Y29106D01*
X194975Y29108D01*
X195007Y29126D01*
X195043Y29134D01*
X195082Y29167D01*
X195127Y29191D01*
X195148Y29221D01*
X195176Y29244D01*
X195197Y29291D01*
X195227Y29333D01*
X195235Y29375D01*
X195247Y29403D01*
X195246Y29427D01*
X195247Y29430D01*
X195247Y29438D01*
X195254Y29475D01*
X195254Y29682D01*
X196147Y30575D01*
X209411Y30575D01*
X210304Y29682D01*
X210304Y22918D01*
X209411Y22025D01*
X196147Y22025D01*
G37*
%LPD*%
%LPC*%
G36*
X127448Y213855D02*
X127448Y213855D01*
X126555Y214748D01*
X126555Y231012D01*
X127448Y231905D01*
X136712Y231905D01*
X137605Y231012D01*
X137605Y214748D01*
X136712Y213855D01*
X127448Y213855D01*
G37*
%LPD*%
%LPC*%
G36*
X83948Y202355D02*
X83948Y202355D01*
X83055Y203248D01*
X83055Y212512D01*
X83948Y213405D01*
X100212Y213405D01*
X101105Y212512D01*
X101105Y203248D01*
X100212Y202355D01*
X83948Y202355D01*
G37*
%LPD*%
%LPC*%
G36*
X163948Y202355D02*
X163948Y202355D01*
X163055Y203248D01*
X163055Y212512D01*
X163948Y213405D01*
X180212Y213405D01*
X181105Y212512D01*
X181105Y203248D01*
X180212Y202355D01*
X163948Y202355D01*
G37*
%LPD*%
%LPC*%
G36*
X83948Y189855D02*
X83948Y189855D01*
X83055Y190748D01*
X83055Y200012D01*
X83948Y200905D01*
X100212Y200905D01*
X101105Y200012D01*
X101105Y190748D01*
X100212Y189855D01*
X83948Y189855D01*
G37*
%LPD*%
%LPC*%
G36*
X163948Y189855D02*
X163948Y189855D01*
X163055Y190748D01*
X163055Y200012D01*
X163948Y200905D01*
X180212Y200905D01*
X181105Y200012D01*
X181105Y190748D01*
X180212Y189855D01*
X163948Y189855D01*
G37*
%LPD*%
%LPC*%
G36*
X163948Y177355D02*
X163948Y177355D01*
X163055Y178248D01*
X163055Y187512D01*
X163948Y188405D01*
X180212Y188405D01*
X181105Y187512D01*
X181105Y178248D01*
X180212Y177355D01*
X163948Y177355D01*
G37*
%LPD*%
%LPC*%
G36*
X83948Y177355D02*
X83948Y177355D01*
X83055Y178248D01*
X83055Y187512D01*
X83948Y188405D01*
X100212Y188405D01*
X101105Y187512D01*
X101105Y178248D01*
X100212Y177355D01*
X83948Y177355D01*
G37*
%LPD*%
%LPC*%
G36*
X163948Y164855D02*
X163948Y164855D01*
X163055Y165748D01*
X163055Y175012D01*
X163948Y175905D01*
X180212Y175905D01*
X181105Y175012D01*
X181105Y165748D01*
X180212Y164855D01*
X163948Y164855D01*
G37*
%LPD*%
%LPC*%
G36*
X83948Y164855D02*
X83948Y164855D01*
X83055Y165748D01*
X83055Y175012D01*
X83948Y175905D01*
X100212Y175905D01*
X101105Y175012D01*
X101105Y165748D01*
X100212Y164855D01*
X83948Y164855D01*
G37*
%LPD*%
%LPC*%
G36*
X83948Y152355D02*
X83948Y152355D01*
X83055Y153248D01*
X83055Y162512D01*
X83948Y163405D01*
X100212Y163405D01*
X101105Y162512D01*
X101105Y153248D01*
X100212Y152355D01*
X83948Y152355D01*
G37*
%LPD*%
%LPC*%
G36*
X102448Y133855D02*
X102448Y133855D01*
X101555Y134748D01*
X101555Y151012D01*
X102448Y151905D01*
X111712Y151905D01*
X112605Y151012D01*
X112605Y134748D01*
X111712Y133855D01*
X102448Y133855D01*
G37*
%LPD*%
%LPC*%
G36*
X166428Y152305D02*
X166428Y152305D01*
X163005Y155728D01*
X163005Y162532D01*
X163928Y163455D01*
X180232Y163455D01*
X181155Y162532D01*
X181155Y153228D01*
X180232Y152305D01*
X166428Y152305D01*
G37*
%LPD*%
G36*
X179627Y153867D02*
X179627Y153867D01*
X179622Y153874D01*
X179629Y153880D01*
X179629Y161880D01*
X179593Y161927D01*
X179586Y161922D01*
X179580Y161929D01*
X164580Y161929D01*
X164533Y161893D01*
X164538Y161886D01*
X164531Y161880D01*
X164531Y156380D01*
X164547Y156359D01*
X164545Y156345D01*
X167045Y153845D01*
X167072Y153842D01*
X167080Y153831D01*
X179580Y153831D01*
X179627Y153867D01*
G37*
D10*
X155471Y83760D03*
X155471Y93260D03*
X155471Y102760D03*
X129469Y102760D03*
X129469Y83760D03*
D11*
X173030Y89210D03*
X173030Y106210D03*
D12*
X28182Y79016D03*
X12182Y79016D03*
X12182Y120016D03*
X28182Y120016D03*
D13*
X241790Y121540D03*
X241790Y112900D03*
D14*
X13970Y436880D03*
X13970Y411480D03*
X13970Y386080D03*
X13970Y360680D03*
X13970Y335280D03*
X13970Y309880D03*
X13970Y284480D03*
X13970Y259080D03*
X13970Y233680D03*
X13970Y208280D03*
D15*
X189845Y104810D03*
X189845Y81810D03*
D16*
X215880Y60360D03*
X206380Y82360D03*
X225380Y82360D03*
D10*
X228781Y26300D03*
X228781Y35800D03*
X228781Y45300D03*
X202779Y45300D03*
X202779Y26300D03*
D13*
X189110Y18190D03*
X189110Y26830D03*
D17*
X217230Y157900D03*
X225870Y157900D03*
D18*
X240790Y148370D02*
X240790Y141370D01*
X240790Y148370D02*
X247790Y148370D01*
X247790Y141370D01*
X240790Y141370D01*
X240790Y144220D02*
X247790Y144220D01*
X247790Y147070D02*
X240790Y147070D01*
X223250Y148370D02*
X223250Y141370D01*
X223250Y148370D02*
X230250Y148370D01*
X230250Y141370D01*
X223250Y141370D01*
X223250Y144220D02*
X230250Y144220D01*
X230250Y147070D02*
X223250Y147070D01*
D19*
X226690Y129108D03*
X207690Y129108D03*
X217190Y105232D03*
D13*
X72294Y104190D03*
X72294Y95550D03*
D17*
X146177Y117150D03*
X137537Y117150D03*
D14*
X242570Y436880D03*
X242570Y411480D03*
X242570Y386080D03*
X242570Y360680D03*
X242570Y335280D03*
X242570Y309880D03*
X242570Y284480D03*
X242570Y259080D03*
X242570Y233680D03*
X242570Y208280D03*
D11*
X113031Y106453D03*
X113031Y89453D03*
D20*
X225843Y10083D03*
X208843Y10083D03*
D12*
X28320Y13790D03*
X12320Y13790D03*
X12320Y54790D03*
X28320Y54790D03*
D13*
X85090Y104650D03*
X85090Y96010D03*
X97790Y104650D03*
X97790Y96010D03*
D21*
X172080Y157880D03*
D22*
X172080Y170380D03*
X172080Y182880D03*
X172080Y195380D03*
X172080Y207880D03*
X92080Y157880D03*
X92080Y170380D03*
X92080Y182880D03*
X92080Y195380D03*
X92080Y207880D03*
D23*
X157080Y222880D03*
X144580Y222880D03*
X132080Y222880D03*
X119580Y222880D03*
X107080Y222880D03*
X157080Y142880D03*
X144580Y142880D03*
X132080Y142880D03*
X119580Y142880D03*
X107080Y142880D03*
D24*
X132080Y182880D03*
D25*
X33110Y497280D03*
X33110Y490780D03*
X33110Y484280D03*
X33110Y503780D03*
X12610Y490780D03*
X12610Y497280D03*
X12610Y503780D03*
X12610Y484280D03*
D26*
X52070Y212822D03*
X52070Y150398D03*
D13*
X64770Y7110D03*
X64770Y15750D03*
X52070Y7110D03*
X52070Y15750D03*
D27*
X240067Y490343D02*
X246693Y490343D01*
X246693Y487717D01*
X240067Y487717D01*
X240067Y490343D01*
X240067Y488548D02*
X246693Y488548D01*
X246693Y489379D02*
X240067Y489379D01*
X240067Y490210D02*
X246693Y490210D01*
X246693Y500343D02*
X240067Y500343D01*
X246693Y500343D02*
X246693Y497717D01*
X240067Y497717D01*
X240067Y500343D01*
X240067Y498548D02*
X246693Y498548D01*
X246693Y499379D02*
X240067Y499379D01*
X240067Y500210D02*
X246693Y500210D01*
X227293Y500343D02*
X220667Y500343D01*
X227293Y500343D02*
X227293Y497717D01*
X220667Y497717D01*
X220667Y500343D01*
X220667Y498548D02*
X227293Y498548D01*
X227293Y499379D02*
X220667Y499379D01*
X220667Y500210D02*
X227293Y500210D01*
X227293Y490343D02*
X220667Y490343D01*
X227293Y490343D02*
X227293Y487717D01*
X220667Y487717D01*
X220667Y490343D01*
X220667Y488548D02*
X227293Y488548D01*
X227293Y489379D02*
X220667Y489379D01*
X220667Y490210D02*
X227293Y490210D01*
D28*
X233680Y494030D03*
D29*
X200230Y229490D02*
X197530Y229490D01*
X197530Y232790D01*
X200230Y232790D01*
X200230Y229490D01*
X200230Y232055D02*
X197530Y232055D01*
X206170Y229490D02*
X208870Y229490D01*
X206170Y229490D02*
X206170Y232790D01*
X208870Y232790D01*
X208870Y229490D01*
X208870Y232055D02*
X206170Y232055D01*
X31370Y467790D02*
X31370Y470490D01*
X34670Y470490D01*
X34670Y467790D01*
X31370Y467790D01*
X31370Y470355D02*
X34670Y470355D01*
X31370Y461850D02*
X31370Y459150D01*
X31370Y461850D02*
X34670Y461850D01*
X34670Y459150D01*
X31370Y459150D01*
X31370Y461715D02*
X34670Y461715D01*
X245490Y460420D02*
X245490Y463120D01*
X245490Y460420D02*
X242190Y460420D01*
X242190Y463120D01*
X245490Y463120D01*
X245490Y462985D02*
X242190Y462985D01*
X245490Y469060D02*
X245490Y471760D01*
X245490Y469060D02*
X242190Y469060D01*
X242190Y471760D01*
X245490Y471760D01*
X245490Y471625D02*
X242190Y471625D01*
D18*
X242636Y173958D02*
X242636Y166958D01*
X242636Y173958D02*
X249636Y173958D01*
X249636Y166958D01*
X242636Y166958D01*
X242636Y169808D02*
X249636Y169808D01*
X249636Y172658D02*
X242636Y172658D01*
X225096Y173958D02*
X225096Y166958D01*
X225096Y173958D02*
X232096Y173958D01*
X232096Y166958D01*
X225096Y166958D01*
X225096Y169808D02*
X232096Y169808D01*
X232096Y172658D02*
X225096Y172658D01*
D17*
X218114Y182602D03*
X226754Y182602D03*
D30*
X46260Y254030D03*
X46260Y266730D03*
X46260Y279430D03*
X46260Y292130D03*
X46260Y304830D03*
X46260Y317530D03*
X46260Y330230D03*
X46260Y342930D03*
X46260Y355630D03*
X46260Y368330D03*
X46260Y381030D03*
X46260Y393730D03*
X46260Y406430D03*
D31*
X202638Y249518D02*
X218262Y249518D01*
X202638Y249518D02*
X202638Y258542D01*
X218262Y258542D01*
X218262Y249518D01*
X218262Y249875D02*
X202638Y249875D01*
X202638Y250232D02*
X218262Y250232D01*
X218262Y250589D02*
X202638Y250589D01*
X202638Y250946D02*
X218262Y250946D01*
X218262Y251303D02*
X202638Y251303D01*
X202638Y251660D02*
X218262Y251660D01*
X218262Y252017D02*
X202638Y252017D01*
X202638Y252374D02*
X218262Y252374D01*
X218262Y252731D02*
X202638Y252731D01*
X202638Y253088D02*
X218262Y253088D01*
X218262Y253445D02*
X202638Y253445D01*
X202638Y253802D02*
X218262Y253802D01*
X218262Y254159D02*
X202638Y254159D01*
X202638Y254516D02*
X218262Y254516D01*
X218262Y254873D02*
X202638Y254873D01*
X202638Y255230D02*
X218262Y255230D01*
X218262Y255587D02*
X202638Y255587D01*
X202638Y255944D02*
X218262Y255944D01*
X218262Y256301D02*
X202638Y256301D01*
X202638Y256658D02*
X218262Y256658D01*
X218262Y257015D02*
X202638Y257015D01*
X202638Y257372D02*
X218262Y257372D01*
X218262Y257729D02*
X202638Y257729D01*
X202638Y258086D02*
X218262Y258086D01*
X218262Y258443D02*
X202638Y258443D01*
D30*
X210450Y266730D03*
X210450Y279430D03*
X210450Y292130D03*
X210450Y304830D03*
X210450Y317530D03*
X210450Y330230D03*
X210450Y342930D03*
X210450Y355630D03*
X210450Y368330D03*
X210450Y381030D03*
X210450Y393730D03*
X210450Y406430D03*
X210450Y460030D03*
X210450Y472730D03*
X46260Y419130D03*
X210450Y419130D03*
D32*
X95770Y64920D03*
X103770Y64920D03*
D33*
X125770Y64920D03*
X120770Y64920D03*
X115770Y64920D03*
X110770Y64920D03*
X130770Y64920D03*
X135770Y64920D03*
X140770Y64920D03*
X145770Y64920D03*
D32*
X152770Y64920D03*
X160770Y64920D03*
D34*
X85070Y19760D02*
X85070Y8180D01*
X171470Y8180D02*
X171470Y19760D01*
X85117Y50086D02*
X85117Y61666D01*
X171446Y61564D02*
X171446Y49984D01*
X85139Y49997D02*
X85139Y61577D01*
X171451Y61633D02*
X171451Y50053D01*
D35*
X240030Y40640D03*
X240030Y33020D03*
D36*
X237250Y35800D02*
X228781Y35800D01*
X237250Y35800D02*
X240030Y33020D01*
X235190Y35800D02*
X228781Y35800D01*
X235190Y35800D02*
X240030Y40640D01*
D35*
X240030Y48260D03*
X240030Y55880D03*
X31750Y246380D03*
D37*
X12700Y484190D02*
X12610Y484280D01*
X12700Y484190D02*
X12700Y474980D01*
D35*
X12700Y474980D03*
X46990Y474980D03*
X62230Y474980D03*
X78740Y474980D03*
X96520Y474980D03*
X114300Y474980D03*
X130810Y474980D03*
X148590Y474980D03*
X165100Y474980D03*
X185420Y474980D03*
D37*
X38510Y503780D02*
X33110Y503780D01*
X38510Y503780D02*
X40640Y501650D01*
X40640Y490220D01*
X40640Y478790D01*
X44450Y474980D01*
X46990Y474980D01*
X40080Y490780D02*
X33110Y490780D01*
X40080Y490780D02*
X40640Y490220D01*
X223980Y489030D02*
X233600Y489030D01*
X233680Y488950D01*
X233680Y494030D01*
X224790Y488220D02*
X223980Y489030D01*
X224790Y488220D02*
X224790Y473710D01*
D35*
X224790Y473710D03*
X196850Y467360D03*
X12700Y459740D03*
X33020Y449580D03*
X30480Y393700D03*
X78740Y449580D03*
X116840Y449580D03*
X154940Y449580D03*
X167640Y284480D03*
X167640Y335280D03*
X167640Y386080D03*
X167640Y311150D03*
X15240Y170180D03*
X190500Y128270D03*
X170180Y144780D03*
X92710Y143510D03*
X207010Y105410D03*
X229870Y99060D03*
X189230Y64770D03*
D37*
X171446Y64766D02*
X171446Y55774D01*
X171446Y64766D02*
X171450Y64770D01*
X171300Y64920D01*
X160770Y64920D01*
X85117Y62257D02*
X85117Y55876D01*
X85117Y62257D02*
X88900Y66040D01*
X94650Y66040D01*
X95770Y64920D01*
D35*
X20320Y39370D03*
X71120Y80010D03*
X71120Y62230D03*
X205740Y152400D03*
X208280Y194310D03*
X187960Y218440D03*
X182880Y273050D03*
X87630Y275590D03*
X88900Y300990D03*
X87630Y336550D03*
D36*
X215900Y17141D02*
X208843Y10083D01*
X215900Y60340D02*
X215880Y60360D01*
X215900Y45720D02*
X215900Y17141D01*
X215900Y45720D02*
X215900Y60340D01*
X215900Y45720D02*
X216320Y45300D01*
X228781Y45300D01*
D37*
X233080Y60360D02*
X215880Y60360D01*
X241790Y69070D02*
X241790Y112900D01*
X241790Y69070D02*
X233080Y60360D01*
X217190Y105232D02*
X217190Y107970D01*
X222250Y113030D01*
X241660Y113030D01*
X241790Y112900D01*
D35*
X140970Y13970D03*
X140970Y21590D03*
X140970Y6350D03*
D38*
X207649Y8890D02*
X208843Y10083D01*
D36*
X198197Y10083D01*
X198120Y10160D01*
D35*
X198120Y10160D03*
D37*
X66550Y15750D02*
X64770Y15750D01*
X66550Y15750D02*
X72390Y21590D01*
D35*
X72390Y21590D03*
D37*
X226690Y125100D02*
X226690Y129108D01*
X156210Y117150D02*
X146177Y117150D01*
X156210Y117150D02*
X227330Y117150D01*
X230180Y117150D01*
X234570Y121540D02*
X241790Y121540D01*
X234570Y121540D02*
X230180Y117150D01*
X226690Y117790D02*
X226690Y129108D01*
X226690Y117790D02*
X227330Y117150D01*
X155471Y116411D02*
X155471Y102760D01*
X155471Y116411D02*
X156210Y117150D01*
D39*
X202779Y65619D02*
X202779Y45300D01*
X202779Y65619D02*
X208280Y71120D01*
X214630Y71120D01*
X225380Y81870D01*
X225380Y82360D01*
X225380Y85770D01*
X215900Y95250D01*
X199390Y95250D01*
X189845Y104795D01*
X189845Y104810D01*
D37*
X137537Y112653D02*
X137537Y117150D01*
X137537Y112653D02*
X142000Y108190D01*
X225380Y81090D02*
X234080Y72390D01*
X225380Y81090D02*
X225380Y82360D01*
X234080Y72390D02*
X234950Y72390D01*
D35*
X234950Y72390D03*
D37*
X238340Y157900D02*
X225870Y157900D01*
X238340Y157900D02*
X238760Y157480D01*
D35*
X238760Y157480D03*
D39*
X202779Y45300D02*
X191350Y45300D01*
X177937Y31887D01*
X103770Y56722D02*
X103770Y64920D01*
X103770Y56722D02*
X106902Y53590D01*
X106902Y40418D02*
X115433Y31887D01*
X106902Y40418D02*
X106902Y53590D01*
D37*
X103770Y64920D02*
X103770Y72030D01*
X100033Y75767D01*
X86793Y75767D01*
X72294Y90266D02*
X72294Y95550D01*
X72294Y90266D02*
X86793Y75767D01*
X152770Y73290D02*
X152770Y64920D01*
X142000Y84060D02*
X142000Y108190D01*
X142000Y84060D02*
X152770Y73290D01*
D39*
X149421Y31887D02*
X115433Y31887D01*
X149421Y31887D02*
X177937Y31887D01*
X152770Y56722D02*
X152770Y64920D01*
X152770Y56722D02*
X149638Y53590D01*
X149638Y32103D02*
X149421Y31887D01*
X149638Y32103D02*
X149638Y53590D01*
D36*
X155471Y83760D02*
X161230Y83760D01*
X166680Y89210D02*
X173030Y89210D01*
X166680Y89210D02*
X161230Y83760D01*
X173030Y89210D02*
X182445Y89210D01*
X189845Y81810D01*
X205830Y81810D01*
X206380Y82360D01*
D39*
X129469Y88727D02*
X113031Y105165D01*
X113031Y106453D01*
X129469Y88727D02*
X129469Y83760D01*
D37*
X33110Y484280D02*
X27530Y484280D01*
X25400Y486410D01*
X25400Y491490D01*
X25400Y495300D01*
X27380Y497280D02*
X33110Y497280D01*
X27380Y497280D02*
X25400Y495300D01*
X24690Y490780D02*
X12610Y490780D01*
X24690Y490780D02*
X25400Y491490D01*
D40*
X33020Y484190D02*
X33110Y484280D01*
X243840Y470410D02*
X244624Y471194D01*
X33110Y469230D02*
X33020Y469140D01*
D36*
X144580Y142880D02*
X144580Y129740D01*
X144780Y129540D01*
D35*
X144780Y129540D03*
D36*
X113031Y121921D02*
X113031Y106453D01*
X120850Y129740D02*
X144580Y129740D01*
X120850Y129740D02*
X113031Y121921D01*
X144580Y222880D02*
X144580Y236020D01*
X144580Y238560D01*
X144780Y236220D02*
X144580Y236020D01*
D35*
X144780Y236220D03*
D36*
X52070Y233680D02*
X13970Y233680D01*
X52070Y233680D02*
X68580Y233680D01*
X81280Y246380D01*
X136760Y246380D01*
X144580Y238560D01*
X52070Y233680D02*
X52070Y212822D01*
X181610Y231140D02*
X198880Y231140D01*
X181610Y231140D02*
X176530Y236220D01*
X144780Y236220D01*
X60930Y266730D02*
X46260Y266730D01*
X60930Y266730D02*
X81280Y246380D01*
D40*
X33110Y469230D02*
X33110Y484280D01*
D39*
X33020Y469140D02*
X42670Y469140D01*
X181610Y464820D02*
X196850Y449580D01*
X224790Y449580D01*
X231140Y455930D02*
X231140Y464820D01*
X236730Y470410D01*
X243840Y470410D01*
X231140Y455930D02*
X224790Y449580D01*
X243380Y470870D02*
X243380Y489030D01*
X243380Y470870D02*
X243840Y470410D01*
D36*
X52070Y212822D02*
X52070Y194310D01*
D35*
X52070Y194310D03*
X45720Y463550D03*
D39*
X46990Y464820D02*
X42670Y469140D01*
X46990Y464820D02*
X181610Y464820D01*
X46990Y464820D02*
X45720Y463550D01*
D41*
X189640Y26300D02*
X202779Y26300D01*
X189640Y26300D02*
X189110Y26830D01*
D37*
X220647Y154483D02*
X217230Y157900D01*
X220647Y154483D02*
X220647Y151673D01*
X226750Y145570D02*
X226750Y144870D01*
X226750Y145570D02*
X220647Y151673D01*
X228781Y26300D02*
X244740Y26300D01*
X250190Y31750D01*
X250190Y138970D02*
X244290Y144870D01*
X250190Y138970D02*
X250190Y31750D01*
X145770Y64920D02*
X145770Y72670D01*
X140179Y78261D01*
X110134Y78261D02*
X97790Y90605D01*
X97790Y96010D01*
X110134Y78261D02*
X140179Y78261D01*
X115770Y64920D02*
X110770Y64920D01*
X85090Y85090D02*
X85090Y96010D01*
X85090Y85090D02*
X89988Y80192D01*
X110770Y71928D02*
X110770Y64920D01*
X102505Y80192D02*
X89988Y80192D01*
X102505Y80192D02*
X110770Y71928D01*
X46260Y419130D02*
X31720Y419130D01*
X13970Y436880D01*
X119580Y236020D02*
X119580Y222880D01*
X119580Y236020D02*
X119380Y236220D01*
D35*
X119380Y236220D03*
D37*
X63470Y419130D02*
X46260Y419130D01*
X63470Y419130D02*
X64770Y417830D01*
D35*
X64770Y417830D03*
D37*
X12610Y503780D02*
X12610Y511720D01*
X12700Y511810D01*
D35*
X12700Y511810D03*
D37*
X243380Y505920D02*
X243380Y499030D01*
X243380Y505920D02*
X242570Y506730D01*
D35*
X242570Y506730D03*
D37*
X22860Y504190D02*
X22860Y502920D01*
X17220Y497280D01*
X12610Y497280D01*
D35*
X22860Y504190D03*
D37*
X19020Y406430D02*
X46260Y406430D01*
X19020Y406430D02*
X13970Y411480D01*
X107080Y235820D02*
X107080Y222880D01*
X107080Y235820D02*
X106680Y236220D01*
D35*
X106680Y236220D03*
D37*
X64770Y405130D02*
X63470Y406430D01*
D35*
X64770Y405130D03*
D37*
X223980Y499030D02*
X223980Y506270D01*
X223520Y506730D01*
D35*
X223520Y506730D03*
D37*
X63470Y406430D02*
X46260Y406430D01*
X28182Y120016D02*
X28182Y101842D01*
X27940Y101600D01*
D35*
X27940Y101600D03*
D37*
X28182Y101358D02*
X28182Y79016D01*
X28182Y101358D02*
X27940Y101600D01*
X19020Y304830D02*
X46260Y304830D01*
X19020Y304830D02*
X13970Y309880D01*
X218114Y182602D02*
X221560Y179156D01*
X221560Y177615D01*
X228596Y170580D02*
X228596Y170458D01*
X228596Y170580D02*
X221560Y177615D01*
X226754Y182602D02*
X226754Y224096D01*
X81280Y392430D02*
X79980Y393730D01*
X46260Y393730D01*
D35*
X81280Y392430D03*
D37*
X208280Y242570D02*
X226754Y224096D01*
X138752Y252460D02*
X93980Y252460D01*
X80083Y266357D01*
X80083Y356312D02*
X80746Y356975D01*
X80083Y356312D02*
X80083Y266357D01*
X148642Y242570D02*
X208280Y242570D01*
X148642Y242570D02*
X138752Y252460D01*
D35*
X80746Y356975D03*
D37*
X210450Y266730D02*
X222220Y266730D01*
X229870Y259080D02*
X229870Y242570D01*
X238760Y233680D01*
X242570Y233680D01*
X229870Y259080D02*
X222220Y266730D01*
X28320Y54790D02*
X28320Y39370D01*
X28320Y13790D01*
X28320Y39370D02*
X54610Y39370D01*
X58420Y43180D01*
X59690Y43180D01*
D35*
X59690Y43180D03*
D37*
X46260Y342930D02*
X35530Y342930D01*
X22860Y386080D02*
X13970Y386080D01*
X33020Y345440D02*
X35530Y342930D01*
X33020Y345440D02*
X33020Y375920D01*
X22860Y386080D01*
X34260Y330230D02*
X46260Y330230D01*
X25400Y360680D02*
X13970Y360680D01*
X29210Y335280D02*
X34260Y330230D01*
X29210Y335280D02*
X29210Y356870D01*
X25400Y360680D01*
X46260Y330230D02*
X60930Y330230D01*
X62230Y328930D01*
D35*
X62230Y328930D03*
D37*
X46260Y317530D02*
X31720Y317530D01*
X13970Y335280D01*
X46260Y317530D02*
X59660Y317530D01*
X59690Y317500D01*
D35*
X59690Y317500D03*
D37*
X46260Y292130D02*
X21620Y292130D01*
X13970Y284480D01*
X26700Y279430D02*
X46260Y279430D01*
X13970Y266700D02*
X13970Y259080D01*
X13970Y266700D02*
X26700Y279430D01*
X210450Y381030D02*
X219740Y381030D01*
X222250Y383540D02*
X222250Y426720D01*
X232410Y436880D01*
X242570Y436880D01*
X222250Y383540D02*
X219740Y381030D01*
X221010Y355630D02*
X210450Y355630D01*
X229947Y364567D02*
X229947Y378347D01*
X237680Y386080D01*
X242570Y386080D01*
X229947Y364567D02*
X221010Y355630D01*
X224820Y342930D02*
X210450Y342930D01*
X224820Y342930D02*
X242570Y360680D01*
X224820Y317530D02*
X210450Y317530D01*
X224820Y317530D02*
X242570Y335280D01*
X237520Y304830D02*
X210450Y304830D01*
X237520Y304830D02*
X242570Y309880D01*
X234920Y292130D02*
X210450Y292130D01*
X234920Y292130D02*
X242570Y284480D01*
X228570Y279430D02*
X210450Y279430D01*
X242570Y265430D02*
X242570Y259080D01*
X242570Y265430D02*
X228570Y279430D01*
X220220Y254030D02*
X210450Y254030D01*
X220220Y254030D02*
X225330Y248920D01*
X242570Y213369D02*
X242570Y208280D01*
X225330Y230609D02*
X225330Y248920D01*
X225330Y230609D02*
X242570Y213369D01*
X219740Y368330D02*
X210450Y368330D01*
X225835Y400365D02*
X236950Y411480D01*
X242570Y411480D01*
X225835Y374425D02*
X219740Y368330D01*
X225835Y374425D02*
X225835Y400365D01*
X52070Y31750D02*
X52070Y15750D01*
D35*
X52070Y31750D03*
D37*
X210420Y368300D02*
X210450Y368330D01*
X210420Y368300D02*
X195580Y368300D01*
D35*
X195580Y368300D03*
D37*
X58170Y12460D02*
X55360Y12460D01*
X52070Y15750D01*
X63520Y7110D02*
X64770Y7110D01*
X63520Y7110D02*
X58170Y12460D01*
X58390Y381030D02*
X46260Y381030D01*
X58390Y381030D02*
X67382Y372038D01*
X132152Y372038D02*
X137160Y367030D01*
X132152Y372038D02*
X67382Y372038D01*
D35*
X137160Y367030D03*
D37*
X125700Y368330D02*
X46260Y368330D01*
X125700Y368330D02*
X149860Y344170D01*
D35*
X149860Y344170D03*
D37*
X58450Y355630D02*
X46260Y355630D01*
X67588Y364768D02*
X123908Y364768D01*
X137160Y351516D01*
X67588Y364768D02*
X58450Y355630D01*
X137160Y351516D02*
X137160Y344170D01*
D35*
X137160Y344170D03*
X125730Y43180D03*
D37*
X125709Y64859D02*
X125770Y64920D01*
X125709Y64859D02*
X125709Y54756D01*
X124643Y53690D01*
X124643Y47910D01*
X125730Y46823D01*
X125730Y43180D01*
X125770Y64920D02*
X125770Y73700D01*
X126757Y74687D01*
X134863Y74687D01*
X135770Y73780D02*
X135770Y64920D01*
X135770Y73780D02*
X134863Y74687D01*
X130770Y64920D02*
X130810Y64880D01*
D35*
X130810Y50800D03*
D37*
X130770Y50840D02*
X130770Y64920D01*
X130770Y50840D02*
X130810Y50800D01*
X131912Y45731D02*
X131912Y40059D01*
X128584Y36731D01*
X130810Y46833D02*
X130810Y50800D01*
X130810Y46833D02*
X131912Y45731D01*
X128584Y36731D02*
X123298Y36731D01*
X120770Y46953D02*
X120770Y64920D01*
X120770Y46953D02*
X119548Y45731D01*
X119548Y40481D01*
X123298Y36731D01*
M02*
