G04 EAGLE Gerber RS-274X export*
G75*
%MOMM*%
%FSLAX34Y34*%
%LPD*%
%INBottom Copper*%
%IPPOS*%
%AMOC8*
5,1,8,0,0,1.08239X$1,22.5*%
G01*
%ADD10C,1.879600*%
%ADD11R,1.270000X2.540000*%
%ADD12R,0.600000X0.540000*%
%ADD13C,0.270000*%
%ADD14R,0.609600X2.286000*%
%ADD15C,1.158000*%
%ADD16R,0.300000X1.000000*%
%ADD17C,0.158750*%
%ADD18C,0.127000*%
%ADD19C,0.706400*%
%ADD20C,0.508000*%
%ADD21C,0.200000*%
%ADD22C,0.406400*%
%ADD23C,0.304800*%

G36*
X61814Y102668D02*
X61814Y102668D01*
X61887Y102675D01*
X61932Y102695D01*
X61980Y102706D01*
X62043Y102745D01*
X62110Y102775D01*
X62166Y102822D01*
X62188Y102835D01*
X62198Y102848D01*
X62224Y102869D01*
X68741Y109386D01*
X68798Y109465D01*
X68860Y109541D01*
X68868Y109564D01*
X68883Y109584D01*
X68911Y109678D01*
X68946Y109769D01*
X68949Y109802D01*
X68954Y109818D01*
X68953Y109843D01*
X68960Y109916D01*
X68960Y116402D01*
X68987Y116434D01*
X68995Y116457D01*
X69010Y116477D01*
X69038Y116571D01*
X69073Y116662D01*
X69076Y116695D01*
X69081Y116711D01*
X69080Y116736D01*
X69087Y116809D01*
X69087Y121951D01*
X69071Y122047D01*
X69062Y122144D01*
X69052Y122167D01*
X69048Y122192D01*
X69002Y122278D01*
X68961Y122367D01*
X68960Y122368D01*
X68960Y129072D01*
X70318Y130430D01*
X77002Y130430D01*
X78433Y128998D01*
X78513Y128941D01*
X78588Y128879D01*
X78611Y128871D01*
X78631Y128856D01*
X78725Y128828D01*
X78816Y128793D01*
X78849Y128790D01*
X78865Y128785D01*
X78890Y128786D01*
X78963Y128779D01*
X81273Y128779D01*
X84149Y125902D01*
X84229Y125845D01*
X84304Y125783D01*
X84327Y125775D01*
X84348Y125760D01*
X84441Y125732D01*
X84532Y125697D01*
X84565Y125694D01*
X84581Y125689D01*
X84606Y125690D01*
X84679Y125683D01*
X136301Y125683D01*
X136397Y125699D01*
X136494Y125708D01*
X136517Y125718D01*
X136542Y125722D01*
X136628Y125768D01*
X136716Y125809D01*
X136742Y125830D01*
X136757Y125837D01*
X136774Y125856D01*
X136831Y125902D01*
X139504Y128575D01*
X139549Y128638D01*
X139585Y128677D01*
X139593Y128694D01*
X139623Y128730D01*
X139631Y128753D01*
X139646Y128774D01*
X139674Y128867D01*
X139709Y128958D01*
X139712Y128991D01*
X139717Y129007D01*
X139716Y129032D01*
X139723Y129105D01*
X139723Y131635D01*
X140496Y132407D01*
X140553Y132487D01*
X140615Y132562D01*
X140623Y132585D01*
X140638Y132605D01*
X140666Y132699D01*
X140701Y132790D01*
X140704Y132823D01*
X140709Y132839D01*
X140708Y132864D01*
X140715Y132937D01*
X140715Y232823D01*
X140699Y232919D01*
X140690Y233016D01*
X140680Y233039D01*
X140676Y233064D01*
X140630Y233150D01*
X140589Y233239D01*
X140568Y233264D01*
X140561Y233279D01*
X140542Y233296D01*
X140496Y233353D01*
X139723Y234125D01*
X139723Y238315D01*
X140496Y239087D01*
X140553Y239167D01*
X140615Y239242D01*
X140623Y239265D01*
X140638Y239285D01*
X140666Y239379D01*
X140701Y239470D01*
X140704Y239503D01*
X140709Y239519D01*
X140708Y239544D01*
X140715Y239617D01*
X140715Y262166D01*
X140699Y262262D01*
X140690Y262359D01*
X140680Y262382D01*
X140676Y262407D01*
X140630Y262493D01*
X140589Y262582D01*
X140568Y262607D01*
X140561Y262622D01*
X140542Y262639D01*
X140496Y262696D01*
X110296Y292896D01*
X107695Y295496D01*
X107695Y305128D01*
X107679Y305224D01*
X107670Y305321D01*
X107660Y305344D01*
X107656Y305369D01*
X107610Y305455D01*
X107569Y305544D01*
X107548Y305569D01*
X107541Y305584D01*
X107522Y305601D01*
X107476Y305658D01*
X107187Y305946D01*
X107187Y330070D01*
X108104Y330986D01*
X108106Y330986D01*
X108203Y331002D01*
X108224Y331014D01*
X108248Y331020D01*
X108332Y331071D01*
X108418Y331117D01*
X108435Y331135D01*
X108456Y331148D01*
X108518Y331224D01*
X108585Y331295D01*
X108595Y331318D01*
X108611Y331337D01*
X108645Y331428D01*
X108686Y331518D01*
X108688Y331542D01*
X108697Y331565D01*
X108711Y331712D01*
X108711Y338787D01*
X108695Y338883D01*
X108686Y338980D01*
X108676Y339003D01*
X108672Y339028D01*
X108626Y339114D01*
X108585Y339202D01*
X108564Y339228D01*
X108557Y339243D01*
X108538Y339260D01*
X108492Y339317D01*
X106907Y340902D01*
X106827Y340959D01*
X106752Y341021D01*
X106729Y341029D01*
X106708Y341044D01*
X106615Y341072D01*
X106524Y341107D01*
X106491Y341110D01*
X106475Y341115D01*
X106450Y341114D01*
X106377Y341121D01*
X101588Y341121D01*
X101564Y341117D01*
X101539Y341120D01*
X101444Y341098D01*
X101347Y341082D01*
X101326Y341070D01*
X101302Y341064D01*
X101218Y341013D01*
X101132Y340967D01*
X101115Y340949D01*
X101094Y340936D01*
X101032Y340860D01*
X100965Y340789D01*
X100955Y340766D01*
X100939Y340747D01*
X100905Y340656D01*
X100864Y340566D01*
X100862Y340542D01*
X100853Y340519D01*
X100839Y340372D01*
X100839Y331227D01*
X100855Y331131D01*
X100864Y331034D01*
X100874Y331011D01*
X100878Y330986D01*
X100924Y330900D01*
X100965Y330811D01*
X100986Y330786D01*
X100993Y330771D01*
X101012Y330754D01*
X101058Y330697D01*
X102315Y329441D01*
X102315Y324359D01*
X100631Y322675D01*
X94949Y322675D01*
X93265Y324359D01*
X93265Y329441D01*
X94522Y330697D01*
X94579Y330776D01*
X94641Y330852D01*
X94649Y330875D01*
X94664Y330896D01*
X94692Y330989D01*
X94727Y331080D01*
X94730Y331113D01*
X94735Y331129D01*
X94734Y331154D01*
X94741Y331227D01*
X94741Y371706D01*
X94737Y371730D01*
X94740Y371755D01*
X94718Y371850D01*
X94702Y371947D01*
X94690Y371968D01*
X94684Y371992D01*
X94633Y372076D01*
X94587Y372162D01*
X94569Y372179D01*
X94556Y372200D01*
X94480Y372262D01*
X94409Y372329D01*
X94386Y372339D01*
X94367Y372355D01*
X94276Y372389D01*
X94186Y372430D01*
X94184Y372430D01*
X93265Y373348D01*
X93265Y380012D01*
X93724Y380470D01*
X93738Y380490D01*
X93757Y380506D01*
X93809Y380589D01*
X93866Y380669D01*
X93873Y380692D01*
X93886Y380713D01*
X93908Y380808D01*
X93937Y380902D01*
X93936Y380926D01*
X93942Y380950D01*
X93932Y381048D01*
X93929Y381146D01*
X93920Y381169D01*
X93918Y381193D01*
X93878Y381283D01*
X93843Y381374D01*
X93828Y381393D01*
X93818Y381416D01*
X93724Y381530D01*
X93265Y381988D01*
X93265Y388652D01*
X94158Y389545D01*
X101422Y389545D01*
X102378Y388588D01*
X102458Y388531D01*
X102533Y388469D01*
X102556Y388461D01*
X102576Y388446D01*
X102670Y388418D01*
X102761Y388383D01*
X102794Y388380D01*
X102810Y388375D01*
X102835Y388376D01*
X102908Y388369D01*
X106438Y388369D01*
X106462Y388373D01*
X106487Y388370D01*
X106582Y388392D01*
X106679Y388408D01*
X106700Y388420D01*
X106724Y388426D01*
X106808Y388477D01*
X106894Y388523D01*
X106911Y388541D01*
X106932Y388554D01*
X106994Y388630D01*
X107061Y388701D01*
X107071Y388724D01*
X107087Y388743D01*
X107121Y388834D01*
X107162Y388924D01*
X107164Y388948D01*
X107173Y388971D01*
X107187Y389118D01*
X107187Y397634D01*
X108080Y398527D01*
X115440Y398527D01*
X116333Y397634D01*
X116333Y373510D01*
X115440Y372617D01*
X108080Y372617D01*
X107187Y373510D01*
X107187Y381522D01*
X107183Y381546D01*
X107186Y381571D01*
X107164Y381666D01*
X107148Y381763D01*
X107136Y381784D01*
X107130Y381808D01*
X107079Y381892D01*
X107033Y381978D01*
X107015Y381995D01*
X107002Y382016D01*
X106926Y382078D01*
X106855Y382145D01*
X106832Y382155D01*
X106813Y382171D01*
X106722Y382205D01*
X106632Y382246D01*
X106608Y382248D01*
X106585Y382257D01*
X106438Y382271D01*
X102908Y382271D01*
X102812Y382255D01*
X102715Y382246D01*
X102692Y382236D01*
X102667Y382232D01*
X102581Y382186D01*
X102492Y382145D01*
X102467Y382124D01*
X102452Y382117D01*
X102435Y382098D01*
X102378Y382052D01*
X101856Y381530D01*
X101842Y381510D01*
X101823Y381494D01*
X101771Y381411D01*
X101714Y381331D01*
X101707Y381308D01*
X101694Y381287D01*
X101672Y381192D01*
X101643Y381098D01*
X101644Y381073D01*
X101638Y381050D01*
X101648Y380952D01*
X101651Y380854D01*
X101660Y380831D01*
X101662Y380807D01*
X101702Y380717D01*
X101737Y380626D01*
X101752Y380607D01*
X101762Y380584D01*
X101856Y380470D01*
X102315Y380012D01*
X102315Y373348D01*
X101389Y372422D01*
X101347Y372416D01*
X101326Y372404D01*
X101302Y372398D01*
X101218Y372347D01*
X101132Y372301D01*
X101115Y372283D01*
X101094Y372270D01*
X101032Y372194D01*
X100965Y372123D01*
X100955Y372100D01*
X100939Y372081D01*
X100905Y371990D01*
X100864Y371900D01*
X100862Y371876D01*
X100853Y371853D01*
X100839Y371706D01*
X100839Y347968D01*
X100843Y347944D01*
X100840Y347919D01*
X100862Y347824D01*
X100878Y347727D01*
X100890Y347706D01*
X100896Y347682D01*
X100947Y347598D01*
X100993Y347512D01*
X101011Y347495D01*
X101024Y347474D01*
X101100Y347412D01*
X101171Y347345D01*
X101194Y347335D01*
X101213Y347319D01*
X101304Y347285D01*
X101394Y347244D01*
X101418Y347242D01*
X101441Y347233D01*
X101588Y347219D01*
X109213Y347219D01*
X114809Y341623D01*
X114809Y331712D01*
X114813Y331688D01*
X114810Y331663D01*
X114832Y331568D01*
X114848Y331471D01*
X114860Y331450D01*
X114866Y331426D01*
X114917Y331342D01*
X114963Y331256D01*
X114981Y331239D01*
X114994Y331218D01*
X115070Y331156D01*
X115141Y331089D01*
X115164Y331079D01*
X115183Y331063D01*
X115274Y331029D01*
X115364Y330988D01*
X115388Y330986D01*
X115411Y330977D01*
X115427Y330976D01*
X116333Y330070D01*
X116333Y305946D01*
X116044Y305658D01*
X115993Y305587D01*
X115991Y305584D01*
X115989Y305582D01*
X115987Y305578D01*
X115925Y305503D01*
X115917Y305480D01*
X115902Y305460D01*
X115874Y305366D01*
X115839Y305275D01*
X115836Y305242D01*
X115831Y305226D01*
X115832Y305201D01*
X115825Y305128D01*
X115825Y299174D01*
X115829Y299148D01*
X115827Y299125D01*
X115843Y299057D01*
X115850Y298981D01*
X115860Y298958D01*
X115864Y298933D01*
X115877Y298910D01*
X115882Y298887D01*
X115920Y298827D01*
X115951Y298758D01*
X115972Y298733D01*
X115979Y298718D01*
X115998Y298701D01*
X116011Y298680D01*
X116023Y298670D01*
X116044Y298644D01*
X148845Y265844D01*
X148845Y239617D01*
X148861Y239521D01*
X148870Y239424D01*
X148880Y239401D01*
X148884Y239376D01*
X148930Y239290D01*
X148971Y239201D01*
X148992Y239176D01*
X148999Y239161D01*
X149018Y239144D01*
X149064Y239087D01*
X149837Y238315D01*
X149837Y234125D01*
X149064Y233353D01*
X149007Y233273D01*
X148945Y233198D01*
X148937Y233175D01*
X148922Y233155D01*
X148894Y233061D01*
X148859Y232970D01*
X148856Y232937D01*
X148851Y232921D01*
X148852Y232896D01*
X148845Y232823D01*
X148845Y132937D01*
X148861Y132841D01*
X148870Y132744D01*
X148880Y132721D01*
X148884Y132696D01*
X148930Y132610D01*
X148971Y132521D01*
X148992Y132496D01*
X148999Y132481D01*
X149018Y132464D01*
X149064Y132407D01*
X149837Y131635D01*
X149837Y127445D01*
X146875Y124483D01*
X144345Y124483D01*
X144249Y124467D01*
X144152Y124458D01*
X144129Y124448D01*
X144104Y124444D01*
X144018Y124398D01*
X143930Y124357D01*
X143904Y124336D01*
X143889Y124329D01*
X143872Y124310D01*
X143815Y124264D01*
X141661Y122110D01*
X141618Y122050D01*
X141568Y121996D01*
X141548Y121951D01*
X141519Y121911D01*
X141498Y121841D01*
X141467Y121774D01*
X141462Y121725D01*
X141448Y121678D01*
X141450Y121604D01*
X141443Y121531D01*
X141454Y121483D01*
X141456Y121434D01*
X141482Y121365D01*
X141498Y121293D01*
X141524Y121252D01*
X141542Y121205D01*
X141588Y121149D01*
X141627Y121086D01*
X141665Y121055D01*
X141696Y121017D01*
X141759Y120978D01*
X141816Y120931D01*
X141862Y120914D01*
X141904Y120888D01*
X141975Y120871D01*
X142044Y120845D01*
X142117Y120838D01*
X142141Y120832D01*
X142158Y120834D01*
X142191Y120830D01*
X155505Y120830D01*
X155601Y120846D01*
X155698Y120856D01*
X155721Y120866D01*
X155746Y120870D01*
X155832Y120916D01*
X155921Y120956D01*
X155946Y120977D01*
X155961Y120985D01*
X155978Y121003D01*
X155981Y121006D01*
X155983Y121007D01*
X155984Y121008D01*
X156035Y121050D01*
X193376Y158391D01*
X193433Y158470D01*
X193495Y158545D01*
X193503Y158569D01*
X193518Y158589D01*
X193546Y158683D01*
X193581Y158774D01*
X193584Y158807D01*
X193589Y158823D01*
X193588Y158848D01*
X193595Y158921D01*
X193595Y362823D01*
X193579Y362919D01*
X193570Y363016D01*
X193560Y363039D01*
X193556Y363064D01*
X193510Y363150D01*
X193469Y363239D01*
X193448Y363264D01*
X193441Y363279D01*
X193422Y363296D01*
X193376Y363353D01*
X190523Y366205D01*
X190523Y370395D01*
X193485Y373357D01*
X197675Y373357D01*
X200637Y370395D01*
X200637Y366205D01*
X198864Y364433D01*
X198807Y364353D01*
X198745Y364278D01*
X198737Y364255D01*
X198722Y364235D01*
X198694Y364141D01*
X198659Y364050D01*
X198656Y364017D01*
X198651Y364001D01*
X198652Y363976D01*
X198645Y363903D01*
X198645Y220534D01*
X198657Y220462D01*
X198659Y220388D01*
X198676Y220342D01*
X198684Y220293D01*
X198719Y220229D01*
X198745Y220160D01*
X198776Y220122D01*
X198799Y220078D01*
X198853Y220028D01*
X198900Y219971D01*
X198941Y219945D01*
X198977Y219911D01*
X199044Y219881D01*
X199107Y219842D01*
X199155Y219831D01*
X199200Y219810D01*
X199273Y219803D01*
X199344Y219786D01*
X199393Y219791D01*
X199443Y219786D01*
X199514Y219803D01*
X199587Y219810D01*
X199632Y219830D01*
X199680Y219842D01*
X199743Y219880D01*
X199810Y219911D01*
X199866Y219957D01*
X199888Y219970D01*
X199898Y219983D01*
X199924Y220004D01*
X214426Y234506D01*
X216124Y236205D01*
X231292Y236205D01*
X231430Y236227D01*
X231533Y236244D01*
X231647Y236305D01*
X231748Y236359D01*
X231827Y236443D01*
X231915Y236537D01*
X231915Y236538D01*
X231985Y236667D01*
X233310Y239867D01*
X236383Y242940D01*
X240397Y244603D01*
X244743Y244603D01*
X248757Y242940D01*
X251228Y240469D01*
X251288Y240426D01*
X251342Y240376D01*
X251386Y240355D01*
X251427Y240327D01*
X251497Y240305D01*
X251564Y240275D01*
X251613Y240270D01*
X251660Y240256D01*
X251733Y240258D01*
X251807Y240251D01*
X251855Y240262D01*
X251904Y240264D01*
X251973Y240290D01*
X252044Y240306D01*
X252086Y240332D01*
X252132Y240350D01*
X252189Y240396D01*
X252252Y240435D01*
X252283Y240473D01*
X252321Y240504D01*
X252360Y240567D01*
X252407Y240623D01*
X252424Y240669D01*
X252450Y240711D01*
X252467Y240783D01*
X252493Y240852D01*
X252500Y240925D01*
X252506Y240949D01*
X252504Y240966D01*
X252507Y240999D01*
X252507Y251761D01*
X252495Y251834D01*
X252493Y251907D01*
X252476Y251953D01*
X252468Y252002D01*
X252433Y252067D01*
X252407Y252136D01*
X252376Y252174D01*
X252353Y252217D01*
X252299Y252268D01*
X252252Y252324D01*
X252210Y252350D01*
X252175Y252384D01*
X252108Y252415D01*
X252045Y252453D01*
X251997Y252465D01*
X251952Y252485D01*
X251879Y252492D01*
X251808Y252509D01*
X251759Y252504D01*
X251709Y252509D01*
X251638Y252492D01*
X251565Y252485D01*
X251520Y252465D01*
X251472Y252454D01*
X251409Y252415D01*
X251342Y252385D01*
X251286Y252338D01*
X251264Y252325D01*
X251254Y252312D01*
X251228Y252291D01*
X248757Y249820D01*
X244743Y248157D01*
X240397Y248157D01*
X236383Y249820D01*
X233310Y252893D01*
X231647Y256907D01*
X231647Y261253D01*
X233310Y265267D01*
X236383Y268340D01*
X240397Y270003D01*
X244743Y270003D01*
X248757Y268340D01*
X251228Y265869D01*
X251288Y265826D01*
X251342Y265776D01*
X251386Y265755D01*
X251427Y265727D01*
X251497Y265705D01*
X251564Y265675D01*
X251613Y265670D01*
X251660Y265656D01*
X251733Y265658D01*
X251807Y265651D01*
X251855Y265662D01*
X251904Y265664D01*
X251973Y265690D01*
X252044Y265706D01*
X252086Y265732D01*
X252132Y265750D01*
X252189Y265796D01*
X252252Y265835D01*
X252283Y265873D01*
X252321Y265904D01*
X252360Y265967D01*
X252407Y266023D01*
X252424Y266069D01*
X252450Y266111D01*
X252467Y266183D01*
X252493Y266252D01*
X252500Y266325D01*
X252506Y266349D01*
X252504Y266366D01*
X252507Y266399D01*
X252507Y277161D01*
X252495Y277234D01*
X252493Y277307D01*
X252476Y277353D01*
X252468Y277402D01*
X252433Y277467D01*
X252407Y277536D01*
X252376Y277574D01*
X252353Y277617D01*
X252299Y277668D01*
X252252Y277724D01*
X252210Y277750D01*
X252175Y277784D01*
X252108Y277815D01*
X252045Y277853D01*
X251997Y277865D01*
X251952Y277885D01*
X251879Y277892D01*
X251808Y277909D01*
X251759Y277904D01*
X251709Y277909D01*
X251638Y277892D01*
X251565Y277885D01*
X251520Y277865D01*
X251472Y277854D01*
X251409Y277815D01*
X251342Y277785D01*
X251286Y277738D01*
X251264Y277725D01*
X251254Y277712D01*
X251228Y277691D01*
X248757Y275220D01*
X244743Y273557D01*
X240397Y273557D01*
X236383Y275220D01*
X233310Y278293D01*
X231647Y282307D01*
X231647Y286653D01*
X233310Y290667D01*
X236383Y293740D01*
X240397Y295403D01*
X244743Y295403D01*
X248757Y293740D01*
X251228Y291269D01*
X251288Y291226D01*
X251342Y291176D01*
X251386Y291155D01*
X251427Y291127D01*
X251497Y291105D01*
X251564Y291075D01*
X251613Y291070D01*
X251660Y291056D01*
X251733Y291058D01*
X251807Y291051D01*
X251855Y291062D01*
X251904Y291064D01*
X251973Y291090D01*
X252044Y291106D01*
X252086Y291132D01*
X252132Y291150D01*
X252189Y291196D01*
X252252Y291235D01*
X252283Y291273D01*
X252321Y291304D01*
X252360Y291367D01*
X252407Y291423D01*
X252424Y291469D01*
X252450Y291511D01*
X252467Y291583D01*
X252493Y291652D01*
X252500Y291725D01*
X252506Y291749D01*
X252504Y291766D01*
X252507Y291799D01*
X252507Y302561D01*
X252495Y302634D01*
X252493Y302707D01*
X252476Y302753D01*
X252468Y302802D01*
X252433Y302867D01*
X252407Y302936D01*
X252376Y302974D01*
X252353Y303017D01*
X252299Y303068D01*
X252252Y303124D01*
X252210Y303150D01*
X252175Y303184D01*
X252108Y303215D01*
X252045Y303253D01*
X251997Y303265D01*
X251952Y303285D01*
X251879Y303292D01*
X251808Y303309D01*
X251759Y303304D01*
X251709Y303309D01*
X251638Y303292D01*
X251565Y303285D01*
X251520Y303265D01*
X251472Y303254D01*
X251409Y303215D01*
X251342Y303185D01*
X251286Y303138D01*
X251264Y303125D01*
X251254Y303112D01*
X251228Y303091D01*
X248757Y300620D01*
X244743Y298957D01*
X240397Y298957D01*
X236383Y300620D01*
X233310Y303693D01*
X231647Y307707D01*
X231647Y312053D01*
X233310Y316067D01*
X236383Y319140D01*
X240397Y320803D01*
X244743Y320803D01*
X248757Y319140D01*
X251228Y316669D01*
X251288Y316626D01*
X251342Y316576D01*
X251386Y316555D01*
X251427Y316527D01*
X251497Y316505D01*
X251564Y316475D01*
X251613Y316470D01*
X251660Y316456D01*
X251733Y316458D01*
X251807Y316451D01*
X251855Y316462D01*
X251904Y316464D01*
X251973Y316490D01*
X252044Y316506D01*
X252086Y316532D01*
X252132Y316550D01*
X252189Y316596D01*
X252252Y316635D01*
X252283Y316673D01*
X252321Y316704D01*
X252360Y316767D01*
X252407Y316823D01*
X252424Y316869D01*
X252450Y316911D01*
X252467Y316983D01*
X252493Y317052D01*
X252500Y317125D01*
X252506Y317149D01*
X252504Y317166D01*
X252507Y317199D01*
X252507Y327961D01*
X252495Y328034D01*
X252493Y328107D01*
X252476Y328153D01*
X252468Y328202D01*
X252433Y328267D01*
X252407Y328336D01*
X252376Y328374D01*
X252353Y328417D01*
X252299Y328468D01*
X252252Y328524D01*
X252210Y328550D01*
X252175Y328584D01*
X252108Y328615D01*
X252045Y328653D01*
X251997Y328665D01*
X251952Y328685D01*
X251879Y328692D01*
X251808Y328709D01*
X251759Y328704D01*
X251709Y328709D01*
X251638Y328692D01*
X251565Y328685D01*
X251520Y328665D01*
X251472Y328654D01*
X251409Y328615D01*
X251342Y328585D01*
X251286Y328538D01*
X251264Y328525D01*
X251254Y328512D01*
X251228Y328491D01*
X248757Y326020D01*
X244743Y324357D01*
X240397Y324357D01*
X236383Y326020D01*
X233310Y329093D01*
X231647Y333107D01*
X231647Y337453D01*
X233310Y341467D01*
X236383Y344540D01*
X240397Y346203D01*
X244743Y346203D01*
X248757Y344540D01*
X251228Y342069D01*
X251288Y342026D01*
X251342Y341976D01*
X251386Y341955D01*
X251427Y341927D01*
X251497Y341905D01*
X251564Y341875D01*
X251613Y341870D01*
X251660Y341856D01*
X251733Y341858D01*
X251807Y341851D01*
X251855Y341862D01*
X251904Y341864D01*
X251973Y341890D01*
X252044Y341906D01*
X252086Y341932D01*
X252132Y341950D01*
X252189Y341996D01*
X252252Y342035D01*
X252283Y342073D01*
X252321Y342104D01*
X252360Y342167D01*
X252407Y342223D01*
X252424Y342269D01*
X252450Y342311D01*
X252467Y342383D01*
X252493Y342452D01*
X252500Y342525D01*
X252506Y342549D01*
X252504Y342566D01*
X252507Y342599D01*
X252507Y353361D01*
X252495Y353434D01*
X252493Y353507D01*
X252476Y353553D01*
X252468Y353602D01*
X252433Y353667D01*
X252407Y353736D01*
X252376Y353774D01*
X252353Y353817D01*
X252299Y353868D01*
X252252Y353924D01*
X252210Y353950D01*
X252175Y353984D01*
X252108Y354015D01*
X252045Y354053D01*
X251997Y354065D01*
X251952Y354085D01*
X251879Y354092D01*
X251808Y354109D01*
X251759Y354104D01*
X251709Y354109D01*
X251638Y354092D01*
X251565Y354085D01*
X251520Y354065D01*
X251472Y354054D01*
X251409Y354015D01*
X251342Y353985D01*
X251286Y353938D01*
X251264Y353925D01*
X251254Y353912D01*
X251228Y353891D01*
X248757Y351420D01*
X244743Y349757D01*
X240397Y349757D01*
X236383Y351420D01*
X233310Y354493D01*
X231647Y358507D01*
X231647Y362853D01*
X233310Y366867D01*
X236383Y369940D01*
X240397Y371603D01*
X244743Y371603D01*
X248757Y369940D01*
X251228Y367469D01*
X251288Y367426D01*
X251342Y367376D01*
X251386Y367355D01*
X251427Y367327D01*
X251497Y367305D01*
X251564Y367275D01*
X251613Y367270D01*
X251660Y367256D01*
X251733Y367258D01*
X251807Y367251D01*
X251855Y367262D01*
X251904Y367264D01*
X251973Y367290D01*
X252044Y367306D01*
X252086Y367332D01*
X252132Y367350D01*
X252189Y367396D01*
X252252Y367435D01*
X252283Y367473D01*
X252321Y367504D01*
X252360Y367567D01*
X252407Y367623D01*
X252424Y367669D01*
X252450Y367711D01*
X252467Y367783D01*
X252493Y367852D01*
X252500Y367925D01*
X252506Y367949D01*
X252504Y367966D01*
X252507Y367999D01*
X252507Y378761D01*
X252495Y378834D01*
X252493Y378907D01*
X252476Y378953D01*
X252468Y379002D01*
X252433Y379067D01*
X252407Y379136D01*
X252376Y379174D01*
X252353Y379217D01*
X252299Y379268D01*
X252252Y379324D01*
X252210Y379350D01*
X252175Y379384D01*
X252108Y379415D01*
X252045Y379453D01*
X251997Y379465D01*
X251952Y379485D01*
X251879Y379492D01*
X251808Y379509D01*
X251759Y379504D01*
X251709Y379509D01*
X251638Y379492D01*
X251565Y379485D01*
X251520Y379465D01*
X251472Y379454D01*
X251409Y379415D01*
X251342Y379385D01*
X251286Y379338D01*
X251264Y379325D01*
X251254Y379312D01*
X251228Y379291D01*
X248757Y376820D01*
X244743Y375157D01*
X240397Y375157D01*
X236383Y376820D01*
X233310Y379893D01*
X231647Y383907D01*
X231647Y388253D01*
X233310Y392267D01*
X236383Y395340D01*
X240397Y397003D01*
X244743Y397003D01*
X248757Y395340D01*
X251228Y392869D01*
X251288Y392826D01*
X251342Y392776D01*
X251386Y392755D01*
X251427Y392727D01*
X251497Y392705D01*
X251564Y392675D01*
X251613Y392670D01*
X251660Y392656D01*
X251733Y392658D01*
X251807Y392651D01*
X251855Y392662D01*
X251904Y392664D01*
X251973Y392690D01*
X252044Y392706D01*
X252086Y392732D01*
X252132Y392750D01*
X252189Y392796D01*
X252252Y392835D01*
X252283Y392873D01*
X252321Y392904D01*
X252360Y392967D01*
X252407Y393023D01*
X252424Y393069D01*
X252450Y393111D01*
X252467Y393183D01*
X252493Y393252D01*
X252500Y393325D01*
X252506Y393349D01*
X252504Y393366D01*
X252507Y393399D01*
X252507Y404161D01*
X252495Y404234D01*
X252493Y404307D01*
X252476Y404353D01*
X252468Y404402D01*
X252433Y404467D01*
X252407Y404536D01*
X252376Y404574D01*
X252353Y404617D01*
X252299Y404668D01*
X252252Y404724D01*
X252210Y404750D01*
X252175Y404784D01*
X252108Y404815D01*
X252045Y404853D01*
X251997Y404865D01*
X251952Y404885D01*
X251879Y404892D01*
X251808Y404909D01*
X251759Y404904D01*
X251709Y404909D01*
X251638Y404892D01*
X251565Y404885D01*
X251520Y404865D01*
X251472Y404854D01*
X251409Y404815D01*
X251342Y404785D01*
X251286Y404738D01*
X251264Y404725D01*
X251254Y404712D01*
X251228Y404691D01*
X248757Y402220D01*
X244743Y400557D01*
X240397Y400557D01*
X236383Y402220D01*
X233310Y405293D01*
X231647Y409307D01*
X231647Y413653D01*
X233310Y417667D01*
X236383Y420740D01*
X240397Y422403D01*
X244743Y422403D01*
X248757Y420740D01*
X251228Y418269D01*
X251288Y418226D01*
X251342Y418176D01*
X251386Y418155D01*
X251427Y418127D01*
X251497Y418105D01*
X251564Y418075D01*
X251613Y418070D01*
X251660Y418056D01*
X251733Y418058D01*
X251807Y418051D01*
X251855Y418062D01*
X251904Y418064D01*
X251973Y418090D01*
X252044Y418106D01*
X252086Y418132D01*
X252132Y418150D01*
X252189Y418196D01*
X252252Y418235D01*
X252283Y418273D01*
X252321Y418304D01*
X252360Y418367D01*
X252407Y418423D01*
X252424Y418469D01*
X252450Y418511D01*
X252467Y418583D01*
X252493Y418652D01*
X252500Y418725D01*
X252506Y418749D01*
X252504Y418766D01*
X252507Y418799D01*
X252507Y429561D01*
X252504Y429579D01*
X252506Y429592D01*
X252495Y429637D01*
X252493Y429707D01*
X252476Y429753D01*
X252468Y429802D01*
X252433Y429867D01*
X252407Y429936D01*
X252376Y429974D01*
X252353Y430017D01*
X252299Y430068D01*
X252252Y430124D01*
X252210Y430150D01*
X252175Y430184D01*
X252108Y430215D01*
X252045Y430253D01*
X251997Y430265D01*
X251952Y430285D01*
X251879Y430292D01*
X251808Y430309D01*
X251759Y430304D01*
X251709Y430309D01*
X251638Y430292D01*
X251565Y430285D01*
X251520Y430265D01*
X251472Y430254D01*
X251409Y430215D01*
X251342Y430185D01*
X251287Y430139D01*
X251284Y430138D01*
X251283Y430136D01*
X251264Y430125D01*
X251254Y430112D01*
X251228Y430091D01*
X248757Y427620D01*
X244743Y425957D01*
X240397Y425957D01*
X236383Y427620D01*
X233310Y430693D01*
X231647Y434707D01*
X231647Y439053D01*
X233310Y443067D01*
X236383Y446140D01*
X240397Y447803D01*
X244743Y447803D01*
X248757Y446140D01*
X251228Y443669D01*
X251288Y443626D01*
X251342Y443576D01*
X251386Y443555D01*
X251427Y443527D01*
X251497Y443505D01*
X251564Y443475D01*
X251613Y443470D01*
X251660Y443456D01*
X251733Y443458D01*
X251807Y443451D01*
X251855Y443462D01*
X251904Y443464D01*
X251973Y443490D01*
X252044Y443506D01*
X252086Y443532D01*
X252132Y443550D01*
X252189Y443596D01*
X252252Y443635D01*
X252283Y443673D01*
X252321Y443704D01*
X252360Y443767D01*
X252407Y443823D01*
X252424Y443869D01*
X252450Y443911D01*
X252467Y443983D01*
X252493Y444052D01*
X252500Y444125D01*
X252506Y444149D01*
X252504Y444166D01*
X252507Y444199D01*
X252507Y480020D01*
X252503Y480044D01*
X252506Y480069D01*
X252484Y480164D01*
X252468Y480261D01*
X252456Y480282D01*
X252450Y480306D01*
X252399Y480390D01*
X252353Y480476D01*
X252335Y480493D01*
X252322Y480514D01*
X252246Y480576D01*
X252175Y480643D01*
X252152Y480653D01*
X252133Y480669D01*
X252042Y480703D01*
X251952Y480744D01*
X251928Y480746D01*
X251905Y480755D01*
X251758Y480769D01*
X245844Y480769D01*
X245820Y480765D01*
X245795Y480768D01*
X245700Y480746D01*
X245603Y480730D01*
X245582Y480718D01*
X245558Y480712D01*
X245474Y480661D01*
X245388Y480615D01*
X245371Y480597D01*
X245350Y480584D01*
X245288Y480508D01*
X245221Y480437D01*
X245211Y480414D01*
X245195Y480395D01*
X245161Y480304D01*
X245120Y480214D01*
X245118Y480190D01*
X245109Y480167D01*
X245095Y480020D01*
X245095Y460225D01*
X200175Y415305D01*
X77341Y415305D01*
X77317Y415301D01*
X77293Y415304D01*
X77197Y415282D01*
X77100Y415266D01*
X77079Y415254D01*
X77055Y415248D01*
X76972Y415197D01*
X76885Y415151D01*
X76869Y415133D01*
X76848Y415120D01*
X76785Y415044D01*
X76718Y414973D01*
X76708Y414950D01*
X76693Y414931D01*
X76658Y414840D01*
X76618Y414750D01*
X76615Y414726D01*
X76607Y414703D01*
X76592Y414556D01*
X76592Y396702D01*
X76604Y396630D01*
X76606Y396556D01*
X76624Y396510D01*
X76632Y396461D01*
X76666Y396397D01*
X76692Y396328D01*
X76723Y396290D01*
X76747Y396246D01*
X76800Y396196D01*
X76847Y396139D01*
X76889Y396113D01*
X76925Y396079D01*
X76992Y396049D01*
X77054Y396010D01*
X77102Y395999D01*
X77147Y395978D01*
X77220Y395971D01*
X77292Y395955D01*
X77341Y395959D01*
X77390Y395954D01*
X77461Y395971D01*
X77534Y395978D01*
X77579Y395998D01*
X77627Y396010D01*
X77690Y396048D01*
X77757Y396079D01*
X77814Y396125D01*
X77835Y396138D01*
X77845Y396151D01*
X77871Y396172D01*
X79185Y397487D01*
X83375Y397487D01*
X86337Y394525D01*
X86337Y390335D01*
X83375Y387373D01*
X82014Y387373D01*
X81990Y387369D01*
X81965Y387372D01*
X81870Y387350D01*
X81773Y387334D01*
X81752Y387322D01*
X81728Y387316D01*
X81644Y387265D01*
X81558Y387219D01*
X81541Y387201D01*
X81520Y387188D01*
X81458Y387112D01*
X81391Y387041D01*
X81381Y387018D01*
X81365Y386999D01*
X81331Y386908D01*
X81290Y386818D01*
X81288Y386794D01*
X81279Y386771D01*
X81265Y386624D01*
X81265Y362781D01*
X81269Y362757D01*
X81266Y362733D01*
X81288Y362637D01*
X81304Y362540D01*
X81316Y362519D01*
X81322Y362495D01*
X81373Y362412D01*
X81419Y362325D01*
X81437Y362308D01*
X81450Y362288D01*
X81526Y362225D01*
X81597Y362158D01*
X81620Y362148D01*
X81639Y362133D01*
X81730Y362098D01*
X81820Y362057D01*
X81844Y362055D01*
X81867Y362046D01*
X82014Y362032D01*
X82841Y362032D01*
X85803Y359070D01*
X85803Y354881D01*
X82841Y351918D01*
X78651Y351918D01*
X77871Y352699D01*
X77811Y352742D01*
X77758Y352792D01*
X77713Y352812D01*
X77673Y352841D01*
X77602Y352862D01*
X77536Y352893D01*
X77486Y352898D01*
X77439Y352912D01*
X77366Y352909D01*
X77293Y352917D01*
X77245Y352906D01*
X77195Y352904D01*
X77127Y352878D01*
X77055Y352861D01*
X77013Y352835D01*
X76967Y352818D01*
X76910Y352772D01*
X76848Y352733D01*
X76816Y352695D01*
X76778Y352663D01*
X76739Y352601D01*
X76693Y352544D01*
X76675Y352498D01*
X76649Y352456D01*
X76632Y352385D01*
X76607Y352316D01*
X76599Y352243D01*
X76594Y352219D01*
X76595Y352202D01*
X76592Y352169D01*
X76592Y275602D01*
X76608Y275506D01*
X76617Y275409D01*
X76628Y275386D01*
X76632Y275361D01*
X76678Y275275D01*
X76718Y275186D01*
X76739Y275161D01*
X76747Y275146D01*
X76765Y275129D01*
X76811Y275072D01*
X104029Y247854D01*
X104109Y247797D01*
X104184Y247735D01*
X104207Y247727D01*
X104228Y247712D01*
X104321Y247684D01*
X104412Y247649D01*
X104445Y247646D01*
X104461Y247641D01*
X104486Y247642D01*
X104559Y247635D01*
X111536Y247635D01*
X117674Y241496D01*
X117754Y241439D01*
X117829Y241377D01*
X117852Y241369D01*
X117873Y241354D01*
X117966Y241326D01*
X118057Y241291D01*
X118090Y241288D01*
X118106Y241283D01*
X118131Y241284D01*
X118204Y241277D01*
X121475Y241277D01*
X124437Y238315D01*
X124437Y234125D01*
X121475Y231163D01*
X117285Y231163D01*
X114323Y234125D01*
X114323Y237396D01*
X114307Y237492D01*
X114298Y237589D01*
X114288Y237612D01*
X114284Y237637D01*
X114237Y237723D01*
X114197Y237811D01*
X114176Y237837D01*
X114169Y237852D01*
X114150Y237869D01*
X114104Y237926D01*
X113016Y239014D01*
X112956Y239056D01*
X112902Y239107D01*
X112858Y239127D01*
X112817Y239156D01*
X112747Y239177D01*
X112680Y239208D01*
X112631Y239212D01*
X112584Y239227D01*
X112511Y239224D01*
X112437Y239232D01*
X112389Y239220D01*
X112340Y239219D01*
X112271Y239193D01*
X112200Y239176D01*
X112158Y239150D01*
X112112Y239133D01*
X112055Y239086D01*
X111992Y239048D01*
X111961Y239010D01*
X111923Y238978D01*
X111884Y238916D01*
X111837Y238859D01*
X111820Y238813D01*
X111794Y238771D01*
X111777Y238700D01*
X111751Y238631D01*
X111744Y238558D01*
X111738Y238534D01*
X111740Y238517D01*
X111737Y238484D01*
X111737Y234125D01*
X108775Y231163D01*
X104585Y231163D01*
X101623Y234125D01*
X101623Y237396D01*
X101607Y237492D01*
X101598Y237589D01*
X101588Y237612D01*
X101584Y237637D01*
X101538Y237723D01*
X101497Y237811D01*
X101476Y237837D01*
X101469Y237852D01*
X101450Y237869D01*
X101404Y237926D01*
X69024Y270306D01*
X68412Y270917D01*
X68353Y270960D01*
X68299Y271010D01*
X68254Y271030D01*
X68214Y271059D01*
X68144Y271081D01*
X68077Y271111D01*
X68028Y271116D01*
X67981Y271130D01*
X67907Y271128D01*
X67834Y271135D01*
X67786Y271124D01*
X67737Y271122D01*
X67668Y271096D01*
X67596Y271080D01*
X67554Y271054D01*
X67508Y271036D01*
X67452Y270990D01*
X67389Y270951D01*
X67358Y270913D01*
X67320Y270882D01*
X67281Y270819D01*
X67234Y270763D01*
X67217Y270716D01*
X67191Y270675D01*
X67174Y270603D01*
X67148Y270534D01*
X67141Y270461D01*
X67135Y270437D01*
X67137Y270420D01*
X67133Y270387D01*
X67133Y165163D01*
X53705Y151735D01*
X53648Y151655D01*
X53586Y151580D01*
X53577Y151557D01*
X53563Y151536D01*
X53535Y151443D01*
X53500Y151352D01*
X53497Y151319D01*
X53492Y151303D01*
X53493Y151278D01*
X53486Y151205D01*
X53486Y140895D01*
X53501Y140799D01*
X53511Y140702D01*
X53521Y140679D01*
X53525Y140655D01*
X53571Y140568D01*
X53611Y140480D01*
X53632Y140454D01*
X53640Y140439D01*
X53658Y140422D01*
X53705Y140365D01*
X60945Y133126D01*
X60945Y131179D01*
X60949Y131155D01*
X60946Y131130D01*
X60968Y131035D01*
X60984Y130938D01*
X60996Y130917D01*
X61002Y130893D01*
X61053Y130809D01*
X61099Y130723D01*
X61117Y130706D01*
X61130Y130685D01*
X61206Y130623D01*
X61277Y130556D01*
X61300Y130546D01*
X61319Y130530D01*
X61410Y130496D01*
X61500Y130455D01*
X61524Y130453D01*
X61547Y130444D01*
X61694Y130430D01*
X61762Y130430D01*
X63120Y129072D01*
X63120Y122358D01*
X63093Y122326D01*
X63085Y122303D01*
X63070Y122283D01*
X63042Y122189D01*
X63007Y122098D01*
X63004Y122065D01*
X62999Y122049D01*
X63000Y122024D01*
X62993Y121951D01*
X62993Y116809D01*
X63009Y116713D01*
X63018Y116616D01*
X63028Y116593D01*
X63032Y116568D01*
X63078Y116482D01*
X63119Y116393D01*
X63120Y116392D01*
X63120Y109688D01*
X61762Y108330D01*
X61694Y108330D01*
X61670Y108326D01*
X61645Y108329D01*
X61550Y108307D01*
X61453Y108291D01*
X61432Y108279D01*
X61408Y108273D01*
X61324Y108222D01*
X61238Y108176D01*
X61221Y108158D01*
X61200Y108145D01*
X61138Y108069D01*
X61071Y107998D01*
X61061Y107975D01*
X61045Y107956D01*
X61011Y107865D01*
X60970Y107775D01*
X60968Y107751D01*
X60959Y107728D01*
X60945Y107581D01*
X60945Y103399D01*
X60957Y103326D01*
X60959Y103253D01*
X60976Y103207D01*
X60984Y103158D01*
X61019Y103093D01*
X61045Y103025D01*
X61076Y102986D01*
X61099Y102943D01*
X61153Y102893D01*
X61200Y102836D01*
X61242Y102810D01*
X61277Y102776D01*
X61344Y102746D01*
X61407Y102707D01*
X61455Y102696D01*
X61500Y102675D01*
X61573Y102668D01*
X61644Y102651D01*
X61693Y102656D01*
X61743Y102651D01*
X61814Y102668D01*
G37*
G36*
X132370Y227D02*
X132370Y227D01*
X132395Y224D01*
X132490Y246D01*
X132587Y262D01*
X132608Y274D01*
X132632Y280D01*
X132716Y331D01*
X132802Y377D01*
X132819Y395D01*
X132840Y408D01*
X132902Y484D01*
X132969Y555D01*
X132979Y578D01*
X132995Y597D01*
X133029Y688D01*
X133070Y778D01*
X133072Y802D01*
X133081Y825D01*
X133095Y972D01*
X133095Y27302D01*
X133740Y27946D01*
X133783Y28006D01*
X133833Y28060D01*
X133853Y28104D01*
X133882Y28145D01*
X133903Y28215D01*
X133934Y28282D01*
X133939Y28331D01*
X133953Y28378D01*
X133951Y28451D01*
X133958Y28525D01*
X133947Y28573D01*
X133945Y28622D01*
X133919Y28691D01*
X133903Y28762D01*
X133877Y28804D01*
X133859Y28850D01*
X133813Y28907D01*
X133774Y28970D01*
X133736Y29001D01*
X133705Y29039D01*
X133642Y29078D01*
X133585Y29125D01*
X133539Y29142D01*
X133497Y29168D01*
X133426Y29185D01*
X133357Y29211D01*
X133284Y29218D01*
X133260Y29224D01*
X133243Y29222D01*
X133210Y29225D01*
X77556Y29225D01*
X77460Y29209D01*
X77363Y29200D01*
X77340Y29190D01*
X77315Y29186D01*
X77229Y29140D01*
X77141Y29099D01*
X77115Y29078D01*
X77100Y29071D01*
X77083Y29052D01*
X77026Y29006D01*
X75134Y27114D01*
X75077Y27034D01*
X75015Y26959D01*
X75007Y26936D01*
X74992Y26915D01*
X74964Y26822D01*
X74929Y26731D01*
X74926Y26698D01*
X74921Y26682D01*
X74922Y26657D01*
X74915Y26584D01*
X74915Y26527D01*
X74929Y26440D01*
X74929Y26438D01*
X74930Y26436D01*
X74931Y26431D01*
X74940Y26334D01*
X74950Y26311D01*
X74954Y26286D01*
X75000Y26200D01*
X75041Y26111D01*
X75062Y26086D01*
X75069Y26071D01*
X75088Y26054D01*
X75134Y25997D01*
X77447Y23685D01*
X77447Y19495D01*
X74485Y16533D01*
X70295Y16533D01*
X68040Y18789D01*
X67980Y18832D01*
X67927Y18882D01*
X67882Y18902D01*
X67841Y18931D01*
X67771Y18952D01*
X67704Y18983D01*
X67655Y18988D01*
X67608Y19002D01*
X67535Y19000D01*
X67461Y19007D01*
X67413Y18996D01*
X67364Y18994D01*
X67295Y18968D01*
X67224Y18952D01*
X67182Y18926D01*
X67136Y18908D01*
X67079Y18862D01*
X67016Y18823D01*
X66985Y18785D01*
X66947Y18753D01*
X66908Y18691D01*
X66862Y18634D01*
X66844Y18588D01*
X66818Y18546D01*
X66801Y18475D01*
X66775Y18406D01*
X66768Y18333D01*
X66762Y18309D01*
X66764Y18292D01*
X66761Y18259D01*
X66761Y12960D01*
X58459Y4657D01*
X28602Y4657D01*
X22795Y10464D01*
X22795Y14238D01*
X22779Y14334D01*
X22770Y14431D01*
X22760Y14454D01*
X22756Y14479D01*
X22710Y14565D01*
X22669Y14654D01*
X22648Y14679D01*
X22641Y14694D01*
X22622Y14711D01*
X22576Y14768D01*
X22295Y15048D01*
X22295Y26312D01*
X23188Y27205D01*
X27531Y27205D01*
X27533Y27204D01*
X27629Y27181D01*
X27722Y27153D01*
X27747Y27154D01*
X27771Y27148D01*
X27868Y27158D01*
X27966Y27161D01*
X27989Y27170D01*
X28013Y27172D01*
X28086Y27205D01*
X32452Y27205D01*
X33345Y26312D01*
X33345Y15022D01*
X33333Y15003D01*
X33276Y14924D01*
X33269Y14900D01*
X33256Y14879D01*
X33234Y14784D01*
X33205Y14690D01*
X33206Y14666D01*
X33200Y14642D01*
X33210Y14545D01*
X33213Y14446D01*
X33222Y14423D01*
X33224Y14399D01*
X33264Y14310D01*
X33299Y14218D01*
X33314Y14199D01*
X33325Y14177D01*
X33418Y14062D01*
X33846Y13634D01*
X33926Y13577D01*
X34001Y13515D01*
X34024Y13507D01*
X34045Y13492D01*
X34138Y13464D01*
X34229Y13429D01*
X34262Y13426D01*
X34278Y13421D01*
X34303Y13422D01*
X34376Y13415D01*
X53975Y13415D01*
X54071Y13431D01*
X54168Y13440D01*
X54191Y13450D01*
X54216Y13454D01*
X54302Y13500D01*
X54390Y13541D01*
X54416Y13562D01*
X54431Y13569D01*
X54448Y13588D01*
X54505Y13634D01*
X57486Y16615D01*
X57543Y16695D01*
X57605Y16770D01*
X57613Y16793D01*
X57628Y16814D01*
X57656Y16907D01*
X57691Y16998D01*
X57694Y17031D01*
X57699Y17047D01*
X57698Y17072D01*
X57705Y17145D01*
X57705Y28425D01*
X57693Y28498D01*
X57691Y28571D01*
X57674Y28617D01*
X57666Y28666D01*
X57631Y28731D01*
X57605Y28799D01*
X57574Y28838D01*
X57551Y28881D01*
X57497Y28931D01*
X57450Y28988D01*
X57408Y29014D01*
X57373Y29048D01*
X57306Y29078D01*
X57243Y29117D01*
X57195Y29128D01*
X57150Y29149D01*
X57077Y29156D01*
X57006Y29173D01*
X56957Y29168D01*
X56907Y29173D01*
X56836Y29156D01*
X56763Y29149D01*
X56718Y29129D01*
X56670Y29118D01*
X56607Y29079D01*
X56540Y29049D01*
X56484Y29002D01*
X56462Y28989D01*
X56452Y28976D01*
X56426Y28955D01*
X54165Y26693D01*
X49975Y26693D01*
X47013Y29655D01*
X47013Y33845D01*
X49326Y36157D01*
X49383Y36237D01*
X49445Y36312D01*
X49453Y36335D01*
X49468Y36355D01*
X49496Y36449D01*
X49531Y36540D01*
X49534Y36573D01*
X49539Y36589D01*
X49538Y36614D01*
X49545Y36687D01*
X49545Y46766D01*
X56216Y53436D01*
X56273Y53516D01*
X56335Y53591D01*
X56343Y53614D01*
X56358Y53635D01*
X56386Y53728D01*
X56421Y53819D01*
X56424Y53852D01*
X56429Y53868D01*
X56428Y53893D01*
X56435Y53966D01*
X56435Y86649D01*
X56423Y86721D01*
X56421Y86795D01*
X56404Y86841D01*
X56396Y86889D01*
X56361Y86954D01*
X56335Y87023D01*
X56304Y87061D01*
X56281Y87105D01*
X56227Y87155D01*
X56180Y87212D01*
X56138Y87238D01*
X56103Y87271D01*
X56036Y87302D01*
X55973Y87341D01*
X55925Y87352D01*
X55880Y87372D01*
X55807Y87380D01*
X55736Y87396D01*
X55687Y87391D01*
X55637Y87396D01*
X55566Y87380D01*
X55493Y87373D01*
X55448Y87352D01*
X55400Y87341D01*
X55337Y87302D01*
X55270Y87272D01*
X55214Y87226D01*
X55192Y87212D01*
X55182Y87200D01*
X55156Y87178D01*
X50516Y82539D01*
X48511Y80533D01*
X37540Y80533D01*
X37444Y80517D01*
X37347Y80508D01*
X37324Y80498D01*
X37299Y80494D01*
X37213Y80448D01*
X37124Y80407D01*
X37099Y80386D01*
X37084Y80379D01*
X37067Y80360D01*
X37010Y80314D01*
X33588Y76892D01*
X33531Y76813D01*
X33469Y76737D01*
X33461Y76714D01*
X33446Y76694D01*
X33418Y76600D01*
X33383Y76509D01*
X33380Y76476D01*
X33375Y76460D01*
X33376Y76435D01*
X33369Y76362D01*
X33369Y55727D01*
X29203Y51561D01*
X16517Y51561D01*
X12271Y55807D01*
X12271Y58406D01*
X12267Y58430D01*
X12270Y58455D01*
X12248Y58550D01*
X12232Y58647D01*
X12220Y58668D01*
X12214Y58692D01*
X12163Y58776D01*
X12117Y58862D01*
X12099Y58879D01*
X12086Y58900D01*
X12010Y58962D01*
X11939Y59029D01*
X11916Y59039D01*
X11897Y59055D01*
X11806Y59089D01*
X11716Y59130D01*
X11692Y59132D01*
X11669Y59141D01*
X11522Y59155D01*
X8188Y59155D01*
X7295Y60048D01*
X7295Y71312D01*
X8188Y72205D01*
X12531Y72205D01*
X12533Y72204D01*
X12622Y72183D01*
X12669Y72165D01*
X12688Y72163D01*
X12722Y72153D01*
X12746Y72154D01*
X12770Y72148D01*
X12806Y72152D01*
X12816Y72151D01*
X12824Y72151D01*
X12866Y72158D01*
X12868Y72158D01*
X12966Y72161D01*
X12989Y72170D01*
X13013Y72172D01*
X13048Y72188D01*
X13065Y72190D01*
X13092Y72205D01*
X17046Y72205D01*
X17070Y72209D01*
X17095Y72206D01*
X17190Y72228D01*
X17287Y72244D01*
X17308Y72256D01*
X17332Y72262D01*
X17416Y72313D01*
X17502Y72359D01*
X17519Y72377D01*
X17540Y72390D01*
X17602Y72466D01*
X17669Y72537D01*
X17679Y72560D01*
X17695Y72579D01*
X17729Y72670D01*
X17770Y72760D01*
X17772Y72784D01*
X17781Y72807D01*
X17795Y72954D01*
X17795Y80600D01*
X31461Y94266D01*
X41082Y94266D01*
X41178Y94281D01*
X41275Y94291D01*
X41298Y94301D01*
X41323Y94305D01*
X41409Y94351D01*
X41497Y94391D01*
X41523Y94412D01*
X41538Y94420D01*
X41555Y94438D01*
X41612Y94485D01*
X44246Y97119D01*
X44294Y97186D01*
X44315Y97209D01*
X44320Y97220D01*
X44365Y97274D01*
X44373Y97297D01*
X44388Y97317D01*
X44416Y97411D01*
X44451Y97502D01*
X44454Y97535D01*
X44459Y97551D01*
X44458Y97576D01*
X44465Y97649D01*
X44465Y107581D01*
X44461Y107605D01*
X44464Y107630D01*
X44442Y107725D01*
X44426Y107822D01*
X44414Y107843D01*
X44408Y107867D01*
X44357Y107951D01*
X44311Y108037D01*
X44293Y108054D01*
X44280Y108075D01*
X44204Y108137D01*
X44133Y108204D01*
X44110Y108214D01*
X44091Y108230D01*
X44000Y108264D01*
X43910Y108305D01*
X43886Y108307D01*
X43863Y108316D01*
X43716Y108330D01*
X43648Y108330D01*
X42290Y109688D01*
X42290Y116402D01*
X42317Y116434D01*
X42325Y116457D01*
X42340Y116477D01*
X42368Y116571D01*
X42403Y116662D01*
X42406Y116695D01*
X42411Y116711D01*
X42410Y116736D01*
X42417Y116809D01*
X42417Y121951D01*
X42401Y122047D01*
X42392Y122144D01*
X42382Y122167D01*
X42378Y122192D01*
X42332Y122278D01*
X42291Y122367D01*
X42290Y122368D01*
X42290Y129072D01*
X43648Y130430D01*
X43716Y130430D01*
X43740Y130434D01*
X43765Y130431D01*
X43860Y130453D01*
X43957Y130469D01*
X43978Y130481D01*
X44002Y130487D01*
X44086Y130538D01*
X44172Y130584D01*
X44189Y130602D01*
X44210Y130615D01*
X44272Y130691D01*
X44339Y130762D01*
X44349Y130785D01*
X44365Y130804D01*
X44399Y130895D01*
X44440Y130985D01*
X44442Y131009D01*
X44451Y131032D01*
X44465Y131179D01*
X44465Y154716D01*
X58216Y168466D01*
X58273Y168546D01*
X58335Y168621D01*
X58343Y168644D01*
X58358Y168665D01*
X58386Y168758D01*
X58421Y168849D01*
X58424Y168882D01*
X58429Y168898D01*
X58428Y168923D01*
X58435Y168996D01*
X58435Y191715D01*
X58423Y191788D01*
X58421Y191861D01*
X58404Y191907D01*
X58396Y191956D01*
X58361Y192021D01*
X58335Y192089D01*
X58304Y192128D01*
X58281Y192171D01*
X58227Y192221D01*
X58180Y192278D01*
X58139Y192304D01*
X58103Y192338D01*
X58036Y192368D01*
X57973Y192407D01*
X57925Y192418D01*
X57880Y192439D01*
X57807Y192446D01*
X57736Y192463D01*
X57687Y192458D01*
X57637Y192463D01*
X57566Y192446D01*
X57493Y192439D01*
X57448Y192419D01*
X57400Y192408D01*
X57337Y192369D01*
X57270Y192339D01*
X57214Y192292D01*
X57192Y192279D01*
X57182Y192266D01*
X57156Y192245D01*
X54165Y189253D01*
X49975Y189253D01*
X47013Y192215D01*
X47013Y196405D01*
X47786Y197177D01*
X47843Y197257D01*
X47905Y197332D01*
X47913Y197355D01*
X47928Y197375D01*
X47956Y197469D01*
X47991Y197560D01*
X47994Y197593D01*
X47999Y197609D01*
X47998Y197634D01*
X48005Y197707D01*
X48005Y297726D01*
X47989Y297822D01*
X47980Y297919D01*
X47970Y297942D01*
X47966Y297967D01*
X47920Y298053D01*
X47879Y298142D01*
X47858Y298167D01*
X47851Y298182D01*
X47832Y298199D01*
X47786Y298256D01*
X37845Y308196D01*
X37845Y461424D01*
X40444Y464022D01*
X40501Y464102D01*
X40563Y464177D01*
X40571Y464200D01*
X40586Y464221D01*
X40614Y464314D01*
X40649Y464405D01*
X40652Y464438D01*
X40657Y464454D01*
X40656Y464479D01*
X40663Y464552D01*
X40663Y465645D01*
X43625Y468607D01*
X47815Y468607D01*
X50777Y465645D01*
X50777Y461455D01*
X47815Y458493D01*
X46724Y458493D01*
X46700Y458489D01*
X46675Y458492D01*
X46580Y458470D01*
X46483Y458454D01*
X46462Y458442D01*
X46438Y458436D01*
X46354Y458385D01*
X46268Y458339D01*
X46251Y458321D01*
X46230Y458308D01*
X46168Y458232D01*
X46101Y458161D01*
X46091Y458138D01*
X46075Y458119D01*
X46041Y458028D01*
X46000Y457938D01*
X45998Y457914D01*
X45989Y457891D01*
X45975Y457744D01*
X45975Y311874D01*
X45976Y311864D01*
X45976Y311862D01*
X45978Y311856D01*
X45991Y311778D01*
X46000Y311681D01*
X46010Y311658D01*
X46014Y311633D01*
X46060Y311547D01*
X46101Y311458D01*
X46122Y311433D01*
X46129Y311418D01*
X46148Y311401D01*
X46194Y311344D01*
X56135Y301404D01*
X56135Y197707D01*
X56151Y197611D01*
X56160Y197514D01*
X56170Y197491D01*
X56174Y197466D01*
X56221Y197380D01*
X56261Y197291D01*
X56282Y197266D01*
X56289Y197251D01*
X56308Y197234D01*
X56354Y197177D01*
X57156Y196375D01*
X57216Y196332D01*
X57270Y196282D01*
X57314Y196262D01*
X57355Y196233D01*
X57425Y196212D01*
X57492Y196181D01*
X57541Y196176D01*
X57588Y196162D01*
X57661Y196164D01*
X57735Y196157D01*
X57783Y196168D01*
X57832Y196170D01*
X57901Y196196D01*
X57972Y196212D01*
X58014Y196238D01*
X58060Y196256D01*
X58117Y196302D01*
X58180Y196341D01*
X58211Y196379D01*
X58249Y196410D01*
X58288Y196473D01*
X58335Y196530D01*
X58352Y196576D01*
X58378Y196618D01*
X58395Y196689D01*
X58421Y196758D01*
X58428Y196831D01*
X58434Y196855D01*
X58432Y196872D01*
X58435Y196905D01*
X58435Y303444D01*
X58419Y303540D01*
X58410Y303637D01*
X58400Y303660D01*
X58396Y303685D01*
X58350Y303771D01*
X58309Y303859D01*
X58288Y303885D01*
X58281Y303900D01*
X58262Y303917D01*
X58216Y303974D01*
X51244Y310946D01*
X49545Y312644D01*
X49545Y324896D01*
X51244Y326594D01*
X54406Y329756D01*
X56104Y331455D01*
X57293Y331455D01*
X57389Y331471D01*
X57486Y331480D01*
X57509Y331490D01*
X57534Y331494D01*
X57620Y331540D01*
X57709Y331581D01*
X57734Y331602D01*
X57749Y331609D01*
X57766Y331628D01*
X57823Y331674D01*
X60135Y333987D01*
X64325Y333987D01*
X66046Y332265D01*
X66106Y332222D01*
X66160Y332172D01*
X66204Y332152D01*
X66245Y332123D01*
X66315Y332102D01*
X66382Y332071D01*
X66431Y332066D01*
X66478Y332052D01*
X66551Y332054D01*
X66625Y332047D01*
X66673Y332058D01*
X66722Y332060D01*
X66791Y332086D01*
X66862Y332102D01*
X66904Y332128D01*
X66950Y332146D01*
X67007Y332192D01*
X67070Y332231D01*
X67101Y332269D01*
X67139Y332300D01*
X67178Y332363D01*
X67225Y332420D01*
X67242Y332466D01*
X67268Y332508D01*
X67285Y332579D01*
X67311Y332648D01*
X67318Y332721D01*
X67324Y332745D01*
X67322Y332762D01*
X67325Y332795D01*
X67325Y398694D01*
X67309Y398790D01*
X67300Y398887D01*
X67290Y398910D01*
X67286Y398935D01*
X67240Y399021D01*
X67199Y399109D01*
X67178Y399135D01*
X67171Y399150D01*
X67152Y399167D01*
X67106Y399224D01*
X66476Y399854D01*
X66396Y399911D01*
X66321Y399973D01*
X66298Y399981D01*
X66277Y399996D01*
X66184Y400024D01*
X66093Y400059D01*
X66060Y400062D01*
X66044Y400067D01*
X66019Y400066D01*
X65946Y400073D01*
X62675Y400073D01*
X59713Y403035D01*
X59713Y406306D01*
X59697Y406402D01*
X59688Y406499D01*
X59678Y406522D01*
X59674Y406547D01*
X59648Y406595D01*
X59646Y406602D01*
X59629Y406630D01*
X59628Y406633D01*
X59587Y406721D01*
X59566Y406747D01*
X59559Y406762D01*
X59540Y406779D01*
X59525Y406798D01*
X59517Y406810D01*
X59510Y406816D01*
X59494Y406836D01*
X56324Y410006D01*
X54625Y411704D01*
X54625Y423956D01*
X56946Y426276D01*
X58644Y427975D01*
X72166Y427975D01*
X73864Y426276D01*
X75756Y424384D01*
X75836Y424327D01*
X75911Y424265D01*
X75934Y424257D01*
X75955Y424242D01*
X76048Y424214D01*
X76139Y424179D01*
X76172Y424176D01*
X76188Y424171D01*
X76213Y424172D01*
X76286Y424165D01*
X195949Y424165D01*
X196046Y424181D01*
X196143Y424190D01*
X196165Y424200D01*
X196190Y424204D01*
X196276Y424250D01*
X196365Y424291D01*
X196391Y424312D01*
X196405Y424319D01*
X196422Y424338D01*
X196479Y424384D01*
X236016Y463921D01*
X236073Y464000D01*
X236135Y464075D01*
X236143Y464099D01*
X236158Y464119D01*
X236186Y464213D01*
X236221Y464304D01*
X236224Y464337D01*
X236229Y464353D01*
X236228Y464378D01*
X236235Y464451D01*
X236235Y480020D01*
X236231Y480044D01*
X236234Y480069D01*
X236212Y480164D01*
X236196Y480261D01*
X236184Y480282D01*
X236178Y480306D01*
X236127Y480390D01*
X236081Y480476D01*
X236063Y480493D01*
X236050Y480514D01*
X235974Y480576D01*
X235903Y480643D01*
X235880Y480653D01*
X235861Y480669D01*
X235770Y480703D01*
X235680Y480744D01*
X235656Y480746D01*
X235633Y480755D01*
X235486Y480769D01*
X215221Y480769D01*
X215197Y480765D01*
X215172Y480768D01*
X215077Y480746D01*
X214980Y480730D01*
X214959Y480718D01*
X214935Y480712D01*
X214851Y480661D01*
X214765Y480615D01*
X214748Y480597D01*
X214727Y480584D01*
X214665Y480508D01*
X214598Y480437D01*
X214588Y480414D01*
X214572Y480395D01*
X214538Y480304D01*
X214497Y480214D01*
X214497Y480211D01*
X212853Y478567D01*
X44576Y478567D01*
X42925Y480218D01*
X42918Y480261D01*
X42906Y480282D01*
X42900Y480306D01*
X42849Y480390D01*
X42803Y480476D01*
X42785Y480493D01*
X42772Y480514D01*
X42696Y480576D01*
X42625Y480643D01*
X42602Y480653D01*
X42583Y480669D01*
X42492Y480703D01*
X42402Y480744D01*
X42378Y480746D01*
X42355Y480755D01*
X42208Y480769D01*
X30182Y480769D01*
X30158Y480765D01*
X30133Y480768D01*
X30038Y480746D01*
X29941Y480730D01*
X29920Y480718D01*
X29896Y480712D01*
X29812Y480661D01*
X29726Y480615D01*
X29709Y480597D01*
X29688Y480584D01*
X29626Y480508D01*
X29559Y480437D01*
X29549Y480414D01*
X29533Y480395D01*
X29499Y480304D01*
X29458Y480214D01*
X29456Y480190D01*
X29447Y480167D01*
X29433Y480020D01*
X29433Y425921D01*
X27734Y424223D01*
X22734Y419223D01*
X22720Y419203D01*
X22701Y419187D01*
X22649Y419104D01*
X22592Y419024D01*
X22585Y419001D01*
X22572Y418980D01*
X22550Y418885D01*
X22521Y418791D01*
X22522Y418766D01*
X22516Y418742D01*
X22526Y418645D01*
X22529Y418547D01*
X22538Y418524D01*
X22540Y418500D01*
X22580Y418410D01*
X22615Y418318D01*
X22630Y418299D01*
X22640Y418277D01*
X22734Y418163D01*
X23230Y417667D01*
X24893Y413653D01*
X24893Y409307D01*
X23230Y405293D01*
X20157Y402220D01*
X16143Y400557D01*
X11797Y400557D01*
X7783Y402220D01*
X4710Y405293D01*
X4204Y406514D01*
X4153Y406597D01*
X4107Y406684D01*
X4088Y406700D01*
X4075Y406721D01*
X4000Y406783D01*
X3928Y406850D01*
X3906Y406861D01*
X3887Y406876D01*
X3795Y406911D01*
X3706Y406951D01*
X3682Y406954D01*
X3658Y406962D01*
X3561Y406966D01*
X3463Y406975D01*
X3439Y406970D01*
X3415Y406970D01*
X3321Y406942D01*
X3226Y406920D01*
X3205Y406907D01*
X3181Y406900D01*
X3102Y406843D01*
X3018Y406791D01*
X3003Y406772D01*
X2983Y406758D01*
X2926Y406678D01*
X2863Y406603D01*
X2855Y406580D01*
X2840Y406560D01*
X2812Y406466D01*
X2777Y406375D01*
X2774Y406342D01*
X2769Y406326D01*
X2770Y406301D01*
X2763Y406228D01*
X2763Y391332D01*
X2779Y391236D01*
X2788Y391139D01*
X2798Y391116D01*
X2802Y391092D01*
X2849Y391005D01*
X2889Y390916D01*
X2906Y390898D01*
X2917Y390876D01*
X2989Y390810D01*
X3056Y390738D01*
X3077Y390727D01*
X3095Y390710D01*
X3184Y390669D01*
X3271Y390623D01*
X3295Y390619D01*
X3318Y390609D01*
X3415Y390599D01*
X3511Y390583D01*
X3536Y390587D01*
X3561Y390585D01*
X3656Y390607D01*
X3752Y390623D01*
X3774Y390634D01*
X3798Y390640D01*
X3881Y390692D01*
X3968Y390738D01*
X3984Y390756D01*
X4006Y390769D01*
X4068Y390844D01*
X4135Y390916D01*
X4150Y390944D01*
X4160Y390957D01*
X4169Y390980D01*
X4204Y391046D01*
X4710Y392267D01*
X7783Y395340D01*
X11797Y397003D01*
X16143Y397003D01*
X20157Y395340D01*
X23230Y392267D01*
X24893Y388253D01*
X24893Y383907D01*
X23230Y379893D01*
X20157Y376820D01*
X16143Y375157D01*
X11797Y375157D01*
X7783Y376820D01*
X4710Y379893D01*
X4204Y381114D01*
X4153Y381197D01*
X4107Y381284D01*
X4088Y381300D01*
X4075Y381321D01*
X4000Y381383D01*
X3928Y381450D01*
X3906Y381461D01*
X3887Y381476D01*
X3795Y381511D01*
X3706Y381551D01*
X3682Y381554D01*
X3658Y381562D01*
X3561Y381566D01*
X3463Y381575D01*
X3439Y381570D01*
X3415Y381570D01*
X3321Y381542D01*
X3226Y381520D01*
X3205Y381507D01*
X3181Y381500D01*
X3102Y381443D01*
X3018Y381391D01*
X3003Y381372D01*
X2983Y381358D01*
X2926Y381278D01*
X2863Y381203D01*
X2855Y381180D01*
X2840Y381160D01*
X2812Y381066D01*
X2777Y380975D01*
X2774Y380942D01*
X2769Y380926D01*
X2770Y380901D01*
X2763Y380828D01*
X2763Y365932D01*
X2779Y365836D01*
X2788Y365739D01*
X2798Y365716D01*
X2802Y365692D01*
X2849Y365605D01*
X2889Y365516D01*
X2906Y365498D01*
X2917Y365476D01*
X2989Y365410D01*
X3056Y365338D01*
X3077Y365327D01*
X3095Y365310D01*
X3184Y365269D01*
X3271Y365223D01*
X3295Y365219D01*
X3318Y365209D01*
X3415Y365199D01*
X3511Y365183D01*
X3536Y365187D01*
X3561Y365185D01*
X3656Y365207D01*
X3752Y365223D01*
X3774Y365234D01*
X3798Y365240D01*
X3881Y365292D01*
X3968Y365338D01*
X3984Y365356D01*
X4006Y365369D01*
X4068Y365444D01*
X4135Y365516D01*
X4150Y365544D01*
X4160Y365557D01*
X4169Y365580D01*
X4204Y365646D01*
X4710Y366867D01*
X7783Y369940D01*
X11797Y371603D01*
X16143Y371603D01*
X20157Y369940D01*
X23230Y366867D01*
X24893Y362853D01*
X24893Y358507D01*
X23230Y354493D01*
X20157Y351420D01*
X16143Y349757D01*
X11797Y349757D01*
X7783Y351420D01*
X4710Y354493D01*
X4204Y355714D01*
X4153Y355797D01*
X4107Y355884D01*
X4088Y355900D01*
X4075Y355921D01*
X4000Y355983D01*
X3928Y356050D01*
X3906Y356061D01*
X3887Y356076D01*
X3795Y356111D01*
X3706Y356151D01*
X3682Y356154D01*
X3658Y356162D01*
X3561Y356166D01*
X3463Y356175D01*
X3439Y356170D01*
X3415Y356170D01*
X3321Y356142D01*
X3226Y356120D01*
X3205Y356107D01*
X3181Y356100D01*
X3102Y356043D01*
X3018Y355991D01*
X3003Y355972D01*
X2983Y355958D01*
X2926Y355878D01*
X2863Y355803D01*
X2855Y355780D01*
X2840Y355760D01*
X2812Y355666D01*
X2777Y355575D01*
X2774Y355542D01*
X2769Y355526D01*
X2770Y355501D01*
X2763Y355428D01*
X2763Y340532D01*
X2779Y340436D01*
X2788Y340339D01*
X2798Y340316D01*
X2802Y340292D01*
X2849Y340205D01*
X2889Y340116D01*
X2906Y340098D01*
X2917Y340076D01*
X2989Y340010D01*
X3056Y339938D01*
X3077Y339927D01*
X3095Y339910D01*
X3184Y339869D01*
X3271Y339823D01*
X3295Y339819D01*
X3318Y339809D01*
X3415Y339799D01*
X3511Y339783D01*
X3536Y339787D01*
X3561Y339785D01*
X3656Y339807D01*
X3752Y339823D01*
X3774Y339834D01*
X3798Y339840D01*
X3881Y339892D01*
X3968Y339938D01*
X3984Y339956D01*
X4006Y339969D01*
X4068Y340044D01*
X4135Y340116D01*
X4150Y340144D01*
X4160Y340157D01*
X4169Y340180D01*
X4204Y340246D01*
X4710Y341467D01*
X7783Y344540D01*
X11797Y346203D01*
X16143Y346203D01*
X20157Y344540D01*
X23230Y341467D01*
X24893Y337453D01*
X24893Y333107D01*
X23230Y329093D01*
X20157Y326020D01*
X16143Y324357D01*
X11797Y324357D01*
X7783Y326020D01*
X4710Y329093D01*
X4204Y330314D01*
X4153Y330397D01*
X4107Y330484D01*
X4088Y330500D01*
X4075Y330521D01*
X4000Y330583D01*
X3928Y330650D01*
X3906Y330661D01*
X3887Y330676D01*
X3795Y330711D01*
X3706Y330751D01*
X3682Y330754D01*
X3658Y330762D01*
X3561Y330766D01*
X3463Y330775D01*
X3439Y330770D01*
X3415Y330770D01*
X3321Y330742D01*
X3226Y330720D01*
X3205Y330707D01*
X3181Y330700D01*
X3102Y330643D01*
X3018Y330591D01*
X3003Y330572D01*
X2983Y330558D01*
X2926Y330478D01*
X2863Y330403D01*
X2855Y330380D01*
X2840Y330360D01*
X2812Y330266D01*
X2777Y330175D01*
X2774Y330142D01*
X2769Y330126D01*
X2770Y330101D01*
X2763Y330028D01*
X2763Y315132D01*
X2779Y315036D01*
X2788Y314939D01*
X2798Y314916D01*
X2802Y314892D01*
X2849Y314805D01*
X2889Y314716D01*
X2906Y314698D01*
X2917Y314676D01*
X2989Y314610D01*
X3056Y314538D01*
X3077Y314527D01*
X3095Y314510D01*
X3184Y314469D01*
X3271Y314423D01*
X3295Y314419D01*
X3318Y314409D01*
X3415Y314399D01*
X3511Y314383D01*
X3536Y314387D01*
X3561Y314385D01*
X3656Y314407D01*
X3752Y314423D01*
X3774Y314434D01*
X3798Y314440D01*
X3881Y314492D01*
X3968Y314538D01*
X3984Y314556D01*
X4006Y314569D01*
X4068Y314644D01*
X4135Y314716D01*
X4150Y314744D01*
X4160Y314757D01*
X4169Y314780D01*
X4204Y314846D01*
X4710Y316067D01*
X7783Y319140D01*
X11797Y320803D01*
X16143Y320803D01*
X20157Y319140D01*
X23230Y316067D01*
X24555Y312867D01*
X24610Y312779D01*
X24684Y312660D01*
X24776Y312585D01*
X24872Y312505D01*
X24873Y312505D01*
X25005Y312455D01*
X25101Y312419D01*
X25102Y312419D01*
X25248Y312405D01*
X30256Y312405D01*
X44435Y298226D01*
X44435Y188184D01*
X30684Y174434D01*
X30627Y174354D01*
X30565Y174279D01*
X30557Y174256D01*
X30542Y174235D01*
X30514Y174142D01*
X30479Y174051D01*
X30476Y174018D01*
X30471Y174002D01*
X30472Y173977D01*
X30465Y173904D01*
X30465Y106537D01*
X30481Y106441D01*
X30490Y106344D01*
X30500Y106321D01*
X30504Y106296D01*
X30550Y106210D01*
X30591Y106121D01*
X30612Y106096D01*
X30619Y106081D01*
X30638Y106064D01*
X30684Y106007D01*
X32997Y103695D01*
X32997Y99505D01*
X30035Y96543D01*
X25845Y96543D01*
X22883Y99505D01*
X22883Y103695D01*
X25196Y106007D01*
X25253Y106087D01*
X25315Y106162D01*
X25323Y106185D01*
X25338Y106205D01*
X25366Y106299D01*
X25401Y106390D01*
X25404Y106423D01*
X25409Y106439D01*
X25408Y106464D01*
X25415Y106537D01*
X25415Y176306D01*
X39166Y190056D01*
X39223Y190136D01*
X39285Y190211D01*
X39293Y190234D01*
X39308Y190255D01*
X39336Y190348D01*
X39371Y190439D01*
X39374Y190472D01*
X39379Y190488D01*
X39378Y190513D01*
X39385Y190586D01*
X39385Y295824D01*
X39369Y295920D01*
X39360Y296017D01*
X39350Y296040D01*
X39346Y296065D01*
X39300Y296151D01*
X39259Y296239D01*
X39238Y296265D01*
X39231Y296280D01*
X39212Y296297D01*
X39166Y296354D01*
X28384Y307136D01*
X28304Y307193D01*
X28229Y307255D01*
X28206Y307263D01*
X28185Y307278D01*
X28092Y307306D01*
X28001Y307341D01*
X27968Y307344D01*
X27952Y307349D01*
X27927Y307348D01*
X27854Y307355D01*
X25248Y307355D01*
X25117Y307334D01*
X25007Y307316D01*
X24899Y307258D01*
X24792Y307201D01*
X24713Y307117D01*
X24625Y307023D01*
X24624Y307022D01*
X24555Y306893D01*
X23230Y303693D01*
X20157Y300620D01*
X16143Y298957D01*
X11797Y298957D01*
X7783Y300620D01*
X4710Y303693D01*
X4204Y304914D01*
X4153Y304997D01*
X4107Y305084D01*
X4088Y305100D01*
X4075Y305121D01*
X4000Y305183D01*
X3928Y305250D01*
X3906Y305261D01*
X3887Y305276D01*
X3795Y305311D01*
X3706Y305351D01*
X3682Y305354D01*
X3658Y305362D01*
X3561Y305366D01*
X3463Y305375D01*
X3439Y305370D01*
X3415Y305370D01*
X3321Y305342D01*
X3226Y305320D01*
X3205Y305307D01*
X3181Y305300D01*
X3102Y305243D01*
X3018Y305191D01*
X3003Y305172D01*
X2983Y305158D01*
X2926Y305078D01*
X2863Y305003D01*
X2855Y304980D01*
X2840Y304960D01*
X2812Y304866D01*
X2777Y304775D01*
X2774Y304742D01*
X2769Y304726D01*
X2770Y304701D01*
X2763Y304628D01*
X2763Y289732D01*
X2779Y289636D01*
X2788Y289539D01*
X2798Y289516D01*
X2802Y289492D01*
X2849Y289405D01*
X2889Y289316D01*
X2906Y289298D01*
X2917Y289276D01*
X2989Y289210D01*
X3056Y289138D01*
X3077Y289127D01*
X3095Y289110D01*
X3184Y289069D01*
X3271Y289023D01*
X3295Y289019D01*
X3318Y289009D01*
X3415Y288999D01*
X3511Y288983D01*
X3536Y288987D01*
X3561Y288985D01*
X3656Y289007D01*
X3752Y289023D01*
X3774Y289034D01*
X3798Y289040D01*
X3881Y289092D01*
X3968Y289138D01*
X3984Y289156D01*
X4006Y289169D01*
X4068Y289244D01*
X4135Y289316D01*
X4150Y289344D01*
X4160Y289357D01*
X4169Y289380D01*
X4204Y289446D01*
X4710Y290667D01*
X7783Y293740D01*
X11797Y295403D01*
X16143Y295403D01*
X20157Y293740D01*
X23230Y290667D01*
X24893Y286653D01*
X24893Y282307D01*
X23230Y278293D01*
X20157Y275220D01*
X16143Y273557D01*
X11797Y273557D01*
X7783Y275220D01*
X4710Y278293D01*
X4204Y279514D01*
X4153Y279597D01*
X4107Y279684D01*
X4088Y279700D01*
X4075Y279721D01*
X4000Y279783D01*
X3928Y279850D01*
X3906Y279861D01*
X3887Y279876D01*
X3795Y279911D01*
X3706Y279951D01*
X3682Y279954D01*
X3658Y279962D01*
X3561Y279966D01*
X3463Y279975D01*
X3439Y279970D01*
X3415Y279970D01*
X3321Y279942D01*
X3226Y279920D01*
X3205Y279907D01*
X3181Y279900D01*
X3102Y279843D01*
X3018Y279791D01*
X3003Y279772D01*
X2983Y279758D01*
X2926Y279678D01*
X2863Y279603D01*
X2855Y279580D01*
X2840Y279560D01*
X2812Y279466D01*
X2777Y279375D01*
X2774Y279342D01*
X2769Y279326D01*
X2770Y279301D01*
X2763Y279228D01*
X2763Y264332D01*
X2779Y264236D01*
X2788Y264139D01*
X2798Y264116D01*
X2802Y264092D01*
X2849Y264005D01*
X2889Y263916D01*
X2906Y263898D01*
X2917Y263876D01*
X2989Y263810D01*
X3056Y263738D01*
X3077Y263727D01*
X3095Y263710D01*
X3184Y263669D01*
X3271Y263623D01*
X3295Y263619D01*
X3318Y263609D01*
X3415Y263599D01*
X3511Y263583D01*
X3536Y263587D01*
X3561Y263585D01*
X3656Y263607D01*
X3752Y263623D01*
X3774Y263634D01*
X3798Y263640D01*
X3881Y263692D01*
X3968Y263738D01*
X3984Y263756D01*
X4006Y263769D01*
X4068Y263844D01*
X4135Y263916D01*
X4150Y263944D01*
X4160Y263957D01*
X4169Y263980D01*
X4204Y264046D01*
X4710Y265267D01*
X7783Y268340D01*
X11797Y270003D01*
X16143Y270003D01*
X20157Y268340D01*
X23230Y265267D01*
X24893Y261253D01*
X24893Y256907D01*
X23230Y252893D01*
X20157Y249820D01*
X16143Y248157D01*
X11797Y248157D01*
X7783Y249820D01*
X4710Y252893D01*
X4204Y254114D01*
X4153Y254197D01*
X4107Y254284D01*
X4088Y254300D01*
X4075Y254321D01*
X4000Y254383D01*
X3928Y254450D01*
X3906Y254461D01*
X3887Y254476D01*
X3795Y254511D01*
X3706Y254551D01*
X3682Y254554D01*
X3658Y254562D01*
X3561Y254566D01*
X3463Y254575D01*
X3439Y254570D01*
X3415Y254570D01*
X3321Y254542D01*
X3226Y254520D01*
X3205Y254507D01*
X3181Y254500D01*
X3102Y254443D01*
X3018Y254391D01*
X3003Y254372D01*
X2983Y254358D01*
X2926Y254278D01*
X2863Y254203D01*
X2855Y254180D01*
X2840Y254160D01*
X2812Y254066D01*
X2777Y253975D01*
X2774Y253942D01*
X2769Y253926D01*
X2770Y253901D01*
X2763Y253828D01*
X2763Y238932D01*
X2779Y238836D01*
X2788Y238739D01*
X2798Y238716D01*
X2802Y238692D01*
X2849Y238605D01*
X2889Y238516D01*
X2906Y238498D01*
X2917Y238476D01*
X2989Y238410D01*
X3056Y238338D01*
X3077Y238327D01*
X3095Y238310D01*
X3184Y238269D01*
X3271Y238223D01*
X3295Y238219D01*
X3318Y238209D01*
X3415Y238199D01*
X3511Y238183D01*
X3536Y238187D01*
X3561Y238185D01*
X3656Y238207D01*
X3752Y238223D01*
X3774Y238234D01*
X3798Y238240D01*
X3881Y238292D01*
X3968Y238338D01*
X3984Y238356D01*
X4006Y238369D01*
X4068Y238444D01*
X4135Y238516D01*
X4150Y238544D01*
X4160Y238557D01*
X4169Y238580D01*
X4204Y238646D01*
X4710Y239867D01*
X7783Y242940D01*
X11797Y244603D01*
X16143Y244603D01*
X20157Y242940D01*
X23230Y239867D01*
X24893Y235853D01*
X24893Y231507D01*
X23230Y227493D01*
X20157Y224420D01*
X16143Y222757D01*
X11797Y222757D01*
X7783Y224420D01*
X4710Y227493D01*
X4204Y228714D01*
X4153Y228797D01*
X4107Y228884D01*
X4088Y228900D01*
X4075Y228921D01*
X4000Y228983D01*
X3928Y229050D01*
X3906Y229061D01*
X3887Y229076D01*
X3795Y229111D01*
X3706Y229151D01*
X3682Y229154D01*
X3658Y229162D01*
X3561Y229166D01*
X3463Y229175D01*
X3439Y229170D01*
X3415Y229170D01*
X3321Y229142D01*
X3226Y229120D01*
X3205Y229107D01*
X3181Y229100D01*
X3102Y229043D01*
X3018Y228991D01*
X3003Y228972D01*
X2983Y228958D01*
X2926Y228878D01*
X2863Y228803D01*
X2855Y228780D01*
X2840Y228760D01*
X2812Y228666D01*
X2777Y228575D01*
X2774Y228542D01*
X2769Y228526D01*
X2770Y228501D01*
X2763Y228428D01*
X2763Y22860D01*
X2766Y22841D01*
X2765Y22801D01*
X3035Y19377D01*
X3038Y19363D01*
X3037Y19349D01*
X3069Y19204D01*
X5185Y12692D01*
X5192Y12677D01*
X5193Y12674D01*
X5199Y12664D01*
X5205Y12652D01*
X5217Y12610D01*
X5291Y12483D01*
X9317Y6942D01*
X9348Y6912D01*
X9372Y6875D01*
X9482Y6777D01*
X15023Y2751D01*
X15062Y2732D01*
X15096Y2704D01*
X15232Y2645D01*
X21744Y529D01*
X21759Y527D01*
X21772Y521D01*
X21917Y495D01*
X25341Y225D01*
X25360Y227D01*
X25400Y223D01*
X132346Y223D01*
X132370Y227D01*
G37*
G36*
X232429Y226D02*
X232429Y226D01*
X232469Y225D01*
X235495Y463D01*
X235509Y467D01*
X235524Y466D01*
X235668Y498D01*
X241425Y2368D01*
X241464Y2388D01*
X241507Y2400D01*
X241634Y2475D01*
X246532Y6033D01*
X246562Y6064D01*
X246599Y6088D01*
X246697Y6198D01*
X250255Y11096D01*
X250275Y11135D01*
X250303Y11169D01*
X250362Y11305D01*
X252232Y17062D01*
X252235Y17076D01*
X252241Y17089D01*
X252267Y17235D01*
X252505Y20261D01*
X252503Y20280D01*
X252507Y20320D01*
X252507Y75678D01*
X252495Y75750D01*
X252493Y75824D01*
X252476Y75870D01*
X252468Y75919D01*
X252433Y75983D01*
X252407Y76052D01*
X252376Y76090D01*
X252353Y76134D01*
X252299Y76184D01*
X252252Y76241D01*
X252210Y76267D01*
X252175Y76301D01*
X252108Y76331D01*
X252045Y76370D01*
X251997Y76381D01*
X251952Y76402D01*
X251879Y76409D01*
X251808Y76426D01*
X251759Y76421D01*
X251709Y76426D01*
X251638Y76409D01*
X251565Y76402D01*
X251520Y76382D01*
X251472Y76370D01*
X251409Y76332D01*
X251342Y76301D01*
X251286Y76255D01*
X251264Y76242D01*
X251254Y76229D01*
X251228Y76208D01*
X249747Y74726D01*
X249746Y74726D01*
X244886Y69865D01*
X239887Y69865D01*
X239791Y69849D01*
X239694Y69840D01*
X239671Y69830D01*
X239646Y69826D01*
X239560Y69780D01*
X239471Y69739D01*
X239446Y69718D01*
X239431Y69711D01*
X239414Y69692D01*
X239357Y69646D01*
X237045Y67333D01*
X232855Y67333D01*
X229893Y70295D01*
X229893Y74485D01*
X232855Y77447D01*
X237045Y77447D01*
X239357Y75134D01*
X239437Y75077D01*
X239512Y75015D01*
X239535Y75007D01*
X239555Y74992D01*
X239649Y74964D01*
X239740Y74929D01*
X239773Y74926D01*
X239789Y74921D01*
X239814Y74922D01*
X239887Y74915D01*
X242484Y74915D01*
X242580Y74931D01*
X242677Y74940D01*
X242700Y74950D01*
X242725Y74954D01*
X242811Y75000D01*
X242899Y75041D01*
X242925Y75062D01*
X242940Y75069D01*
X242957Y75088D01*
X243014Y75134D01*
X246176Y78296D01*
X246233Y78376D01*
X246295Y78451D01*
X246303Y78474D01*
X246318Y78495D01*
X246346Y78588D01*
X246381Y78679D01*
X246384Y78712D01*
X246389Y78728D01*
X246388Y78753D01*
X246395Y78826D01*
X246395Y145964D01*
X246379Y146060D01*
X246370Y146157D01*
X246360Y146180D01*
X246356Y146205D01*
X246310Y146291D01*
X246269Y146379D01*
X246248Y146405D01*
X246241Y146420D01*
X246222Y146437D01*
X246176Y146494D01*
X240466Y152204D01*
X240386Y152261D01*
X240311Y152323D01*
X240288Y152331D01*
X240267Y152346D01*
X240174Y152374D01*
X240083Y152409D01*
X240050Y152412D01*
X240034Y152417D01*
X240009Y152416D01*
X239936Y152423D01*
X236665Y152423D01*
X233703Y155385D01*
X233703Y159575D01*
X236665Y162537D01*
X240855Y162537D01*
X243817Y159575D01*
X243817Y156304D01*
X243833Y156208D01*
X243842Y156111D01*
X243852Y156088D01*
X243856Y156063D01*
X243902Y155977D01*
X243943Y155889D01*
X243964Y155863D01*
X243971Y155848D01*
X243990Y155831D01*
X244036Y155774D01*
X249746Y150064D01*
X251228Y148582D01*
X251288Y148540D01*
X251342Y148489D01*
X251386Y148469D01*
X251427Y148440D01*
X251497Y148419D01*
X251564Y148388D01*
X251613Y148384D01*
X251660Y148369D01*
X251733Y148372D01*
X251807Y148364D01*
X251855Y148376D01*
X251904Y148377D01*
X251973Y148403D01*
X252044Y148420D01*
X252086Y148446D01*
X252132Y148463D01*
X252189Y148510D01*
X252252Y148548D01*
X252283Y148586D01*
X252321Y148618D01*
X252360Y148680D01*
X252407Y148737D01*
X252424Y148783D01*
X252450Y148825D01*
X252467Y148896D01*
X252493Y148965D01*
X252500Y149038D01*
X252506Y149062D01*
X252504Y149079D01*
X252507Y149112D01*
X252507Y200961D01*
X252495Y201034D01*
X252493Y201107D01*
X252476Y201153D01*
X252468Y201202D01*
X252433Y201267D01*
X252407Y201336D01*
X252376Y201374D01*
X252353Y201417D01*
X252299Y201468D01*
X252252Y201524D01*
X252210Y201550D01*
X252175Y201584D01*
X252108Y201615D01*
X252045Y201653D01*
X251997Y201665D01*
X251952Y201685D01*
X251879Y201692D01*
X251808Y201709D01*
X251759Y201704D01*
X251709Y201709D01*
X251638Y201692D01*
X251565Y201685D01*
X251520Y201665D01*
X251472Y201654D01*
X251409Y201615D01*
X251342Y201585D01*
X251286Y201538D01*
X251264Y201525D01*
X251254Y201512D01*
X251228Y201491D01*
X248757Y199020D01*
X244743Y197357D01*
X240397Y197357D01*
X236383Y199020D01*
X233310Y202093D01*
X231647Y206107D01*
X231647Y210453D01*
X233310Y214467D01*
X236383Y217540D01*
X240397Y219203D01*
X244743Y219203D01*
X248757Y217540D01*
X251228Y215069D01*
X251288Y215026D01*
X251342Y214976D01*
X251386Y214955D01*
X251427Y214927D01*
X251497Y214905D01*
X251564Y214875D01*
X251613Y214870D01*
X251660Y214856D01*
X251733Y214858D01*
X251807Y214851D01*
X251855Y214862D01*
X251904Y214864D01*
X251973Y214890D01*
X252044Y214906D01*
X252086Y214932D01*
X252132Y214950D01*
X252189Y214996D01*
X252252Y215035D01*
X252283Y215073D01*
X252321Y215104D01*
X252360Y215167D01*
X252407Y215223D01*
X252424Y215269D01*
X252450Y215311D01*
X252467Y215383D01*
X252493Y215452D01*
X252500Y215525D01*
X252506Y215549D01*
X252504Y215566D01*
X252507Y215599D01*
X252507Y226361D01*
X252495Y226434D01*
X252493Y226507D01*
X252476Y226553D01*
X252468Y226602D01*
X252433Y226667D01*
X252407Y226736D01*
X252376Y226774D01*
X252353Y226817D01*
X252299Y226868D01*
X252252Y226924D01*
X252210Y226950D01*
X252175Y226984D01*
X252108Y227015D01*
X252045Y227053D01*
X251997Y227065D01*
X251952Y227085D01*
X251879Y227092D01*
X251808Y227109D01*
X251759Y227104D01*
X251709Y227109D01*
X251638Y227092D01*
X251565Y227085D01*
X251520Y227065D01*
X251472Y227054D01*
X251409Y227015D01*
X251342Y226985D01*
X251286Y226938D01*
X251264Y226925D01*
X251254Y226912D01*
X251228Y226891D01*
X248757Y224420D01*
X244743Y222757D01*
X240397Y222757D01*
X236383Y224420D01*
X233310Y227493D01*
X231985Y230693D01*
X231930Y230780D01*
X231856Y230900D01*
X231772Y230969D01*
X231668Y231055D01*
X231667Y231055D01*
X231535Y231105D01*
X231439Y231141D01*
X231438Y231141D01*
X231292Y231155D01*
X218526Y231155D01*
X218430Y231139D01*
X218333Y231130D01*
X218310Y231120D01*
X218285Y231116D01*
X218199Y231070D01*
X218111Y231029D01*
X218085Y231008D01*
X218070Y231001D01*
X218053Y230982D01*
X217996Y230936D01*
X203018Y215957D01*
X202961Y215878D01*
X202899Y215803D01*
X202890Y215779D01*
X202876Y215759D01*
X202847Y215666D01*
X202813Y215574D01*
X202810Y215541D01*
X202805Y215525D01*
X202806Y215501D01*
X202798Y215427D01*
X202798Y155628D01*
X159261Y112091D01*
X93111Y112091D01*
X93015Y112075D01*
X92918Y112065D01*
X92895Y112055D01*
X92871Y112051D01*
X92785Y112005D01*
X92696Y111965D01*
X92670Y111944D01*
X92655Y111936D01*
X92638Y111918D01*
X92582Y111871D01*
X66244Y85534D01*
X66187Y85454D01*
X66125Y85379D01*
X66117Y85356D01*
X66102Y85335D01*
X66074Y85242D01*
X66039Y85151D01*
X66036Y85118D01*
X66031Y85102D01*
X66032Y85077D01*
X66025Y85004D01*
X66025Y45944D01*
X64966Y44886D01*
X64909Y44806D01*
X64847Y44731D01*
X64839Y44708D01*
X64824Y44687D01*
X64796Y44594D01*
X64761Y44503D01*
X64758Y44470D01*
X64753Y44454D01*
X64754Y44429D01*
X64747Y44356D01*
X64747Y41085D01*
X61785Y38123D01*
X57595Y38123D01*
X55874Y39845D01*
X55814Y39888D01*
X55760Y39938D01*
X55716Y39958D01*
X55675Y39987D01*
X55605Y40008D01*
X55538Y40039D01*
X55489Y40044D01*
X55442Y40058D01*
X55369Y40056D01*
X55295Y40063D01*
X55247Y40052D01*
X55198Y40050D01*
X55129Y40024D01*
X55058Y40008D01*
X55016Y39982D01*
X54970Y39964D01*
X54913Y39918D01*
X54850Y39879D01*
X54819Y39841D01*
X54781Y39810D01*
X54742Y39747D01*
X54695Y39690D01*
X54678Y39644D01*
X54652Y39602D01*
X54635Y39531D01*
X54609Y39462D01*
X54602Y39389D01*
X54596Y39365D01*
X54598Y39348D01*
X54595Y39315D01*
X54595Y36687D01*
X54611Y36591D01*
X54620Y36494D01*
X54630Y36471D01*
X54634Y36446D01*
X54680Y36360D01*
X54721Y36271D01*
X54742Y36246D01*
X54749Y36231D01*
X54768Y36214D01*
X54814Y36157D01*
X57127Y33845D01*
X57127Y29661D01*
X57139Y29589D01*
X57141Y29515D01*
X57158Y29469D01*
X57166Y29421D01*
X57201Y29356D01*
X57227Y29287D01*
X57258Y29249D01*
X57281Y29205D01*
X57335Y29155D01*
X57382Y29098D01*
X57423Y29072D01*
X57459Y29038D01*
X57526Y29008D01*
X57589Y28969D01*
X57637Y28958D01*
X57682Y28938D01*
X57755Y28930D01*
X57826Y28914D01*
X57875Y28918D01*
X57925Y28914D01*
X57996Y28930D01*
X58069Y28937D01*
X58114Y28958D01*
X58162Y28969D01*
X58225Y29008D01*
X58292Y29038D01*
X58348Y29084D01*
X58370Y29098D01*
X58380Y29110D01*
X58406Y29131D01*
X70098Y40824D01*
X71797Y42523D01*
X80461Y42523D01*
X80533Y42535D01*
X80606Y42537D01*
X80653Y42554D01*
X80701Y42562D01*
X80766Y42597D01*
X80835Y42623D01*
X80873Y42654D01*
X80917Y42677D01*
X80967Y42731D01*
X81024Y42777D01*
X81050Y42819D01*
X81083Y42855D01*
X81114Y42922D01*
X81153Y42985D01*
X81164Y43033D01*
X81184Y43078D01*
X81191Y43151D01*
X81208Y43222D01*
X81203Y43271D01*
X81208Y43320D01*
X81192Y43392D01*
X81184Y43465D01*
X81164Y43510D01*
X81153Y43558D01*
X81114Y43621D01*
X81084Y43687D01*
X81038Y43744D01*
X81024Y43765D01*
X81011Y43776D01*
X80990Y43802D01*
X78938Y45854D01*
X77825Y48542D01*
X77825Y63032D01*
X78938Y65721D01*
X80996Y67778D01*
X83684Y68892D01*
X86594Y68892D01*
X89283Y67778D01*
X91340Y65721D01*
X92454Y63032D01*
X92454Y51914D01*
X92458Y51893D01*
X92456Y51872D01*
X92471Y51805D01*
X92480Y51720D01*
X92490Y51698D01*
X92494Y51673D01*
X92508Y51646D01*
X92511Y51635D01*
X92536Y51594D01*
X92540Y51587D01*
X92580Y51498D01*
X92597Y51480D01*
X92609Y51458D01*
X92637Y51432D01*
X92640Y51427D01*
X92656Y51414D01*
X92680Y51391D01*
X92747Y51320D01*
X92769Y51308D01*
X92787Y51291D01*
X92828Y51273D01*
X92828Y51272D01*
X92829Y51272D01*
X92876Y51251D01*
X92962Y51205D01*
X92986Y51201D01*
X93009Y51190D01*
X93106Y51181D01*
X93203Y51165D01*
X93227Y51169D01*
X93252Y51166D01*
X93347Y51189D01*
X93444Y51204D01*
X93465Y51216D01*
X93489Y51222D01*
X93573Y51273D01*
X93659Y51319D01*
X93676Y51337D01*
X93697Y51350D01*
X93759Y51426D01*
X93826Y51497D01*
X93841Y51526D01*
X93852Y51539D01*
X93861Y51562D01*
X93895Y51627D01*
X94707Y53586D01*
X96254Y55133D01*
X98276Y55971D01*
X100464Y55971D01*
X102486Y55133D01*
X104033Y53586D01*
X104871Y51564D01*
X104871Y49376D01*
X104033Y47354D01*
X102486Y45807D01*
X100464Y44969D01*
X98276Y44969D01*
X96254Y45807D01*
X94707Y47354D01*
X93895Y49313D01*
X93844Y49396D01*
X93798Y49482D01*
X93780Y49499D01*
X93767Y49520D01*
X93691Y49582D01*
X93620Y49649D01*
X93597Y49659D01*
X93578Y49675D01*
X93486Y49709D01*
X93398Y49750D01*
X93373Y49752D01*
X93350Y49761D01*
X93252Y49764D01*
X93155Y49774D01*
X93131Y49768D01*
X93106Y49769D01*
X93012Y49741D01*
X92917Y49718D01*
X92896Y49705D01*
X92872Y49698D01*
X92793Y49641D01*
X92710Y49590D01*
X92694Y49570D01*
X92674Y49556D01*
X92617Y49477D01*
X92555Y49401D01*
X92546Y49378D01*
X92532Y49358D01*
X92503Y49264D01*
X92469Y49173D01*
X92465Y49140D01*
X92461Y49124D01*
X92461Y49099D01*
X92454Y49026D01*
X92454Y48542D01*
X91340Y45854D01*
X89288Y43802D01*
X89245Y43742D01*
X89195Y43688D01*
X89175Y43643D01*
X89146Y43603D01*
X89125Y43533D01*
X89094Y43466D01*
X89089Y43417D01*
X89075Y43370D01*
X89078Y43296D01*
X89070Y43223D01*
X89081Y43175D01*
X89083Y43126D01*
X89109Y43057D01*
X89126Y42986D01*
X89152Y42944D01*
X89169Y42898D01*
X89215Y42841D01*
X89254Y42778D01*
X89292Y42747D01*
X89324Y42709D01*
X89386Y42670D01*
X89443Y42623D01*
X89489Y42606D01*
X89531Y42580D01*
X89602Y42563D01*
X89671Y42537D01*
X89744Y42530D01*
X89768Y42524D01*
X89785Y42526D01*
X89818Y42523D01*
X119924Y42523D01*
X119948Y42527D01*
X119973Y42524D01*
X120068Y42546D01*
X120165Y42562D01*
X120186Y42574D01*
X120210Y42579D01*
X120294Y42631D01*
X120380Y42677D01*
X120397Y42695D01*
X120418Y42708D01*
X120480Y42784D01*
X120547Y42855D01*
X120557Y42878D01*
X120573Y42897D01*
X120607Y42988D01*
X120648Y43078D01*
X120650Y43102D01*
X120659Y43125D01*
X120673Y43272D01*
X120673Y45275D01*
X123635Y48237D01*
X125004Y48237D01*
X125028Y48241D01*
X125053Y48238D01*
X125148Y48260D01*
X125245Y48276D01*
X125266Y48288D01*
X125290Y48294D01*
X125374Y48345D01*
X125460Y48391D01*
X125477Y48409D01*
X125498Y48422D01*
X125560Y48498D01*
X125627Y48569D01*
X125637Y48592D01*
X125653Y48611D01*
X125687Y48702D01*
X125728Y48792D01*
X125730Y48816D01*
X125739Y48839D01*
X125753Y48986D01*
X125753Y52895D01*
X128715Y55857D01*
X132905Y55857D01*
X135867Y52895D01*
X135867Y48705D01*
X134952Y47791D01*
X134895Y47712D01*
X134833Y47636D01*
X134824Y47613D01*
X134810Y47592D01*
X134782Y47499D01*
X134747Y47408D01*
X134744Y47375D01*
X134739Y47359D01*
X134740Y47334D01*
X134733Y47261D01*
X134733Y39182D01*
X131104Y35554D01*
X131061Y35494D01*
X131011Y35440D01*
X130991Y35396D01*
X130962Y35355D01*
X130941Y35285D01*
X130910Y35218D01*
X130906Y35169D01*
X130891Y35122D01*
X130894Y35049D01*
X130886Y34975D01*
X130898Y34927D01*
X130899Y34878D01*
X130925Y34809D01*
X130942Y34738D01*
X130968Y34696D01*
X130985Y34650D01*
X131032Y34593D01*
X131070Y34530D01*
X131108Y34499D01*
X131140Y34461D01*
X131202Y34422D01*
X131259Y34375D01*
X131305Y34358D01*
X131347Y34332D01*
X131418Y34315D01*
X131487Y34289D01*
X131560Y34282D01*
X131584Y34276D01*
X131601Y34278D01*
X131634Y34275D01*
X138206Y34275D01*
X143495Y28986D01*
X143495Y28944D01*
X143499Y28920D01*
X143496Y28895D01*
X143518Y28800D01*
X143534Y28703D01*
X143546Y28682D01*
X143552Y28658D01*
X143603Y28574D01*
X143649Y28488D01*
X143667Y28471D01*
X143680Y28450D01*
X143756Y28388D01*
X143827Y28321D01*
X143850Y28311D01*
X143869Y28295D01*
X143960Y28261D01*
X144050Y28220D01*
X144074Y28218D01*
X144097Y28209D01*
X144244Y28195D01*
X147952Y28195D01*
X148845Y27302D01*
X148845Y18784D01*
X148849Y18760D01*
X148846Y18735D01*
X148868Y18640D01*
X148884Y18543D01*
X148896Y18522D01*
X148902Y18498D01*
X148953Y18414D01*
X148999Y18328D01*
X149017Y18311D01*
X149030Y18290D01*
X149106Y18228D01*
X149177Y18161D01*
X149200Y18151D01*
X149219Y18135D01*
X149310Y18101D01*
X149400Y18060D01*
X149424Y18058D01*
X149447Y18049D01*
X149594Y18035D01*
X151676Y18035D01*
X151772Y18051D01*
X151869Y18060D01*
X151892Y18070D01*
X151917Y18074D01*
X152003Y18120D01*
X152092Y18161D01*
X152117Y18182D01*
X152132Y18189D01*
X152149Y18208D01*
X152206Y18254D01*
X155736Y21784D01*
X155793Y21864D01*
X155855Y21939D01*
X155863Y21962D01*
X155878Y21983D01*
X155906Y22076D01*
X155941Y22167D01*
X155944Y22200D01*
X155949Y22216D01*
X155948Y22241D01*
X155955Y22314D01*
X155955Y29308D01*
X165002Y38355D01*
X193454Y38355D01*
X196054Y35754D01*
X202185Y29624D01*
X202185Y13557D01*
X202201Y13461D01*
X202210Y13364D01*
X202220Y13341D01*
X202224Y13316D01*
X202270Y13230D01*
X202311Y13141D01*
X202332Y13116D01*
X202339Y13101D01*
X202358Y13084D01*
X202404Y13027D01*
X203177Y12255D01*
X203177Y8065D01*
X200215Y5103D01*
X196025Y5103D01*
X193063Y8065D01*
X193063Y12255D01*
X193836Y13027D01*
X193893Y13106D01*
X193955Y13182D01*
X193963Y13205D01*
X193978Y13225D01*
X194006Y13319D01*
X194041Y13410D01*
X194044Y13443D01*
X194049Y13459D01*
X194048Y13484D01*
X194055Y13557D01*
X194055Y25946D01*
X194039Y26042D01*
X194030Y26139D01*
X194020Y26162D01*
X194016Y26187D01*
X193970Y26273D01*
X193929Y26362D01*
X193908Y26387D01*
X193901Y26402D01*
X193882Y26419D01*
X193836Y26476D01*
X190306Y30006D01*
X190226Y30063D01*
X190151Y30125D01*
X190128Y30133D01*
X190107Y30148D01*
X190014Y30176D01*
X189923Y30211D01*
X189890Y30214D01*
X189874Y30219D01*
X189849Y30218D01*
X189776Y30225D01*
X168679Y30225D01*
X168583Y30209D01*
X168486Y30200D01*
X168463Y30190D01*
X168439Y30186D01*
X168353Y30140D01*
X168264Y30099D01*
X168238Y30078D01*
X168223Y30071D01*
X168206Y30052D01*
X168150Y30006D01*
X164304Y26160D01*
X164247Y26081D01*
X164185Y26006D01*
X164177Y25982D01*
X164162Y25962D01*
X164134Y25869D01*
X164099Y25778D01*
X164096Y25745D01*
X164091Y25729D01*
X164092Y25704D01*
X164085Y25631D01*
X164085Y18636D01*
X155354Y9905D01*
X149594Y9905D01*
X149570Y9901D01*
X149545Y9904D01*
X149450Y9882D01*
X149353Y9866D01*
X149332Y9854D01*
X149308Y9848D01*
X149224Y9797D01*
X149138Y9751D01*
X149121Y9733D01*
X149100Y9720D01*
X149038Y9644D01*
X148971Y9573D01*
X148961Y9550D01*
X148945Y9531D01*
X148911Y9440D01*
X148870Y9350D01*
X148868Y9326D01*
X148859Y9303D01*
X148845Y9156D01*
X148845Y972D01*
X148849Y948D01*
X148846Y923D01*
X148868Y828D01*
X148884Y731D01*
X148896Y710D01*
X148902Y686D01*
X148953Y602D01*
X148999Y516D01*
X149017Y499D01*
X149030Y478D01*
X149106Y416D01*
X149177Y349D01*
X149200Y339D01*
X149219Y323D01*
X149310Y289D01*
X149400Y248D01*
X149424Y246D01*
X149447Y237D01*
X149594Y223D01*
X232410Y223D01*
X232429Y226D01*
G37*
%LPC*%
G36*
X135065Y361973D02*
X135065Y361973D01*
X132753Y364286D01*
X132673Y364343D01*
X132598Y364405D01*
X132575Y364413D01*
X132555Y364428D01*
X132461Y364456D01*
X132370Y364491D01*
X132337Y364494D01*
X132321Y364499D01*
X132296Y364498D01*
X132223Y364505D01*
X128494Y364505D01*
X121935Y371064D01*
X121935Y371868D01*
X121932Y371886D01*
X121934Y371899D01*
X121933Y371904D01*
X121934Y371917D01*
X121912Y372012D01*
X121896Y372109D01*
X121884Y372130D01*
X121878Y372154D01*
X121827Y372238D01*
X121781Y372324D01*
X121763Y372341D01*
X121750Y372362D01*
X121674Y372424D01*
X121603Y372491D01*
X121580Y372501D01*
X121561Y372517D01*
X121470Y372551D01*
X121380Y372592D01*
X121356Y372594D01*
X121333Y372603D01*
X121186Y372617D01*
X120780Y372617D01*
X119887Y373510D01*
X119887Y397634D01*
X120780Y398527D01*
X128140Y398527D01*
X129033Y397634D01*
X129033Y373510D01*
X128361Y372839D01*
X128347Y372819D01*
X128328Y372803D01*
X128276Y372720D01*
X128219Y372641D01*
X128212Y372617D01*
X128199Y372596D01*
X128177Y372501D01*
X128148Y372407D01*
X128149Y372383D01*
X128143Y372359D01*
X128153Y372261D01*
X128156Y372163D01*
X128165Y372140D01*
X128167Y372116D01*
X128207Y372027D01*
X128242Y371935D01*
X128257Y371916D01*
X128268Y371894D01*
X128361Y371779D01*
X130366Y369774D01*
X130446Y369717D01*
X130521Y369655D01*
X130544Y369647D01*
X130565Y369632D01*
X130658Y369604D01*
X130749Y369569D01*
X130782Y369566D01*
X130798Y369561D01*
X130823Y369562D01*
X130896Y369555D01*
X132223Y369555D01*
X132319Y369571D01*
X132416Y369580D01*
X132439Y369590D01*
X132464Y369594D01*
X132550Y369641D01*
X132639Y369681D01*
X132664Y369702D01*
X132679Y369709D01*
X132696Y369728D01*
X132753Y369774D01*
X134317Y371338D01*
X134360Y371398D01*
X134410Y371452D01*
X134430Y371496D01*
X134459Y371537D01*
X134480Y371607D01*
X134511Y371674D01*
X134516Y371723D01*
X134530Y371770D01*
X134528Y371843D01*
X134535Y371917D01*
X134524Y371965D01*
X134522Y372014D01*
X134496Y372083D01*
X134480Y372154D01*
X134454Y372196D01*
X134436Y372242D01*
X134390Y372299D01*
X134351Y372362D01*
X134313Y372393D01*
X134282Y372431D01*
X134219Y372470D01*
X134162Y372517D01*
X134116Y372534D01*
X134074Y372560D01*
X134003Y372577D01*
X133934Y372603D01*
X133861Y372610D01*
X133837Y372616D01*
X133820Y372614D01*
X133787Y372617D01*
X133480Y372617D01*
X132587Y373510D01*
X132587Y397634D01*
X133480Y398527D01*
X140840Y398527D01*
X141733Y397634D01*
X141733Y373510D01*
X140840Y372617D01*
X140533Y372617D01*
X140460Y372605D01*
X140387Y372603D01*
X140341Y372586D01*
X140292Y372578D01*
X140227Y372543D01*
X140159Y372517D01*
X140120Y372486D01*
X140077Y372463D01*
X140027Y372409D01*
X139970Y372362D01*
X139944Y372320D01*
X139910Y372285D01*
X139880Y372218D01*
X139841Y372155D01*
X139830Y372107D01*
X139809Y372062D01*
X139802Y371989D01*
X139785Y371918D01*
X139790Y371869D01*
X139785Y371819D01*
X139802Y371748D01*
X139809Y371675D01*
X139829Y371630D01*
X139840Y371582D01*
X139879Y371519D01*
X139909Y371452D01*
X139956Y371396D01*
X139969Y371374D01*
X139982Y371364D01*
X139983Y371363D01*
X139986Y371357D01*
X139990Y371354D01*
X140003Y371338D01*
X142217Y369125D01*
X142217Y364935D01*
X139255Y361973D01*
X135065Y361973D01*
G37*
%LPD*%
G36*
X3536Y441387D02*
X3536Y441387D01*
X3561Y441385D01*
X3656Y441407D01*
X3752Y441423D01*
X3774Y441434D01*
X3798Y441440D01*
X3881Y441492D01*
X3968Y441538D01*
X3984Y441556D01*
X4006Y441569D01*
X4068Y441644D01*
X4135Y441716D01*
X4150Y441744D01*
X4160Y441757D01*
X4169Y441780D01*
X4204Y441846D01*
X4710Y443067D01*
X7783Y446140D01*
X11797Y447803D01*
X16143Y447803D01*
X19299Y446495D01*
X19347Y446484D01*
X19392Y446464D01*
X19465Y446457D01*
X19537Y446440D01*
X19586Y446445D01*
X19635Y446440D01*
X19706Y446456D01*
X19780Y446464D01*
X19824Y446484D01*
X19872Y446495D01*
X19935Y446534D01*
X20002Y446564D01*
X20038Y446598D01*
X20080Y446624D01*
X20126Y446681D01*
X20180Y446731D01*
X20203Y446774D01*
X20235Y446812D01*
X20261Y446881D01*
X20295Y446946D01*
X20303Y446995D01*
X20321Y447040D01*
X20335Y447186D01*
X20335Y447187D01*
X20335Y480020D01*
X20331Y480044D01*
X20334Y480069D01*
X20312Y480164D01*
X20296Y480261D01*
X20284Y480282D01*
X20278Y480306D01*
X20227Y480390D01*
X20181Y480476D01*
X20163Y480493D01*
X20150Y480514D01*
X20074Y480576D01*
X20003Y480643D01*
X19980Y480653D01*
X19961Y480669D01*
X19870Y480703D01*
X19780Y480744D01*
X19756Y480746D01*
X19733Y480755D01*
X19586Y480769D01*
X3512Y480769D01*
X3488Y480765D01*
X3463Y480768D01*
X3368Y480746D01*
X3271Y480730D01*
X3250Y480718D01*
X3226Y480712D01*
X3142Y480661D01*
X3056Y480615D01*
X3039Y480597D01*
X3018Y480584D01*
X2956Y480508D01*
X2889Y480437D01*
X2879Y480414D01*
X2863Y480395D01*
X2829Y480304D01*
X2788Y480214D01*
X2786Y480190D01*
X2777Y480167D01*
X2763Y480020D01*
X2763Y442132D01*
X2779Y442036D01*
X2788Y441939D01*
X2798Y441916D01*
X2802Y441892D01*
X2849Y441805D01*
X2889Y441716D01*
X2906Y441698D01*
X2917Y441676D01*
X2989Y441610D01*
X3056Y441538D01*
X3077Y441527D01*
X3095Y441510D01*
X3184Y441469D01*
X3271Y441423D01*
X3295Y441419D01*
X3318Y441409D01*
X3415Y441399D01*
X3511Y441383D01*
X3536Y441387D01*
G37*
%LPC*%
G36*
X169996Y42739D02*
X169996Y42739D01*
X167308Y43852D01*
X165250Y45910D01*
X164137Y48598D01*
X164137Y49148D01*
X164121Y49245D01*
X164111Y49342D01*
X164101Y49365D01*
X164097Y49389D01*
X164051Y49475D01*
X164011Y49564D01*
X163994Y49582D01*
X163982Y49604D01*
X163911Y49671D01*
X163844Y49743D01*
X163822Y49754D01*
X163804Y49771D01*
X163715Y49812D01*
X163629Y49858D01*
X163604Y49862D01*
X163582Y49872D01*
X163484Y49882D01*
X163388Y49898D01*
X163364Y49894D01*
X163339Y49896D01*
X163244Y49874D01*
X163147Y49858D01*
X163125Y49846D01*
X163101Y49841D01*
X163018Y49789D01*
X162932Y49743D01*
X162915Y49725D01*
X162894Y49712D01*
X162832Y49637D01*
X162765Y49565D01*
X162749Y49536D01*
X162739Y49524D01*
X162730Y49500D01*
X162695Y49435D01*
X161833Y47354D01*
X160286Y45807D01*
X158264Y44969D01*
X156076Y44969D01*
X154054Y45807D01*
X152507Y47354D01*
X151669Y49376D01*
X151669Y51564D01*
X152507Y53586D01*
X154054Y55133D01*
X156076Y55971D01*
X158264Y55971D01*
X160286Y55133D01*
X161833Y53586D01*
X162695Y51505D01*
X162747Y51422D01*
X162793Y51336D01*
X162811Y51319D01*
X162824Y51298D01*
X162900Y51236D01*
X162971Y51169D01*
X162994Y51159D01*
X163013Y51143D01*
X163104Y51108D01*
X163193Y51068D01*
X163218Y51066D01*
X163241Y51057D01*
X163339Y51054D01*
X163436Y51044D01*
X163460Y51050D01*
X163485Y51049D01*
X163578Y51077D01*
X163674Y51099D01*
X163695Y51112D01*
X163718Y51119D01*
X163798Y51176D01*
X163881Y51228D01*
X163897Y51247D01*
X163917Y51261D01*
X163974Y51341D01*
X164036Y51416D01*
X164045Y51440D01*
X164059Y51460D01*
X164088Y51553D01*
X164122Y51645D01*
X164125Y51677D01*
X164130Y51693D01*
X164129Y51718D01*
X164137Y51792D01*
X164137Y63088D01*
X165250Y65777D01*
X167308Y67834D01*
X169996Y68948D01*
X172906Y68948D01*
X175595Y67834D01*
X177653Y65777D01*
X178766Y63088D01*
X178766Y48598D01*
X177653Y45910D01*
X175595Y43852D01*
X172906Y42739D01*
X169996Y42739D01*
G37*
%LPD*%
%LPC*%
G36*
X133480Y305053D02*
X133480Y305053D01*
X132587Y305946D01*
X132587Y330070D01*
X133480Y330963D01*
X133886Y330963D01*
X133910Y330967D01*
X133935Y330964D01*
X134030Y330986D01*
X134127Y331002D01*
X134148Y331014D01*
X134172Y331020D01*
X134256Y331071D01*
X134342Y331117D01*
X134359Y331135D01*
X134380Y331148D01*
X134442Y331224D01*
X134509Y331295D01*
X134519Y331318D01*
X134535Y331337D01*
X134569Y331428D01*
X134610Y331518D01*
X134612Y331542D01*
X134621Y331565D01*
X134635Y331712D01*
X134635Y339233D01*
X134619Y339329D01*
X134610Y339426D01*
X134600Y339449D01*
X134596Y339474D01*
X134550Y339560D01*
X134509Y339649D01*
X134488Y339674D01*
X134481Y339689D01*
X134462Y339706D01*
X134416Y339763D01*
X132103Y342075D01*
X132103Y346265D01*
X135065Y349227D01*
X139255Y349227D01*
X142217Y346265D01*
X142217Y342075D01*
X139904Y339763D01*
X139847Y339683D01*
X139785Y339608D01*
X139777Y339585D01*
X139762Y339565D01*
X139734Y339471D01*
X139699Y339380D01*
X139696Y339347D01*
X139691Y339331D01*
X139692Y339306D01*
X139685Y339233D01*
X139685Y331712D01*
X139689Y331688D01*
X139686Y331663D01*
X139708Y331568D01*
X139724Y331471D01*
X139736Y331450D01*
X139742Y331426D01*
X139793Y331342D01*
X139839Y331256D01*
X139857Y331239D01*
X139870Y331218D01*
X139946Y331156D01*
X140017Y331089D01*
X140040Y331079D01*
X140059Y331063D01*
X140150Y331029D01*
X140240Y330988D01*
X140264Y330986D01*
X140287Y330977D01*
X140434Y330963D01*
X140840Y330963D01*
X141733Y330070D01*
X141733Y305946D01*
X140840Y305053D01*
X133480Y305053D01*
G37*
%LPD*%
%LPC*%
G36*
X146180Y305053D02*
X146180Y305053D01*
X145287Y305946D01*
X145287Y330070D01*
X146180Y330963D01*
X146586Y330963D01*
X146610Y330967D01*
X146635Y330964D01*
X146730Y330986D01*
X146827Y331002D01*
X146848Y331014D01*
X146872Y331020D01*
X146956Y331071D01*
X147042Y331117D01*
X147059Y331135D01*
X147080Y331148D01*
X147142Y331224D01*
X147209Y331295D01*
X147219Y331318D01*
X147235Y331337D01*
X147269Y331428D01*
X147310Y331518D01*
X147312Y331542D01*
X147321Y331565D01*
X147335Y331712D01*
X147335Y339233D01*
X147319Y339329D01*
X147310Y339426D01*
X147300Y339449D01*
X147296Y339474D01*
X147250Y339560D01*
X147209Y339649D01*
X147188Y339674D01*
X147181Y339689D01*
X147162Y339706D01*
X147116Y339763D01*
X144803Y342075D01*
X144803Y346265D01*
X147765Y349227D01*
X151955Y349227D01*
X154917Y346265D01*
X154917Y342075D01*
X152604Y339763D01*
X152547Y339683D01*
X152485Y339608D01*
X152477Y339585D01*
X152462Y339565D01*
X152434Y339471D01*
X152399Y339380D01*
X152396Y339347D01*
X152391Y339331D01*
X152392Y339306D01*
X152385Y339233D01*
X152385Y331712D01*
X152389Y331688D01*
X152386Y331663D01*
X152408Y331568D01*
X152424Y331471D01*
X152436Y331450D01*
X152442Y331426D01*
X152493Y331342D01*
X152539Y331256D01*
X152557Y331239D01*
X152570Y331218D01*
X152646Y331156D01*
X152717Y331089D01*
X152740Y331079D01*
X152759Y331063D01*
X152850Y331029D01*
X152940Y330988D01*
X152964Y330986D01*
X152987Y330977D01*
X153134Y330963D01*
X153540Y330963D01*
X154433Y330070D01*
X154433Y305946D01*
X153540Y305053D01*
X146180Y305053D01*
G37*
%LPD*%
%LPC*%
G36*
X120780Y305053D02*
X120780Y305053D01*
X119887Y305946D01*
X119887Y330070D01*
X120780Y330963D01*
X128140Y330963D01*
X129033Y330070D01*
X129033Y305946D01*
X128140Y305053D01*
X120780Y305053D01*
G37*
%LPD*%
%LPC*%
G36*
X8188Y14155D02*
X8188Y14155D01*
X7295Y15048D01*
X7295Y26312D01*
X8188Y27205D01*
X12531Y27205D01*
X12533Y27204D01*
X12629Y27181D01*
X12722Y27153D01*
X12747Y27154D01*
X12771Y27148D01*
X12868Y27158D01*
X12966Y27161D01*
X12989Y27170D01*
X13013Y27172D01*
X13086Y27205D01*
X17452Y27205D01*
X18345Y26312D01*
X18345Y15048D01*
X17452Y14155D01*
X13109Y14155D01*
X13107Y14156D01*
X13012Y14178D01*
X12918Y14207D01*
X12894Y14206D01*
X12870Y14212D01*
X12772Y14202D01*
X12674Y14199D01*
X12651Y14190D01*
X12627Y14188D01*
X12554Y14155D01*
X8188Y14155D01*
G37*
%LPD*%
D10*
X13970Y436880D03*
X13970Y411480D03*
X13970Y386080D03*
X13970Y360680D03*
X13970Y335280D03*
X13970Y309880D03*
X13970Y284480D03*
X13970Y259080D03*
X13970Y233680D03*
X13970Y208280D03*
X242570Y436880D03*
X242570Y411480D03*
X242570Y386080D03*
X242570Y360680D03*
X242570Y335280D03*
X242570Y309880D03*
X242570Y284480D03*
X242570Y259080D03*
X242570Y233680D03*
X242570Y208280D03*
D11*
X114300Y13970D03*
X140970Y13970D03*
D12*
X97790Y385320D03*
X97790Y376680D03*
D13*
X99440Y319610D02*
X99440Y316910D01*
X96140Y316910D01*
X96140Y319610D01*
X99440Y319610D01*
X99440Y319475D02*
X96140Y319475D01*
X99440Y325550D02*
X99440Y328250D01*
X99440Y325550D02*
X96140Y325550D01*
X96140Y328250D01*
X99440Y328250D01*
X99440Y328115D02*
X96140Y328115D01*
D14*
X111760Y385572D03*
X111760Y318008D03*
X124460Y385572D03*
X137160Y385572D03*
X124460Y318008D03*
X137160Y318008D03*
X149860Y385572D03*
X149860Y318008D03*
D15*
X85070Y19760D02*
X85070Y8180D01*
X171470Y8180D02*
X171470Y19760D01*
X85117Y50086D02*
X85117Y61666D01*
X171446Y61564D02*
X171446Y49984D01*
X85139Y49997D02*
X85139Y61577D01*
X171451Y61633D02*
X171451Y50053D01*
D16*
X30320Y20680D03*
X25320Y20680D03*
X20320Y20680D03*
X15320Y20680D03*
X10320Y20680D03*
X10320Y65680D03*
X15320Y65680D03*
X20320Y65680D03*
X25320Y65680D03*
X30320Y65680D03*
D17*
X49371Y110649D02*
X49371Y115411D01*
X49371Y110649D02*
X44609Y110649D01*
X44609Y115411D01*
X49371Y115411D01*
X49371Y112158D02*
X44609Y112158D01*
X44609Y113667D02*
X49371Y113667D01*
X49371Y115176D02*
X44609Y115176D01*
X49371Y123349D02*
X49371Y128111D01*
X49371Y123349D02*
X44609Y123349D01*
X44609Y128111D01*
X49371Y128111D01*
X49371Y124858D02*
X44609Y124858D01*
X44609Y126367D02*
X49371Y126367D01*
X49371Y127876D02*
X44609Y127876D01*
D18*
X46990Y125730D02*
X46990Y113030D01*
D17*
X60801Y115411D02*
X60801Y110649D01*
X56039Y110649D01*
X56039Y115411D01*
X60801Y115411D01*
X60801Y112158D02*
X56039Y112158D01*
X56039Y113667D02*
X60801Y113667D01*
X60801Y115176D02*
X56039Y115176D01*
X60801Y123349D02*
X60801Y128111D01*
X60801Y123349D02*
X56039Y123349D01*
X56039Y128111D01*
X60801Y128111D01*
X60801Y124858D02*
X56039Y124858D01*
X56039Y126367D02*
X60801Y126367D01*
X60801Y127876D02*
X56039Y127876D01*
D18*
X58420Y125730D02*
X58420Y113030D01*
D17*
X76041Y115411D02*
X76041Y110649D01*
X71279Y110649D01*
X71279Y115411D01*
X76041Y115411D01*
X76041Y112158D02*
X71279Y112158D01*
X71279Y113667D02*
X76041Y113667D01*
X76041Y115176D02*
X71279Y115176D01*
X76041Y123349D02*
X76041Y128111D01*
X76041Y123349D02*
X71279Y123349D01*
X71279Y128111D01*
X76041Y128111D01*
X76041Y124858D02*
X71279Y124858D01*
X71279Y126367D02*
X76041Y126367D01*
X76041Y127876D02*
X71279Y127876D01*
D18*
X73660Y125730D02*
X73660Y113030D01*
D19*
X240030Y40640D03*
X240030Y33020D03*
X240030Y48260D03*
X240030Y55880D03*
X31750Y246380D03*
X12700Y474980D03*
X46990Y474980D03*
X62230Y474980D03*
X78740Y474980D03*
X96520Y474980D03*
X114300Y474980D03*
X130810Y474980D03*
X148590Y474980D03*
X165100Y474980D03*
X185420Y474980D03*
X224790Y473710D03*
X196850Y467360D03*
X12700Y459740D03*
X33020Y449580D03*
X30480Y393700D03*
X78740Y449580D03*
X116840Y449580D03*
X154940Y449580D03*
X167640Y284480D03*
X167640Y335280D03*
X167640Y386080D03*
X167640Y311150D03*
X15240Y170180D03*
X190500Y128270D03*
X170180Y144780D03*
X92710Y143510D03*
X207010Y105410D03*
X229870Y99060D03*
X189230Y64770D03*
X20320Y39370D03*
X71120Y80010D03*
X71120Y62230D03*
X205740Y152400D03*
X208280Y194310D03*
X187960Y218440D03*
X182880Y273050D03*
X87630Y275590D03*
X88900Y300990D03*
X87630Y336550D03*
X60798Y347911D03*
X118110Y275590D03*
X167640Y363220D03*
X78740Y431800D03*
X116840Y431800D03*
X154940Y430530D03*
X132080Y182880D03*
X91440Y222250D03*
X15240Y149860D03*
X46990Y74930D03*
X46990Y54610D03*
X140970Y13970D03*
X140970Y21590D03*
X140970Y6350D03*
X198120Y10160D03*
D20*
X198120Y27940D01*
X191770Y34290D01*
D19*
X72390Y21590D03*
D21*
X72390Y27940D01*
X76200Y31750D01*
X140970Y27940D02*
X140970Y21590D01*
X137160Y31750D02*
X76200Y31750D01*
X137160Y31750D02*
X140970Y27940D01*
D20*
X140970Y13970D02*
X153670Y13970D01*
X160020Y20320D02*
X160020Y27625D01*
X166685Y34290D01*
X191770Y34290D01*
X160020Y20320D02*
X153670Y13970D01*
D21*
X140970Y12700D02*
X140970Y6350D01*
D22*
X140970Y12700D02*
X140970Y13970D01*
X140970Y21590D01*
D19*
X234950Y72390D03*
D21*
X243840Y72390D01*
X248920Y77470D01*
D19*
X238760Y157480D03*
D21*
X248920Y147320D01*
X248920Y77470D01*
D19*
X144780Y129540D03*
X144780Y236220D03*
D20*
X144780Y129540D01*
D19*
X52070Y194310D03*
D20*
X52070Y299720D01*
X41910Y309880D01*
X41910Y459740D02*
X45720Y463550D01*
X41910Y459740D02*
X41910Y309880D01*
D19*
X45720Y463550D03*
D23*
X97790Y376680D02*
X97790Y344170D01*
X97790Y326900D01*
X98550Y326900D01*
D20*
X144780Y264160D02*
X144780Y236220D01*
X144780Y264160D02*
X111760Y297180D01*
X111760Y318008D01*
D23*
X111760Y340360D01*
X107950Y344170D01*
X97790Y344170D01*
X144780Y129540D02*
X137874Y122634D01*
X83106Y122634D01*
X80010Y125730D01*
X73660Y125730D01*
D19*
X119380Y236220D03*
X64770Y417830D03*
D21*
X110490Y245110D02*
X119380Y236220D01*
X110490Y245110D02*
X103203Y245110D01*
X74067Y274246D02*
X74067Y416967D01*
X66040Y417830D02*
X64770Y417830D01*
X74067Y274246D02*
X103203Y245110D01*
D19*
X12700Y511810D03*
D21*
X22860Y445770D02*
X13970Y436880D01*
X22860Y445770D02*
X22860Y490220D01*
X12700Y500380D01*
X12700Y511810D01*
D19*
X242570Y506730D03*
D21*
X74930Y417830D02*
X64770Y417830D01*
X74930Y417830D02*
X199129Y417830D01*
X242570Y461271D02*
X242570Y506730D01*
X242570Y461271D02*
X199129Y417830D01*
X74930Y417830D02*
X74067Y416967D01*
D19*
X22860Y504190D03*
X106680Y236220D03*
X64770Y405130D03*
D21*
X69850Y273050D02*
X106680Y236220D01*
X69850Y400050D02*
X64770Y405130D01*
X69850Y400050D02*
X69850Y273050D01*
X26908Y500142D02*
X22860Y504190D01*
X26908Y500142D02*
X26908Y426967D01*
X13970Y414029D02*
X13970Y411480D01*
X13970Y414029D02*
X26908Y426967D01*
D19*
X223520Y506730D03*
D21*
X226060Y504190D01*
X64770Y405130D02*
X57150Y412750D01*
X57150Y422910D01*
X59690Y425450D01*
X71120Y425450D02*
X74930Y421640D01*
X197306Y421640D01*
X238760Y463095D02*
X238760Y496570D01*
X231140Y504190D01*
X226060Y504190D01*
X71120Y425450D02*
X59690Y425450D01*
X197306Y421640D02*
X238760Y463095D01*
D19*
X27940Y101600D03*
D21*
X27940Y175260D01*
X41910Y189230D02*
X41910Y297180D01*
X41910Y189230D02*
X27940Y175260D01*
X41910Y297180D02*
X29210Y309880D01*
X13970Y309880D01*
D19*
X81280Y392430D03*
X80746Y356975D03*
D21*
X78740Y389890D02*
X81280Y392430D01*
X78740Y389890D02*
X78740Y358981D01*
X80746Y356975D01*
X63500Y86360D02*
X63500Y46990D01*
X59690Y43180D01*
X91755Y114615D02*
X158215Y114615D01*
X200274Y156673D01*
X200274Y216784D01*
X217170Y233680D01*
X242570Y233680D01*
X91755Y114615D02*
X63500Y86360D01*
D19*
X59690Y43180D03*
X62230Y328930D03*
D21*
X52070Y323850D02*
X52070Y313690D01*
X52070Y323850D02*
X57150Y328930D01*
X62230Y328930D01*
X46990Y153670D02*
X46990Y125730D01*
X46990Y153670D02*
X60960Y167640D01*
X60960Y304800D01*
X52070Y313690D01*
D19*
X59690Y317500D03*
D21*
X64609Y307501D02*
X64609Y166209D01*
X64609Y307501D02*
X59690Y312420D01*
X59690Y317500D01*
X58420Y132080D02*
X58420Y125730D01*
X58420Y132080D02*
X50961Y139539D01*
X50961Y152561D01*
X64609Y166209D01*
D19*
X52070Y31750D03*
D21*
X52070Y45720D01*
X58960Y52610D02*
X58960Y87715D01*
X196120Y367760D02*
X195580Y368300D01*
X58960Y52610D02*
X52070Y45720D01*
X58960Y87715D02*
X89551Y118306D01*
X156861Y118306D01*
X196120Y157565D01*
X196120Y367760D01*
D19*
X195580Y368300D03*
D23*
X111508Y385320D02*
X97790Y385320D01*
X111508Y385320D02*
X111760Y385572D01*
D19*
X137160Y367030D03*
D21*
X129540Y367030D01*
X124460Y372110D01*
X124460Y385572D01*
D19*
X149860Y344170D03*
D21*
X149860Y318008D01*
D19*
X137160Y344170D03*
D21*
X137160Y318008D01*
D19*
X125730Y43180D03*
D21*
X30320Y20680D02*
X30320Y13590D01*
X33020Y10890D01*
X55331Y10890D01*
X60230Y15789D02*
X60230Y27385D01*
X122548Y39998D02*
X125730Y43180D01*
X60230Y15789D02*
X55331Y10890D01*
X60230Y27385D02*
X72843Y39998D01*
X122548Y39998D01*
D19*
X130810Y50800D03*
D21*
X25320Y20680D02*
X25320Y11510D01*
X29648Y7182D01*
X57413Y7182D01*
X64236Y14005D01*
X64236Y26136D01*
X74390Y36290D01*
X128270Y36290D01*
X132208Y40228D02*
X132208Y49402D01*
X130810Y50800D01*
X132208Y40228D02*
X128270Y36290D01*
X20320Y65680D02*
X20320Y79555D01*
X32506Y91741D01*
X42438Y91741D02*
X46990Y96293D01*
X42438Y91741D02*
X32506Y91741D01*
X46990Y96293D02*
X46990Y113030D01*
X25320Y78660D02*
X25320Y65680D01*
X58420Y100549D02*
X58420Y113030D01*
X34290Y87630D02*
X25320Y78660D01*
X45501Y87630D02*
X58420Y100549D01*
X45501Y87630D02*
X34290Y87630D01*
D23*
X15320Y65680D02*
X15320Y57070D01*
X17780Y54610D01*
X73660Y109994D02*
X73660Y113030D01*
X30320Y65680D02*
X30320Y56990D01*
X27940Y54610D01*
X17780Y54610D01*
X30320Y65680D02*
X30320Y77935D01*
X35967Y83582D02*
X47248Y83582D01*
X35967Y83582D02*
X30320Y77935D01*
X47248Y83582D02*
X73660Y109994D01*
M02*
