G04 EAGLE Gerber RS-274X export*
G75*
%MOMM*%
%FSLAX34Y34*%
%LPD*%
%IN*%
%IPPOS*%
%AMOC8*
5,1,8,0,0,1.08239X$1,22.5*%
G01*
%ADD10C,0.254000*%


D10*
X0Y22860D02*
X97Y20646D01*
X386Y18449D01*
X865Y16286D01*
X1532Y14173D01*
X2380Y12126D01*
X3403Y10160D01*
X4594Y8291D01*
X5942Y6533D01*
X7440Y4900D01*
X9073Y3402D01*
X10831Y2054D01*
X12700Y863D01*
X14666Y-160D01*
X16713Y-1008D01*
X18826Y-1675D01*
X20989Y-2154D01*
X23186Y-2443D01*
X25400Y-2540D01*
X232410Y-2540D01*
X234402Y-2453D01*
X236380Y-2193D01*
X238327Y-1761D01*
X240229Y-1161D01*
X242071Y-398D01*
X243840Y523D01*
X245522Y1594D01*
X247104Y2808D01*
X248574Y4156D01*
X249922Y5626D01*
X251136Y7208D01*
X252207Y8890D01*
X253128Y10659D01*
X253891Y12501D01*
X254491Y14403D01*
X254923Y16350D01*
X255183Y18328D01*
X255270Y20320D01*
X255270Y515620D01*
X255178Y517723D01*
X254903Y519810D01*
X254448Y521865D01*
X253815Y523873D01*
X253009Y525818D01*
X252037Y527685D01*
X250906Y529460D01*
X249625Y531130D01*
X248203Y532683D01*
X246650Y534105D01*
X244980Y535386D01*
X243205Y536517D01*
X241338Y537489D01*
X239393Y538295D01*
X237385Y538928D01*
X235330Y539383D01*
X233243Y539658D01*
X231140Y539750D01*
X211709Y539750D01*
X211709Y481330D01*
X45720Y481330D01*
X45720Y539750D01*
X24130Y539750D01*
X22027Y539658D01*
X19940Y539383D01*
X17885Y538928D01*
X15877Y538295D01*
X13932Y537489D01*
X12065Y536517D01*
X10290Y535386D01*
X8620Y534105D01*
X7068Y532683D01*
X5645Y531130D01*
X4364Y529460D01*
X3233Y527685D01*
X2261Y525818D01*
X1455Y523873D01*
X822Y521865D01*
X367Y519810D01*
X92Y517723D01*
X0Y515620D01*
X0Y22860D01*
X168220Y10970D02*
X168232Y10687D01*
X168269Y10406D01*
X168331Y10129D01*
X168416Y9858D01*
X168525Y9597D01*
X168655Y9345D01*
X168808Y9106D01*
X168980Y8881D01*
X169172Y8672D01*
X169381Y8480D01*
X169606Y8308D01*
X169845Y8155D01*
X170097Y8025D01*
X170358Y7916D01*
X170629Y7831D01*
X170906Y7769D01*
X171187Y7732D01*
X171470Y7720D01*
X171753Y7732D01*
X172034Y7769D01*
X172311Y7831D01*
X172582Y7916D01*
X172844Y8025D01*
X173095Y8155D01*
X173334Y8308D01*
X173559Y8480D01*
X173768Y8672D01*
X173960Y8881D01*
X174132Y9106D01*
X174285Y9345D01*
X174416Y9597D01*
X174524Y9858D01*
X174609Y10129D01*
X174671Y10406D01*
X174708Y10687D01*
X174720Y10970D01*
X174720Y16970D01*
X174708Y17253D01*
X174671Y17534D01*
X174609Y17811D01*
X174524Y18082D01*
X174416Y18344D01*
X174285Y18595D01*
X174132Y18834D01*
X173960Y19059D01*
X173768Y19268D01*
X173559Y19460D01*
X173334Y19632D01*
X173095Y19785D01*
X172844Y19916D01*
X172582Y20024D01*
X172311Y20109D01*
X172034Y20171D01*
X171753Y20208D01*
X171470Y20220D01*
X171187Y20208D01*
X170906Y20171D01*
X170629Y20109D01*
X170358Y20024D01*
X170097Y19916D01*
X169845Y19785D01*
X169606Y19632D01*
X169381Y19460D01*
X169172Y19268D01*
X168980Y19059D01*
X168808Y18834D01*
X168655Y18595D01*
X168525Y18344D01*
X168416Y18082D01*
X168331Y17811D01*
X168269Y17534D01*
X168232Y17253D01*
X168220Y16970D01*
X168220Y10970D01*
X81820Y10970D02*
X81832Y10687D01*
X81869Y10406D01*
X81931Y10129D01*
X82016Y9858D01*
X82125Y9597D01*
X82255Y9345D01*
X82408Y9106D01*
X82580Y8881D01*
X82772Y8672D01*
X82981Y8480D01*
X83206Y8308D01*
X83445Y8155D01*
X83697Y8025D01*
X83958Y7916D01*
X84229Y7831D01*
X84506Y7769D01*
X84787Y7732D01*
X85070Y7720D01*
X85353Y7732D01*
X85634Y7769D01*
X85911Y7831D01*
X86182Y7916D01*
X86444Y8025D01*
X86695Y8155D01*
X86934Y8308D01*
X87159Y8480D01*
X87368Y8672D01*
X87560Y8881D01*
X87732Y9106D01*
X87885Y9345D01*
X88016Y9597D01*
X88124Y9858D01*
X88209Y10129D01*
X88271Y10406D01*
X88308Y10687D01*
X88320Y10970D01*
X88320Y16970D01*
X88308Y17253D01*
X88271Y17534D01*
X88209Y17811D01*
X88124Y18082D01*
X88016Y18344D01*
X87885Y18595D01*
X87732Y18834D01*
X87560Y19059D01*
X87368Y19268D01*
X87159Y19460D01*
X86934Y19632D01*
X86695Y19785D01*
X86444Y19916D01*
X86182Y20024D01*
X85911Y20109D01*
X85634Y20171D01*
X85353Y20208D01*
X85070Y20220D01*
X84787Y20208D01*
X84506Y20171D01*
X84229Y20109D01*
X83958Y20024D01*
X83697Y19916D01*
X83445Y19785D01*
X83206Y19632D01*
X82981Y19460D01*
X82772Y19268D01*
X82580Y19059D01*
X82408Y18834D01*
X82255Y18595D01*
X82125Y18344D01*
X82016Y18082D01*
X81931Y17811D01*
X81869Y17534D01*
X81832Y17253D01*
X81820Y16970D01*
X81820Y10970D01*
X168206Y50331D02*
X168218Y50048D01*
X168255Y49767D01*
X168316Y49490D01*
X168402Y49219D01*
X168510Y48957D01*
X168641Y48706D01*
X168793Y48467D01*
X168966Y48242D01*
X169158Y48033D01*
X169367Y47841D01*
X169592Y47669D01*
X169831Y47516D01*
X170082Y47385D01*
X170344Y47277D01*
X170614Y47192D01*
X170891Y47130D01*
X171172Y47093D01*
X171456Y47081D01*
X171739Y47093D01*
X172020Y47130D01*
X172297Y47192D01*
X172567Y47277D01*
X172829Y47385D01*
X173081Y47516D01*
X173320Y47669D01*
X173545Y47841D01*
X173754Y48033D01*
X173945Y48242D01*
X174118Y48467D01*
X174270Y48706D01*
X174401Y48957D01*
X174510Y49219D01*
X174595Y49490D01*
X174656Y49767D01*
X174693Y50048D01*
X174706Y50331D01*
X174706Y61331D01*
X174693Y61614D01*
X174656Y61895D01*
X174595Y62172D01*
X174510Y62442D01*
X174401Y62704D01*
X174270Y62956D01*
X174118Y63195D01*
X173945Y63420D01*
X173754Y63629D01*
X173545Y63821D01*
X173320Y63993D01*
X173081Y64145D01*
X172829Y64276D01*
X172567Y64385D01*
X172297Y64470D01*
X172020Y64531D01*
X171739Y64568D01*
X171456Y64581D01*
X171172Y64568D01*
X170891Y64531D01*
X170614Y64470D01*
X170344Y64385D01*
X170082Y64276D01*
X169831Y64145D01*
X169592Y63993D01*
X169367Y63821D01*
X169158Y63629D01*
X168966Y63420D01*
X168793Y63195D01*
X168641Y62956D01*
X168510Y62704D01*
X168402Y62442D01*
X168316Y62172D01*
X168255Y61895D01*
X168218Y61614D01*
X168206Y61331D01*
X168206Y50331D01*
X81842Y50324D02*
X81855Y50041D01*
X81892Y49760D01*
X81953Y49483D01*
X82038Y49213D01*
X82147Y48951D01*
X82278Y48699D01*
X82430Y48460D01*
X82603Y48235D01*
X82794Y48026D01*
X83003Y47835D01*
X83228Y47662D01*
X83467Y47510D01*
X83719Y47379D01*
X83981Y47270D01*
X84251Y47185D01*
X84528Y47124D01*
X84809Y47087D01*
X85092Y47074D01*
X85376Y47087D01*
X85657Y47124D01*
X85934Y47185D01*
X86204Y47270D01*
X86466Y47379D01*
X86717Y47510D01*
X86957Y47662D01*
X87182Y47835D01*
X87391Y48026D01*
X87582Y48235D01*
X87755Y48460D01*
X87907Y48699D01*
X88038Y48951D01*
X88146Y49213D01*
X88232Y49483D01*
X88293Y49760D01*
X88330Y50041D01*
X88342Y50324D01*
X88342Y61324D01*
X88330Y61608D01*
X88293Y61889D01*
X88232Y62166D01*
X88146Y62436D01*
X88038Y62698D01*
X87907Y62949D01*
X87755Y63189D01*
X87582Y63413D01*
X87391Y63622D01*
X87182Y63814D01*
X86957Y63987D01*
X86717Y64139D01*
X86466Y64270D01*
X86204Y64378D01*
X85934Y64464D01*
X85657Y64525D01*
X85376Y64562D01*
X85092Y64574D01*
X84809Y64562D01*
X84528Y64525D01*
X84251Y64464D01*
X83981Y64378D01*
X83719Y64270D01*
X83467Y64139D01*
X83228Y63987D01*
X83003Y63814D01*
X82794Y63622D01*
X82603Y63413D01*
X82430Y63189D01*
X82278Y62949D01*
X82147Y62698D01*
X82038Y62436D01*
X81953Y62166D01*
X81892Y61889D01*
X81855Y61608D01*
X81842Y61324D01*
X81842Y50324D01*
X102870Y50241D02*
X102810Y49786D01*
X102691Y49343D01*
X102516Y48919D01*
X102286Y48521D01*
X102007Y48157D01*
X101683Y47833D01*
X101319Y47554D01*
X100921Y47324D01*
X100497Y47149D01*
X100054Y47030D01*
X99599Y46970D01*
X99141Y46970D01*
X98686Y47030D01*
X98243Y47149D01*
X97819Y47324D01*
X97421Y47554D01*
X97057Y47833D01*
X96733Y48157D01*
X96454Y48521D01*
X96224Y48919D01*
X96049Y49343D01*
X95930Y49786D01*
X95870Y50241D01*
X95870Y50699D01*
X95930Y51154D01*
X96049Y51597D01*
X96224Y52021D01*
X96454Y52419D01*
X96733Y52783D01*
X97057Y53107D01*
X97421Y53386D01*
X97819Y53616D01*
X98243Y53791D01*
X98686Y53910D01*
X99141Y53970D01*
X99599Y53970D01*
X100054Y53910D01*
X100497Y53791D01*
X100921Y53616D01*
X101319Y53386D01*
X101683Y53107D01*
X102007Y52783D01*
X102286Y52419D01*
X102516Y52021D01*
X102691Y51597D01*
X102810Y51154D01*
X102870Y50699D01*
X102870Y50241D01*
X160670Y50241D02*
X160610Y49786D01*
X160491Y49343D01*
X160316Y48919D01*
X160086Y48521D01*
X159807Y48157D01*
X159483Y47833D01*
X159119Y47554D01*
X158721Y47324D01*
X158297Y47149D01*
X157854Y47030D01*
X157399Y46970D01*
X156941Y46970D01*
X156486Y47030D01*
X156043Y47149D01*
X155619Y47324D01*
X155221Y47554D01*
X154857Y47833D01*
X154533Y48157D01*
X154254Y48521D01*
X154024Y48919D01*
X153849Y49343D01*
X153730Y49786D01*
X153670Y50241D01*
X153670Y50699D01*
X153730Y51154D01*
X153849Y51597D01*
X154024Y52021D01*
X154254Y52419D01*
X154533Y52783D01*
X154857Y53107D01*
X155221Y53386D01*
X155619Y53616D01*
X156043Y53791D01*
X156486Y53910D01*
X156941Y53970D01*
X157399Y53970D01*
X157854Y53910D01*
X158297Y53791D01*
X158721Y53616D01*
X159119Y53386D01*
X159483Y53107D01*
X159807Y52783D01*
X160086Y52419D01*
X160316Y52021D01*
X160491Y51597D01*
X160610Y51154D01*
X160670Y50699D01*
X160670Y50241D01*
M02*
