G04 EAGLE Gerber RS-274X export*
G75*
%MOMM*%
%FSLAX34Y34*%
%LPD*%
%INSilkscreen Bottom*%
%IPPOS*%
%AMOC8*
5,1,8,0,0,1.08239X$1,22.5*%
G01*
%ADD10C,0.203200*%
%ADD11C,0.152400*%
%ADD12C,0.076200*%
%ADD13C,0.127000*%
%ADD14C,0.050800*%
%ADD15C,0.400000*%
%ADD16C,0.101600*%


D10*
X145550Y37796D02*
X135051Y37796D01*
X140300Y32547D02*
X140300Y43045D01*
X118880Y37796D02*
X108381Y37796D01*
D11*
X68310Y431752D02*
X68310Y442928D01*
X65205Y442928D01*
X65094Y442926D01*
X64984Y442920D01*
X64873Y442910D01*
X64763Y442896D01*
X64654Y442879D01*
X64545Y442857D01*
X64437Y442832D01*
X64331Y442802D01*
X64225Y442769D01*
X64120Y442732D01*
X64017Y442692D01*
X63916Y442647D01*
X63816Y442600D01*
X63717Y442548D01*
X63621Y442493D01*
X63527Y442435D01*
X63435Y442374D01*
X63345Y442309D01*
X63257Y442241D01*
X63172Y442170D01*
X63090Y442096D01*
X63010Y442019D01*
X62933Y441939D01*
X62859Y441857D01*
X62788Y441772D01*
X62720Y441684D01*
X62655Y441594D01*
X62594Y441502D01*
X62536Y441408D01*
X62481Y441312D01*
X62429Y441213D01*
X62382Y441113D01*
X62337Y441012D01*
X62297Y440909D01*
X62260Y440804D01*
X62227Y440698D01*
X62197Y440592D01*
X62172Y440484D01*
X62150Y440375D01*
X62133Y440266D01*
X62119Y440156D01*
X62109Y440045D01*
X62103Y439935D01*
X62101Y439824D01*
X62101Y434856D01*
X62103Y434745D01*
X62109Y434635D01*
X62119Y434524D01*
X62133Y434414D01*
X62150Y434305D01*
X62172Y434196D01*
X62197Y434088D01*
X62227Y433982D01*
X62260Y433876D01*
X62297Y433771D01*
X62337Y433668D01*
X62382Y433567D01*
X62429Y433467D01*
X62481Y433368D01*
X62536Y433272D01*
X62594Y433178D01*
X62655Y433086D01*
X62720Y432996D01*
X62788Y432908D01*
X62859Y432823D01*
X62933Y432741D01*
X63010Y432661D01*
X63090Y432584D01*
X63172Y432510D01*
X63257Y432439D01*
X63345Y432371D01*
X63435Y432306D01*
X63527Y432245D01*
X63621Y432187D01*
X63717Y432132D01*
X63816Y432080D01*
X63916Y432033D01*
X64017Y431988D01*
X64120Y431948D01*
X64225Y431911D01*
X64331Y431878D01*
X64437Y431848D01*
X64545Y431823D01*
X64654Y431801D01*
X64763Y431784D01*
X64873Y431770D01*
X64984Y431760D01*
X65094Y431754D01*
X65205Y431752D01*
X68310Y431752D01*
X55680Y431752D02*
X55680Y442928D01*
X56922Y431752D02*
X54439Y431752D01*
X54439Y442928D02*
X56922Y442928D01*
X49641Y439824D02*
X49641Y434856D01*
X49640Y439824D02*
X49638Y439935D01*
X49632Y440045D01*
X49622Y440156D01*
X49608Y440266D01*
X49591Y440375D01*
X49569Y440484D01*
X49544Y440592D01*
X49514Y440698D01*
X49481Y440804D01*
X49444Y440909D01*
X49404Y441012D01*
X49359Y441113D01*
X49312Y441213D01*
X49260Y441312D01*
X49205Y441408D01*
X49147Y441502D01*
X49086Y441594D01*
X49021Y441684D01*
X48953Y441772D01*
X48882Y441857D01*
X48808Y441939D01*
X48731Y442019D01*
X48651Y442096D01*
X48569Y442170D01*
X48484Y442241D01*
X48396Y442309D01*
X48306Y442374D01*
X48214Y442435D01*
X48120Y442493D01*
X48024Y442548D01*
X47925Y442600D01*
X47825Y442647D01*
X47724Y442692D01*
X47621Y442732D01*
X47516Y442769D01*
X47410Y442802D01*
X47304Y442832D01*
X47196Y442857D01*
X47087Y442879D01*
X46978Y442896D01*
X46868Y442910D01*
X46757Y442920D01*
X46647Y442926D01*
X46536Y442928D01*
X46425Y442926D01*
X46315Y442920D01*
X46204Y442910D01*
X46094Y442896D01*
X45985Y442879D01*
X45876Y442857D01*
X45768Y442832D01*
X45662Y442802D01*
X45556Y442769D01*
X45451Y442732D01*
X45348Y442692D01*
X45247Y442647D01*
X45147Y442600D01*
X45048Y442548D01*
X44952Y442493D01*
X44858Y442435D01*
X44766Y442374D01*
X44676Y442309D01*
X44588Y442241D01*
X44503Y442170D01*
X44421Y442096D01*
X44341Y442019D01*
X44264Y441939D01*
X44190Y441857D01*
X44119Y441772D01*
X44051Y441684D01*
X43986Y441594D01*
X43925Y441502D01*
X43867Y441408D01*
X43812Y441312D01*
X43760Y441213D01*
X43713Y441113D01*
X43668Y441012D01*
X43628Y440909D01*
X43591Y440804D01*
X43558Y440698D01*
X43528Y440592D01*
X43503Y440484D01*
X43481Y440375D01*
X43464Y440266D01*
X43450Y440156D01*
X43440Y440045D01*
X43434Y439935D01*
X43432Y439824D01*
X43432Y434856D01*
X43434Y434745D01*
X43440Y434635D01*
X43450Y434524D01*
X43464Y434414D01*
X43481Y434305D01*
X43503Y434196D01*
X43528Y434088D01*
X43558Y433982D01*
X43591Y433876D01*
X43628Y433771D01*
X43668Y433668D01*
X43713Y433567D01*
X43760Y433467D01*
X43812Y433368D01*
X43867Y433272D01*
X43925Y433178D01*
X43986Y433086D01*
X44051Y432996D01*
X44119Y432908D01*
X44190Y432823D01*
X44264Y432741D01*
X44341Y432661D01*
X44421Y432584D01*
X44503Y432510D01*
X44588Y432439D01*
X44676Y432371D01*
X44766Y432306D01*
X44858Y432245D01*
X44952Y432187D01*
X45048Y432132D01*
X45147Y432080D01*
X45247Y432033D01*
X45348Y431988D01*
X45451Y431948D01*
X45556Y431911D01*
X45662Y431878D01*
X45768Y431848D01*
X45876Y431823D01*
X45985Y431801D01*
X46094Y431784D01*
X46204Y431770D01*
X46315Y431760D01*
X46425Y431754D01*
X46536Y431752D01*
X46647Y431754D01*
X46757Y431760D01*
X46868Y431770D01*
X46978Y431784D01*
X47087Y431801D01*
X47196Y431823D01*
X47304Y431848D01*
X47410Y431878D01*
X47516Y431911D01*
X47621Y431948D01*
X47724Y431988D01*
X47825Y432033D01*
X47925Y432080D01*
X48024Y432132D01*
X48120Y432187D01*
X48214Y432245D01*
X48306Y432306D01*
X48396Y432371D01*
X48484Y432439D01*
X48569Y432510D01*
X48651Y432584D01*
X48731Y432661D01*
X48808Y432741D01*
X48882Y432823D01*
X48953Y432908D01*
X49021Y432996D01*
X49086Y433086D01*
X49147Y433178D01*
X49205Y433272D01*
X49260Y433368D01*
X49312Y433467D01*
X49359Y433567D01*
X49404Y433668D01*
X49444Y433771D01*
X49481Y433876D01*
X49514Y433982D01*
X49544Y434088D01*
X49569Y434196D01*
X49591Y434305D01*
X49608Y434414D01*
X49622Y434524D01*
X49632Y434635D01*
X49638Y434745D01*
X49640Y434856D01*
X38211Y431752D02*
X34486Y431752D01*
X34388Y431754D01*
X34291Y431760D01*
X34194Y431769D01*
X34097Y431783D01*
X34001Y431800D01*
X33906Y431821D01*
X33812Y431845D01*
X33718Y431874D01*
X33626Y431906D01*
X33535Y431941D01*
X33446Y431980D01*
X33358Y432023D01*
X33272Y432069D01*
X33188Y432118D01*
X33106Y432171D01*
X33026Y432226D01*
X32948Y432285D01*
X32873Y432347D01*
X32800Y432412D01*
X32730Y432480D01*
X32662Y432550D01*
X32597Y432623D01*
X32535Y432698D01*
X32476Y432776D01*
X32421Y432856D01*
X32368Y432938D01*
X32319Y433022D01*
X32273Y433108D01*
X32230Y433196D01*
X32191Y433285D01*
X32156Y433376D01*
X32124Y433468D01*
X32095Y433562D01*
X32071Y433656D01*
X32050Y433751D01*
X32033Y433847D01*
X32019Y433944D01*
X32010Y434041D01*
X32004Y434138D01*
X32002Y434236D01*
X32002Y435477D01*
X32004Y435575D01*
X32010Y435672D01*
X32019Y435769D01*
X32033Y435866D01*
X32050Y435962D01*
X32071Y436057D01*
X32095Y436151D01*
X32124Y436245D01*
X32156Y436337D01*
X32191Y436428D01*
X32230Y436517D01*
X32273Y436605D01*
X32319Y436691D01*
X32368Y436775D01*
X32421Y436857D01*
X32476Y436937D01*
X32535Y437015D01*
X32597Y437090D01*
X32662Y437163D01*
X32730Y437233D01*
X32800Y437301D01*
X32873Y437366D01*
X32948Y437428D01*
X33026Y437487D01*
X33106Y437542D01*
X33188Y437595D01*
X33272Y437644D01*
X33358Y437690D01*
X33446Y437733D01*
X33535Y437772D01*
X33626Y437807D01*
X33718Y437839D01*
X33812Y437868D01*
X33906Y437892D01*
X34001Y437913D01*
X34097Y437930D01*
X34194Y437944D01*
X34291Y437953D01*
X34388Y437959D01*
X34486Y437961D01*
X38211Y437961D01*
X38211Y442928D01*
X32002Y442928D01*
X68310Y417528D02*
X68310Y406352D01*
X68310Y417528D02*
X65205Y417528D01*
X65094Y417526D01*
X64984Y417520D01*
X64873Y417510D01*
X64763Y417496D01*
X64654Y417479D01*
X64545Y417457D01*
X64437Y417432D01*
X64331Y417402D01*
X64225Y417369D01*
X64120Y417332D01*
X64017Y417292D01*
X63916Y417247D01*
X63816Y417200D01*
X63717Y417148D01*
X63621Y417093D01*
X63527Y417035D01*
X63435Y416974D01*
X63345Y416909D01*
X63257Y416841D01*
X63172Y416770D01*
X63090Y416696D01*
X63010Y416619D01*
X62933Y416539D01*
X62859Y416457D01*
X62788Y416372D01*
X62720Y416284D01*
X62655Y416194D01*
X62594Y416102D01*
X62536Y416008D01*
X62481Y415912D01*
X62429Y415813D01*
X62382Y415713D01*
X62337Y415612D01*
X62297Y415509D01*
X62260Y415404D01*
X62227Y415298D01*
X62197Y415192D01*
X62172Y415084D01*
X62150Y414975D01*
X62133Y414866D01*
X62119Y414756D01*
X62109Y414645D01*
X62103Y414535D01*
X62101Y414424D01*
X62101Y409456D01*
X62103Y409345D01*
X62109Y409235D01*
X62119Y409124D01*
X62133Y409014D01*
X62150Y408905D01*
X62172Y408796D01*
X62197Y408688D01*
X62227Y408582D01*
X62260Y408476D01*
X62297Y408371D01*
X62337Y408268D01*
X62382Y408167D01*
X62429Y408067D01*
X62481Y407968D01*
X62536Y407872D01*
X62594Y407778D01*
X62655Y407686D01*
X62720Y407596D01*
X62788Y407508D01*
X62859Y407423D01*
X62933Y407341D01*
X63010Y407261D01*
X63090Y407184D01*
X63172Y407110D01*
X63257Y407039D01*
X63345Y406971D01*
X63435Y406906D01*
X63527Y406845D01*
X63621Y406787D01*
X63717Y406732D01*
X63816Y406680D01*
X63916Y406633D01*
X64017Y406588D01*
X64120Y406548D01*
X64225Y406511D01*
X64331Y406478D01*
X64437Y406448D01*
X64545Y406423D01*
X64654Y406401D01*
X64763Y406384D01*
X64873Y406370D01*
X64984Y406360D01*
X65094Y406354D01*
X65205Y406352D01*
X68310Y406352D01*
X55680Y406352D02*
X55680Y417528D01*
X56922Y406352D02*
X54439Y406352D01*
X54439Y417528D02*
X56922Y417528D01*
X49641Y414424D02*
X49641Y409456D01*
X49640Y414424D02*
X49638Y414535D01*
X49632Y414645D01*
X49622Y414756D01*
X49608Y414866D01*
X49591Y414975D01*
X49569Y415084D01*
X49544Y415192D01*
X49514Y415298D01*
X49481Y415404D01*
X49444Y415509D01*
X49404Y415612D01*
X49359Y415713D01*
X49312Y415813D01*
X49260Y415912D01*
X49205Y416008D01*
X49147Y416102D01*
X49086Y416194D01*
X49021Y416284D01*
X48953Y416372D01*
X48882Y416457D01*
X48808Y416539D01*
X48731Y416619D01*
X48651Y416696D01*
X48569Y416770D01*
X48484Y416841D01*
X48396Y416909D01*
X48306Y416974D01*
X48214Y417035D01*
X48120Y417093D01*
X48024Y417148D01*
X47925Y417200D01*
X47825Y417247D01*
X47724Y417292D01*
X47621Y417332D01*
X47516Y417369D01*
X47410Y417402D01*
X47304Y417432D01*
X47196Y417457D01*
X47087Y417479D01*
X46978Y417496D01*
X46868Y417510D01*
X46757Y417520D01*
X46647Y417526D01*
X46536Y417528D01*
X46425Y417526D01*
X46315Y417520D01*
X46204Y417510D01*
X46094Y417496D01*
X45985Y417479D01*
X45876Y417457D01*
X45768Y417432D01*
X45662Y417402D01*
X45556Y417369D01*
X45451Y417332D01*
X45348Y417292D01*
X45247Y417247D01*
X45147Y417200D01*
X45048Y417148D01*
X44952Y417093D01*
X44858Y417035D01*
X44766Y416974D01*
X44676Y416909D01*
X44588Y416841D01*
X44503Y416770D01*
X44421Y416696D01*
X44341Y416619D01*
X44264Y416539D01*
X44190Y416457D01*
X44119Y416372D01*
X44051Y416284D01*
X43986Y416194D01*
X43925Y416102D01*
X43867Y416008D01*
X43812Y415912D01*
X43760Y415813D01*
X43713Y415713D01*
X43668Y415612D01*
X43628Y415509D01*
X43591Y415404D01*
X43558Y415298D01*
X43528Y415192D01*
X43503Y415084D01*
X43481Y414975D01*
X43464Y414866D01*
X43450Y414756D01*
X43440Y414645D01*
X43434Y414535D01*
X43432Y414424D01*
X43432Y409456D01*
X43434Y409345D01*
X43440Y409235D01*
X43450Y409124D01*
X43464Y409014D01*
X43481Y408905D01*
X43503Y408796D01*
X43528Y408688D01*
X43558Y408582D01*
X43591Y408476D01*
X43628Y408371D01*
X43668Y408268D01*
X43713Y408167D01*
X43760Y408067D01*
X43812Y407968D01*
X43867Y407872D01*
X43925Y407778D01*
X43986Y407686D01*
X44051Y407596D01*
X44119Y407508D01*
X44190Y407423D01*
X44264Y407341D01*
X44341Y407261D01*
X44421Y407184D01*
X44503Y407110D01*
X44588Y407039D01*
X44676Y406971D01*
X44766Y406906D01*
X44858Y406845D01*
X44952Y406787D01*
X45048Y406732D01*
X45147Y406680D01*
X45247Y406633D01*
X45348Y406588D01*
X45451Y406548D01*
X45556Y406511D01*
X45662Y406478D01*
X45768Y406448D01*
X45876Y406423D01*
X45985Y406401D01*
X46094Y406384D01*
X46204Y406370D01*
X46315Y406360D01*
X46425Y406354D01*
X46536Y406352D01*
X46647Y406354D01*
X46757Y406360D01*
X46868Y406370D01*
X46978Y406384D01*
X47087Y406401D01*
X47196Y406423D01*
X47304Y406448D01*
X47410Y406478D01*
X47516Y406511D01*
X47621Y406548D01*
X47724Y406588D01*
X47825Y406633D01*
X47925Y406680D01*
X48024Y406732D01*
X48120Y406787D01*
X48214Y406845D01*
X48306Y406906D01*
X48396Y406971D01*
X48484Y407039D01*
X48569Y407110D01*
X48651Y407184D01*
X48731Y407261D01*
X48808Y407341D01*
X48882Y407423D01*
X48953Y407508D01*
X49021Y407596D01*
X49086Y407686D01*
X49147Y407778D01*
X49205Y407872D01*
X49260Y407968D01*
X49312Y408067D01*
X49359Y408167D01*
X49404Y408268D01*
X49444Y408371D01*
X49481Y408476D01*
X49514Y408582D01*
X49544Y408688D01*
X49569Y408796D01*
X49591Y408905D01*
X49608Y409014D01*
X49622Y409124D01*
X49632Y409235D01*
X49638Y409345D01*
X49640Y409456D01*
X38211Y412561D02*
X34486Y412561D01*
X34388Y412559D01*
X34291Y412553D01*
X34194Y412544D01*
X34097Y412530D01*
X34001Y412513D01*
X33906Y412492D01*
X33812Y412468D01*
X33718Y412439D01*
X33626Y412407D01*
X33535Y412372D01*
X33446Y412333D01*
X33358Y412290D01*
X33272Y412244D01*
X33188Y412195D01*
X33106Y412142D01*
X33026Y412087D01*
X32948Y412028D01*
X32873Y411966D01*
X32800Y411901D01*
X32730Y411833D01*
X32662Y411763D01*
X32597Y411690D01*
X32535Y411615D01*
X32476Y411537D01*
X32421Y411457D01*
X32368Y411375D01*
X32319Y411291D01*
X32273Y411205D01*
X32230Y411117D01*
X32191Y411028D01*
X32156Y410937D01*
X32124Y410845D01*
X32095Y410751D01*
X32071Y410657D01*
X32050Y410562D01*
X32033Y410466D01*
X32019Y410369D01*
X32010Y410272D01*
X32004Y410175D01*
X32002Y410077D01*
X32002Y409456D01*
X32004Y409345D01*
X32010Y409235D01*
X32020Y409124D01*
X32034Y409014D01*
X32051Y408905D01*
X32073Y408796D01*
X32098Y408688D01*
X32128Y408582D01*
X32161Y408476D01*
X32198Y408371D01*
X32238Y408268D01*
X32283Y408167D01*
X32330Y408067D01*
X32382Y407968D01*
X32437Y407872D01*
X32495Y407778D01*
X32556Y407686D01*
X32621Y407596D01*
X32689Y407508D01*
X32760Y407423D01*
X32834Y407341D01*
X32911Y407261D01*
X32991Y407184D01*
X33073Y407110D01*
X33158Y407039D01*
X33246Y406971D01*
X33336Y406906D01*
X33428Y406845D01*
X33522Y406787D01*
X33618Y406732D01*
X33717Y406680D01*
X33817Y406633D01*
X33918Y406588D01*
X34021Y406548D01*
X34126Y406511D01*
X34232Y406478D01*
X34338Y406448D01*
X34446Y406423D01*
X34555Y406401D01*
X34664Y406384D01*
X34774Y406370D01*
X34885Y406360D01*
X34995Y406354D01*
X35106Y406352D01*
X35217Y406354D01*
X35327Y406360D01*
X35438Y406370D01*
X35548Y406384D01*
X35657Y406401D01*
X35766Y406423D01*
X35874Y406448D01*
X35980Y406478D01*
X36086Y406511D01*
X36191Y406548D01*
X36294Y406588D01*
X36395Y406633D01*
X36495Y406680D01*
X36594Y406732D01*
X36690Y406787D01*
X36784Y406845D01*
X36876Y406906D01*
X36966Y406971D01*
X37054Y407039D01*
X37139Y407110D01*
X37221Y407184D01*
X37301Y407261D01*
X37378Y407341D01*
X37452Y407423D01*
X37523Y407508D01*
X37591Y407596D01*
X37656Y407686D01*
X37717Y407778D01*
X37775Y407872D01*
X37830Y407968D01*
X37882Y408067D01*
X37929Y408167D01*
X37974Y408268D01*
X38014Y408371D01*
X38051Y408476D01*
X38084Y408582D01*
X38114Y408688D01*
X38139Y408796D01*
X38161Y408905D01*
X38178Y409014D01*
X38192Y409124D01*
X38202Y409235D01*
X38208Y409345D01*
X38210Y409456D01*
X38211Y409456D02*
X38211Y412561D01*
X38209Y412700D01*
X38203Y412839D01*
X38193Y412978D01*
X38180Y413117D01*
X38162Y413255D01*
X38141Y413393D01*
X38116Y413530D01*
X38086Y413666D01*
X38054Y413802D01*
X38017Y413936D01*
X37976Y414069D01*
X37932Y414201D01*
X37884Y414332D01*
X37833Y414462D01*
X37778Y414590D01*
X37719Y414716D01*
X37657Y414841D01*
X37591Y414964D01*
X37522Y415085D01*
X37450Y415204D01*
X37374Y415320D01*
X37295Y415435D01*
X37213Y415548D01*
X37127Y415658D01*
X37039Y415766D01*
X36948Y415871D01*
X36853Y415973D01*
X36756Y416073D01*
X36656Y416170D01*
X36554Y416265D01*
X36449Y416356D01*
X36341Y416444D01*
X36231Y416530D01*
X36118Y416612D01*
X36004Y416691D01*
X35887Y416767D01*
X35768Y416839D01*
X35647Y416908D01*
X35524Y416974D01*
X35399Y417036D01*
X35273Y417095D01*
X35145Y417150D01*
X35015Y417201D01*
X34885Y417249D01*
X34752Y417293D01*
X34619Y417334D01*
X34485Y417371D01*
X34349Y417403D01*
X34213Y417433D01*
X34076Y417458D01*
X33938Y417479D01*
X33800Y417497D01*
X33662Y417510D01*
X33523Y417520D01*
X33383Y417526D01*
X33244Y417528D01*
X79740Y392128D02*
X79740Y380952D01*
X79740Y392128D02*
X76635Y392128D01*
X76524Y392126D01*
X76414Y392120D01*
X76303Y392110D01*
X76193Y392096D01*
X76084Y392079D01*
X75975Y392057D01*
X75867Y392032D01*
X75761Y392002D01*
X75655Y391969D01*
X75550Y391932D01*
X75447Y391892D01*
X75346Y391847D01*
X75246Y391800D01*
X75147Y391748D01*
X75051Y391693D01*
X74957Y391635D01*
X74865Y391574D01*
X74775Y391509D01*
X74687Y391441D01*
X74602Y391370D01*
X74520Y391296D01*
X74440Y391219D01*
X74363Y391139D01*
X74289Y391057D01*
X74218Y390972D01*
X74150Y390884D01*
X74085Y390794D01*
X74024Y390702D01*
X73966Y390608D01*
X73911Y390512D01*
X73859Y390413D01*
X73812Y390313D01*
X73767Y390212D01*
X73727Y390109D01*
X73690Y390004D01*
X73657Y389898D01*
X73627Y389792D01*
X73602Y389684D01*
X73580Y389575D01*
X73563Y389466D01*
X73549Y389356D01*
X73539Y389245D01*
X73533Y389135D01*
X73531Y389024D01*
X73531Y384056D01*
X73533Y383945D01*
X73539Y383835D01*
X73549Y383724D01*
X73563Y383614D01*
X73580Y383505D01*
X73602Y383396D01*
X73627Y383288D01*
X73657Y383182D01*
X73690Y383076D01*
X73727Y382971D01*
X73767Y382868D01*
X73812Y382767D01*
X73859Y382667D01*
X73911Y382568D01*
X73966Y382472D01*
X74024Y382378D01*
X74085Y382286D01*
X74150Y382196D01*
X74218Y382108D01*
X74289Y382023D01*
X74363Y381941D01*
X74440Y381861D01*
X74520Y381784D01*
X74602Y381710D01*
X74687Y381639D01*
X74775Y381571D01*
X74865Y381506D01*
X74957Y381445D01*
X75051Y381387D01*
X75147Y381332D01*
X75246Y381280D01*
X75346Y381233D01*
X75447Y381188D01*
X75550Y381148D01*
X75655Y381111D01*
X75761Y381078D01*
X75867Y381048D01*
X75975Y381023D01*
X76084Y381001D01*
X76193Y380984D01*
X76303Y380970D01*
X76414Y380960D01*
X76524Y380954D01*
X76635Y380952D01*
X79740Y380952D01*
X67110Y380952D02*
X67110Y392128D01*
X68352Y380952D02*
X65869Y380952D01*
X65869Y392128D02*
X68352Y392128D01*
X61071Y389024D02*
X61071Y384056D01*
X61070Y389024D02*
X61068Y389135D01*
X61062Y389245D01*
X61052Y389356D01*
X61038Y389466D01*
X61021Y389575D01*
X60999Y389684D01*
X60974Y389792D01*
X60944Y389898D01*
X60911Y390004D01*
X60874Y390109D01*
X60834Y390212D01*
X60789Y390313D01*
X60742Y390413D01*
X60690Y390512D01*
X60635Y390608D01*
X60577Y390702D01*
X60516Y390794D01*
X60451Y390884D01*
X60383Y390972D01*
X60312Y391057D01*
X60238Y391139D01*
X60161Y391219D01*
X60081Y391296D01*
X59999Y391370D01*
X59914Y391441D01*
X59826Y391509D01*
X59736Y391574D01*
X59644Y391635D01*
X59550Y391693D01*
X59454Y391748D01*
X59355Y391800D01*
X59255Y391847D01*
X59154Y391892D01*
X59051Y391932D01*
X58946Y391969D01*
X58840Y392002D01*
X58734Y392032D01*
X58626Y392057D01*
X58517Y392079D01*
X58408Y392096D01*
X58298Y392110D01*
X58187Y392120D01*
X58077Y392126D01*
X57966Y392128D01*
X57855Y392126D01*
X57745Y392120D01*
X57634Y392110D01*
X57524Y392096D01*
X57415Y392079D01*
X57306Y392057D01*
X57198Y392032D01*
X57092Y392002D01*
X56986Y391969D01*
X56881Y391932D01*
X56778Y391892D01*
X56677Y391847D01*
X56577Y391800D01*
X56478Y391748D01*
X56382Y391693D01*
X56288Y391635D01*
X56196Y391574D01*
X56106Y391509D01*
X56018Y391441D01*
X55933Y391370D01*
X55851Y391296D01*
X55771Y391219D01*
X55694Y391139D01*
X55620Y391057D01*
X55549Y390972D01*
X55481Y390884D01*
X55416Y390794D01*
X55355Y390702D01*
X55297Y390608D01*
X55242Y390512D01*
X55190Y390413D01*
X55143Y390313D01*
X55098Y390212D01*
X55058Y390109D01*
X55021Y390004D01*
X54988Y389898D01*
X54958Y389792D01*
X54933Y389684D01*
X54911Y389575D01*
X54894Y389466D01*
X54880Y389356D01*
X54870Y389245D01*
X54864Y389135D01*
X54862Y389024D01*
X54862Y384056D01*
X54864Y383945D01*
X54870Y383835D01*
X54880Y383724D01*
X54894Y383614D01*
X54911Y383505D01*
X54933Y383396D01*
X54958Y383288D01*
X54988Y383182D01*
X55021Y383076D01*
X55058Y382971D01*
X55098Y382868D01*
X55143Y382767D01*
X55190Y382667D01*
X55242Y382568D01*
X55297Y382472D01*
X55355Y382378D01*
X55416Y382286D01*
X55481Y382196D01*
X55549Y382108D01*
X55620Y382023D01*
X55694Y381941D01*
X55771Y381861D01*
X55851Y381784D01*
X55933Y381710D01*
X56018Y381639D01*
X56106Y381571D01*
X56196Y381506D01*
X56288Y381445D01*
X56382Y381387D01*
X56478Y381332D01*
X56577Y381280D01*
X56677Y381233D01*
X56778Y381188D01*
X56881Y381148D01*
X56986Y381111D01*
X57092Y381078D01*
X57198Y381048D01*
X57306Y381023D01*
X57415Y381001D01*
X57524Y380984D01*
X57634Y380970D01*
X57745Y380960D01*
X57855Y380954D01*
X57966Y380952D01*
X58077Y380954D01*
X58187Y380960D01*
X58298Y380970D01*
X58408Y380984D01*
X58517Y381001D01*
X58626Y381023D01*
X58734Y381048D01*
X58840Y381078D01*
X58946Y381111D01*
X59051Y381148D01*
X59154Y381188D01*
X59255Y381233D01*
X59355Y381280D01*
X59454Y381332D01*
X59550Y381387D01*
X59644Y381445D01*
X59736Y381506D01*
X59826Y381571D01*
X59914Y381639D01*
X59999Y381710D01*
X60081Y381784D01*
X60161Y381861D01*
X60238Y381941D01*
X60312Y382023D01*
X60383Y382108D01*
X60451Y382196D01*
X60516Y382286D01*
X60577Y382378D01*
X60635Y382472D01*
X60690Y382568D01*
X60742Y382667D01*
X60789Y382767D01*
X60834Y382868D01*
X60874Y382971D01*
X60911Y383076D01*
X60944Y383182D01*
X60974Y383288D01*
X60999Y383396D01*
X61021Y383505D01*
X61038Y383614D01*
X61052Y383724D01*
X61062Y383835D01*
X61068Y383945D01*
X61070Y384056D01*
X49641Y389644D02*
X46536Y392128D01*
X46536Y380952D01*
X43432Y380952D02*
X49641Y380952D01*
X38211Y389644D02*
X35106Y392128D01*
X35106Y380952D01*
X32002Y380952D02*
X38211Y380952D01*
X79740Y366728D02*
X79740Y355552D01*
X79740Y366728D02*
X76635Y366728D01*
X76524Y366726D01*
X76414Y366720D01*
X76303Y366710D01*
X76193Y366696D01*
X76084Y366679D01*
X75975Y366657D01*
X75867Y366632D01*
X75761Y366602D01*
X75655Y366569D01*
X75550Y366532D01*
X75447Y366492D01*
X75346Y366447D01*
X75246Y366400D01*
X75147Y366348D01*
X75051Y366293D01*
X74957Y366235D01*
X74865Y366174D01*
X74775Y366109D01*
X74687Y366041D01*
X74602Y365970D01*
X74520Y365896D01*
X74440Y365819D01*
X74363Y365739D01*
X74289Y365657D01*
X74218Y365572D01*
X74150Y365484D01*
X74085Y365394D01*
X74024Y365302D01*
X73966Y365208D01*
X73911Y365112D01*
X73859Y365013D01*
X73812Y364913D01*
X73767Y364812D01*
X73727Y364709D01*
X73690Y364604D01*
X73657Y364498D01*
X73627Y364392D01*
X73602Y364284D01*
X73580Y364175D01*
X73563Y364066D01*
X73549Y363956D01*
X73539Y363845D01*
X73533Y363735D01*
X73531Y363624D01*
X73531Y358656D01*
X73533Y358545D01*
X73539Y358435D01*
X73549Y358324D01*
X73563Y358214D01*
X73580Y358105D01*
X73602Y357996D01*
X73627Y357888D01*
X73657Y357782D01*
X73690Y357676D01*
X73727Y357571D01*
X73767Y357468D01*
X73812Y357367D01*
X73859Y357267D01*
X73911Y357168D01*
X73966Y357072D01*
X74024Y356978D01*
X74085Y356886D01*
X74150Y356796D01*
X74218Y356708D01*
X74289Y356623D01*
X74363Y356541D01*
X74440Y356461D01*
X74520Y356384D01*
X74602Y356310D01*
X74687Y356239D01*
X74775Y356171D01*
X74865Y356106D01*
X74957Y356045D01*
X75051Y355987D01*
X75147Y355932D01*
X75246Y355880D01*
X75346Y355833D01*
X75447Y355788D01*
X75550Y355748D01*
X75655Y355711D01*
X75761Y355678D01*
X75867Y355648D01*
X75975Y355623D01*
X76084Y355601D01*
X76193Y355584D01*
X76303Y355570D01*
X76414Y355560D01*
X76524Y355554D01*
X76635Y355552D01*
X79740Y355552D01*
X67110Y355552D02*
X67110Y366728D01*
X68352Y355552D02*
X65869Y355552D01*
X65869Y366728D02*
X68352Y366728D01*
X61071Y363624D02*
X61071Y358656D01*
X61070Y363624D02*
X61068Y363735D01*
X61062Y363845D01*
X61052Y363956D01*
X61038Y364066D01*
X61021Y364175D01*
X60999Y364284D01*
X60974Y364392D01*
X60944Y364498D01*
X60911Y364604D01*
X60874Y364709D01*
X60834Y364812D01*
X60789Y364913D01*
X60742Y365013D01*
X60690Y365112D01*
X60635Y365208D01*
X60577Y365302D01*
X60516Y365394D01*
X60451Y365484D01*
X60383Y365572D01*
X60312Y365657D01*
X60238Y365739D01*
X60161Y365819D01*
X60081Y365896D01*
X59999Y365970D01*
X59914Y366041D01*
X59826Y366109D01*
X59736Y366174D01*
X59644Y366235D01*
X59550Y366293D01*
X59454Y366348D01*
X59355Y366400D01*
X59255Y366447D01*
X59154Y366492D01*
X59051Y366532D01*
X58946Y366569D01*
X58840Y366602D01*
X58734Y366632D01*
X58626Y366657D01*
X58517Y366679D01*
X58408Y366696D01*
X58298Y366710D01*
X58187Y366720D01*
X58077Y366726D01*
X57966Y366728D01*
X57855Y366726D01*
X57745Y366720D01*
X57634Y366710D01*
X57524Y366696D01*
X57415Y366679D01*
X57306Y366657D01*
X57198Y366632D01*
X57092Y366602D01*
X56986Y366569D01*
X56881Y366532D01*
X56778Y366492D01*
X56677Y366447D01*
X56577Y366400D01*
X56478Y366348D01*
X56382Y366293D01*
X56288Y366235D01*
X56196Y366174D01*
X56106Y366109D01*
X56018Y366041D01*
X55933Y365970D01*
X55851Y365896D01*
X55771Y365819D01*
X55694Y365739D01*
X55620Y365657D01*
X55549Y365572D01*
X55481Y365484D01*
X55416Y365394D01*
X55355Y365302D01*
X55297Y365208D01*
X55242Y365112D01*
X55190Y365013D01*
X55143Y364913D01*
X55098Y364812D01*
X55058Y364709D01*
X55021Y364604D01*
X54988Y364498D01*
X54958Y364392D01*
X54933Y364284D01*
X54911Y364175D01*
X54894Y364066D01*
X54880Y363956D01*
X54870Y363845D01*
X54864Y363735D01*
X54862Y363624D01*
X54862Y358656D01*
X54864Y358545D01*
X54870Y358435D01*
X54880Y358324D01*
X54894Y358214D01*
X54911Y358105D01*
X54933Y357996D01*
X54958Y357888D01*
X54988Y357782D01*
X55021Y357676D01*
X55058Y357571D01*
X55098Y357468D01*
X55143Y357367D01*
X55190Y357267D01*
X55242Y357168D01*
X55297Y357072D01*
X55355Y356978D01*
X55416Y356886D01*
X55481Y356796D01*
X55549Y356708D01*
X55620Y356623D01*
X55694Y356541D01*
X55771Y356461D01*
X55851Y356384D01*
X55933Y356310D01*
X56018Y356239D01*
X56106Y356171D01*
X56196Y356106D01*
X56288Y356045D01*
X56382Y355987D01*
X56478Y355932D01*
X56577Y355880D01*
X56677Y355833D01*
X56778Y355788D01*
X56881Y355748D01*
X56986Y355711D01*
X57092Y355678D01*
X57198Y355648D01*
X57306Y355623D01*
X57415Y355601D01*
X57524Y355584D01*
X57634Y355570D01*
X57745Y355560D01*
X57855Y355554D01*
X57966Y355552D01*
X58077Y355554D01*
X58187Y355560D01*
X58298Y355570D01*
X58408Y355584D01*
X58517Y355601D01*
X58626Y355623D01*
X58734Y355648D01*
X58840Y355678D01*
X58946Y355711D01*
X59051Y355748D01*
X59154Y355788D01*
X59255Y355833D01*
X59355Y355880D01*
X59454Y355932D01*
X59550Y355987D01*
X59644Y356045D01*
X59736Y356106D01*
X59826Y356171D01*
X59914Y356239D01*
X59999Y356310D01*
X60081Y356384D01*
X60161Y356461D01*
X60238Y356541D01*
X60312Y356623D01*
X60383Y356708D01*
X60451Y356796D01*
X60516Y356886D01*
X60577Y356978D01*
X60635Y357072D01*
X60690Y357168D01*
X60742Y357267D01*
X60789Y357367D01*
X60834Y357468D01*
X60874Y357571D01*
X60911Y357676D01*
X60944Y357782D01*
X60974Y357888D01*
X60999Y357996D01*
X61021Y358105D01*
X61038Y358214D01*
X61052Y358324D01*
X61062Y358435D01*
X61068Y358545D01*
X61070Y358656D01*
X49641Y364244D02*
X46536Y366728D01*
X46536Y355552D01*
X43432Y355552D02*
X49641Y355552D01*
X34796Y366728D02*
X34692Y366726D01*
X34587Y366720D01*
X34483Y366710D01*
X34380Y366697D01*
X34277Y366679D01*
X34174Y366658D01*
X34073Y366633D01*
X33972Y366604D01*
X33873Y366571D01*
X33775Y366535D01*
X33679Y366495D01*
X33584Y366451D01*
X33490Y366404D01*
X33399Y366354D01*
X33310Y366300D01*
X33222Y366243D01*
X33137Y366182D01*
X33054Y366118D01*
X32974Y366052D01*
X32896Y365982D01*
X32820Y365910D01*
X32748Y365834D01*
X32678Y365756D01*
X32612Y365676D01*
X32548Y365593D01*
X32487Y365508D01*
X32430Y365420D01*
X32376Y365331D01*
X32326Y365240D01*
X32279Y365146D01*
X32235Y365051D01*
X32195Y364955D01*
X32159Y364857D01*
X32126Y364758D01*
X32097Y364657D01*
X32072Y364556D01*
X32051Y364453D01*
X32033Y364350D01*
X32020Y364247D01*
X32010Y364143D01*
X32004Y364038D01*
X32002Y363934D01*
X34796Y366729D02*
X34915Y366727D01*
X35033Y366721D01*
X35152Y366711D01*
X35270Y366698D01*
X35387Y366680D01*
X35504Y366658D01*
X35620Y366633D01*
X35735Y366604D01*
X35850Y366571D01*
X35963Y366534D01*
X36074Y366494D01*
X36185Y366450D01*
X36293Y366402D01*
X36400Y366351D01*
X36506Y366296D01*
X36609Y366237D01*
X36711Y366176D01*
X36810Y366111D01*
X36908Y366042D01*
X37002Y365971D01*
X37095Y365896D01*
X37185Y365819D01*
X37272Y365738D01*
X37357Y365655D01*
X37439Y365569D01*
X37518Y365480D01*
X37594Y365389D01*
X37667Y365295D01*
X37736Y365199D01*
X37803Y365100D01*
X37866Y365000D01*
X37926Y364897D01*
X37983Y364793D01*
X38035Y364686D01*
X38085Y364578D01*
X38131Y364469D01*
X38173Y364357D01*
X38211Y364245D01*
X32933Y361761D02*
X32858Y361835D01*
X32786Y361912D01*
X32716Y361991D01*
X32649Y362073D01*
X32585Y362157D01*
X32524Y362243D01*
X32466Y362331D01*
X32411Y362422D01*
X32359Y362514D01*
X32311Y362608D01*
X32266Y362703D01*
X32224Y362801D01*
X32186Y362899D01*
X32151Y362999D01*
X32120Y363100D01*
X32093Y363202D01*
X32069Y363305D01*
X32048Y363408D01*
X32032Y363513D01*
X32019Y363618D01*
X32009Y363723D01*
X32004Y363828D01*
X32002Y363934D01*
X32933Y361761D02*
X38211Y355552D01*
X32002Y355552D01*
X79740Y341328D02*
X79740Y330152D01*
X79740Y341328D02*
X76635Y341328D01*
X76524Y341326D01*
X76414Y341320D01*
X76303Y341310D01*
X76193Y341296D01*
X76084Y341279D01*
X75975Y341257D01*
X75867Y341232D01*
X75761Y341202D01*
X75655Y341169D01*
X75550Y341132D01*
X75447Y341092D01*
X75346Y341047D01*
X75246Y341000D01*
X75147Y340948D01*
X75051Y340893D01*
X74957Y340835D01*
X74865Y340774D01*
X74775Y340709D01*
X74687Y340641D01*
X74602Y340570D01*
X74520Y340496D01*
X74440Y340419D01*
X74363Y340339D01*
X74289Y340257D01*
X74218Y340172D01*
X74150Y340084D01*
X74085Y339994D01*
X74024Y339902D01*
X73966Y339808D01*
X73911Y339712D01*
X73859Y339613D01*
X73812Y339513D01*
X73767Y339412D01*
X73727Y339309D01*
X73690Y339204D01*
X73657Y339098D01*
X73627Y338992D01*
X73602Y338884D01*
X73580Y338775D01*
X73563Y338666D01*
X73549Y338556D01*
X73539Y338445D01*
X73533Y338335D01*
X73531Y338224D01*
X73531Y333256D01*
X73533Y333145D01*
X73539Y333035D01*
X73549Y332924D01*
X73563Y332814D01*
X73580Y332705D01*
X73602Y332596D01*
X73627Y332488D01*
X73657Y332382D01*
X73690Y332276D01*
X73727Y332171D01*
X73767Y332068D01*
X73812Y331967D01*
X73859Y331867D01*
X73911Y331768D01*
X73966Y331672D01*
X74024Y331578D01*
X74085Y331486D01*
X74150Y331396D01*
X74218Y331308D01*
X74289Y331223D01*
X74363Y331141D01*
X74440Y331061D01*
X74520Y330984D01*
X74602Y330910D01*
X74687Y330839D01*
X74775Y330771D01*
X74865Y330706D01*
X74957Y330645D01*
X75051Y330587D01*
X75147Y330532D01*
X75246Y330480D01*
X75346Y330433D01*
X75447Y330388D01*
X75550Y330348D01*
X75655Y330311D01*
X75761Y330278D01*
X75867Y330248D01*
X75975Y330223D01*
X76084Y330201D01*
X76193Y330184D01*
X76303Y330170D01*
X76414Y330160D01*
X76524Y330154D01*
X76635Y330152D01*
X79740Y330152D01*
X67110Y330152D02*
X67110Y341328D01*
X68352Y330152D02*
X65869Y330152D01*
X65869Y341328D02*
X68352Y341328D01*
X61071Y338224D02*
X61071Y333256D01*
X61070Y338224D02*
X61068Y338335D01*
X61062Y338445D01*
X61052Y338556D01*
X61038Y338666D01*
X61021Y338775D01*
X60999Y338884D01*
X60974Y338992D01*
X60944Y339098D01*
X60911Y339204D01*
X60874Y339309D01*
X60834Y339412D01*
X60789Y339513D01*
X60742Y339613D01*
X60690Y339712D01*
X60635Y339808D01*
X60577Y339902D01*
X60516Y339994D01*
X60451Y340084D01*
X60383Y340172D01*
X60312Y340257D01*
X60238Y340339D01*
X60161Y340419D01*
X60081Y340496D01*
X59999Y340570D01*
X59914Y340641D01*
X59826Y340709D01*
X59736Y340774D01*
X59644Y340835D01*
X59550Y340893D01*
X59454Y340948D01*
X59355Y341000D01*
X59255Y341047D01*
X59154Y341092D01*
X59051Y341132D01*
X58946Y341169D01*
X58840Y341202D01*
X58734Y341232D01*
X58626Y341257D01*
X58517Y341279D01*
X58408Y341296D01*
X58298Y341310D01*
X58187Y341320D01*
X58077Y341326D01*
X57966Y341328D01*
X57855Y341326D01*
X57745Y341320D01*
X57634Y341310D01*
X57524Y341296D01*
X57415Y341279D01*
X57306Y341257D01*
X57198Y341232D01*
X57092Y341202D01*
X56986Y341169D01*
X56881Y341132D01*
X56778Y341092D01*
X56677Y341047D01*
X56577Y341000D01*
X56478Y340948D01*
X56382Y340893D01*
X56288Y340835D01*
X56196Y340774D01*
X56106Y340709D01*
X56018Y340641D01*
X55933Y340570D01*
X55851Y340496D01*
X55771Y340419D01*
X55694Y340339D01*
X55620Y340257D01*
X55549Y340172D01*
X55481Y340084D01*
X55416Y339994D01*
X55355Y339902D01*
X55297Y339808D01*
X55242Y339712D01*
X55190Y339613D01*
X55143Y339513D01*
X55098Y339412D01*
X55058Y339309D01*
X55021Y339204D01*
X54988Y339098D01*
X54958Y338992D01*
X54933Y338884D01*
X54911Y338775D01*
X54894Y338666D01*
X54880Y338556D01*
X54870Y338445D01*
X54864Y338335D01*
X54862Y338224D01*
X54862Y333256D01*
X54864Y333145D01*
X54870Y333035D01*
X54880Y332924D01*
X54894Y332814D01*
X54911Y332705D01*
X54933Y332596D01*
X54958Y332488D01*
X54988Y332382D01*
X55021Y332276D01*
X55058Y332171D01*
X55098Y332068D01*
X55143Y331967D01*
X55190Y331867D01*
X55242Y331768D01*
X55297Y331672D01*
X55355Y331578D01*
X55416Y331486D01*
X55481Y331396D01*
X55549Y331308D01*
X55620Y331223D01*
X55694Y331141D01*
X55771Y331061D01*
X55851Y330984D01*
X55933Y330910D01*
X56018Y330839D01*
X56106Y330771D01*
X56196Y330706D01*
X56288Y330645D01*
X56382Y330587D01*
X56478Y330532D01*
X56577Y330480D01*
X56677Y330433D01*
X56778Y330388D01*
X56881Y330348D01*
X56986Y330311D01*
X57092Y330278D01*
X57198Y330248D01*
X57306Y330223D01*
X57415Y330201D01*
X57524Y330184D01*
X57634Y330170D01*
X57745Y330160D01*
X57855Y330154D01*
X57966Y330152D01*
X58077Y330154D01*
X58187Y330160D01*
X58298Y330170D01*
X58408Y330184D01*
X58517Y330201D01*
X58626Y330223D01*
X58734Y330248D01*
X58840Y330278D01*
X58946Y330311D01*
X59051Y330348D01*
X59154Y330388D01*
X59255Y330433D01*
X59355Y330480D01*
X59454Y330532D01*
X59550Y330587D01*
X59644Y330645D01*
X59736Y330706D01*
X59826Y330771D01*
X59914Y330839D01*
X59999Y330910D01*
X60081Y330984D01*
X60161Y331061D01*
X60238Y331141D01*
X60312Y331223D01*
X60383Y331308D01*
X60451Y331396D01*
X60516Y331486D01*
X60577Y331578D01*
X60635Y331672D01*
X60690Y331768D01*
X60742Y331867D01*
X60789Y331967D01*
X60834Y332068D01*
X60874Y332171D01*
X60911Y332276D01*
X60944Y332382D01*
X60974Y332488D01*
X60999Y332596D01*
X61021Y332705D01*
X61038Y332814D01*
X61052Y332924D01*
X61062Y333035D01*
X61068Y333145D01*
X61070Y333256D01*
X49641Y338844D02*
X46536Y341328D01*
X46536Y330152D01*
X43432Y330152D02*
X49641Y330152D01*
X38211Y330152D02*
X35106Y330152D01*
X34995Y330154D01*
X34885Y330160D01*
X34774Y330170D01*
X34664Y330184D01*
X34555Y330201D01*
X34446Y330223D01*
X34338Y330248D01*
X34232Y330278D01*
X34126Y330311D01*
X34021Y330348D01*
X33918Y330388D01*
X33817Y330433D01*
X33717Y330480D01*
X33618Y330532D01*
X33522Y330587D01*
X33428Y330645D01*
X33336Y330706D01*
X33246Y330771D01*
X33158Y330839D01*
X33073Y330910D01*
X32991Y330984D01*
X32911Y331061D01*
X32834Y331141D01*
X32760Y331223D01*
X32689Y331308D01*
X32621Y331396D01*
X32556Y331486D01*
X32495Y331578D01*
X32437Y331672D01*
X32382Y331768D01*
X32330Y331867D01*
X32283Y331967D01*
X32238Y332068D01*
X32198Y332171D01*
X32161Y332276D01*
X32128Y332382D01*
X32098Y332488D01*
X32073Y332596D01*
X32051Y332705D01*
X32034Y332814D01*
X32020Y332924D01*
X32010Y333035D01*
X32004Y333145D01*
X32002Y333256D01*
X32004Y333367D01*
X32010Y333477D01*
X32020Y333588D01*
X32034Y333698D01*
X32051Y333807D01*
X32073Y333916D01*
X32098Y334024D01*
X32128Y334130D01*
X32161Y334236D01*
X32198Y334341D01*
X32238Y334444D01*
X32283Y334545D01*
X32330Y334645D01*
X32382Y334744D01*
X32437Y334840D01*
X32495Y334934D01*
X32556Y335026D01*
X32621Y335116D01*
X32689Y335204D01*
X32760Y335289D01*
X32834Y335371D01*
X32911Y335451D01*
X32991Y335528D01*
X33073Y335602D01*
X33158Y335673D01*
X33246Y335741D01*
X33336Y335806D01*
X33428Y335867D01*
X33522Y335925D01*
X33618Y335980D01*
X33717Y336032D01*
X33817Y336079D01*
X33918Y336124D01*
X34021Y336164D01*
X34126Y336201D01*
X34232Y336234D01*
X34338Y336264D01*
X34446Y336289D01*
X34555Y336311D01*
X34664Y336328D01*
X34774Y336342D01*
X34885Y336352D01*
X34995Y336358D01*
X35106Y336360D01*
X34486Y341328D02*
X38211Y341328D01*
X34486Y341328D02*
X34387Y341326D01*
X34289Y341320D01*
X34190Y341310D01*
X34093Y341297D01*
X33995Y341279D01*
X33899Y341258D01*
X33803Y341232D01*
X33709Y341203D01*
X33616Y341171D01*
X33524Y341134D01*
X33434Y341094D01*
X33345Y341050D01*
X33258Y341003D01*
X33173Y340953D01*
X33091Y340899D01*
X33010Y340842D01*
X32932Y340782D01*
X32856Y340718D01*
X32783Y340652D01*
X32712Y340583D01*
X32644Y340511D01*
X32580Y340436D01*
X32518Y340359D01*
X32459Y340280D01*
X32404Y340198D01*
X32351Y340114D01*
X32303Y340029D01*
X32257Y339941D01*
X32215Y339851D01*
X32177Y339760D01*
X32143Y339668D01*
X32112Y339574D01*
X32085Y339479D01*
X32061Y339383D01*
X32042Y339286D01*
X32026Y339189D01*
X32014Y339091D01*
X32006Y338992D01*
X32002Y338893D01*
X32002Y338795D01*
X32006Y338696D01*
X32014Y338597D01*
X32026Y338499D01*
X32042Y338402D01*
X32061Y338305D01*
X32085Y338209D01*
X32112Y338114D01*
X32143Y338020D01*
X32177Y337928D01*
X32215Y337837D01*
X32257Y337747D01*
X32303Y337659D01*
X32351Y337574D01*
X32404Y337490D01*
X32459Y337408D01*
X32518Y337329D01*
X32580Y337252D01*
X32644Y337177D01*
X32712Y337105D01*
X32783Y337036D01*
X32856Y336970D01*
X32932Y336906D01*
X33010Y336846D01*
X33091Y336789D01*
X33173Y336735D01*
X33258Y336685D01*
X33345Y336638D01*
X33434Y336594D01*
X33524Y336554D01*
X33616Y336517D01*
X33709Y336485D01*
X33803Y336456D01*
X33899Y336430D01*
X33995Y336409D01*
X34093Y336391D01*
X34190Y336378D01*
X34289Y336368D01*
X34387Y336362D01*
X34486Y336360D01*
X34486Y336361D02*
X36969Y336361D01*
X59455Y315928D02*
X59455Y304752D01*
X59455Y315928D02*
X56350Y315928D01*
X56239Y315926D01*
X56129Y315920D01*
X56018Y315910D01*
X55908Y315896D01*
X55799Y315879D01*
X55690Y315857D01*
X55582Y315832D01*
X55476Y315802D01*
X55370Y315769D01*
X55265Y315732D01*
X55162Y315692D01*
X55061Y315647D01*
X54961Y315600D01*
X54862Y315548D01*
X54766Y315493D01*
X54672Y315435D01*
X54580Y315374D01*
X54490Y315309D01*
X54402Y315241D01*
X54317Y315170D01*
X54235Y315096D01*
X54155Y315019D01*
X54078Y314939D01*
X54004Y314857D01*
X53933Y314772D01*
X53865Y314684D01*
X53800Y314594D01*
X53739Y314502D01*
X53681Y314408D01*
X53626Y314312D01*
X53574Y314213D01*
X53527Y314113D01*
X53482Y314012D01*
X53442Y313909D01*
X53405Y313804D01*
X53372Y313698D01*
X53342Y313592D01*
X53317Y313484D01*
X53295Y313375D01*
X53278Y313266D01*
X53264Y313156D01*
X53254Y313045D01*
X53248Y312935D01*
X53246Y312824D01*
X53248Y312713D01*
X53254Y312603D01*
X53264Y312492D01*
X53278Y312382D01*
X53295Y312273D01*
X53317Y312164D01*
X53342Y312056D01*
X53372Y311950D01*
X53405Y311844D01*
X53442Y311739D01*
X53482Y311636D01*
X53527Y311535D01*
X53574Y311435D01*
X53626Y311336D01*
X53681Y311240D01*
X53739Y311146D01*
X53800Y311054D01*
X53865Y310964D01*
X53933Y310876D01*
X54004Y310791D01*
X54078Y310709D01*
X54155Y310629D01*
X54235Y310552D01*
X54317Y310478D01*
X54402Y310407D01*
X54490Y310339D01*
X54580Y310274D01*
X54672Y310213D01*
X54766Y310155D01*
X54862Y310100D01*
X54961Y310048D01*
X55061Y310001D01*
X55162Y309956D01*
X55265Y309916D01*
X55370Y309879D01*
X55476Y309846D01*
X55582Y309816D01*
X55690Y309791D01*
X55799Y309769D01*
X55908Y309752D01*
X56018Y309738D01*
X56129Y309728D01*
X56239Y309722D01*
X56350Y309720D01*
X56350Y309719D02*
X59455Y309719D01*
X55730Y309719D02*
X53246Y304752D01*
X44773Y304752D02*
X44675Y304754D01*
X44578Y304760D01*
X44481Y304769D01*
X44384Y304783D01*
X44288Y304800D01*
X44193Y304821D01*
X44099Y304845D01*
X44005Y304874D01*
X43913Y304906D01*
X43822Y304941D01*
X43733Y304980D01*
X43645Y305023D01*
X43559Y305069D01*
X43475Y305118D01*
X43393Y305171D01*
X43313Y305226D01*
X43235Y305285D01*
X43160Y305347D01*
X43087Y305412D01*
X43017Y305480D01*
X42949Y305550D01*
X42884Y305623D01*
X42822Y305698D01*
X42763Y305776D01*
X42708Y305856D01*
X42655Y305938D01*
X42606Y306022D01*
X42560Y306108D01*
X42517Y306196D01*
X42478Y306285D01*
X42443Y306376D01*
X42411Y306468D01*
X42382Y306562D01*
X42358Y306656D01*
X42337Y306751D01*
X42320Y306847D01*
X42306Y306944D01*
X42297Y307041D01*
X42291Y307138D01*
X42289Y307236D01*
X44773Y304752D02*
X44916Y304754D01*
X45059Y304760D01*
X45201Y304769D01*
X45343Y304783D01*
X45485Y304801D01*
X45626Y304822D01*
X45767Y304847D01*
X45907Y304876D01*
X46046Y304909D01*
X46184Y304945D01*
X46321Y304986D01*
X46457Y305030D01*
X46591Y305077D01*
X46725Y305129D01*
X46856Y305183D01*
X46987Y305242D01*
X47115Y305304D01*
X47242Y305369D01*
X47367Y305438D01*
X47491Y305511D01*
X47612Y305586D01*
X47731Y305665D01*
X47848Y305747D01*
X47962Y305833D01*
X48074Y305921D01*
X48184Y306012D01*
X48291Y306107D01*
X48396Y306204D01*
X48498Y306304D01*
X48188Y313444D02*
X48186Y313542D01*
X48180Y313639D01*
X48171Y313736D01*
X48157Y313833D01*
X48140Y313929D01*
X48119Y314024D01*
X48095Y314118D01*
X48066Y314212D01*
X48034Y314304D01*
X47999Y314395D01*
X47960Y314484D01*
X47917Y314572D01*
X47871Y314658D01*
X47822Y314742D01*
X47769Y314824D01*
X47714Y314904D01*
X47655Y314982D01*
X47593Y315057D01*
X47528Y315130D01*
X47460Y315200D01*
X47390Y315268D01*
X47317Y315333D01*
X47242Y315395D01*
X47164Y315454D01*
X47084Y315509D01*
X47002Y315562D01*
X46918Y315611D01*
X46832Y315657D01*
X46744Y315700D01*
X46655Y315739D01*
X46564Y315774D01*
X46472Y315806D01*
X46378Y315835D01*
X46284Y315859D01*
X46189Y315880D01*
X46093Y315897D01*
X45996Y315911D01*
X45899Y315920D01*
X45802Y315926D01*
X45704Y315928D01*
X45574Y315926D01*
X45444Y315921D01*
X45314Y315912D01*
X45184Y315899D01*
X45055Y315883D01*
X44926Y315863D01*
X44798Y315839D01*
X44670Y315812D01*
X44544Y315781D01*
X44418Y315747D01*
X44293Y315709D01*
X44170Y315668D01*
X44047Y315623D01*
X43926Y315575D01*
X43806Y315524D01*
X43688Y315469D01*
X43572Y315411D01*
X43457Y315350D01*
X43343Y315285D01*
X43232Y315218D01*
X43123Y315147D01*
X43015Y315073D01*
X42910Y314997D01*
X46945Y311271D02*
X47028Y311322D01*
X47109Y311376D01*
X47187Y311433D01*
X47263Y311493D01*
X47337Y311556D01*
X47408Y311622D01*
X47477Y311690D01*
X47543Y311761D01*
X47607Y311834D01*
X47667Y311910D01*
X47724Y311988D01*
X47779Y312069D01*
X47830Y312151D01*
X47878Y312235D01*
X47923Y312321D01*
X47965Y312409D01*
X48003Y312498D01*
X48037Y312588D01*
X48069Y312680D01*
X48096Y312773D01*
X48120Y312867D01*
X48141Y312962D01*
X48157Y313058D01*
X48170Y313154D01*
X48180Y313250D01*
X48185Y313347D01*
X48187Y313444D01*
X43531Y309409D02*
X43448Y309358D01*
X43367Y309304D01*
X43289Y309247D01*
X43213Y309187D01*
X43139Y309124D01*
X43068Y309058D01*
X42999Y308990D01*
X42933Y308919D01*
X42869Y308846D01*
X42809Y308770D01*
X42752Y308692D01*
X42697Y308611D01*
X42646Y308529D01*
X42598Y308445D01*
X42553Y308359D01*
X42511Y308271D01*
X42473Y308182D01*
X42439Y308092D01*
X42407Y308000D01*
X42380Y307907D01*
X42356Y307813D01*
X42335Y307718D01*
X42319Y307622D01*
X42306Y307526D01*
X42296Y307430D01*
X42291Y307333D01*
X42289Y307236D01*
X43531Y309409D02*
X46946Y311271D01*
X35106Y315928D02*
X35106Y304752D01*
X38211Y315928D02*
X32002Y315928D01*
X59109Y290528D02*
X59109Y279352D01*
X62214Y290528D02*
X56005Y290528D01*
X51024Y290528D02*
X51024Y279352D01*
X47298Y284319D02*
X51024Y290528D01*
X47298Y284319D02*
X43573Y290528D01*
X43573Y279352D01*
X34486Y279352D02*
X34388Y279354D01*
X34291Y279360D01*
X34194Y279369D01*
X34097Y279383D01*
X34001Y279400D01*
X33906Y279421D01*
X33812Y279445D01*
X33718Y279474D01*
X33626Y279506D01*
X33535Y279541D01*
X33446Y279580D01*
X33358Y279623D01*
X33272Y279669D01*
X33188Y279718D01*
X33106Y279771D01*
X33026Y279826D01*
X32948Y279885D01*
X32873Y279947D01*
X32800Y280012D01*
X32730Y280080D01*
X32662Y280150D01*
X32597Y280223D01*
X32535Y280298D01*
X32476Y280376D01*
X32421Y280456D01*
X32368Y280538D01*
X32319Y280622D01*
X32273Y280708D01*
X32230Y280796D01*
X32191Y280885D01*
X32156Y280976D01*
X32124Y281068D01*
X32095Y281162D01*
X32071Y281256D01*
X32050Y281351D01*
X32033Y281447D01*
X32019Y281544D01*
X32010Y281641D01*
X32004Y281738D01*
X32002Y281836D01*
X34486Y279352D02*
X34629Y279354D01*
X34772Y279360D01*
X34914Y279369D01*
X35056Y279383D01*
X35198Y279401D01*
X35339Y279422D01*
X35480Y279447D01*
X35620Y279476D01*
X35759Y279509D01*
X35897Y279545D01*
X36034Y279586D01*
X36170Y279630D01*
X36304Y279677D01*
X36438Y279729D01*
X36569Y279783D01*
X36700Y279842D01*
X36828Y279904D01*
X36955Y279969D01*
X37080Y280038D01*
X37204Y280111D01*
X37325Y280186D01*
X37444Y280265D01*
X37561Y280347D01*
X37675Y280433D01*
X37787Y280521D01*
X37897Y280612D01*
X38004Y280707D01*
X38109Y280804D01*
X38211Y280904D01*
X37901Y288044D02*
X37899Y288142D01*
X37893Y288239D01*
X37884Y288336D01*
X37870Y288433D01*
X37853Y288529D01*
X37832Y288624D01*
X37808Y288718D01*
X37779Y288812D01*
X37747Y288904D01*
X37712Y288995D01*
X37673Y289084D01*
X37630Y289172D01*
X37584Y289258D01*
X37535Y289342D01*
X37482Y289424D01*
X37427Y289504D01*
X37368Y289582D01*
X37306Y289657D01*
X37241Y289730D01*
X37173Y289800D01*
X37103Y289868D01*
X37030Y289933D01*
X36955Y289995D01*
X36877Y290054D01*
X36797Y290109D01*
X36715Y290162D01*
X36631Y290211D01*
X36545Y290257D01*
X36457Y290300D01*
X36368Y290339D01*
X36277Y290374D01*
X36185Y290406D01*
X36091Y290435D01*
X35997Y290459D01*
X35902Y290480D01*
X35806Y290497D01*
X35709Y290511D01*
X35612Y290520D01*
X35515Y290526D01*
X35417Y290528D01*
X35287Y290526D01*
X35157Y290521D01*
X35027Y290512D01*
X34897Y290499D01*
X34768Y290483D01*
X34639Y290463D01*
X34511Y290439D01*
X34383Y290412D01*
X34257Y290381D01*
X34131Y290347D01*
X34006Y290309D01*
X33883Y290268D01*
X33760Y290223D01*
X33639Y290175D01*
X33519Y290124D01*
X33401Y290069D01*
X33285Y290011D01*
X33170Y289950D01*
X33056Y289885D01*
X32945Y289818D01*
X32836Y289747D01*
X32728Y289673D01*
X32623Y289597D01*
X36658Y285871D02*
X36741Y285922D01*
X36822Y285976D01*
X36900Y286033D01*
X36976Y286093D01*
X37050Y286156D01*
X37121Y286222D01*
X37190Y286290D01*
X37256Y286361D01*
X37320Y286434D01*
X37380Y286510D01*
X37437Y286588D01*
X37492Y286669D01*
X37543Y286751D01*
X37591Y286835D01*
X37636Y286921D01*
X37678Y287009D01*
X37716Y287098D01*
X37750Y287188D01*
X37782Y287280D01*
X37809Y287373D01*
X37833Y287467D01*
X37854Y287562D01*
X37870Y287658D01*
X37883Y287754D01*
X37893Y287850D01*
X37898Y287947D01*
X37900Y288044D01*
X33244Y284009D02*
X33161Y283958D01*
X33080Y283904D01*
X33002Y283847D01*
X32926Y283787D01*
X32852Y283724D01*
X32781Y283658D01*
X32712Y283590D01*
X32646Y283519D01*
X32582Y283446D01*
X32522Y283370D01*
X32465Y283292D01*
X32410Y283211D01*
X32359Y283129D01*
X32311Y283045D01*
X32266Y282959D01*
X32224Y282871D01*
X32186Y282782D01*
X32152Y282692D01*
X32120Y282600D01*
X32093Y282507D01*
X32069Y282413D01*
X32048Y282318D01*
X32032Y282222D01*
X32019Y282126D01*
X32009Y282030D01*
X32004Y281933D01*
X32002Y281836D01*
X33244Y284009D02*
X36659Y285871D01*
X55892Y265128D02*
X55892Y253952D01*
X58997Y265128D02*
X52788Y265128D01*
X45887Y253952D02*
X43403Y253952D01*
X45887Y253952D02*
X45985Y253954D01*
X46082Y253960D01*
X46179Y253969D01*
X46276Y253983D01*
X46372Y254000D01*
X46467Y254021D01*
X46561Y254045D01*
X46655Y254074D01*
X46747Y254106D01*
X46838Y254141D01*
X46927Y254180D01*
X47015Y254223D01*
X47101Y254269D01*
X47185Y254318D01*
X47267Y254371D01*
X47347Y254426D01*
X47425Y254485D01*
X47500Y254547D01*
X47573Y254612D01*
X47643Y254680D01*
X47711Y254750D01*
X47776Y254823D01*
X47838Y254898D01*
X47897Y254976D01*
X47952Y255056D01*
X48005Y255138D01*
X48054Y255222D01*
X48100Y255308D01*
X48143Y255396D01*
X48182Y255485D01*
X48217Y255576D01*
X48249Y255668D01*
X48278Y255762D01*
X48302Y255856D01*
X48323Y255951D01*
X48340Y256047D01*
X48354Y256144D01*
X48363Y256241D01*
X48369Y256339D01*
X48371Y256436D01*
X48370Y256436D02*
X48370Y262644D01*
X48368Y262742D01*
X48362Y262839D01*
X48353Y262936D01*
X48339Y263033D01*
X48322Y263129D01*
X48301Y263224D01*
X48277Y263318D01*
X48248Y263412D01*
X48216Y263504D01*
X48181Y263595D01*
X48142Y263684D01*
X48099Y263772D01*
X48053Y263858D01*
X48004Y263942D01*
X47951Y264024D01*
X47896Y264104D01*
X47837Y264182D01*
X47775Y264257D01*
X47710Y264330D01*
X47642Y264400D01*
X47572Y264468D01*
X47499Y264533D01*
X47424Y264595D01*
X47346Y264654D01*
X47266Y264709D01*
X47184Y264762D01*
X47100Y264811D01*
X47014Y264857D01*
X46926Y264900D01*
X46837Y264939D01*
X46746Y264974D01*
X46654Y265006D01*
X46560Y265035D01*
X46466Y265059D01*
X46371Y265080D01*
X46275Y265097D01*
X46178Y265111D01*
X46081Y265120D01*
X45984Y265126D01*
X45886Y265128D01*
X45887Y265128D02*
X43403Y265128D01*
X38211Y265128D02*
X38211Y253952D01*
X38211Y258298D02*
X32002Y265128D01*
X35727Y260782D02*
X32002Y253952D01*
X57966Y228552D02*
X61071Y228552D01*
X57966Y228552D02*
X57855Y228554D01*
X57745Y228560D01*
X57634Y228570D01*
X57524Y228584D01*
X57415Y228601D01*
X57306Y228623D01*
X57198Y228648D01*
X57092Y228678D01*
X56986Y228711D01*
X56881Y228748D01*
X56778Y228788D01*
X56677Y228833D01*
X56577Y228880D01*
X56478Y228932D01*
X56382Y228987D01*
X56288Y229045D01*
X56196Y229106D01*
X56106Y229171D01*
X56018Y229239D01*
X55933Y229310D01*
X55851Y229384D01*
X55771Y229461D01*
X55694Y229541D01*
X55620Y229623D01*
X55549Y229708D01*
X55481Y229796D01*
X55416Y229886D01*
X55355Y229978D01*
X55297Y230072D01*
X55242Y230168D01*
X55190Y230267D01*
X55143Y230367D01*
X55098Y230468D01*
X55058Y230571D01*
X55021Y230676D01*
X54988Y230782D01*
X54958Y230888D01*
X54933Y230996D01*
X54911Y231105D01*
X54894Y231214D01*
X54880Y231324D01*
X54870Y231435D01*
X54864Y231545D01*
X54862Y231656D01*
X54864Y231767D01*
X54870Y231877D01*
X54880Y231988D01*
X54894Y232098D01*
X54911Y232207D01*
X54933Y232316D01*
X54958Y232424D01*
X54988Y232530D01*
X55021Y232636D01*
X55058Y232741D01*
X55098Y232844D01*
X55143Y232945D01*
X55190Y233045D01*
X55242Y233144D01*
X55297Y233240D01*
X55355Y233334D01*
X55416Y233426D01*
X55481Y233516D01*
X55549Y233604D01*
X55620Y233689D01*
X55694Y233771D01*
X55771Y233851D01*
X55851Y233928D01*
X55933Y234002D01*
X56018Y234073D01*
X56106Y234141D01*
X56196Y234206D01*
X56288Y234267D01*
X56382Y234325D01*
X56478Y234380D01*
X56577Y234432D01*
X56677Y234479D01*
X56778Y234524D01*
X56881Y234564D01*
X56986Y234601D01*
X57092Y234634D01*
X57198Y234664D01*
X57306Y234689D01*
X57415Y234711D01*
X57524Y234728D01*
X57634Y234742D01*
X57745Y234752D01*
X57855Y234758D01*
X57966Y234760D01*
X57346Y239728D02*
X61071Y239728D01*
X57346Y239728D02*
X57247Y239726D01*
X57149Y239720D01*
X57050Y239710D01*
X56953Y239697D01*
X56855Y239679D01*
X56759Y239658D01*
X56663Y239632D01*
X56569Y239603D01*
X56476Y239571D01*
X56384Y239534D01*
X56294Y239494D01*
X56205Y239450D01*
X56118Y239403D01*
X56033Y239353D01*
X55951Y239299D01*
X55870Y239242D01*
X55792Y239182D01*
X55716Y239118D01*
X55643Y239052D01*
X55572Y238983D01*
X55504Y238911D01*
X55440Y238836D01*
X55378Y238759D01*
X55319Y238680D01*
X55264Y238598D01*
X55211Y238514D01*
X55163Y238429D01*
X55117Y238341D01*
X55075Y238251D01*
X55037Y238160D01*
X55003Y238068D01*
X54972Y237974D01*
X54945Y237879D01*
X54921Y237783D01*
X54902Y237686D01*
X54886Y237589D01*
X54874Y237491D01*
X54866Y237392D01*
X54862Y237293D01*
X54862Y237195D01*
X54866Y237096D01*
X54874Y236997D01*
X54886Y236899D01*
X54902Y236802D01*
X54921Y236705D01*
X54945Y236609D01*
X54972Y236514D01*
X55003Y236420D01*
X55037Y236328D01*
X55075Y236237D01*
X55117Y236147D01*
X55163Y236059D01*
X55211Y235974D01*
X55264Y235890D01*
X55319Y235808D01*
X55378Y235729D01*
X55440Y235652D01*
X55504Y235577D01*
X55572Y235505D01*
X55643Y235436D01*
X55716Y235370D01*
X55792Y235306D01*
X55870Y235246D01*
X55951Y235189D01*
X56033Y235135D01*
X56118Y235085D01*
X56205Y235038D01*
X56294Y234994D01*
X56384Y234954D01*
X56476Y234917D01*
X56569Y234885D01*
X56663Y234856D01*
X56759Y234830D01*
X56855Y234809D01*
X56953Y234791D01*
X57050Y234778D01*
X57149Y234768D01*
X57247Y234762D01*
X57346Y234760D01*
X57346Y234761D02*
X59829Y234761D01*
X50262Y239728D02*
X46536Y228552D01*
X42811Y239728D01*
X38211Y228552D02*
X35106Y228552D01*
X34995Y228554D01*
X34885Y228560D01*
X34774Y228570D01*
X34664Y228584D01*
X34555Y228601D01*
X34446Y228623D01*
X34338Y228648D01*
X34232Y228678D01*
X34126Y228711D01*
X34021Y228748D01*
X33918Y228788D01*
X33817Y228833D01*
X33717Y228880D01*
X33618Y228932D01*
X33522Y228987D01*
X33428Y229045D01*
X33336Y229106D01*
X33246Y229171D01*
X33158Y229239D01*
X33073Y229310D01*
X32991Y229384D01*
X32911Y229461D01*
X32834Y229541D01*
X32760Y229623D01*
X32689Y229708D01*
X32621Y229796D01*
X32556Y229886D01*
X32495Y229978D01*
X32437Y230072D01*
X32382Y230168D01*
X32330Y230267D01*
X32283Y230367D01*
X32238Y230468D01*
X32198Y230571D01*
X32161Y230676D01*
X32128Y230782D01*
X32098Y230888D01*
X32073Y230996D01*
X32051Y231105D01*
X32034Y231214D01*
X32020Y231324D01*
X32010Y231435D01*
X32004Y231545D01*
X32002Y231656D01*
X32004Y231767D01*
X32010Y231877D01*
X32020Y231988D01*
X32034Y232098D01*
X32051Y232207D01*
X32073Y232316D01*
X32098Y232424D01*
X32128Y232530D01*
X32161Y232636D01*
X32198Y232741D01*
X32238Y232844D01*
X32283Y232945D01*
X32330Y233045D01*
X32382Y233144D01*
X32437Y233240D01*
X32495Y233334D01*
X32556Y233426D01*
X32621Y233516D01*
X32689Y233604D01*
X32760Y233689D01*
X32834Y233771D01*
X32911Y233851D01*
X32991Y233928D01*
X33073Y234002D01*
X33158Y234073D01*
X33246Y234141D01*
X33336Y234206D01*
X33428Y234267D01*
X33522Y234325D01*
X33618Y234380D01*
X33717Y234432D01*
X33817Y234479D01*
X33918Y234524D01*
X34021Y234564D01*
X34126Y234601D01*
X34232Y234634D01*
X34338Y234664D01*
X34446Y234689D01*
X34555Y234711D01*
X34664Y234728D01*
X34774Y234742D01*
X34885Y234752D01*
X34995Y234758D01*
X35106Y234760D01*
X34486Y239728D02*
X38211Y239728D01*
X34486Y239728D02*
X34387Y239726D01*
X34289Y239720D01*
X34190Y239710D01*
X34093Y239697D01*
X33995Y239679D01*
X33899Y239658D01*
X33803Y239632D01*
X33709Y239603D01*
X33616Y239571D01*
X33524Y239534D01*
X33434Y239494D01*
X33345Y239450D01*
X33258Y239403D01*
X33173Y239353D01*
X33091Y239299D01*
X33010Y239242D01*
X32932Y239182D01*
X32856Y239118D01*
X32783Y239052D01*
X32712Y238983D01*
X32644Y238911D01*
X32580Y238836D01*
X32518Y238759D01*
X32459Y238680D01*
X32404Y238598D01*
X32351Y238514D01*
X32303Y238429D01*
X32257Y238341D01*
X32215Y238251D01*
X32177Y238160D01*
X32143Y238068D01*
X32112Y237974D01*
X32085Y237879D01*
X32061Y237783D01*
X32042Y237686D01*
X32026Y237589D01*
X32014Y237491D01*
X32006Y237392D01*
X32002Y237293D01*
X32002Y237195D01*
X32006Y237096D01*
X32014Y236997D01*
X32026Y236899D01*
X32042Y236802D01*
X32061Y236705D01*
X32085Y236609D01*
X32112Y236514D01*
X32143Y236420D01*
X32177Y236328D01*
X32215Y236237D01*
X32257Y236147D01*
X32303Y236059D01*
X32351Y235974D01*
X32404Y235890D01*
X32459Y235808D01*
X32518Y235729D01*
X32580Y235652D01*
X32644Y235577D01*
X32712Y235505D01*
X32783Y235436D01*
X32856Y235370D01*
X32932Y235306D01*
X33010Y235246D01*
X33091Y235189D01*
X33173Y235135D01*
X33258Y235085D01*
X33345Y235038D01*
X33434Y234994D01*
X33524Y234954D01*
X33616Y234917D01*
X33709Y234885D01*
X33803Y234856D01*
X33899Y234830D01*
X33995Y234809D01*
X34093Y234791D01*
X34190Y234778D01*
X34289Y234768D01*
X34387Y234762D01*
X34486Y234760D01*
X34486Y234761D02*
X36969Y234761D01*
X56386Y209361D02*
X58249Y209361D01*
X56386Y209361D02*
X56386Y203152D01*
X60111Y203152D01*
X60209Y203154D01*
X60306Y203160D01*
X60403Y203169D01*
X60500Y203183D01*
X60596Y203200D01*
X60691Y203221D01*
X60785Y203245D01*
X60879Y203274D01*
X60971Y203306D01*
X61062Y203341D01*
X61151Y203380D01*
X61239Y203423D01*
X61325Y203469D01*
X61409Y203518D01*
X61491Y203571D01*
X61571Y203626D01*
X61649Y203685D01*
X61724Y203747D01*
X61797Y203812D01*
X61867Y203880D01*
X61935Y203950D01*
X62000Y204023D01*
X62062Y204098D01*
X62121Y204176D01*
X62176Y204256D01*
X62229Y204338D01*
X62278Y204422D01*
X62324Y204508D01*
X62367Y204596D01*
X62406Y204685D01*
X62441Y204776D01*
X62473Y204868D01*
X62502Y204962D01*
X62526Y205056D01*
X62547Y205151D01*
X62564Y205247D01*
X62578Y205344D01*
X62587Y205441D01*
X62593Y205539D01*
X62595Y205636D01*
X62595Y211844D01*
X62593Y211942D01*
X62587Y212039D01*
X62578Y212136D01*
X62564Y212233D01*
X62547Y212329D01*
X62526Y212424D01*
X62502Y212518D01*
X62473Y212612D01*
X62441Y212704D01*
X62406Y212795D01*
X62367Y212884D01*
X62324Y212972D01*
X62278Y213058D01*
X62229Y213142D01*
X62176Y213224D01*
X62121Y213304D01*
X62062Y213382D01*
X62000Y213457D01*
X61935Y213530D01*
X61867Y213600D01*
X61797Y213668D01*
X61724Y213733D01*
X61649Y213795D01*
X61571Y213854D01*
X61491Y213909D01*
X61409Y213962D01*
X61325Y214011D01*
X61239Y214057D01*
X61151Y214100D01*
X61062Y214139D01*
X60971Y214174D01*
X60879Y214206D01*
X60785Y214235D01*
X60691Y214259D01*
X60596Y214280D01*
X60500Y214297D01*
X60403Y214311D01*
X60306Y214320D01*
X60209Y214326D01*
X60111Y214328D01*
X56386Y214328D01*
X50403Y214328D02*
X50403Y203152D01*
X44194Y203152D02*
X50403Y214328D01*
X44194Y214328D02*
X44194Y203152D01*
X38211Y203152D02*
X38211Y214328D01*
X35106Y214328D01*
X34995Y214326D01*
X34885Y214320D01*
X34774Y214310D01*
X34664Y214296D01*
X34555Y214279D01*
X34446Y214257D01*
X34338Y214232D01*
X34232Y214202D01*
X34126Y214169D01*
X34021Y214132D01*
X33918Y214092D01*
X33817Y214047D01*
X33717Y214000D01*
X33618Y213948D01*
X33522Y213893D01*
X33428Y213835D01*
X33336Y213774D01*
X33246Y213709D01*
X33158Y213641D01*
X33073Y213570D01*
X32991Y213496D01*
X32911Y213419D01*
X32834Y213339D01*
X32760Y213257D01*
X32689Y213172D01*
X32621Y213084D01*
X32556Y212994D01*
X32495Y212902D01*
X32437Y212808D01*
X32382Y212712D01*
X32330Y212613D01*
X32283Y212513D01*
X32238Y212412D01*
X32198Y212309D01*
X32161Y212204D01*
X32128Y212098D01*
X32098Y211992D01*
X32073Y211884D01*
X32051Y211775D01*
X32034Y211666D01*
X32020Y211556D01*
X32010Y211445D01*
X32004Y211335D01*
X32002Y211224D01*
X32002Y206256D01*
X32004Y206145D01*
X32010Y206035D01*
X32020Y205924D01*
X32034Y205814D01*
X32051Y205705D01*
X32073Y205596D01*
X32098Y205488D01*
X32128Y205382D01*
X32161Y205276D01*
X32198Y205171D01*
X32238Y205068D01*
X32283Y204967D01*
X32330Y204867D01*
X32382Y204768D01*
X32437Y204672D01*
X32495Y204578D01*
X32556Y204486D01*
X32621Y204396D01*
X32689Y204308D01*
X32760Y204223D01*
X32834Y204141D01*
X32911Y204061D01*
X32991Y203984D01*
X33073Y203910D01*
X33158Y203839D01*
X33246Y203771D01*
X33336Y203706D01*
X33428Y203645D01*
X33522Y203587D01*
X33618Y203532D01*
X33717Y203480D01*
X33817Y203433D01*
X33918Y203388D01*
X34021Y203348D01*
X34126Y203311D01*
X34232Y203278D01*
X34338Y203248D01*
X34446Y203223D01*
X34555Y203201D01*
X34664Y203184D01*
X34774Y203170D01*
X34885Y203160D01*
X34995Y203154D01*
X35106Y203152D01*
X38211Y203152D01*
X225790Y430482D02*
X225790Y441658D01*
X222685Y441658D01*
X222574Y441656D01*
X222464Y441650D01*
X222353Y441640D01*
X222243Y441626D01*
X222134Y441609D01*
X222025Y441587D01*
X221917Y441562D01*
X221811Y441532D01*
X221705Y441499D01*
X221600Y441462D01*
X221497Y441422D01*
X221396Y441377D01*
X221296Y441330D01*
X221197Y441278D01*
X221101Y441223D01*
X221007Y441165D01*
X220915Y441104D01*
X220825Y441039D01*
X220737Y440971D01*
X220652Y440900D01*
X220570Y440826D01*
X220490Y440749D01*
X220413Y440669D01*
X220339Y440587D01*
X220268Y440502D01*
X220200Y440414D01*
X220135Y440324D01*
X220074Y440232D01*
X220016Y440138D01*
X219961Y440042D01*
X219909Y439943D01*
X219862Y439843D01*
X219817Y439742D01*
X219777Y439639D01*
X219740Y439534D01*
X219707Y439428D01*
X219677Y439322D01*
X219652Y439214D01*
X219630Y439105D01*
X219613Y438996D01*
X219599Y438886D01*
X219589Y438775D01*
X219583Y438665D01*
X219581Y438554D01*
X219581Y433586D01*
X219583Y433475D01*
X219589Y433365D01*
X219599Y433254D01*
X219613Y433144D01*
X219630Y433035D01*
X219652Y432926D01*
X219677Y432818D01*
X219707Y432712D01*
X219740Y432606D01*
X219777Y432501D01*
X219817Y432398D01*
X219862Y432297D01*
X219909Y432197D01*
X219961Y432098D01*
X220016Y432002D01*
X220074Y431908D01*
X220135Y431816D01*
X220200Y431726D01*
X220268Y431638D01*
X220339Y431553D01*
X220413Y431471D01*
X220490Y431391D01*
X220570Y431314D01*
X220652Y431240D01*
X220737Y431169D01*
X220825Y431101D01*
X220915Y431036D01*
X221007Y430975D01*
X221101Y430917D01*
X221197Y430862D01*
X221296Y430810D01*
X221396Y430763D01*
X221497Y430718D01*
X221600Y430678D01*
X221705Y430641D01*
X221811Y430608D01*
X221917Y430578D01*
X222025Y430553D01*
X222134Y430531D01*
X222243Y430514D01*
X222353Y430500D01*
X222464Y430490D01*
X222574Y430484D01*
X222685Y430482D01*
X225790Y430482D01*
X213160Y430482D02*
X213160Y441658D01*
X214402Y430482D02*
X211919Y430482D01*
X211919Y441658D02*
X214402Y441658D01*
X207121Y438554D02*
X207121Y433586D01*
X207120Y438554D02*
X207118Y438665D01*
X207112Y438775D01*
X207102Y438886D01*
X207088Y438996D01*
X207071Y439105D01*
X207049Y439214D01*
X207024Y439322D01*
X206994Y439428D01*
X206961Y439534D01*
X206924Y439639D01*
X206884Y439742D01*
X206839Y439843D01*
X206792Y439943D01*
X206740Y440042D01*
X206685Y440138D01*
X206627Y440232D01*
X206566Y440324D01*
X206501Y440414D01*
X206433Y440502D01*
X206362Y440587D01*
X206288Y440669D01*
X206211Y440749D01*
X206131Y440826D01*
X206049Y440900D01*
X205964Y440971D01*
X205876Y441039D01*
X205786Y441104D01*
X205694Y441165D01*
X205600Y441223D01*
X205504Y441278D01*
X205405Y441330D01*
X205305Y441377D01*
X205204Y441422D01*
X205101Y441462D01*
X204996Y441499D01*
X204890Y441532D01*
X204784Y441562D01*
X204676Y441587D01*
X204567Y441609D01*
X204458Y441626D01*
X204348Y441640D01*
X204237Y441650D01*
X204127Y441656D01*
X204016Y441658D01*
X203905Y441656D01*
X203795Y441650D01*
X203684Y441640D01*
X203574Y441626D01*
X203465Y441609D01*
X203356Y441587D01*
X203248Y441562D01*
X203142Y441532D01*
X203036Y441499D01*
X202931Y441462D01*
X202828Y441422D01*
X202727Y441377D01*
X202627Y441330D01*
X202528Y441278D01*
X202432Y441223D01*
X202338Y441165D01*
X202246Y441104D01*
X202156Y441039D01*
X202068Y440971D01*
X201983Y440900D01*
X201901Y440826D01*
X201821Y440749D01*
X201744Y440669D01*
X201670Y440587D01*
X201599Y440502D01*
X201531Y440414D01*
X201466Y440324D01*
X201405Y440232D01*
X201347Y440138D01*
X201292Y440042D01*
X201240Y439943D01*
X201193Y439843D01*
X201148Y439742D01*
X201108Y439639D01*
X201071Y439534D01*
X201038Y439428D01*
X201008Y439322D01*
X200983Y439214D01*
X200961Y439105D01*
X200944Y438996D01*
X200930Y438886D01*
X200920Y438775D01*
X200914Y438665D01*
X200912Y438554D01*
X200912Y433586D01*
X200914Y433475D01*
X200920Y433365D01*
X200930Y433254D01*
X200944Y433144D01*
X200961Y433035D01*
X200983Y432926D01*
X201008Y432818D01*
X201038Y432712D01*
X201071Y432606D01*
X201108Y432501D01*
X201148Y432398D01*
X201193Y432297D01*
X201240Y432197D01*
X201292Y432098D01*
X201347Y432002D01*
X201405Y431908D01*
X201466Y431816D01*
X201531Y431726D01*
X201599Y431638D01*
X201670Y431553D01*
X201744Y431471D01*
X201821Y431391D01*
X201901Y431314D01*
X201983Y431240D01*
X202068Y431169D01*
X202156Y431101D01*
X202246Y431036D01*
X202338Y430975D01*
X202432Y430917D01*
X202528Y430862D01*
X202627Y430810D01*
X202727Y430763D01*
X202828Y430718D01*
X202931Y430678D01*
X203036Y430641D01*
X203142Y430608D01*
X203248Y430578D01*
X203356Y430553D01*
X203465Y430531D01*
X203574Y430514D01*
X203684Y430500D01*
X203795Y430490D01*
X203905Y430484D01*
X204016Y430482D01*
X204127Y430484D01*
X204237Y430490D01*
X204348Y430500D01*
X204458Y430514D01*
X204567Y430531D01*
X204676Y430553D01*
X204784Y430578D01*
X204890Y430608D01*
X204996Y430641D01*
X205101Y430678D01*
X205204Y430718D01*
X205305Y430763D01*
X205405Y430810D01*
X205504Y430862D01*
X205600Y430917D01*
X205694Y430975D01*
X205786Y431036D01*
X205876Y431101D01*
X205964Y431169D01*
X206049Y431240D01*
X206131Y431314D01*
X206211Y431391D01*
X206288Y431471D01*
X206362Y431553D01*
X206433Y431638D01*
X206501Y431726D01*
X206566Y431816D01*
X206627Y431908D01*
X206685Y432002D01*
X206740Y432098D01*
X206792Y432197D01*
X206839Y432297D01*
X206884Y432398D01*
X206924Y432501D01*
X206961Y432606D01*
X206994Y432712D01*
X207024Y432818D01*
X207049Y432926D01*
X207071Y433035D01*
X207088Y433144D01*
X207102Y433254D01*
X207112Y433365D01*
X207118Y433475D01*
X207120Y433586D01*
X192276Y441658D02*
X192172Y441656D01*
X192067Y441650D01*
X191963Y441640D01*
X191860Y441627D01*
X191757Y441609D01*
X191654Y441588D01*
X191553Y441563D01*
X191452Y441534D01*
X191353Y441501D01*
X191255Y441465D01*
X191159Y441425D01*
X191064Y441381D01*
X190970Y441334D01*
X190879Y441284D01*
X190790Y441230D01*
X190702Y441173D01*
X190617Y441112D01*
X190534Y441048D01*
X190454Y440982D01*
X190376Y440912D01*
X190300Y440840D01*
X190228Y440764D01*
X190158Y440686D01*
X190092Y440606D01*
X190028Y440523D01*
X189967Y440438D01*
X189910Y440350D01*
X189856Y440261D01*
X189806Y440170D01*
X189759Y440076D01*
X189715Y439981D01*
X189675Y439885D01*
X189639Y439787D01*
X189606Y439688D01*
X189577Y439587D01*
X189552Y439486D01*
X189531Y439383D01*
X189513Y439280D01*
X189500Y439177D01*
X189490Y439073D01*
X189484Y438968D01*
X189482Y438864D01*
X192276Y441659D02*
X192395Y441657D01*
X192513Y441651D01*
X192632Y441641D01*
X192750Y441628D01*
X192867Y441610D01*
X192984Y441588D01*
X193100Y441563D01*
X193215Y441534D01*
X193330Y441501D01*
X193443Y441464D01*
X193554Y441424D01*
X193665Y441380D01*
X193773Y441332D01*
X193880Y441281D01*
X193986Y441226D01*
X194089Y441167D01*
X194191Y441106D01*
X194290Y441041D01*
X194388Y440972D01*
X194482Y440901D01*
X194575Y440826D01*
X194665Y440749D01*
X194752Y440668D01*
X194837Y440585D01*
X194919Y440499D01*
X194998Y440410D01*
X195074Y440319D01*
X195147Y440225D01*
X195216Y440129D01*
X195283Y440030D01*
X195346Y439930D01*
X195406Y439827D01*
X195463Y439723D01*
X195515Y439616D01*
X195565Y439508D01*
X195611Y439399D01*
X195653Y439287D01*
X195691Y439175D01*
X190413Y436691D02*
X190338Y436765D01*
X190266Y436842D01*
X190196Y436921D01*
X190129Y437003D01*
X190065Y437087D01*
X190004Y437173D01*
X189946Y437261D01*
X189891Y437352D01*
X189839Y437444D01*
X189791Y437538D01*
X189746Y437633D01*
X189704Y437731D01*
X189666Y437829D01*
X189631Y437929D01*
X189600Y438030D01*
X189573Y438132D01*
X189549Y438235D01*
X189528Y438338D01*
X189512Y438443D01*
X189499Y438548D01*
X189489Y438653D01*
X189484Y438758D01*
X189482Y438864D01*
X190413Y436691D02*
X195691Y430482D01*
X189482Y430482D01*
X184261Y432966D02*
X181777Y441658D01*
X184261Y432966D02*
X178052Y432966D01*
X179915Y435449D02*
X179915Y430482D01*
X225790Y416258D02*
X225790Y405082D01*
X225790Y416258D02*
X222685Y416258D01*
X222574Y416256D01*
X222464Y416250D01*
X222353Y416240D01*
X222243Y416226D01*
X222134Y416209D01*
X222025Y416187D01*
X221917Y416162D01*
X221811Y416132D01*
X221705Y416099D01*
X221600Y416062D01*
X221497Y416022D01*
X221396Y415977D01*
X221296Y415930D01*
X221197Y415878D01*
X221101Y415823D01*
X221007Y415765D01*
X220915Y415704D01*
X220825Y415639D01*
X220737Y415571D01*
X220652Y415500D01*
X220570Y415426D01*
X220490Y415349D01*
X220413Y415269D01*
X220339Y415187D01*
X220268Y415102D01*
X220200Y415014D01*
X220135Y414924D01*
X220074Y414832D01*
X220016Y414738D01*
X219961Y414642D01*
X219909Y414543D01*
X219862Y414443D01*
X219817Y414342D01*
X219777Y414239D01*
X219740Y414134D01*
X219707Y414028D01*
X219677Y413922D01*
X219652Y413814D01*
X219630Y413705D01*
X219613Y413596D01*
X219599Y413486D01*
X219589Y413375D01*
X219583Y413265D01*
X219581Y413154D01*
X219581Y408186D01*
X219583Y408075D01*
X219589Y407965D01*
X219599Y407854D01*
X219613Y407744D01*
X219630Y407635D01*
X219652Y407526D01*
X219677Y407418D01*
X219707Y407312D01*
X219740Y407206D01*
X219777Y407101D01*
X219817Y406998D01*
X219862Y406897D01*
X219909Y406797D01*
X219961Y406698D01*
X220016Y406602D01*
X220074Y406508D01*
X220135Y406416D01*
X220200Y406326D01*
X220268Y406238D01*
X220339Y406153D01*
X220413Y406071D01*
X220490Y405991D01*
X220570Y405914D01*
X220652Y405840D01*
X220737Y405769D01*
X220825Y405701D01*
X220915Y405636D01*
X221007Y405575D01*
X221101Y405517D01*
X221197Y405462D01*
X221296Y405410D01*
X221396Y405363D01*
X221497Y405318D01*
X221600Y405278D01*
X221705Y405241D01*
X221811Y405208D01*
X221917Y405178D01*
X222025Y405153D01*
X222134Y405131D01*
X222243Y405114D01*
X222353Y405100D01*
X222464Y405090D01*
X222574Y405084D01*
X222685Y405082D01*
X225790Y405082D01*
X213160Y405082D02*
X213160Y416258D01*
X214402Y405082D02*
X211919Y405082D01*
X211919Y416258D02*
X214402Y416258D01*
X207121Y413154D02*
X207121Y408186D01*
X207120Y413154D02*
X207118Y413265D01*
X207112Y413375D01*
X207102Y413486D01*
X207088Y413596D01*
X207071Y413705D01*
X207049Y413814D01*
X207024Y413922D01*
X206994Y414028D01*
X206961Y414134D01*
X206924Y414239D01*
X206884Y414342D01*
X206839Y414443D01*
X206792Y414543D01*
X206740Y414642D01*
X206685Y414738D01*
X206627Y414832D01*
X206566Y414924D01*
X206501Y415014D01*
X206433Y415102D01*
X206362Y415187D01*
X206288Y415269D01*
X206211Y415349D01*
X206131Y415426D01*
X206049Y415500D01*
X205964Y415571D01*
X205876Y415639D01*
X205786Y415704D01*
X205694Y415765D01*
X205600Y415823D01*
X205504Y415878D01*
X205405Y415930D01*
X205305Y415977D01*
X205204Y416022D01*
X205101Y416062D01*
X204996Y416099D01*
X204890Y416132D01*
X204784Y416162D01*
X204676Y416187D01*
X204567Y416209D01*
X204458Y416226D01*
X204348Y416240D01*
X204237Y416250D01*
X204127Y416256D01*
X204016Y416258D01*
X203905Y416256D01*
X203795Y416250D01*
X203684Y416240D01*
X203574Y416226D01*
X203465Y416209D01*
X203356Y416187D01*
X203248Y416162D01*
X203142Y416132D01*
X203036Y416099D01*
X202931Y416062D01*
X202828Y416022D01*
X202727Y415977D01*
X202627Y415930D01*
X202528Y415878D01*
X202432Y415823D01*
X202338Y415765D01*
X202246Y415704D01*
X202156Y415639D01*
X202068Y415571D01*
X201983Y415500D01*
X201901Y415426D01*
X201821Y415349D01*
X201744Y415269D01*
X201670Y415187D01*
X201599Y415102D01*
X201531Y415014D01*
X201466Y414924D01*
X201405Y414832D01*
X201347Y414738D01*
X201292Y414642D01*
X201240Y414543D01*
X201193Y414443D01*
X201148Y414342D01*
X201108Y414239D01*
X201071Y414134D01*
X201038Y414028D01*
X201008Y413922D01*
X200983Y413814D01*
X200961Y413705D01*
X200944Y413596D01*
X200930Y413486D01*
X200920Y413375D01*
X200914Y413265D01*
X200912Y413154D01*
X200912Y408186D01*
X200914Y408075D01*
X200920Y407965D01*
X200930Y407854D01*
X200944Y407744D01*
X200961Y407635D01*
X200983Y407526D01*
X201008Y407418D01*
X201038Y407312D01*
X201071Y407206D01*
X201108Y407101D01*
X201148Y406998D01*
X201193Y406897D01*
X201240Y406797D01*
X201292Y406698D01*
X201347Y406602D01*
X201405Y406508D01*
X201466Y406416D01*
X201531Y406326D01*
X201599Y406238D01*
X201670Y406153D01*
X201744Y406071D01*
X201821Y405991D01*
X201901Y405914D01*
X201983Y405840D01*
X202068Y405769D01*
X202156Y405701D01*
X202246Y405636D01*
X202338Y405575D01*
X202432Y405517D01*
X202528Y405462D01*
X202627Y405410D01*
X202727Y405363D01*
X202828Y405318D01*
X202931Y405278D01*
X203036Y405241D01*
X203142Y405208D01*
X203248Y405178D01*
X203356Y405153D01*
X203465Y405131D01*
X203574Y405114D01*
X203684Y405100D01*
X203795Y405090D01*
X203905Y405084D01*
X204016Y405082D01*
X204127Y405084D01*
X204237Y405090D01*
X204348Y405100D01*
X204458Y405114D01*
X204567Y405131D01*
X204676Y405153D01*
X204784Y405178D01*
X204890Y405208D01*
X204996Y405241D01*
X205101Y405278D01*
X205204Y405318D01*
X205305Y405363D01*
X205405Y405410D01*
X205504Y405462D01*
X205600Y405517D01*
X205694Y405575D01*
X205786Y405636D01*
X205876Y405701D01*
X205964Y405769D01*
X206049Y405840D01*
X206131Y405914D01*
X206211Y405991D01*
X206288Y406071D01*
X206362Y406153D01*
X206433Y406238D01*
X206501Y406326D01*
X206566Y406416D01*
X206627Y406508D01*
X206685Y406602D01*
X206740Y406698D01*
X206792Y406797D01*
X206839Y406897D01*
X206884Y406998D01*
X206924Y407101D01*
X206961Y407206D01*
X206994Y407312D01*
X207024Y407418D01*
X207049Y407526D01*
X207071Y407635D01*
X207088Y407744D01*
X207102Y407854D01*
X207112Y407965D01*
X207118Y408075D01*
X207120Y408186D01*
X192276Y416258D02*
X192172Y416256D01*
X192067Y416250D01*
X191963Y416240D01*
X191860Y416227D01*
X191757Y416209D01*
X191654Y416188D01*
X191553Y416163D01*
X191452Y416134D01*
X191353Y416101D01*
X191255Y416065D01*
X191159Y416025D01*
X191064Y415981D01*
X190970Y415934D01*
X190879Y415884D01*
X190790Y415830D01*
X190702Y415773D01*
X190617Y415712D01*
X190534Y415648D01*
X190454Y415582D01*
X190376Y415512D01*
X190300Y415440D01*
X190228Y415364D01*
X190158Y415286D01*
X190092Y415206D01*
X190028Y415123D01*
X189967Y415038D01*
X189910Y414950D01*
X189856Y414861D01*
X189806Y414770D01*
X189759Y414676D01*
X189715Y414581D01*
X189675Y414485D01*
X189639Y414387D01*
X189606Y414288D01*
X189577Y414187D01*
X189552Y414086D01*
X189531Y413983D01*
X189513Y413880D01*
X189500Y413777D01*
X189490Y413673D01*
X189484Y413568D01*
X189482Y413464D01*
X192276Y416259D02*
X192395Y416257D01*
X192513Y416251D01*
X192632Y416241D01*
X192750Y416228D01*
X192867Y416210D01*
X192984Y416188D01*
X193100Y416163D01*
X193215Y416134D01*
X193330Y416101D01*
X193443Y416064D01*
X193554Y416024D01*
X193665Y415980D01*
X193773Y415932D01*
X193880Y415881D01*
X193986Y415826D01*
X194089Y415767D01*
X194191Y415706D01*
X194290Y415641D01*
X194388Y415572D01*
X194482Y415501D01*
X194575Y415426D01*
X194665Y415349D01*
X194752Y415268D01*
X194837Y415185D01*
X194919Y415099D01*
X194998Y415010D01*
X195074Y414919D01*
X195147Y414825D01*
X195216Y414729D01*
X195283Y414630D01*
X195346Y414530D01*
X195406Y414427D01*
X195463Y414323D01*
X195515Y414216D01*
X195565Y414108D01*
X195611Y413999D01*
X195653Y413887D01*
X195691Y413775D01*
X190413Y411291D02*
X190338Y411365D01*
X190266Y411442D01*
X190196Y411521D01*
X190129Y411603D01*
X190065Y411687D01*
X190004Y411773D01*
X189946Y411861D01*
X189891Y411952D01*
X189839Y412044D01*
X189791Y412138D01*
X189746Y412233D01*
X189704Y412331D01*
X189666Y412429D01*
X189631Y412529D01*
X189600Y412630D01*
X189573Y412732D01*
X189549Y412835D01*
X189528Y412938D01*
X189512Y413043D01*
X189499Y413148D01*
X189489Y413253D01*
X189484Y413358D01*
X189482Y413464D01*
X190413Y411291D02*
X195691Y405082D01*
X189482Y405082D01*
X184261Y405082D02*
X181156Y405082D01*
X181045Y405084D01*
X180935Y405090D01*
X180824Y405100D01*
X180714Y405114D01*
X180605Y405131D01*
X180496Y405153D01*
X180388Y405178D01*
X180282Y405208D01*
X180176Y405241D01*
X180071Y405278D01*
X179968Y405318D01*
X179867Y405363D01*
X179767Y405410D01*
X179668Y405462D01*
X179572Y405517D01*
X179478Y405575D01*
X179386Y405636D01*
X179296Y405701D01*
X179208Y405769D01*
X179123Y405840D01*
X179041Y405914D01*
X178961Y405991D01*
X178884Y406071D01*
X178810Y406153D01*
X178739Y406238D01*
X178671Y406326D01*
X178606Y406416D01*
X178545Y406508D01*
X178487Y406602D01*
X178432Y406698D01*
X178380Y406797D01*
X178333Y406897D01*
X178288Y406998D01*
X178248Y407101D01*
X178211Y407206D01*
X178178Y407312D01*
X178148Y407418D01*
X178123Y407526D01*
X178101Y407635D01*
X178084Y407744D01*
X178070Y407854D01*
X178060Y407965D01*
X178054Y408075D01*
X178052Y408186D01*
X178054Y408297D01*
X178060Y408407D01*
X178070Y408518D01*
X178084Y408628D01*
X178101Y408737D01*
X178123Y408846D01*
X178148Y408954D01*
X178178Y409060D01*
X178211Y409166D01*
X178248Y409271D01*
X178288Y409374D01*
X178333Y409475D01*
X178380Y409575D01*
X178432Y409674D01*
X178487Y409770D01*
X178545Y409864D01*
X178606Y409956D01*
X178671Y410046D01*
X178739Y410134D01*
X178810Y410219D01*
X178884Y410301D01*
X178961Y410381D01*
X179041Y410458D01*
X179123Y410532D01*
X179208Y410603D01*
X179296Y410671D01*
X179386Y410736D01*
X179478Y410797D01*
X179572Y410855D01*
X179668Y410910D01*
X179767Y410962D01*
X179867Y411009D01*
X179968Y411054D01*
X180071Y411094D01*
X180176Y411131D01*
X180282Y411164D01*
X180388Y411194D01*
X180496Y411219D01*
X180605Y411241D01*
X180714Y411258D01*
X180824Y411272D01*
X180935Y411282D01*
X181045Y411288D01*
X181156Y411290D01*
X180536Y416258D02*
X184261Y416258D01*
X180536Y416258D02*
X180437Y416256D01*
X180339Y416250D01*
X180240Y416240D01*
X180143Y416227D01*
X180045Y416209D01*
X179949Y416188D01*
X179853Y416162D01*
X179759Y416133D01*
X179666Y416101D01*
X179574Y416064D01*
X179484Y416024D01*
X179395Y415980D01*
X179308Y415933D01*
X179223Y415883D01*
X179141Y415829D01*
X179060Y415772D01*
X178982Y415712D01*
X178906Y415648D01*
X178833Y415582D01*
X178762Y415513D01*
X178694Y415441D01*
X178630Y415366D01*
X178568Y415289D01*
X178509Y415210D01*
X178454Y415128D01*
X178401Y415044D01*
X178353Y414959D01*
X178307Y414871D01*
X178265Y414781D01*
X178227Y414690D01*
X178193Y414598D01*
X178162Y414504D01*
X178135Y414409D01*
X178111Y414313D01*
X178092Y414216D01*
X178076Y414119D01*
X178064Y414021D01*
X178056Y413922D01*
X178052Y413823D01*
X178052Y413725D01*
X178056Y413626D01*
X178064Y413527D01*
X178076Y413429D01*
X178092Y413332D01*
X178111Y413235D01*
X178135Y413139D01*
X178162Y413044D01*
X178193Y412950D01*
X178227Y412858D01*
X178265Y412767D01*
X178307Y412677D01*
X178353Y412589D01*
X178401Y412504D01*
X178454Y412420D01*
X178509Y412338D01*
X178568Y412259D01*
X178630Y412182D01*
X178694Y412107D01*
X178762Y412035D01*
X178833Y411966D01*
X178906Y411900D01*
X178982Y411836D01*
X179060Y411776D01*
X179141Y411719D01*
X179223Y411665D01*
X179308Y411615D01*
X179395Y411568D01*
X179484Y411524D01*
X179574Y411484D01*
X179666Y411447D01*
X179759Y411415D01*
X179853Y411386D01*
X179949Y411360D01*
X180045Y411339D01*
X180143Y411321D01*
X180240Y411308D01*
X180339Y411298D01*
X180437Y411292D01*
X180536Y411290D01*
X180536Y411291D02*
X183019Y411291D01*
X225790Y390858D02*
X225790Y379682D01*
X225790Y390858D02*
X222685Y390858D01*
X222574Y390856D01*
X222464Y390850D01*
X222353Y390840D01*
X222243Y390826D01*
X222134Y390809D01*
X222025Y390787D01*
X221917Y390762D01*
X221811Y390732D01*
X221705Y390699D01*
X221600Y390662D01*
X221497Y390622D01*
X221396Y390577D01*
X221296Y390530D01*
X221197Y390478D01*
X221101Y390423D01*
X221007Y390365D01*
X220915Y390304D01*
X220825Y390239D01*
X220737Y390171D01*
X220652Y390100D01*
X220570Y390026D01*
X220490Y389949D01*
X220413Y389869D01*
X220339Y389787D01*
X220268Y389702D01*
X220200Y389614D01*
X220135Y389524D01*
X220074Y389432D01*
X220016Y389338D01*
X219961Y389242D01*
X219909Y389143D01*
X219862Y389043D01*
X219817Y388942D01*
X219777Y388839D01*
X219740Y388734D01*
X219707Y388628D01*
X219677Y388522D01*
X219652Y388414D01*
X219630Y388305D01*
X219613Y388196D01*
X219599Y388086D01*
X219589Y387975D01*
X219583Y387865D01*
X219581Y387754D01*
X219581Y382786D01*
X219583Y382675D01*
X219589Y382565D01*
X219599Y382454D01*
X219613Y382344D01*
X219630Y382235D01*
X219652Y382126D01*
X219677Y382018D01*
X219707Y381912D01*
X219740Y381806D01*
X219777Y381701D01*
X219817Y381598D01*
X219862Y381497D01*
X219909Y381397D01*
X219961Y381298D01*
X220016Y381202D01*
X220074Y381108D01*
X220135Y381016D01*
X220200Y380926D01*
X220268Y380838D01*
X220339Y380753D01*
X220413Y380671D01*
X220490Y380591D01*
X220570Y380514D01*
X220652Y380440D01*
X220737Y380369D01*
X220825Y380301D01*
X220915Y380236D01*
X221007Y380175D01*
X221101Y380117D01*
X221197Y380062D01*
X221296Y380010D01*
X221396Y379963D01*
X221497Y379918D01*
X221600Y379878D01*
X221705Y379841D01*
X221811Y379808D01*
X221917Y379778D01*
X222025Y379753D01*
X222134Y379731D01*
X222243Y379714D01*
X222353Y379700D01*
X222464Y379690D01*
X222574Y379684D01*
X222685Y379682D01*
X225790Y379682D01*
X213160Y379682D02*
X213160Y390858D01*
X214402Y379682D02*
X211919Y379682D01*
X211919Y390858D02*
X214402Y390858D01*
X207121Y387754D02*
X207121Y382786D01*
X207120Y387754D02*
X207118Y387865D01*
X207112Y387975D01*
X207102Y388086D01*
X207088Y388196D01*
X207071Y388305D01*
X207049Y388414D01*
X207024Y388522D01*
X206994Y388628D01*
X206961Y388734D01*
X206924Y388839D01*
X206884Y388942D01*
X206839Y389043D01*
X206792Y389143D01*
X206740Y389242D01*
X206685Y389338D01*
X206627Y389432D01*
X206566Y389524D01*
X206501Y389614D01*
X206433Y389702D01*
X206362Y389787D01*
X206288Y389869D01*
X206211Y389949D01*
X206131Y390026D01*
X206049Y390100D01*
X205964Y390171D01*
X205876Y390239D01*
X205786Y390304D01*
X205694Y390365D01*
X205600Y390423D01*
X205504Y390478D01*
X205405Y390530D01*
X205305Y390577D01*
X205204Y390622D01*
X205101Y390662D01*
X204996Y390699D01*
X204890Y390732D01*
X204784Y390762D01*
X204676Y390787D01*
X204567Y390809D01*
X204458Y390826D01*
X204348Y390840D01*
X204237Y390850D01*
X204127Y390856D01*
X204016Y390858D01*
X203905Y390856D01*
X203795Y390850D01*
X203684Y390840D01*
X203574Y390826D01*
X203465Y390809D01*
X203356Y390787D01*
X203248Y390762D01*
X203142Y390732D01*
X203036Y390699D01*
X202931Y390662D01*
X202828Y390622D01*
X202727Y390577D01*
X202627Y390530D01*
X202528Y390478D01*
X202432Y390423D01*
X202338Y390365D01*
X202246Y390304D01*
X202156Y390239D01*
X202068Y390171D01*
X201983Y390100D01*
X201901Y390026D01*
X201821Y389949D01*
X201744Y389869D01*
X201670Y389787D01*
X201599Y389702D01*
X201531Y389614D01*
X201466Y389524D01*
X201405Y389432D01*
X201347Y389338D01*
X201292Y389242D01*
X201240Y389143D01*
X201193Y389043D01*
X201148Y388942D01*
X201108Y388839D01*
X201071Y388734D01*
X201038Y388628D01*
X201008Y388522D01*
X200983Y388414D01*
X200961Y388305D01*
X200944Y388196D01*
X200930Y388086D01*
X200920Y387975D01*
X200914Y387865D01*
X200912Y387754D01*
X200912Y382786D01*
X200914Y382675D01*
X200920Y382565D01*
X200930Y382454D01*
X200944Y382344D01*
X200961Y382235D01*
X200983Y382126D01*
X201008Y382018D01*
X201038Y381912D01*
X201071Y381806D01*
X201108Y381701D01*
X201148Y381598D01*
X201193Y381497D01*
X201240Y381397D01*
X201292Y381298D01*
X201347Y381202D01*
X201405Y381108D01*
X201466Y381016D01*
X201531Y380926D01*
X201599Y380838D01*
X201670Y380753D01*
X201744Y380671D01*
X201821Y380591D01*
X201901Y380514D01*
X201983Y380440D01*
X202068Y380369D01*
X202156Y380301D01*
X202246Y380236D01*
X202338Y380175D01*
X202432Y380117D01*
X202528Y380062D01*
X202627Y380010D01*
X202727Y379963D01*
X202828Y379918D01*
X202931Y379878D01*
X203036Y379841D01*
X203142Y379808D01*
X203248Y379778D01*
X203356Y379753D01*
X203465Y379731D01*
X203574Y379714D01*
X203684Y379700D01*
X203795Y379690D01*
X203905Y379684D01*
X204016Y379682D01*
X204127Y379684D01*
X204237Y379690D01*
X204348Y379700D01*
X204458Y379714D01*
X204567Y379731D01*
X204676Y379753D01*
X204784Y379778D01*
X204890Y379808D01*
X204996Y379841D01*
X205101Y379878D01*
X205204Y379918D01*
X205305Y379963D01*
X205405Y380010D01*
X205504Y380062D01*
X205600Y380117D01*
X205694Y380175D01*
X205786Y380236D01*
X205876Y380301D01*
X205964Y380369D01*
X206049Y380440D01*
X206131Y380514D01*
X206211Y380591D01*
X206288Y380671D01*
X206362Y380753D01*
X206433Y380838D01*
X206501Y380926D01*
X206566Y381016D01*
X206627Y381108D01*
X206685Y381202D01*
X206740Y381298D01*
X206792Y381397D01*
X206839Y381497D01*
X206884Y381598D01*
X206924Y381701D01*
X206961Y381806D01*
X206994Y381912D01*
X207024Y382018D01*
X207049Y382126D01*
X207071Y382235D01*
X207088Y382344D01*
X207102Y382454D01*
X207112Y382565D01*
X207118Y382675D01*
X207120Y382786D01*
X192276Y390858D02*
X192172Y390856D01*
X192067Y390850D01*
X191963Y390840D01*
X191860Y390827D01*
X191757Y390809D01*
X191654Y390788D01*
X191553Y390763D01*
X191452Y390734D01*
X191353Y390701D01*
X191255Y390665D01*
X191159Y390625D01*
X191064Y390581D01*
X190970Y390534D01*
X190879Y390484D01*
X190790Y390430D01*
X190702Y390373D01*
X190617Y390312D01*
X190534Y390248D01*
X190454Y390182D01*
X190376Y390112D01*
X190300Y390040D01*
X190228Y389964D01*
X190158Y389886D01*
X190092Y389806D01*
X190028Y389723D01*
X189967Y389638D01*
X189910Y389550D01*
X189856Y389461D01*
X189806Y389370D01*
X189759Y389276D01*
X189715Y389181D01*
X189675Y389085D01*
X189639Y388987D01*
X189606Y388888D01*
X189577Y388787D01*
X189552Y388686D01*
X189531Y388583D01*
X189513Y388480D01*
X189500Y388377D01*
X189490Y388273D01*
X189484Y388168D01*
X189482Y388064D01*
X192276Y390859D02*
X192395Y390857D01*
X192513Y390851D01*
X192632Y390841D01*
X192750Y390828D01*
X192867Y390810D01*
X192984Y390788D01*
X193100Y390763D01*
X193215Y390734D01*
X193330Y390701D01*
X193443Y390664D01*
X193554Y390624D01*
X193665Y390580D01*
X193773Y390532D01*
X193880Y390481D01*
X193986Y390426D01*
X194089Y390367D01*
X194191Y390306D01*
X194290Y390241D01*
X194388Y390172D01*
X194482Y390101D01*
X194575Y390026D01*
X194665Y389949D01*
X194752Y389868D01*
X194837Y389785D01*
X194919Y389699D01*
X194998Y389610D01*
X195074Y389519D01*
X195147Y389425D01*
X195216Y389329D01*
X195283Y389230D01*
X195346Y389130D01*
X195406Y389027D01*
X195463Y388923D01*
X195515Y388816D01*
X195565Y388708D01*
X195611Y388599D01*
X195653Y388487D01*
X195691Y388375D01*
X190413Y385891D02*
X190338Y385965D01*
X190266Y386042D01*
X190196Y386121D01*
X190129Y386203D01*
X190065Y386287D01*
X190004Y386373D01*
X189946Y386461D01*
X189891Y386552D01*
X189839Y386644D01*
X189791Y386738D01*
X189746Y386833D01*
X189704Y386931D01*
X189666Y387029D01*
X189631Y387129D01*
X189600Y387230D01*
X189573Y387332D01*
X189549Y387435D01*
X189528Y387538D01*
X189512Y387643D01*
X189499Y387748D01*
X189489Y387853D01*
X189484Y387958D01*
X189482Y388064D01*
X190413Y385891D02*
X195691Y379682D01*
X189482Y379682D01*
X180846Y390858D02*
X180742Y390856D01*
X180637Y390850D01*
X180533Y390840D01*
X180430Y390827D01*
X180327Y390809D01*
X180224Y390788D01*
X180123Y390763D01*
X180022Y390734D01*
X179923Y390701D01*
X179825Y390665D01*
X179729Y390625D01*
X179634Y390581D01*
X179540Y390534D01*
X179449Y390484D01*
X179360Y390430D01*
X179272Y390373D01*
X179187Y390312D01*
X179104Y390248D01*
X179024Y390182D01*
X178946Y390112D01*
X178870Y390040D01*
X178798Y389964D01*
X178728Y389886D01*
X178662Y389806D01*
X178598Y389723D01*
X178537Y389638D01*
X178480Y389550D01*
X178426Y389461D01*
X178376Y389370D01*
X178329Y389276D01*
X178285Y389181D01*
X178245Y389085D01*
X178209Y388987D01*
X178176Y388888D01*
X178147Y388787D01*
X178122Y388686D01*
X178101Y388583D01*
X178083Y388480D01*
X178070Y388377D01*
X178060Y388273D01*
X178054Y388168D01*
X178052Y388064D01*
X180846Y390859D02*
X180965Y390857D01*
X181083Y390851D01*
X181202Y390841D01*
X181320Y390828D01*
X181437Y390810D01*
X181554Y390788D01*
X181670Y390763D01*
X181785Y390734D01*
X181900Y390701D01*
X182013Y390664D01*
X182124Y390624D01*
X182235Y390580D01*
X182343Y390532D01*
X182450Y390481D01*
X182556Y390426D01*
X182659Y390367D01*
X182761Y390306D01*
X182860Y390241D01*
X182958Y390172D01*
X183052Y390101D01*
X183145Y390026D01*
X183235Y389949D01*
X183322Y389868D01*
X183407Y389785D01*
X183489Y389699D01*
X183568Y389610D01*
X183644Y389519D01*
X183717Y389425D01*
X183786Y389329D01*
X183853Y389230D01*
X183916Y389130D01*
X183976Y389027D01*
X184033Y388923D01*
X184085Y388816D01*
X184135Y388708D01*
X184181Y388599D01*
X184223Y388487D01*
X184261Y388375D01*
X178983Y385891D02*
X178908Y385965D01*
X178836Y386042D01*
X178766Y386121D01*
X178699Y386203D01*
X178635Y386287D01*
X178574Y386373D01*
X178516Y386461D01*
X178461Y386552D01*
X178409Y386644D01*
X178361Y386738D01*
X178316Y386833D01*
X178274Y386931D01*
X178236Y387029D01*
X178201Y387129D01*
X178170Y387230D01*
X178143Y387332D01*
X178119Y387435D01*
X178098Y387538D01*
X178082Y387643D01*
X178069Y387748D01*
X178059Y387853D01*
X178054Y387958D01*
X178052Y388064D01*
X178983Y385891D02*
X184261Y379682D01*
X178052Y379682D01*
X225790Y365458D02*
X225790Y354282D01*
X225790Y365458D02*
X222685Y365458D01*
X222574Y365456D01*
X222464Y365450D01*
X222353Y365440D01*
X222243Y365426D01*
X222134Y365409D01*
X222025Y365387D01*
X221917Y365362D01*
X221811Y365332D01*
X221705Y365299D01*
X221600Y365262D01*
X221497Y365222D01*
X221396Y365177D01*
X221296Y365130D01*
X221197Y365078D01*
X221101Y365023D01*
X221007Y364965D01*
X220915Y364904D01*
X220825Y364839D01*
X220737Y364771D01*
X220652Y364700D01*
X220570Y364626D01*
X220490Y364549D01*
X220413Y364469D01*
X220339Y364387D01*
X220268Y364302D01*
X220200Y364214D01*
X220135Y364124D01*
X220074Y364032D01*
X220016Y363938D01*
X219961Y363842D01*
X219909Y363743D01*
X219862Y363643D01*
X219817Y363542D01*
X219777Y363439D01*
X219740Y363334D01*
X219707Y363228D01*
X219677Y363122D01*
X219652Y363014D01*
X219630Y362905D01*
X219613Y362796D01*
X219599Y362686D01*
X219589Y362575D01*
X219583Y362465D01*
X219581Y362354D01*
X219581Y357386D01*
X219583Y357275D01*
X219589Y357165D01*
X219599Y357054D01*
X219613Y356944D01*
X219630Y356835D01*
X219652Y356726D01*
X219677Y356618D01*
X219707Y356512D01*
X219740Y356406D01*
X219777Y356301D01*
X219817Y356198D01*
X219862Y356097D01*
X219909Y355997D01*
X219961Y355898D01*
X220016Y355802D01*
X220074Y355708D01*
X220135Y355616D01*
X220200Y355526D01*
X220268Y355438D01*
X220339Y355353D01*
X220413Y355271D01*
X220490Y355191D01*
X220570Y355114D01*
X220652Y355040D01*
X220737Y354969D01*
X220825Y354901D01*
X220915Y354836D01*
X221007Y354775D01*
X221101Y354717D01*
X221197Y354662D01*
X221296Y354610D01*
X221396Y354563D01*
X221497Y354518D01*
X221600Y354478D01*
X221705Y354441D01*
X221811Y354408D01*
X221917Y354378D01*
X222025Y354353D01*
X222134Y354331D01*
X222243Y354314D01*
X222353Y354300D01*
X222464Y354290D01*
X222574Y354284D01*
X222685Y354282D01*
X225790Y354282D01*
X213160Y354282D02*
X213160Y365458D01*
X214402Y354282D02*
X211919Y354282D01*
X211919Y365458D02*
X214402Y365458D01*
X207121Y362354D02*
X207121Y357386D01*
X207120Y362354D02*
X207118Y362465D01*
X207112Y362575D01*
X207102Y362686D01*
X207088Y362796D01*
X207071Y362905D01*
X207049Y363014D01*
X207024Y363122D01*
X206994Y363228D01*
X206961Y363334D01*
X206924Y363439D01*
X206884Y363542D01*
X206839Y363643D01*
X206792Y363743D01*
X206740Y363842D01*
X206685Y363938D01*
X206627Y364032D01*
X206566Y364124D01*
X206501Y364214D01*
X206433Y364302D01*
X206362Y364387D01*
X206288Y364469D01*
X206211Y364549D01*
X206131Y364626D01*
X206049Y364700D01*
X205964Y364771D01*
X205876Y364839D01*
X205786Y364904D01*
X205694Y364965D01*
X205600Y365023D01*
X205504Y365078D01*
X205405Y365130D01*
X205305Y365177D01*
X205204Y365222D01*
X205101Y365262D01*
X204996Y365299D01*
X204890Y365332D01*
X204784Y365362D01*
X204676Y365387D01*
X204567Y365409D01*
X204458Y365426D01*
X204348Y365440D01*
X204237Y365450D01*
X204127Y365456D01*
X204016Y365458D01*
X203905Y365456D01*
X203795Y365450D01*
X203684Y365440D01*
X203574Y365426D01*
X203465Y365409D01*
X203356Y365387D01*
X203248Y365362D01*
X203142Y365332D01*
X203036Y365299D01*
X202931Y365262D01*
X202828Y365222D01*
X202727Y365177D01*
X202627Y365130D01*
X202528Y365078D01*
X202432Y365023D01*
X202338Y364965D01*
X202246Y364904D01*
X202156Y364839D01*
X202068Y364771D01*
X201983Y364700D01*
X201901Y364626D01*
X201821Y364549D01*
X201744Y364469D01*
X201670Y364387D01*
X201599Y364302D01*
X201531Y364214D01*
X201466Y364124D01*
X201405Y364032D01*
X201347Y363938D01*
X201292Y363842D01*
X201240Y363743D01*
X201193Y363643D01*
X201148Y363542D01*
X201108Y363439D01*
X201071Y363334D01*
X201038Y363228D01*
X201008Y363122D01*
X200983Y363014D01*
X200961Y362905D01*
X200944Y362796D01*
X200930Y362686D01*
X200920Y362575D01*
X200914Y362465D01*
X200912Y362354D01*
X200912Y357386D01*
X200914Y357275D01*
X200920Y357165D01*
X200930Y357054D01*
X200944Y356944D01*
X200961Y356835D01*
X200983Y356726D01*
X201008Y356618D01*
X201038Y356512D01*
X201071Y356406D01*
X201108Y356301D01*
X201148Y356198D01*
X201193Y356097D01*
X201240Y355997D01*
X201292Y355898D01*
X201347Y355802D01*
X201405Y355708D01*
X201466Y355616D01*
X201531Y355526D01*
X201599Y355438D01*
X201670Y355353D01*
X201744Y355271D01*
X201821Y355191D01*
X201901Y355114D01*
X201983Y355040D01*
X202068Y354969D01*
X202156Y354901D01*
X202246Y354836D01*
X202338Y354775D01*
X202432Y354717D01*
X202528Y354662D01*
X202627Y354610D01*
X202727Y354563D01*
X202828Y354518D01*
X202931Y354478D01*
X203036Y354441D01*
X203142Y354408D01*
X203248Y354378D01*
X203356Y354353D01*
X203465Y354331D01*
X203574Y354314D01*
X203684Y354300D01*
X203795Y354290D01*
X203905Y354284D01*
X204016Y354282D01*
X204127Y354284D01*
X204237Y354290D01*
X204348Y354300D01*
X204458Y354314D01*
X204567Y354331D01*
X204676Y354353D01*
X204784Y354378D01*
X204890Y354408D01*
X204996Y354441D01*
X205101Y354478D01*
X205204Y354518D01*
X205305Y354563D01*
X205405Y354610D01*
X205504Y354662D01*
X205600Y354717D01*
X205694Y354775D01*
X205786Y354836D01*
X205876Y354901D01*
X205964Y354969D01*
X206049Y355040D01*
X206131Y355114D01*
X206211Y355191D01*
X206288Y355271D01*
X206362Y355353D01*
X206433Y355438D01*
X206501Y355526D01*
X206566Y355616D01*
X206627Y355708D01*
X206685Y355802D01*
X206740Y355898D01*
X206792Y355997D01*
X206839Y356097D01*
X206884Y356198D01*
X206924Y356301D01*
X206961Y356406D01*
X206994Y356512D01*
X207024Y356618D01*
X207049Y356726D01*
X207071Y356835D01*
X207088Y356944D01*
X207102Y357054D01*
X207112Y357165D01*
X207118Y357275D01*
X207120Y357386D01*
X192276Y365458D02*
X192172Y365456D01*
X192067Y365450D01*
X191963Y365440D01*
X191860Y365427D01*
X191757Y365409D01*
X191654Y365388D01*
X191553Y365363D01*
X191452Y365334D01*
X191353Y365301D01*
X191255Y365265D01*
X191159Y365225D01*
X191064Y365181D01*
X190970Y365134D01*
X190879Y365084D01*
X190790Y365030D01*
X190702Y364973D01*
X190617Y364912D01*
X190534Y364848D01*
X190454Y364782D01*
X190376Y364712D01*
X190300Y364640D01*
X190228Y364564D01*
X190158Y364486D01*
X190092Y364406D01*
X190028Y364323D01*
X189967Y364238D01*
X189910Y364150D01*
X189856Y364061D01*
X189806Y363970D01*
X189759Y363876D01*
X189715Y363781D01*
X189675Y363685D01*
X189639Y363587D01*
X189606Y363488D01*
X189577Y363387D01*
X189552Y363286D01*
X189531Y363183D01*
X189513Y363080D01*
X189500Y362977D01*
X189490Y362873D01*
X189484Y362768D01*
X189482Y362664D01*
X192276Y365459D02*
X192395Y365457D01*
X192513Y365451D01*
X192632Y365441D01*
X192750Y365428D01*
X192867Y365410D01*
X192984Y365388D01*
X193100Y365363D01*
X193215Y365334D01*
X193330Y365301D01*
X193443Y365264D01*
X193554Y365224D01*
X193665Y365180D01*
X193773Y365132D01*
X193880Y365081D01*
X193986Y365026D01*
X194089Y364967D01*
X194191Y364906D01*
X194290Y364841D01*
X194388Y364772D01*
X194482Y364701D01*
X194575Y364626D01*
X194665Y364549D01*
X194752Y364468D01*
X194837Y364385D01*
X194919Y364299D01*
X194998Y364210D01*
X195074Y364119D01*
X195147Y364025D01*
X195216Y363929D01*
X195283Y363830D01*
X195346Y363730D01*
X195406Y363627D01*
X195463Y363523D01*
X195515Y363416D01*
X195565Y363308D01*
X195611Y363199D01*
X195653Y363087D01*
X195691Y362975D01*
X190413Y360491D02*
X190338Y360565D01*
X190266Y360642D01*
X190196Y360721D01*
X190129Y360803D01*
X190065Y360887D01*
X190004Y360973D01*
X189946Y361061D01*
X189891Y361152D01*
X189839Y361244D01*
X189791Y361338D01*
X189746Y361433D01*
X189704Y361531D01*
X189666Y361629D01*
X189631Y361729D01*
X189600Y361830D01*
X189573Y361932D01*
X189549Y362035D01*
X189528Y362138D01*
X189512Y362243D01*
X189499Y362348D01*
X189489Y362453D01*
X189484Y362558D01*
X189482Y362664D01*
X190413Y360491D02*
X195691Y354282D01*
X189482Y354282D01*
X184261Y362974D02*
X181156Y365458D01*
X181156Y354282D01*
X178052Y354282D02*
X184261Y354282D01*
X225790Y340058D02*
X225790Y328882D01*
X225790Y340058D02*
X222685Y340058D01*
X222574Y340056D01*
X222464Y340050D01*
X222353Y340040D01*
X222243Y340026D01*
X222134Y340009D01*
X222025Y339987D01*
X221917Y339962D01*
X221811Y339932D01*
X221705Y339899D01*
X221600Y339862D01*
X221497Y339822D01*
X221396Y339777D01*
X221296Y339730D01*
X221197Y339678D01*
X221101Y339623D01*
X221007Y339565D01*
X220915Y339504D01*
X220825Y339439D01*
X220737Y339371D01*
X220652Y339300D01*
X220570Y339226D01*
X220490Y339149D01*
X220413Y339069D01*
X220339Y338987D01*
X220268Y338902D01*
X220200Y338814D01*
X220135Y338724D01*
X220074Y338632D01*
X220016Y338538D01*
X219961Y338442D01*
X219909Y338343D01*
X219862Y338243D01*
X219817Y338142D01*
X219777Y338039D01*
X219740Y337934D01*
X219707Y337828D01*
X219677Y337722D01*
X219652Y337614D01*
X219630Y337505D01*
X219613Y337396D01*
X219599Y337286D01*
X219589Y337175D01*
X219583Y337065D01*
X219581Y336954D01*
X219581Y331986D01*
X219583Y331875D01*
X219589Y331765D01*
X219599Y331654D01*
X219613Y331544D01*
X219630Y331435D01*
X219652Y331326D01*
X219677Y331218D01*
X219707Y331112D01*
X219740Y331006D01*
X219777Y330901D01*
X219817Y330798D01*
X219862Y330697D01*
X219909Y330597D01*
X219961Y330498D01*
X220016Y330402D01*
X220074Y330308D01*
X220135Y330216D01*
X220200Y330126D01*
X220268Y330038D01*
X220339Y329953D01*
X220413Y329871D01*
X220490Y329791D01*
X220570Y329714D01*
X220652Y329640D01*
X220737Y329569D01*
X220825Y329501D01*
X220915Y329436D01*
X221007Y329375D01*
X221101Y329317D01*
X221197Y329262D01*
X221296Y329210D01*
X221396Y329163D01*
X221497Y329118D01*
X221600Y329078D01*
X221705Y329041D01*
X221811Y329008D01*
X221917Y328978D01*
X222025Y328953D01*
X222134Y328931D01*
X222243Y328914D01*
X222353Y328900D01*
X222464Y328890D01*
X222574Y328884D01*
X222685Y328882D01*
X225790Y328882D01*
X213160Y328882D02*
X213160Y340058D01*
X214402Y328882D02*
X211919Y328882D01*
X211919Y340058D02*
X214402Y340058D01*
X207121Y336954D02*
X207121Y331986D01*
X207120Y336954D02*
X207118Y337065D01*
X207112Y337175D01*
X207102Y337286D01*
X207088Y337396D01*
X207071Y337505D01*
X207049Y337614D01*
X207024Y337722D01*
X206994Y337828D01*
X206961Y337934D01*
X206924Y338039D01*
X206884Y338142D01*
X206839Y338243D01*
X206792Y338343D01*
X206740Y338442D01*
X206685Y338538D01*
X206627Y338632D01*
X206566Y338724D01*
X206501Y338814D01*
X206433Y338902D01*
X206362Y338987D01*
X206288Y339069D01*
X206211Y339149D01*
X206131Y339226D01*
X206049Y339300D01*
X205964Y339371D01*
X205876Y339439D01*
X205786Y339504D01*
X205694Y339565D01*
X205600Y339623D01*
X205504Y339678D01*
X205405Y339730D01*
X205305Y339777D01*
X205204Y339822D01*
X205101Y339862D01*
X204996Y339899D01*
X204890Y339932D01*
X204784Y339962D01*
X204676Y339987D01*
X204567Y340009D01*
X204458Y340026D01*
X204348Y340040D01*
X204237Y340050D01*
X204127Y340056D01*
X204016Y340058D01*
X203905Y340056D01*
X203795Y340050D01*
X203684Y340040D01*
X203574Y340026D01*
X203465Y340009D01*
X203356Y339987D01*
X203248Y339962D01*
X203142Y339932D01*
X203036Y339899D01*
X202931Y339862D01*
X202828Y339822D01*
X202727Y339777D01*
X202627Y339730D01*
X202528Y339678D01*
X202432Y339623D01*
X202338Y339565D01*
X202246Y339504D01*
X202156Y339439D01*
X202068Y339371D01*
X201983Y339300D01*
X201901Y339226D01*
X201821Y339149D01*
X201744Y339069D01*
X201670Y338987D01*
X201599Y338902D01*
X201531Y338814D01*
X201466Y338724D01*
X201405Y338632D01*
X201347Y338538D01*
X201292Y338442D01*
X201240Y338343D01*
X201193Y338243D01*
X201148Y338142D01*
X201108Y338039D01*
X201071Y337934D01*
X201038Y337828D01*
X201008Y337722D01*
X200983Y337614D01*
X200961Y337505D01*
X200944Y337396D01*
X200930Y337286D01*
X200920Y337175D01*
X200914Y337065D01*
X200912Y336954D01*
X200912Y331986D01*
X200914Y331875D01*
X200920Y331765D01*
X200930Y331654D01*
X200944Y331544D01*
X200961Y331435D01*
X200983Y331326D01*
X201008Y331218D01*
X201038Y331112D01*
X201071Y331006D01*
X201108Y330901D01*
X201148Y330798D01*
X201193Y330697D01*
X201240Y330597D01*
X201292Y330498D01*
X201347Y330402D01*
X201405Y330308D01*
X201466Y330216D01*
X201531Y330126D01*
X201599Y330038D01*
X201670Y329953D01*
X201744Y329871D01*
X201821Y329791D01*
X201901Y329714D01*
X201983Y329640D01*
X202068Y329569D01*
X202156Y329501D01*
X202246Y329436D01*
X202338Y329375D01*
X202432Y329317D01*
X202528Y329262D01*
X202627Y329210D01*
X202727Y329163D01*
X202828Y329118D01*
X202931Y329078D01*
X203036Y329041D01*
X203142Y329008D01*
X203248Y328978D01*
X203356Y328953D01*
X203465Y328931D01*
X203574Y328914D01*
X203684Y328900D01*
X203795Y328890D01*
X203905Y328884D01*
X204016Y328882D01*
X204127Y328884D01*
X204237Y328890D01*
X204348Y328900D01*
X204458Y328914D01*
X204567Y328931D01*
X204676Y328953D01*
X204784Y328978D01*
X204890Y329008D01*
X204996Y329041D01*
X205101Y329078D01*
X205204Y329118D01*
X205305Y329163D01*
X205405Y329210D01*
X205504Y329262D01*
X205600Y329317D01*
X205694Y329375D01*
X205786Y329436D01*
X205876Y329501D01*
X205964Y329569D01*
X206049Y329640D01*
X206131Y329714D01*
X206211Y329791D01*
X206288Y329871D01*
X206362Y329953D01*
X206433Y330038D01*
X206501Y330126D01*
X206566Y330216D01*
X206627Y330308D01*
X206685Y330402D01*
X206740Y330498D01*
X206792Y330597D01*
X206839Y330697D01*
X206884Y330798D01*
X206924Y330901D01*
X206961Y331006D01*
X206994Y331112D01*
X207024Y331218D01*
X207049Y331326D01*
X207071Y331435D01*
X207088Y331544D01*
X207102Y331654D01*
X207112Y331765D01*
X207118Y331875D01*
X207120Y331986D01*
X195691Y337574D02*
X192586Y340058D01*
X192586Y328882D01*
X189482Y328882D02*
X195691Y328882D01*
X181777Y333849D02*
X178052Y333849D01*
X181777Y333849D02*
X181875Y333851D01*
X181972Y333857D01*
X182069Y333866D01*
X182166Y333880D01*
X182262Y333897D01*
X182357Y333918D01*
X182451Y333942D01*
X182545Y333971D01*
X182637Y334003D01*
X182728Y334038D01*
X182817Y334077D01*
X182905Y334120D01*
X182991Y334166D01*
X183075Y334215D01*
X183157Y334268D01*
X183237Y334323D01*
X183315Y334382D01*
X183390Y334444D01*
X183463Y334509D01*
X183533Y334577D01*
X183601Y334647D01*
X183666Y334720D01*
X183728Y334795D01*
X183787Y334873D01*
X183842Y334953D01*
X183895Y335035D01*
X183944Y335119D01*
X183990Y335205D01*
X184033Y335293D01*
X184072Y335382D01*
X184107Y335473D01*
X184139Y335565D01*
X184168Y335659D01*
X184192Y335753D01*
X184213Y335848D01*
X184230Y335944D01*
X184244Y336041D01*
X184253Y336138D01*
X184259Y336236D01*
X184261Y336333D01*
X184261Y336954D01*
X184260Y336954D02*
X184258Y337065D01*
X184252Y337175D01*
X184242Y337286D01*
X184228Y337396D01*
X184211Y337505D01*
X184189Y337614D01*
X184164Y337722D01*
X184134Y337828D01*
X184101Y337934D01*
X184064Y338039D01*
X184024Y338142D01*
X183979Y338243D01*
X183932Y338343D01*
X183880Y338442D01*
X183825Y338538D01*
X183767Y338632D01*
X183706Y338724D01*
X183641Y338814D01*
X183573Y338902D01*
X183502Y338987D01*
X183428Y339069D01*
X183351Y339149D01*
X183271Y339226D01*
X183189Y339300D01*
X183104Y339371D01*
X183016Y339439D01*
X182926Y339504D01*
X182834Y339565D01*
X182740Y339623D01*
X182644Y339678D01*
X182545Y339730D01*
X182445Y339777D01*
X182344Y339822D01*
X182241Y339862D01*
X182136Y339899D01*
X182030Y339932D01*
X181924Y339962D01*
X181816Y339987D01*
X181707Y340009D01*
X181598Y340026D01*
X181488Y340040D01*
X181377Y340050D01*
X181267Y340056D01*
X181156Y340058D01*
X181045Y340056D01*
X180935Y340050D01*
X180824Y340040D01*
X180714Y340026D01*
X180605Y340009D01*
X180496Y339987D01*
X180388Y339962D01*
X180282Y339932D01*
X180176Y339899D01*
X180071Y339862D01*
X179968Y339822D01*
X179867Y339777D01*
X179767Y339730D01*
X179668Y339678D01*
X179572Y339623D01*
X179478Y339565D01*
X179386Y339504D01*
X179296Y339439D01*
X179208Y339371D01*
X179123Y339300D01*
X179041Y339226D01*
X178961Y339149D01*
X178884Y339069D01*
X178810Y338987D01*
X178739Y338902D01*
X178671Y338814D01*
X178606Y338724D01*
X178545Y338632D01*
X178487Y338538D01*
X178432Y338442D01*
X178380Y338343D01*
X178333Y338243D01*
X178288Y338142D01*
X178248Y338039D01*
X178211Y337934D01*
X178178Y337828D01*
X178148Y337722D01*
X178123Y337614D01*
X178101Y337505D01*
X178084Y337396D01*
X178070Y337286D01*
X178060Y337175D01*
X178054Y337065D01*
X178052Y336954D01*
X178052Y333849D01*
X178054Y333710D01*
X178060Y333570D01*
X178070Y333432D01*
X178083Y333293D01*
X178101Y333155D01*
X178122Y333017D01*
X178147Y332880D01*
X178177Y332744D01*
X178209Y332608D01*
X178246Y332474D01*
X178287Y332341D01*
X178331Y332209D01*
X178379Y332078D01*
X178430Y331948D01*
X178485Y331820D01*
X178544Y331694D01*
X178606Y331569D01*
X178672Y331446D01*
X178741Y331325D01*
X178813Y331206D01*
X178889Y331089D01*
X178968Y330975D01*
X179050Y330862D01*
X179136Y330752D01*
X179224Y330644D01*
X179315Y330539D01*
X179410Y330437D01*
X179507Y330337D01*
X179607Y330240D01*
X179709Y330145D01*
X179814Y330054D01*
X179922Y329966D01*
X180032Y329880D01*
X180145Y329798D01*
X180259Y329719D01*
X180376Y329643D01*
X180495Y329571D01*
X180616Y329502D01*
X180739Y329436D01*
X180864Y329374D01*
X180990Y329315D01*
X181118Y329260D01*
X181248Y329209D01*
X181379Y329161D01*
X181511Y329117D01*
X181644Y329076D01*
X181778Y329039D01*
X181914Y329007D01*
X182050Y328977D01*
X182187Y328952D01*
X182325Y328931D01*
X182463Y328913D01*
X182602Y328900D01*
X182740Y328890D01*
X182880Y328884D01*
X183019Y328882D01*
X225790Y314658D02*
X225790Y303482D01*
X225790Y314658D02*
X222685Y314658D01*
X222574Y314656D01*
X222464Y314650D01*
X222353Y314640D01*
X222243Y314626D01*
X222134Y314609D01*
X222025Y314587D01*
X221917Y314562D01*
X221811Y314532D01*
X221705Y314499D01*
X221600Y314462D01*
X221497Y314422D01*
X221396Y314377D01*
X221296Y314330D01*
X221197Y314278D01*
X221101Y314223D01*
X221007Y314165D01*
X220915Y314104D01*
X220825Y314039D01*
X220737Y313971D01*
X220652Y313900D01*
X220570Y313826D01*
X220490Y313749D01*
X220413Y313669D01*
X220339Y313587D01*
X220268Y313502D01*
X220200Y313414D01*
X220135Y313324D01*
X220074Y313232D01*
X220016Y313138D01*
X219961Y313042D01*
X219909Y312943D01*
X219862Y312843D01*
X219817Y312742D01*
X219777Y312639D01*
X219740Y312534D01*
X219707Y312428D01*
X219677Y312322D01*
X219652Y312214D01*
X219630Y312105D01*
X219613Y311996D01*
X219599Y311886D01*
X219589Y311775D01*
X219583Y311665D01*
X219581Y311554D01*
X219581Y306586D01*
X219583Y306475D01*
X219589Y306365D01*
X219599Y306254D01*
X219613Y306144D01*
X219630Y306035D01*
X219652Y305926D01*
X219677Y305818D01*
X219707Y305712D01*
X219740Y305606D01*
X219777Y305501D01*
X219817Y305398D01*
X219862Y305297D01*
X219909Y305197D01*
X219961Y305098D01*
X220016Y305002D01*
X220074Y304908D01*
X220135Y304816D01*
X220200Y304726D01*
X220268Y304638D01*
X220339Y304553D01*
X220413Y304471D01*
X220490Y304391D01*
X220570Y304314D01*
X220652Y304240D01*
X220737Y304169D01*
X220825Y304101D01*
X220915Y304036D01*
X221007Y303975D01*
X221101Y303917D01*
X221197Y303862D01*
X221296Y303810D01*
X221396Y303763D01*
X221497Y303718D01*
X221600Y303678D01*
X221705Y303641D01*
X221811Y303608D01*
X221917Y303578D01*
X222025Y303553D01*
X222134Y303531D01*
X222243Y303514D01*
X222353Y303500D01*
X222464Y303490D01*
X222574Y303484D01*
X222685Y303482D01*
X225790Y303482D01*
X213160Y303482D02*
X213160Y314658D01*
X214402Y303482D02*
X211919Y303482D01*
X211919Y314658D02*
X214402Y314658D01*
X207121Y311554D02*
X207121Y306586D01*
X207120Y311554D02*
X207118Y311665D01*
X207112Y311775D01*
X207102Y311886D01*
X207088Y311996D01*
X207071Y312105D01*
X207049Y312214D01*
X207024Y312322D01*
X206994Y312428D01*
X206961Y312534D01*
X206924Y312639D01*
X206884Y312742D01*
X206839Y312843D01*
X206792Y312943D01*
X206740Y313042D01*
X206685Y313138D01*
X206627Y313232D01*
X206566Y313324D01*
X206501Y313414D01*
X206433Y313502D01*
X206362Y313587D01*
X206288Y313669D01*
X206211Y313749D01*
X206131Y313826D01*
X206049Y313900D01*
X205964Y313971D01*
X205876Y314039D01*
X205786Y314104D01*
X205694Y314165D01*
X205600Y314223D01*
X205504Y314278D01*
X205405Y314330D01*
X205305Y314377D01*
X205204Y314422D01*
X205101Y314462D01*
X204996Y314499D01*
X204890Y314532D01*
X204784Y314562D01*
X204676Y314587D01*
X204567Y314609D01*
X204458Y314626D01*
X204348Y314640D01*
X204237Y314650D01*
X204127Y314656D01*
X204016Y314658D01*
X203905Y314656D01*
X203795Y314650D01*
X203684Y314640D01*
X203574Y314626D01*
X203465Y314609D01*
X203356Y314587D01*
X203248Y314562D01*
X203142Y314532D01*
X203036Y314499D01*
X202931Y314462D01*
X202828Y314422D01*
X202727Y314377D01*
X202627Y314330D01*
X202528Y314278D01*
X202432Y314223D01*
X202338Y314165D01*
X202246Y314104D01*
X202156Y314039D01*
X202068Y313971D01*
X201983Y313900D01*
X201901Y313826D01*
X201821Y313749D01*
X201744Y313669D01*
X201670Y313587D01*
X201599Y313502D01*
X201531Y313414D01*
X201466Y313324D01*
X201405Y313232D01*
X201347Y313138D01*
X201292Y313042D01*
X201240Y312943D01*
X201193Y312843D01*
X201148Y312742D01*
X201108Y312639D01*
X201071Y312534D01*
X201038Y312428D01*
X201008Y312322D01*
X200983Y312214D01*
X200961Y312105D01*
X200944Y311996D01*
X200930Y311886D01*
X200920Y311775D01*
X200914Y311665D01*
X200912Y311554D01*
X200912Y306586D01*
X200914Y306475D01*
X200920Y306365D01*
X200930Y306254D01*
X200944Y306144D01*
X200961Y306035D01*
X200983Y305926D01*
X201008Y305818D01*
X201038Y305712D01*
X201071Y305606D01*
X201108Y305501D01*
X201148Y305398D01*
X201193Y305297D01*
X201240Y305197D01*
X201292Y305098D01*
X201347Y305002D01*
X201405Y304908D01*
X201466Y304816D01*
X201531Y304726D01*
X201599Y304638D01*
X201670Y304553D01*
X201744Y304471D01*
X201821Y304391D01*
X201901Y304314D01*
X201983Y304240D01*
X202068Y304169D01*
X202156Y304101D01*
X202246Y304036D01*
X202338Y303975D01*
X202432Y303917D01*
X202528Y303862D01*
X202627Y303810D01*
X202727Y303763D01*
X202828Y303718D01*
X202931Y303678D01*
X203036Y303641D01*
X203142Y303608D01*
X203248Y303578D01*
X203356Y303553D01*
X203465Y303531D01*
X203574Y303514D01*
X203684Y303500D01*
X203795Y303490D01*
X203905Y303484D01*
X204016Y303482D01*
X204127Y303484D01*
X204237Y303490D01*
X204348Y303500D01*
X204458Y303514D01*
X204567Y303531D01*
X204676Y303553D01*
X204784Y303578D01*
X204890Y303608D01*
X204996Y303641D01*
X205101Y303678D01*
X205204Y303718D01*
X205305Y303763D01*
X205405Y303810D01*
X205504Y303862D01*
X205600Y303917D01*
X205694Y303975D01*
X205786Y304036D01*
X205876Y304101D01*
X205964Y304169D01*
X206049Y304240D01*
X206131Y304314D01*
X206211Y304391D01*
X206288Y304471D01*
X206362Y304553D01*
X206433Y304638D01*
X206501Y304726D01*
X206566Y304816D01*
X206627Y304908D01*
X206685Y305002D01*
X206740Y305098D01*
X206792Y305197D01*
X206839Y305297D01*
X206884Y305398D01*
X206924Y305501D01*
X206961Y305606D01*
X206994Y305712D01*
X207024Y305818D01*
X207049Y305926D01*
X207071Y306035D01*
X207088Y306144D01*
X207102Y306254D01*
X207112Y306365D01*
X207118Y306475D01*
X207120Y306586D01*
X195691Y312174D02*
X192586Y314658D01*
X192586Y303482D01*
X189482Y303482D02*
X195691Y303482D01*
X184260Y306586D02*
X184258Y306697D01*
X184252Y306807D01*
X184242Y306918D01*
X184228Y307028D01*
X184211Y307137D01*
X184189Y307246D01*
X184164Y307354D01*
X184134Y307460D01*
X184101Y307566D01*
X184064Y307671D01*
X184024Y307774D01*
X183979Y307875D01*
X183932Y307975D01*
X183880Y308074D01*
X183825Y308170D01*
X183767Y308264D01*
X183706Y308356D01*
X183641Y308446D01*
X183573Y308534D01*
X183502Y308619D01*
X183428Y308701D01*
X183351Y308781D01*
X183271Y308858D01*
X183189Y308932D01*
X183104Y309003D01*
X183016Y309071D01*
X182926Y309136D01*
X182834Y309197D01*
X182740Y309255D01*
X182644Y309310D01*
X182545Y309362D01*
X182445Y309409D01*
X182344Y309454D01*
X182241Y309494D01*
X182136Y309531D01*
X182030Y309564D01*
X181924Y309594D01*
X181816Y309619D01*
X181707Y309641D01*
X181598Y309658D01*
X181488Y309672D01*
X181377Y309682D01*
X181267Y309688D01*
X181156Y309690D01*
X181045Y309688D01*
X180935Y309682D01*
X180824Y309672D01*
X180714Y309658D01*
X180605Y309641D01*
X180496Y309619D01*
X180388Y309594D01*
X180282Y309564D01*
X180176Y309531D01*
X180071Y309494D01*
X179968Y309454D01*
X179867Y309409D01*
X179767Y309362D01*
X179668Y309310D01*
X179572Y309255D01*
X179478Y309197D01*
X179386Y309136D01*
X179296Y309071D01*
X179208Y309003D01*
X179123Y308932D01*
X179041Y308858D01*
X178961Y308781D01*
X178884Y308701D01*
X178810Y308619D01*
X178739Y308534D01*
X178671Y308446D01*
X178606Y308356D01*
X178545Y308264D01*
X178487Y308170D01*
X178432Y308074D01*
X178380Y307975D01*
X178333Y307875D01*
X178288Y307774D01*
X178248Y307671D01*
X178211Y307566D01*
X178178Y307460D01*
X178148Y307354D01*
X178123Y307246D01*
X178101Y307137D01*
X178084Y307028D01*
X178070Y306918D01*
X178060Y306807D01*
X178054Y306697D01*
X178052Y306586D01*
X178054Y306475D01*
X178060Y306365D01*
X178070Y306254D01*
X178084Y306144D01*
X178101Y306035D01*
X178123Y305926D01*
X178148Y305818D01*
X178178Y305712D01*
X178211Y305606D01*
X178248Y305501D01*
X178288Y305398D01*
X178333Y305297D01*
X178380Y305197D01*
X178432Y305098D01*
X178487Y305002D01*
X178545Y304908D01*
X178606Y304816D01*
X178671Y304726D01*
X178739Y304638D01*
X178810Y304553D01*
X178884Y304471D01*
X178961Y304391D01*
X179041Y304314D01*
X179123Y304240D01*
X179208Y304169D01*
X179296Y304101D01*
X179386Y304036D01*
X179478Y303975D01*
X179572Y303917D01*
X179668Y303862D01*
X179767Y303810D01*
X179867Y303763D01*
X179968Y303718D01*
X180071Y303678D01*
X180176Y303641D01*
X180282Y303608D01*
X180388Y303578D01*
X180496Y303553D01*
X180605Y303531D01*
X180714Y303514D01*
X180824Y303500D01*
X180935Y303490D01*
X181045Y303484D01*
X181156Y303482D01*
X181267Y303484D01*
X181377Y303490D01*
X181488Y303500D01*
X181598Y303514D01*
X181707Y303531D01*
X181816Y303553D01*
X181924Y303578D01*
X182030Y303608D01*
X182136Y303641D01*
X182241Y303678D01*
X182344Y303718D01*
X182445Y303763D01*
X182545Y303810D01*
X182644Y303862D01*
X182740Y303917D01*
X182834Y303975D01*
X182926Y304036D01*
X183016Y304101D01*
X183104Y304169D01*
X183189Y304240D01*
X183271Y304314D01*
X183351Y304391D01*
X183428Y304471D01*
X183502Y304553D01*
X183573Y304638D01*
X183641Y304726D01*
X183706Y304816D01*
X183767Y304908D01*
X183825Y305002D01*
X183880Y305098D01*
X183932Y305197D01*
X183979Y305297D01*
X184024Y305398D01*
X184064Y305501D01*
X184101Y305606D01*
X184134Y305712D01*
X184164Y305818D01*
X184189Y305926D01*
X184211Y306035D01*
X184228Y306144D01*
X184242Y306254D01*
X184252Y306365D01*
X184258Y306475D01*
X184260Y306586D01*
X183640Y312174D02*
X183638Y312273D01*
X183632Y312371D01*
X183622Y312470D01*
X183609Y312567D01*
X183591Y312665D01*
X183570Y312761D01*
X183544Y312857D01*
X183515Y312951D01*
X183483Y313044D01*
X183446Y313136D01*
X183406Y313226D01*
X183362Y313315D01*
X183315Y313402D01*
X183265Y313487D01*
X183211Y313569D01*
X183154Y313650D01*
X183094Y313728D01*
X183030Y313804D01*
X182964Y313877D01*
X182895Y313948D01*
X182823Y314016D01*
X182748Y314080D01*
X182671Y314142D01*
X182592Y314201D01*
X182510Y314256D01*
X182426Y314309D01*
X182341Y314357D01*
X182253Y314403D01*
X182163Y314445D01*
X182072Y314483D01*
X181980Y314517D01*
X181886Y314548D01*
X181791Y314575D01*
X181695Y314599D01*
X181598Y314618D01*
X181501Y314634D01*
X181403Y314646D01*
X181304Y314654D01*
X181205Y314658D01*
X181107Y314658D01*
X181008Y314654D01*
X180909Y314646D01*
X180811Y314634D01*
X180714Y314618D01*
X180617Y314599D01*
X180521Y314575D01*
X180426Y314548D01*
X180332Y314517D01*
X180240Y314483D01*
X180149Y314445D01*
X180059Y314403D01*
X179971Y314357D01*
X179886Y314309D01*
X179802Y314256D01*
X179720Y314201D01*
X179641Y314142D01*
X179564Y314080D01*
X179489Y314016D01*
X179417Y313948D01*
X179348Y313877D01*
X179282Y313804D01*
X179218Y313728D01*
X179158Y313650D01*
X179101Y313569D01*
X179047Y313487D01*
X178997Y313402D01*
X178950Y313315D01*
X178906Y313226D01*
X178866Y313136D01*
X178829Y313044D01*
X178797Y312951D01*
X178768Y312857D01*
X178742Y312761D01*
X178721Y312665D01*
X178703Y312567D01*
X178690Y312470D01*
X178680Y312371D01*
X178674Y312273D01*
X178672Y312174D01*
X178674Y312075D01*
X178680Y311977D01*
X178690Y311878D01*
X178703Y311781D01*
X178721Y311683D01*
X178742Y311587D01*
X178768Y311491D01*
X178797Y311397D01*
X178829Y311304D01*
X178866Y311212D01*
X178906Y311122D01*
X178950Y311033D01*
X178997Y310946D01*
X179047Y310861D01*
X179101Y310779D01*
X179158Y310698D01*
X179218Y310620D01*
X179282Y310544D01*
X179348Y310471D01*
X179417Y310400D01*
X179489Y310332D01*
X179564Y310268D01*
X179641Y310206D01*
X179720Y310147D01*
X179802Y310092D01*
X179886Y310039D01*
X179971Y309991D01*
X180059Y309945D01*
X180149Y309903D01*
X180240Y309865D01*
X180332Y309831D01*
X180426Y309800D01*
X180521Y309773D01*
X180617Y309749D01*
X180714Y309730D01*
X180811Y309714D01*
X180909Y309702D01*
X181008Y309694D01*
X181107Y309690D01*
X181205Y309690D01*
X181304Y309694D01*
X181403Y309702D01*
X181501Y309714D01*
X181598Y309730D01*
X181695Y309749D01*
X181791Y309773D01*
X181886Y309800D01*
X181980Y309831D01*
X182072Y309865D01*
X182163Y309903D01*
X182253Y309945D01*
X182341Y309991D01*
X182426Y310039D01*
X182510Y310092D01*
X182592Y310147D01*
X182671Y310206D01*
X182748Y310268D01*
X182823Y310332D01*
X182895Y310400D01*
X182964Y310471D01*
X183030Y310544D01*
X183094Y310620D01*
X183154Y310698D01*
X183211Y310779D01*
X183265Y310861D01*
X183315Y310946D01*
X183362Y311033D01*
X183406Y311122D01*
X183446Y311212D01*
X183483Y311304D01*
X183515Y311397D01*
X183544Y311491D01*
X183570Y311587D01*
X183591Y311683D01*
X183609Y311781D01*
X183622Y311878D01*
X183632Y311977D01*
X183638Y312075D01*
X183640Y312174D01*
X227483Y290528D02*
X227483Y279352D01*
X227483Y290528D02*
X224379Y290528D01*
X224268Y290526D01*
X224158Y290520D01*
X224047Y290510D01*
X223937Y290496D01*
X223828Y290479D01*
X223719Y290457D01*
X223611Y290432D01*
X223505Y290402D01*
X223399Y290369D01*
X223294Y290332D01*
X223191Y290292D01*
X223090Y290247D01*
X222990Y290200D01*
X222891Y290148D01*
X222795Y290093D01*
X222701Y290035D01*
X222609Y289974D01*
X222519Y289909D01*
X222431Y289841D01*
X222346Y289770D01*
X222264Y289696D01*
X222184Y289619D01*
X222107Y289539D01*
X222033Y289457D01*
X221962Y289372D01*
X221894Y289284D01*
X221829Y289194D01*
X221768Y289102D01*
X221710Y289008D01*
X221655Y288912D01*
X221603Y288813D01*
X221556Y288713D01*
X221511Y288612D01*
X221471Y288509D01*
X221434Y288404D01*
X221401Y288298D01*
X221371Y288192D01*
X221346Y288084D01*
X221324Y287975D01*
X221307Y287866D01*
X221293Y287756D01*
X221283Y287645D01*
X221277Y287535D01*
X221275Y287424D01*
X221274Y287424D02*
X221274Y282456D01*
X221275Y282456D02*
X221277Y282345D01*
X221283Y282235D01*
X221293Y282124D01*
X221307Y282014D01*
X221324Y281905D01*
X221346Y281796D01*
X221371Y281688D01*
X221401Y281582D01*
X221434Y281476D01*
X221471Y281371D01*
X221511Y281268D01*
X221556Y281167D01*
X221603Y281067D01*
X221655Y280968D01*
X221710Y280872D01*
X221768Y280778D01*
X221829Y280686D01*
X221894Y280596D01*
X221962Y280508D01*
X222033Y280423D01*
X222107Y280341D01*
X222184Y280261D01*
X222264Y280184D01*
X222346Y280110D01*
X222431Y280039D01*
X222519Y279971D01*
X222609Y279906D01*
X222701Y279845D01*
X222795Y279787D01*
X222891Y279732D01*
X222990Y279680D01*
X223090Y279633D01*
X223191Y279588D01*
X223294Y279548D01*
X223399Y279511D01*
X223505Y279478D01*
X223611Y279448D01*
X223719Y279423D01*
X223828Y279401D01*
X223937Y279384D01*
X224047Y279370D01*
X224158Y279360D01*
X224268Y279354D01*
X224379Y279352D01*
X227483Y279352D01*
X214854Y279352D02*
X214854Y290528D01*
X216095Y279352D02*
X213612Y279352D01*
X213612Y290528D02*
X216095Y290528D01*
X208814Y287424D02*
X208814Y282456D01*
X208814Y287424D02*
X208812Y287535D01*
X208806Y287645D01*
X208796Y287756D01*
X208782Y287866D01*
X208765Y287975D01*
X208743Y288084D01*
X208718Y288192D01*
X208688Y288298D01*
X208655Y288404D01*
X208618Y288509D01*
X208578Y288612D01*
X208533Y288713D01*
X208486Y288813D01*
X208434Y288912D01*
X208379Y289008D01*
X208321Y289102D01*
X208260Y289194D01*
X208195Y289284D01*
X208127Y289372D01*
X208056Y289457D01*
X207982Y289539D01*
X207905Y289619D01*
X207825Y289696D01*
X207743Y289770D01*
X207658Y289841D01*
X207570Y289909D01*
X207480Y289974D01*
X207388Y290035D01*
X207294Y290093D01*
X207198Y290148D01*
X207099Y290200D01*
X206999Y290247D01*
X206898Y290292D01*
X206795Y290332D01*
X206690Y290369D01*
X206584Y290402D01*
X206478Y290432D01*
X206370Y290457D01*
X206261Y290479D01*
X206152Y290496D01*
X206042Y290510D01*
X205931Y290520D01*
X205821Y290526D01*
X205710Y290528D01*
X205599Y290526D01*
X205489Y290520D01*
X205378Y290510D01*
X205268Y290496D01*
X205159Y290479D01*
X205050Y290457D01*
X204942Y290432D01*
X204836Y290402D01*
X204730Y290369D01*
X204625Y290332D01*
X204522Y290292D01*
X204421Y290247D01*
X204321Y290200D01*
X204222Y290148D01*
X204126Y290093D01*
X204032Y290035D01*
X203940Y289974D01*
X203850Y289909D01*
X203762Y289841D01*
X203677Y289770D01*
X203595Y289696D01*
X203515Y289619D01*
X203438Y289539D01*
X203364Y289457D01*
X203293Y289372D01*
X203225Y289284D01*
X203160Y289194D01*
X203099Y289102D01*
X203041Y289008D01*
X202986Y288912D01*
X202934Y288813D01*
X202887Y288713D01*
X202842Y288612D01*
X202802Y288509D01*
X202765Y288404D01*
X202732Y288298D01*
X202702Y288192D01*
X202677Y288084D01*
X202655Y287975D01*
X202638Y287866D01*
X202624Y287756D01*
X202614Y287645D01*
X202608Y287535D01*
X202606Y287424D01*
X202605Y287424D02*
X202605Y282456D01*
X202606Y282456D02*
X202608Y282345D01*
X202614Y282235D01*
X202624Y282124D01*
X202638Y282014D01*
X202655Y281905D01*
X202677Y281796D01*
X202702Y281688D01*
X202732Y281582D01*
X202765Y281476D01*
X202802Y281371D01*
X202842Y281268D01*
X202887Y281167D01*
X202934Y281067D01*
X202986Y280968D01*
X203041Y280872D01*
X203099Y280778D01*
X203160Y280686D01*
X203225Y280596D01*
X203293Y280508D01*
X203364Y280423D01*
X203438Y280341D01*
X203515Y280261D01*
X203595Y280184D01*
X203677Y280110D01*
X203762Y280039D01*
X203850Y279971D01*
X203940Y279906D01*
X204032Y279845D01*
X204126Y279787D01*
X204222Y279732D01*
X204321Y279680D01*
X204421Y279633D01*
X204522Y279588D01*
X204625Y279548D01*
X204730Y279511D01*
X204836Y279478D01*
X204942Y279448D01*
X205050Y279423D01*
X205159Y279401D01*
X205268Y279384D01*
X205378Y279370D01*
X205489Y279360D01*
X205599Y279354D01*
X205710Y279352D01*
X205821Y279354D01*
X205931Y279360D01*
X206042Y279370D01*
X206152Y279384D01*
X206261Y279401D01*
X206370Y279423D01*
X206478Y279448D01*
X206584Y279478D01*
X206690Y279511D01*
X206795Y279548D01*
X206898Y279588D01*
X206999Y279633D01*
X207099Y279680D01*
X207198Y279732D01*
X207294Y279787D01*
X207388Y279845D01*
X207480Y279906D01*
X207570Y279971D01*
X207658Y280039D01*
X207743Y280110D01*
X207825Y280184D01*
X207905Y280261D01*
X207982Y280341D01*
X208056Y280423D01*
X208127Y280508D01*
X208195Y280596D01*
X208260Y280686D01*
X208321Y280778D01*
X208379Y280872D01*
X208434Y280968D01*
X208486Y281067D01*
X208533Y281167D01*
X208578Y281268D01*
X208618Y281371D01*
X208655Y281476D01*
X208688Y281582D01*
X208718Y281688D01*
X208743Y281796D01*
X208765Y281905D01*
X208782Y282014D01*
X208796Y282124D01*
X208806Y282235D01*
X208812Y282345D01*
X208814Y282456D01*
X197384Y288044D02*
X194280Y290528D01*
X194280Y279352D01*
X197384Y279352D02*
X191175Y279352D01*
X185954Y289286D02*
X185954Y290528D01*
X179745Y290528D01*
X182850Y279352D01*
X175046Y278110D02*
X170079Y291770D01*
X163038Y290528D02*
X163038Y279352D01*
X166142Y290528D02*
X159933Y290528D01*
X155093Y290528D02*
X155093Y279352D01*
X155093Y290528D02*
X151989Y290528D01*
X151878Y290526D01*
X151768Y290520D01*
X151657Y290510D01*
X151547Y290496D01*
X151438Y290479D01*
X151329Y290457D01*
X151221Y290432D01*
X151115Y290402D01*
X151009Y290369D01*
X150904Y290332D01*
X150801Y290292D01*
X150700Y290247D01*
X150600Y290200D01*
X150501Y290148D01*
X150405Y290093D01*
X150311Y290035D01*
X150219Y289974D01*
X150129Y289909D01*
X150041Y289841D01*
X149956Y289770D01*
X149874Y289696D01*
X149794Y289619D01*
X149717Y289539D01*
X149643Y289457D01*
X149572Y289372D01*
X149504Y289284D01*
X149439Y289194D01*
X149378Y289102D01*
X149320Y289008D01*
X149265Y288912D01*
X149213Y288813D01*
X149166Y288713D01*
X149121Y288612D01*
X149081Y288509D01*
X149044Y288404D01*
X149011Y288298D01*
X148981Y288192D01*
X148956Y288084D01*
X148934Y287975D01*
X148917Y287866D01*
X148903Y287756D01*
X148893Y287645D01*
X148887Y287535D01*
X148885Y287424D01*
X148884Y287424D02*
X148884Y282456D01*
X148885Y282456D02*
X148887Y282345D01*
X148893Y282235D01*
X148903Y282124D01*
X148917Y282014D01*
X148934Y281905D01*
X148956Y281796D01*
X148981Y281688D01*
X149011Y281582D01*
X149044Y281476D01*
X149081Y281371D01*
X149121Y281268D01*
X149166Y281167D01*
X149213Y281067D01*
X149265Y280968D01*
X149320Y280872D01*
X149378Y280778D01*
X149439Y280686D01*
X149504Y280596D01*
X149572Y280508D01*
X149643Y280423D01*
X149717Y280341D01*
X149794Y280261D01*
X149874Y280184D01*
X149956Y280110D01*
X150041Y280039D01*
X150129Y279971D01*
X150219Y279906D01*
X150311Y279845D01*
X150405Y279787D01*
X150501Y279732D01*
X150600Y279680D01*
X150700Y279633D01*
X150801Y279588D01*
X150904Y279548D01*
X151009Y279511D01*
X151115Y279478D01*
X151221Y279448D01*
X151329Y279423D01*
X151438Y279401D01*
X151547Y279384D01*
X151657Y279370D01*
X151768Y279360D01*
X151878Y279354D01*
X151989Y279352D01*
X155093Y279352D01*
X142464Y279352D02*
X142464Y290528D01*
X143706Y279352D02*
X141222Y279352D01*
X141222Y290528D02*
X143706Y290528D01*
X226552Y265128D02*
X226552Y253952D01*
X226552Y265128D02*
X223447Y265128D01*
X223336Y265126D01*
X223226Y265120D01*
X223115Y265110D01*
X223005Y265096D01*
X222896Y265079D01*
X222787Y265057D01*
X222679Y265032D01*
X222573Y265002D01*
X222467Y264969D01*
X222362Y264932D01*
X222259Y264892D01*
X222158Y264847D01*
X222058Y264800D01*
X221959Y264748D01*
X221863Y264693D01*
X221769Y264635D01*
X221677Y264574D01*
X221587Y264509D01*
X221499Y264441D01*
X221414Y264370D01*
X221332Y264296D01*
X221252Y264219D01*
X221175Y264139D01*
X221101Y264057D01*
X221030Y263972D01*
X220962Y263884D01*
X220897Y263794D01*
X220836Y263702D01*
X220778Y263608D01*
X220723Y263512D01*
X220671Y263413D01*
X220624Y263313D01*
X220579Y263212D01*
X220539Y263109D01*
X220502Y263004D01*
X220469Y262898D01*
X220439Y262792D01*
X220414Y262684D01*
X220392Y262575D01*
X220375Y262466D01*
X220361Y262356D01*
X220351Y262245D01*
X220345Y262135D01*
X220343Y262024D01*
X220343Y257056D01*
X220345Y256945D01*
X220351Y256835D01*
X220361Y256724D01*
X220375Y256614D01*
X220392Y256505D01*
X220414Y256396D01*
X220439Y256288D01*
X220469Y256182D01*
X220502Y256076D01*
X220539Y255971D01*
X220579Y255868D01*
X220624Y255767D01*
X220671Y255667D01*
X220723Y255568D01*
X220778Y255472D01*
X220836Y255378D01*
X220897Y255286D01*
X220962Y255196D01*
X221030Y255108D01*
X221101Y255023D01*
X221175Y254941D01*
X221252Y254861D01*
X221332Y254784D01*
X221414Y254710D01*
X221499Y254639D01*
X221587Y254571D01*
X221677Y254506D01*
X221769Y254445D01*
X221863Y254387D01*
X221959Y254332D01*
X222058Y254280D01*
X222158Y254233D01*
X222259Y254188D01*
X222362Y254148D01*
X222467Y254111D01*
X222573Y254078D01*
X222679Y254048D01*
X222787Y254023D01*
X222896Y254001D01*
X223005Y253984D01*
X223115Y253970D01*
X223226Y253960D01*
X223336Y253954D01*
X223447Y253952D01*
X226552Y253952D01*
X213922Y253952D02*
X213922Y265128D01*
X215164Y253952D02*
X212681Y253952D01*
X212681Y265128D02*
X215164Y265128D01*
X207883Y262024D02*
X207883Y257056D01*
X207882Y262024D02*
X207880Y262135D01*
X207874Y262245D01*
X207864Y262356D01*
X207850Y262466D01*
X207833Y262575D01*
X207811Y262684D01*
X207786Y262792D01*
X207756Y262898D01*
X207723Y263004D01*
X207686Y263109D01*
X207646Y263212D01*
X207601Y263313D01*
X207554Y263413D01*
X207502Y263512D01*
X207447Y263608D01*
X207389Y263702D01*
X207328Y263794D01*
X207263Y263884D01*
X207195Y263972D01*
X207124Y264057D01*
X207050Y264139D01*
X206973Y264219D01*
X206893Y264296D01*
X206811Y264370D01*
X206726Y264441D01*
X206638Y264509D01*
X206548Y264574D01*
X206456Y264635D01*
X206362Y264693D01*
X206266Y264748D01*
X206167Y264800D01*
X206067Y264847D01*
X205966Y264892D01*
X205863Y264932D01*
X205758Y264969D01*
X205652Y265002D01*
X205546Y265032D01*
X205438Y265057D01*
X205329Y265079D01*
X205220Y265096D01*
X205110Y265110D01*
X204999Y265120D01*
X204889Y265126D01*
X204778Y265128D01*
X204667Y265126D01*
X204557Y265120D01*
X204446Y265110D01*
X204336Y265096D01*
X204227Y265079D01*
X204118Y265057D01*
X204010Y265032D01*
X203904Y265002D01*
X203798Y264969D01*
X203693Y264932D01*
X203590Y264892D01*
X203489Y264847D01*
X203389Y264800D01*
X203290Y264748D01*
X203194Y264693D01*
X203100Y264635D01*
X203008Y264574D01*
X202918Y264509D01*
X202830Y264441D01*
X202745Y264370D01*
X202663Y264296D01*
X202583Y264219D01*
X202506Y264139D01*
X202432Y264057D01*
X202361Y263972D01*
X202293Y263884D01*
X202228Y263794D01*
X202167Y263702D01*
X202109Y263608D01*
X202054Y263512D01*
X202002Y263413D01*
X201955Y263313D01*
X201910Y263212D01*
X201870Y263109D01*
X201833Y263004D01*
X201800Y262898D01*
X201770Y262792D01*
X201745Y262684D01*
X201723Y262575D01*
X201706Y262466D01*
X201692Y262356D01*
X201682Y262245D01*
X201676Y262135D01*
X201674Y262024D01*
X201674Y257056D01*
X201676Y256945D01*
X201682Y256835D01*
X201692Y256724D01*
X201706Y256614D01*
X201723Y256505D01*
X201745Y256396D01*
X201770Y256288D01*
X201800Y256182D01*
X201833Y256076D01*
X201870Y255971D01*
X201910Y255868D01*
X201955Y255767D01*
X202002Y255667D01*
X202054Y255568D01*
X202109Y255472D01*
X202167Y255378D01*
X202228Y255286D01*
X202293Y255196D01*
X202361Y255108D01*
X202432Y255023D01*
X202506Y254941D01*
X202583Y254861D01*
X202663Y254784D01*
X202745Y254710D01*
X202830Y254639D01*
X202918Y254571D01*
X203008Y254506D01*
X203100Y254445D01*
X203194Y254387D01*
X203290Y254332D01*
X203389Y254280D01*
X203489Y254233D01*
X203590Y254188D01*
X203693Y254148D01*
X203798Y254111D01*
X203904Y254078D01*
X204010Y254048D01*
X204118Y254023D01*
X204227Y254001D01*
X204336Y253984D01*
X204446Y253970D01*
X204557Y253960D01*
X204667Y253954D01*
X204778Y253952D01*
X204889Y253954D01*
X204999Y253960D01*
X205110Y253970D01*
X205220Y253984D01*
X205329Y254001D01*
X205438Y254023D01*
X205546Y254048D01*
X205652Y254078D01*
X205758Y254111D01*
X205863Y254148D01*
X205966Y254188D01*
X206067Y254233D01*
X206167Y254280D01*
X206266Y254332D01*
X206362Y254387D01*
X206456Y254445D01*
X206548Y254506D01*
X206638Y254571D01*
X206726Y254639D01*
X206811Y254710D01*
X206893Y254784D01*
X206973Y254861D01*
X207050Y254941D01*
X207124Y255023D01*
X207195Y255108D01*
X207263Y255196D01*
X207328Y255286D01*
X207389Y255378D01*
X207447Y255472D01*
X207502Y255568D01*
X207554Y255667D01*
X207601Y255767D01*
X207646Y255868D01*
X207686Y255971D01*
X207723Y256076D01*
X207756Y256182D01*
X207786Y256288D01*
X207811Y256396D01*
X207833Y256505D01*
X207850Y256614D01*
X207864Y256724D01*
X207874Y256835D01*
X207880Y256945D01*
X207882Y257056D01*
X196453Y262644D02*
X193348Y265128D01*
X193348Y253952D01*
X190244Y253952D02*
X196453Y253952D01*
X185023Y260161D02*
X181298Y260161D01*
X181200Y260159D01*
X181103Y260153D01*
X181006Y260144D01*
X180909Y260130D01*
X180813Y260113D01*
X180718Y260092D01*
X180624Y260068D01*
X180530Y260039D01*
X180438Y260007D01*
X180347Y259972D01*
X180258Y259933D01*
X180170Y259890D01*
X180084Y259844D01*
X180000Y259795D01*
X179918Y259742D01*
X179838Y259687D01*
X179760Y259628D01*
X179685Y259566D01*
X179612Y259501D01*
X179542Y259433D01*
X179474Y259363D01*
X179409Y259290D01*
X179347Y259215D01*
X179288Y259137D01*
X179233Y259057D01*
X179180Y258975D01*
X179131Y258891D01*
X179085Y258805D01*
X179042Y258717D01*
X179003Y258628D01*
X178968Y258537D01*
X178936Y258445D01*
X178907Y258351D01*
X178883Y258257D01*
X178862Y258162D01*
X178845Y258066D01*
X178831Y257969D01*
X178822Y257872D01*
X178816Y257775D01*
X178814Y257677D01*
X178814Y257056D01*
X178816Y256945D01*
X178822Y256835D01*
X178832Y256724D01*
X178846Y256614D01*
X178863Y256505D01*
X178885Y256396D01*
X178910Y256288D01*
X178940Y256182D01*
X178973Y256076D01*
X179010Y255971D01*
X179050Y255868D01*
X179095Y255767D01*
X179142Y255667D01*
X179194Y255568D01*
X179249Y255472D01*
X179307Y255378D01*
X179368Y255286D01*
X179433Y255196D01*
X179501Y255108D01*
X179572Y255023D01*
X179646Y254941D01*
X179723Y254861D01*
X179803Y254784D01*
X179885Y254710D01*
X179970Y254639D01*
X180058Y254571D01*
X180148Y254506D01*
X180240Y254445D01*
X180334Y254387D01*
X180430Y254332D01*
X180529Y254280D01*
X180629Y254233D01*
X180730Y254188D01*
X180833Y254148D01*
X180938Y254111D01*
X181044Y254078D01*
X181150Y254048D01*
X181258Y254023D01*
X181367Y254001D01*
X181476Y253984D01*
X181586Y253970D01*
X181697Y253960D01*
X181807Y253954D01*
X181918Y253952D01*
X182029Y253954D01*
X182139Y253960D01*
X182250Y253970D01*
X182360Y253984D01*
X182469Y254001D01*
X182578Y254023D01*
X182686Y254048D01*
X182792Y254078D01*
X182898Y254111D01*
X183003Y254148D01*
X183106Y254188D01*
X183207Y254233D01*
X183307Y254280D01*
X183406Y254332D01*
X183502Y254387D01*
X183596Y254445D01*
X183688Y254506D01*
X183778Y254571D01*
X183866Y254639D01*
X183951Y254710D01*
X184033Y254784D01*
X184113Y254861D01*
X184190Y254941D01*
X184264Y255023D01*
X184335Y255108D01*
X184403Y255196D01*
X184468Y255286D01*
X184529Y255378D01*
X184587Y255472D01*
X184642Y255568D01*
X184694Y255667D01*
X184741Y255767D01*
X184786Y255868D01*
X184826Y255971D01*
X184863Y256076D01*
X184896Y256182D01*
X184926Y256288D01*
X184951Y256396D01*
X184973Y256505D01*
X184990Y256614D01*
X185004Y256724D01*
X185014Y256835D01*
X185020Y256945D01*
X185022Y257056D01*
X185023Y257056D02*
X185023Y260161D01*
X185021Y260300D01*
X185015Y260439D01*
X185005Y260578D01*
X184992Y260717D01*
X184974Y260855D01*
X184953Y260993D01*
X184928Y261130D01*
X184898Y261266D01*
X184866Y261402D01*
X184829Y261536D01*
X184788Y261669D01*
X184744Y261801D01*
X184696Y261932D01*
X184645Y262062D01*
X184590Y262190D01*
X184531Y262316D01*
X184469Y262441D01*
X184403Y262564D01*
X184334Y262685D01*
X184262Y262804D01*
X184186Y262920D01*
X184107Y263035D01*
X184025Y263148D01*
X183939Y263258D01*
X183851Y263366D01*
X183760Y263471D01*
X183665Y263573D01*
X183568Y263673D01*
X183468Y263770D01*
X183366Y263865D01*
X183261Y263956D01*
X183153Y264044D01*
X183043Y264130D01*
X182930Y264212D01*
X182816Y264291D01*
X182699Y264367D01*
X182580Y264439D01*
X182459Y264508D01*
X182336Y264574D01*
X182211Y264636D01*
X182085Y264695D01*
X181957Y264750D01*
X181827Y264801D01*
X181697Y264849D01*
X181564Y264893D01*
X181431Y264934D01*
X181297Y264971D01*
X181161Y265003D01*
X181025Y265033D01*
X180888Y265058D01*
X180750Y265079D01*
X180612Y265097D01*
X180474Y265110D01*
X180335Y265120D01*
X180195Y265126D01*
X180056Y265128D01*
X169148Y266370D02*
X174115Y252710D01*
X162106Y253952D02*
X162106Y265128D01*
X159002Y265128D02*
X165211Y265128D01*
X154162Y265128D02*
X154162Y253952D01*
X154162Y265128D02*
X151057Y265128D01*
X150946Y265126D01*
X150836Y265120D01*
X150725Y265110D01*
X150615Y265096D01*
X150506Y265079D01*
X150397Y265057D01*
X150289Y265032D01*
X150183Y265002D01*
X150077Y264969D01*
X149972Y264932D01*
X149869Y264892D01*
X149768Y264847D01*
X149668Y264800D01*
X149569Y264748D01*
X149473Y264693D01*
X149379Y264635D01*
X149287Y264574D01*
X149197Y264509D01*
X149109Y264441D01*
X149024Y264370D01*
X148942Y264296D01*
X148862Y264219D01*
X148785Y264139D01*
X148711Y264057D01*
X148640Y263972D01*
X148572Y263884D01*
X148507Y263794D01*
X148446Y263702D01*
X148388Y263608D01*
X148333Y263512D01*
X148281Y263413D01*
X148234Y263313D01*
X148189Y263212D01*
X148149Y263109D01*
X148112Y263004D01*
X148079Y262898D01*
X148049Y262792D01*
X148024Y262684D01*
X148002Y262575D01*
X147985Y262466D01*
X147971Y262356D01*
X147961Y262245D01*
X147955Y262135D01*
X147953Y262024D01*
X147953Y257056D01*
X147955Y256945D01*
X147961Y256835D01*
X147971Y256724D01*
X147985Y256614D01*
X148002Y256505D01*
X148024Y256396D01*
X148049Y256288D01*
X148079Y256182D01*
X148112Y256076D01*
X148149Y255971D01*
X148189Y255868D01*
X148234Y255767D01*
X148281Y255667D01*
X148333Y255568D01*
X148388Y255472D01*
X148446Y255378D01*
X148507Y255286D01*
X148572Y255196D01*
X148640Y255108D01*
X148711Y255023D01*
X148785Y254941D01*
X148862Y254861D01*
X148942Y254784D01*
X149024Y254710D01*
X149109Y254639D01*
X149197Y254571D01*
X149287Y254506D01*
X149379Y254445D01*
X149473Y254387D01*
X149569Y254332D01*
X149668Y254280D01*
X149768Y254233D01*
X149869Y254188D01*
X149972Y254148D01*
X150077Y254111D01*
X150183Y254078D01*
X150289Y254048D01*
X150397Y254023D01*
X150506Y254001D01*
X150615Y253984D01*
X150725Y253970D01*
X150836Y253960D01*
X150946Y253954D01*
X151057Y253952D01*
X154162Y253952D01*
X142351Y257056D02*
X142351Y262024D01*
X142350Y262024D02*
X142348Y262135D01*
X142342Y262245D01*
X142332Y262356D01*
X142318Y262466D01*
X142301Y262575D01*
X142279Y262684D01*
X142254Y262792D01*
X142224Y262898D01*
X142191Y263004D01*
X142154Y263109D01*
X142114Y263212D01*
X142069Y263313D01*
X142022Y263413D01*
X141970Y263512D01*
X141915Y263608D01*
X141857Y263702D01*
X141796Y263794D01*
X141731Y263884D01*
X141663Y263972D01*
X141592Y264057D01*
X141518Y264139D01*
X141441Y264219D01*
X141361Y264296D01*
X141279Y264370D01*
X141194Y264441D01*
X141106Y264509D01*
X141016Y264574D01*
X140924Y264635D01*
X140830Y264693D01*
X140734Y264748D01*
X140635Y264800D01*
X140535Y264847D01*
X140434Y264892D01*
X140331Y264932D01*
X140226Y264969D01*
X140120Y265002D01*
X140014Y265032D01*
X139906Y265057D01*
X139797Y265079D01*
X139688Y265096D01*
X139578Y265110D01*
X139467Y265120D01*
X139357Y265126D01*
X139246Y265128D01*
X139135Y265126D01*
X139025Y265120D01*
X138914Y265110D01*
X138804Y265096D01*
X138695Y265079D01*
X138586Y265057D01*
X138478Y265032D01*
X138372Y265002D01*
X138266Y264969D01*
X138161Y264932D01*
X138058Y264892D01*
X137957Y264847D01*
X137857Y264800D01*
X137758Y264748D01*
X137662Y264693D01*
X137568Y264635D01*
X137476Y264574D01*
X137386Y264509D01*
X137298Y264441D01*
X137213Y264370D01*
X137131Y264296D01*
X137051Y264219D01*
X136974Y264139D01*
X136900Y264057D01*
X136829Y263972D01*
X136761Y263884D01*
X136696Y263794D01*
X136635Y263702D01*
X136577Y263608D01*
X136522Y263512D01*
X136470Y263413D01*
X136423Y263313D01*
X136378Y263212D01*
X136338Y263109D01*
X136301Y263004D01*
X136268Y262898D01*
X136238Y262792D01*
X136213Y262684D01*
X136191Y262575D01*
X136174Y262466D01*
X136160Y262356D01*
X136150Y262245D01*
X136144Y262135D01*
X136142Y262024D01*
X136142Y257056D01*
X136144Y256945D01*
X136150Y256835D01*
X136160Y256724D01*
X136174Y256614D01*
X136191Y256505D01*
X136213Y256396D01*
X136238Y256288D01*
X136268Y256182D01*
X136301Y256076D01*
X136338Y255971D01*
X136378Y255868D01*
X136423Y255767D01*
X136470Y255667D01*
X136522Y255568D01*
X136577Y255472D01*
X136635Y255378D01*
X136696Y255286D01*
X136761Y255196D01*
X136829Y255108D01*
X136900Y255023D01*
X136974Y254941D01*
X137051Y254861D01*
X137131Y254784D01*
X137213Y254710D01*
X137298Y254639D01*
X137386Y254571D01*
X137476Y254506D01*
X137568Y254445D01*
X137662Y254387D01*
X137758Y254332D01*
X137857Y254280D01*
X137957Y254233D01*
X138058Y254188D01*
X138161Y254148D01*
X138266Y254111D01*
X138372Y254078D01*
X138478Y254048D01*
X138586Y254023D01*
X138695Y254001D01*
X138804Y253984D01*
X138914Y253970D01*
X139025Y253960D01*
X139135Y253954D01*
X139246Y253952D01*
X139357Y253954D01*
X139467Y253960D01*
X139578Y253970D01*
X139688Y253984D01*
X139797Y254001D01*
X139906Y254023D01*
X140014Y254048D01*
X140120Y254078D01*
X140226Y254111D01*
X140331Y254148D01*
X140434Y254188D01*
X140535Y254233D01*
X140635Y254280D01*
X140734Y254332D01*
X140830Y254387D01*
X140924Y254445D01*
X141016Y254506D01*
X141106Y254571D01*
X141194Y254639D01*
X141279Y254710D01*
X141361Y254784D01*
X141441Y254861D01*
X141518Y254941D01*
X141592Y255023D01*
X141663Y255108D01*
X141731Y255196D01*
X141796Y255286D01*
X141857Y255378D01*
X141915Y255472D01*
X141970Y255568D01*
X142022Y255667D01*
X142069Y255767D01*
X142114Y255868D01*
X142154Y255971D01*
X142191Y256076D01*
X142224Y256182D01*
X142254Y256288D01*
X142279Y256396D01*
X142301Y256505D01*
X142318Y256614D01*
X142332Y256724D01*
X142342Y256835D01*
X142348Y256945D01*
X142350Y257056D01*
X225719Y238458D02*
X225719Y227282D01*
X225719Y238458D02*
X222615Y238458D01*
X222504Y238456D01*
X222394Y238450D01*
X222283Y238440D01*
X222173Y238426D01*
X222064Y238409D01*
X221955Y238387D01*
X221847Y238362D01*
X221741Y238332D01*
X221635Y238299D01*
X221530Y238262D01*
X221427Y238222D01*
X221326Y238177D01*
X221226Y238130D01*
X221127Y238078D01*
X221031Y238023D01*
X220937Y237965D01*
X220845Y237904D01*
X220755Y237839D01*
X220667Y237771D01*
X220582Y237700D01*
X220500Y237626D01*
X220420Y237549D01*
X220343Y237469D01*
X220269Y237387D01*
X220198Y237302D01*
X220130Y237214D01*
X220065Y237124D01*
X220004Y237032D01*
X219946Y236938D01*
X219891Y236842D01*
X219839Y236743D01*
X219792Y236643D01*
X219747Y236542D01*
X219707Y236439D01*
X219670Y236334D01*
X219637Y236228D01*
X219607Y236122D01*
X219582Y236014D01*
X219560Y235905D01*
X219543Y235796D01*
X219529Y235686D01*
X219519Y235575D01*
X219513Y235465D01*
X219511Y235354D01*
X219510Y235354D02*
X219510Y230386D01*
X219511Y230386D02*
X219513Y230275D01*
X219519Y230165D01*
X219529Y230054D01*
X219543Y229944D01*
X219560Y229835D01*
X219582Y229726D01*
X219607Y229618D01*
X219637Y229512D01*
X219670Y229406D01*
X219707Y229301D01*
X219747Y229198D01*
X219792Y229097D01*
X219839Y228997D01*
X219891Y228898D01*
X219946Y228802D01*
X220004Y228708D01*
X220065Y228616D01*
X220130Y228526D01*
X220198Y228438D01*
X220269Y228353D01*
X220343Y228271D01*
X220420Y228191D01*
X220500Y228114D01*
X220582Y228040D01*
X220667Y227969D01*
X220755Y227901D01*
X220845Y227836D01*
X220937Y227775D01*
X221031Y227717D01*
X221127Y227662D01*
X221226Y227610D01*
X221326Y227563D01*
X221427Y227518D01*
X221530Y227478D01*
X221635Y227441D01*
X221741Y227408D01*
X221847Y227378D01*
X221955Y227353D01*
X222064Y227331D01*
X222173Y227314D01*
X222283Y227300D01*
X222394Y227290D01*
X222504Y227284D01*
X222615Y227282D01*
X225719Y227282D01*
X213090Y227282D02*
X213090Y238458D01*
X214332Y227282D02*
X211848Y227282D01*
X211848Y238458D02*
X214332Y238458D01*
X207050Y235354D02*
X207050Y230386D01*
X207050Y235354D02*
X207048Y235465D01*
X207042Y235575D01*
X207032Y235686D01*
X207018Y235796D01*
X207001Y235905D01*
X206979Y236014D01*
X206954Y236122D01*
X206924Y236228D01*
X206891Y236334D01*
X206854Y236439D01*
X206814Y236542D01*
X206769Y236643D01*
X206722Y236743D01*
X206670Y236842D01*
X206615Y236938D01*
X206557Y237032D01*
X206496Y237124D01*
X206431Y237214D01*
X206363Y237302D01*
X206292Y237387D01*
X206218Y237469D01*
X206141Y237549D01*
X206061Y237626D01*
X205979Y237700D01*
X205894Y237771D01*
X205806Y237839D01*
X205716Y237904D01*
X205624Y237965D01*
X205530Y238023D01*
X205434Y238078D01*
X205335Y238130D01*
X205235Y238177D01*
X205134Y238222D01*
X205031Y238262D01*
X204926Y238299D01*
X204820Y238332D01*
X204714Y238362D01*
X204606Y238387D01*
X204497Y238409D01*
X204388Y238426D01*
X204278Y238440D01*
X204167Y238450D01*
X204057Y238456D01*
X203946Y238458D01*
X203835Y238456D01*
X203725Y238450D01*
X203614Y238440D01*
X203504Y238426D01*
X203395Y238409D01*
X203286Y238387D01*
X203178Y238362D01*
X203072Y238332D01*
X202966Y238299D01*
X202861Y238262D01*
X202758Y238222D01*
X202657Y238177D01*
X202557Y238130D01*
X202458Y238078D01*
X202362Y238023D01*
X202268Y237965D01*
X202176Y237904D01*
X202086Y237839D01*
X201998Y237771D01*
X201913Y237700D01*
X201831Y237626D01*
X201751Y237549D01*
X201674Y237469D01*
X201600Y237387D01*
X201529Y237302D01*
X201461Y237214D01*
X201396Y237124D01*
X201335Y237032D01*
X201277Y236938D01*
X201222Y236842D01*
X201170Y236743D01*
X201123Y236643D01*
X201078Y236542D01*
X201038Y236439D01*
X201001Y236334D01*
X200968Y236228D01*
X200938Y236122D01*
X200913Y236014D01*
X200891Y235905D01*
X200874Y235796D01*
X200860Y235686D01*
X200850Y235575D01*
X200844Y235465D01*
X200842Y235354D01*
X200841Y235354D02*
X200841Y230386D01*
X200842Y230386D02*
X200844Y230275D01*
X200850Y230165D01*
X200860Y230054D01*
X200874Y229944D01*
X200891Y229835D01*
X200913Y229726D01*
X200938Y229618D01*
X200968Y229512D01*
X201001Y229406D01*
X201038Y229301D01*
X201078Y229198D01*
X201123Y229097D01*
X201170Y228997D01*
X201222Y228898D01*
X201277Y228802D01*
X201335Y228708D01*
X201396Y228616D01*
X201461Y228526D01*
X201529Y228438D01*
X201600Y228353D01*
X201674Y228271D01*
X201751Y228191D01*
X201831Y228114D01*
X201913Y228040D01*
X201998Y227969D01*
X202086Y227901D01*
X202176Y227836D01*
X202268Y227775D01*
X202362Y227717D01*
X202458Y227662D01*
X202557Y227610D01*
X202657Y227563D01*
X202758Y227518D01*
X202861Y227478D01*
X202966Y227441D01*
X203072Y227408D01*
X203178Y227378D01*
X203286Y227353D01*
X203395Y227331D01*
X203504Y227314D01*
X203614Y227300D01*
X203725Y227290D01*
X203835Y227284D01*
X203946Y227282D01*
X204057Y227284D01*
X204167Y227290D01*
X204278Y227300D01*
X204388Y227314D01*
X204497Y227331D01*
X204606Y227353D01*
X204714Y227378D01*
X204820Y227408D01*
X204926Y227441D01*
X205031Y227478D01*
X205134Y227518D01*
X205235Y227563D01*
X205335Y227610D01*
X205434Y227662D01*
X205530Y227717D01*
X205624Y227775D01*
X205716Y227836D01*
X205806Y227901D01*
X205894Y227969D01*
X205979Y228040D01*
X206061Y228114D01*
X206141Y228191D01*
X206218Y228271D01*
X206292Y228353D01*
X206363Y228438D01*
X206431Y228526D01*
X206496Y228616D01*
X206557Y228708D01*
X206615Y228802D01*
X206670Y228898D01*
X206722Y228997D01*
X206769Y229097D01*
X206814Y229198D01*
X206854Y229301D01*
X206891Y229406D01*
X206924Y229512D01*
X206954Y229618D01*
X206979Y229726D01*
X207001Y229835D01*
X207018Y229944D01*
X207032Y230054D01*
X207042Y230165D01*
X207048Y230275D01*
X207050Y230386D01*
X195620Y235974D02*
X192516Y238458D01*
X192516Y227282D01*
X195620Y227282D02*
X189411Y227282D01*
X184190Y227282D02*
X180465Y227282D01*
X180367Y227284D01*
X180270Y227290D01*
X180173Y227299D01*
X180076Y227313D01*
X179980Y227330D01*
X179885Y227351D01*
X179791Y227375D01*
X179697Y227404D01*
X179605Y227436D01*
X179514Y227471D01*
X179425Y227510D01*
X179337Y227553D01*
X179251Y227599D01*
X179167Y227648D01*
X179085Y227701D01*
X179005Y227756D01*
X178927Y227815D01*
X178852Y227877D01*
X178779Y227942D01*
X178709Y228010D01*
X178641Y228080D01*
X178576Y228153D01*
X178514Y228228D01*
X178455Y228306D01*
X178400Y228386D01*
X178347Y228468D01*
X178298Y228552D01*
X178252Y228638D01*
X178209Y228726D01*
X178170Y228815D01*
X178135Y228906D01*
X178103Y228998D01*
X178074Y229092D01*
X178050Y229186D01*
X178029Y229281D01*
X178012Y229377D01*
X177998Y229474D01*
X177989Y229571D01*
X177983Y229668D01*
X177981Y229766D01*
X177981Y231007D01*
X177983Y231105D01*
X177989Y231202D01*
X177998Y231299D01*
X178012Y231396D01*
X178029Y231492D01*
X178050Y231587D01*
X178074Y231681D01*
X178103Y231775D01*
X178135Y231867D01*
X178170Y231958D01*
X178209Y232047D01*
X178252Y232135D01*
X178298Y232221D01*
X178347Y232305D01*
X178400Y232387D01*
X178455Y232467D01*
X178514Y232545D01*
X178576Y232620D01*
X178641Y232693D01*
X178709Y232763D01*
X178779Y232831D01*
X178852Y232896D01*
X178927Y232958D01*
X179005Y233017D01*
X179085Y233072D01*
X179167Y233125D01*
X179251Y233174D01*
X179337Y233220D01*
X179425Y233263D01*
X179514Y233302D01*
X179605Y233337D01*
X179697Y233369D01*
X179791Y233398D01*
X179885Y233422D01*
X179980Y233443D01*
X180076Y233460D01*
X180173Y233474D01*
X180270Y233483D01*
X180367Y233489D01*
X180465Y233491D01*
X184190Y233491D01*
X184190Y238458D01*
X177981Y238458D01*
X168315Y239700D02*
X173282Y226040D01*
X160272Y227282D02*
X160174Y227284D01*
X160077Y227290D01*
X159980Y227299D01*
X159883Y227313D01*
X159787Y227330D01*
X159692Y227351D01*
X159598Y227375D01*
X159504Y227404D01*
X159412Y227436D01*
X159321Y227471D01*
X159232Y227510D01*
X159144Y227553D01*
X159058Y227599D01*
X158974Y227648D01*
X158892Y227701D01*
X158812Y227756D01*
X158734Y227815D01*
X158659Y227877D01*
X158586Y227942D01*
X158516Y228010D01*
X158448Y228080D01*
X158383Y228153D01*
X158321Y228228D01*
X158262Y228306D01*
X158207Y228386D01*
X158154Y228468D01*
X158105Y228552D01*
X158059Y228638D01*
X158016Y228726D01*
X157977Y228815D01*
X157942Y228906D01*
X157910Y228998D01*
X157881Y229092D01*
X157857Y229186D01*
X157836Y229281D01*
X157819Y229377D01*
X157805Y229474D01*
X157796Y229571D01*
X157790Y229668D01*
X157788Y229766D01*
X160272Y227282D02*
X160415Y227284D01*
X160558Y227290D01*
X160700Y227299D01*
X160842Y227313D01*
X160984Y227331D01*
X161125Y227352D01*
X161266Y227377D01*
X161406Y227406D01*
X161545Y227439D01*
X161683Y227475D01*
X161820Y227516D01*
X161956Y227560D01*
X162090Y227607D01*
X162224Y227659D01*
X162355Y227713D01*
X162486Y227772D01*
X162614Y227834D01*
X162741Y227899D01*
X162866Y227968D01*
X162990Y228041D01*
X163111Y228116D01*
X163230Y228195D01*
X163347Y228277D01*
X163461Y228363D01*
X163573Y228451D01*
X163683Y228542D01*
X163790Y228637D01*
X163895Y228734D01*
X163997Y228834D01*
X163687Y235974D02*
X163685Y236072D01*
X163679Y236169D01*
X163670Y236266D01*
X163656Y236363D01*
X163639Y236459D01*
X163618Y236554D01*
X163594Y236648D01*
X163565Y236742D01*
X163533Y236834D01*
X163498Y236925D01*
X163459Y237014D01*
X163416Y237102D01*
X163370Y237188D01*
X163321Y237272D01*
X163268Y237354D01*
X163213Y237434D01*
X163154Y237512D01*
X163092Y237587D01*
X163027Y237660D01*
X162959Y237730D01*
X162889Y237798D01*
X162816Y237863D01*
X162741Y237925D01*
X162663Y237984D01*
X162583Y238039D01*
X162501Y238092D01*
X162417Y238141D01*
X162331Y238187D01*
X162243Y238230D01*
X162154Y238269D01*
X162063Y238304D01*
X161971Y238336D01*
X161877Y238365D01*
X161783Y238389D01*
X161688Y238410D01*
X161592Y238427D01*
X161495Y238441D01*
X161398Y238450D01*
X161301Y238456D01*
X161203Y238458D01*
X161073Y238456D01*
X160943Y238451D01*
X160813Y238442D01*
X160683Y238429D01*
X160554Y238413D01*
X160425Y238393D01*
X160297Y238369D01*
X160169Y238342D01*
X160043Y238311D01*
X159917Y238277D01*
X159792Y238239D01*
X159669Y238198D01*
X159546Y238153D01*
X159425Y238105D01*
X159305Y238054D01*
X159187Y237999D01*
X159071Y237941D01*
X158956Y237880D01*
X158842Y237815D01*
X158731Y237748D01*
X158622Y237677D01*
X158514Y237603D01*
X158409Y237527D01*
X162444Y233801D02*
X162527Y233852D01*
X162608Y233906D01*
X162686Y233963D01*
X162762Y234023D01*
X162836Y234086D01*
X162907Y234152D01*
X162976Y234220D01*
X163042Y234291D01*
X163106Y234364D01*
X163166Y234440D01*
X163223Y234518D01*
X163278Y234599D01*
X163329Y234681D01*
X163377Y234765D01*
X163422Y234851D01*
X163464Y234939D01*
X163502Y235028D01*
X163536Y235118D01*
X163568Y235210D01*
X163595Y235303D01*
X163619Y235397D01*
X163640Y235492D01*
X163656Y235588D01*
X163669Y235684D01*
X163679Y235780D01*
X163684Y235877D01*
X163686Y235974D01*
X159031Y231939D02*
X158948Y231888D01*
X158867Y231834D01*
X158789Y231777D01*
X158713Y231717D01*
X158639Y231654D01*
X158568Y231588D01*
X158499Y231520D01*
X158433Y231449D01*
X158369Y231376D01*
X158309Y231300D01*
X158252Y231222D01*
X158197Y231141D01*
X158146Y231059D01*
X158098Y230975D01*
X158053Y230889D01*
X158011Y230801D01*
X157973Y230712D01*
X157939Y230622D01*
X157907Y230530D01*
X157880Y230437D01*
X157856Y230343D01*
X157835Y230248D01*
X157819Y230152D01*
X157806Y230056D01*
X157796Y229960D01*
X157791Y229863D01*
X157789Y229766D01*
X159030Y231939D02*
X162445Y233801D01*
X152356Y233491D02*
X149251Y233491D01*
X149251Y233490D02*
X149140Y233488D01*
X149030Y233482D01*
X148919Y233472D01*
X148809Y233458D01*
X148700Y233441D01*
X148591Y233419D01*
X148483Y233394D01*
X148377Y233364D01*
X148271Y233331D01*
X148166Y233294D01*
X148063Y233254D01*
X147962Y233209D01*
X147862Y233162D01*
X147763Y233110D01*
X147667Y233055D01*
X147573Y232997D01*
X147481Y232936D01*
X147391Y232871D01*
X147303Y232803D01*
X147218Y232732D01*
X147136Y232658D01*
X147056Y232581D01*
X146979Y232501D01*
X146905Y232419D01*
X146834Y232334D01*
X146766Y232246D01*
X146701Y232156D01*
X146640Y232064D01*
X146582Y231970D01*
X146527Y231874D01*
X146475Y231775D01*
X146428Y231675D01*
X146383Y231574D01*
X146343Y231471D01*
X146306Y231366D01*
X146273Y231260D01*
X146243Y231154D01*
X146218Y231046D01*
X146196Y230937D01*
X146179Y230828D01*
X146165Y230718D01*
X146155Y230607D01*
X146149Y230497D01*
X146147Y230386D01*
X146149Y230275D01*
X146155Y230165D01*
X146165Y230054D01*
X146179Y229944D01*
X146196Y229835D01*
X146218Y229726D01*
X146243Y229618D01*
X146273Y229512D01*
X146306Y229406D01*
X146343Y229301D01*
X146383Y229198D01*
X146428Y229097D01*
X146475Y228997D01*
X146527Y228898D01*
X146582Y228802D01*
X146640Y228708D01*
X146701Y228616D01*
X146766Y228526D01*
X146834Y228438D01*
X146905Y228353D01*
X146979Y228271D01*
X147056Y228191D01*
X147136Y228114D01*
X147218Y228040D01*
X147303Y227969D01*
X147391Y227901D01*
X147481Y227836D01*
X147573Y227775D01*
X147667Y227717D01*
X147763Y227662D01*
X147862Y227610D01*
X147962Y227563D01*
X148063Y227518D01*
X148166Y227478D01*
X148271Y227441D01*
X148377Y227408D01*
X148483Y227378D01*
X148591Y227353D01*
X148700Y227331D01*
X148809Y227314D01*
X148919Y227300D01*
X149030Y227290D01*
X149140Y227284D01*
X149251Y227282D01*
X152356Y227282D01*
X152356Y238458D01*
X149251Y238458D01*
X149152Y238456D01*
X149054Y238450D01*
X148955Y238440D01*
X148858Y238427D01*
X148760Y238409D01*
X148664Y238388D01*
X148568Y238362D01*
X148474Y238333D01*
X148381Y238301D01*
X148289Y238264D01*
X148199Y238224D01*
X148110Y238180D01*
X148023Y238133D01*
X147938Y238083D01*
X147856Y238029D01*
X147775Y237972D01*
X147697Y237912D01*
X147621Y237848D01*
X147548Y237782D01*
X147477Y237713D01*
X147409Y237641D01*
X147345Y237566D01*
X147283Y237489D01*
X147224Y237410D01*
X147169Y237328D01*
X147116Y237244D01*
X147068Y237159D01*
X147022Y237071D01*
X146980Y236981D01*
X146942Y236890D01*
X146908Y236798D01*
X146877Y236704D01*
X146850Y236609D01*
X146826Y236513D01*
X146807Y236416D01*
X146791Y236319D01*
X146779Y236221D01*
X146771Y236122D01*
X146767Y236023D01*
X146767Y235925D01*
X146771Y235826D01*
X146779Y235727D01*
X146791Y235629D01*
X146807Y235532D01*
X146826Y235435D01*
X146850Y235339D01*
X146877Y235244D01*
X146908Y235150D01*
X146942Y235058D01*
X146980Y234967D01*
X147022Y234877D01*
X147068Y234789D01*
X147116Y234704D01*
X147169Y234620D01*
X147224Y234538D01*
X147283Y234459D01*
X147345Y234382D01*
X147409Y234307D01*
X147477Y234235D01*
X147548Y234166D01*
X147621Y234100D01*
X147697Y234036D01*
X147775Y233976D01*
X147856Y233919D01*
X147938Y233865D01*
X148023Y233815D01*
X148110Y233768D01*
X148199Y233724D01*
X148289Y233684D01*
X148381Y233647D01*
X148474Y233615D01*
X148568Y233586D01*
X148664Y233560D01*
X148760Y233539D01*
X148858Y233521D01*
X148955Y233508D01*
X149054Y233498D01*
X149152Y233492D01*
X149251Y233490D01*
X141109Y238458D02*
X141109Y227282D01*
X136142Y227282D01*
X225790Y213058D02*
X225790Y201882D01*
X225790Y213058D02*
X222685Y213058D01*
X222574Y213056D01*
X222464Y213050D01*
X222353Y213040D01*
X222243Y213026D01*
X222134Y213009D01*
X222025Y212987D01*
X221917Y212962D01*
X221811Y212932D01*
X221705Y212899D01*
X221600Y212862D01*
X221497Y212822D01*
X221396Y212777D01*
X221296Y212730D01*
X221197Y212678D01*
X221101Y212623D01*
X221007Y212565D01*
X220915Y212504D01*
X220825Y212439D01*
X220737Y212371D01*
X220652Y212300D01*
X220570Y212226D01*
X220490Y212149D01*
X220413Y212069D01*
X220339Y211987D01*
X220268Y211902D01*
X220200Y211814D01*
X220135Y211724D01*
X220074Y211632D01*
X220016Y211538D01*
X219961Y211442D01*
X219909Y211343D01*
X219862Y211243D01*
X219817Y211142D01*
X219777Y211039D01*
X219740Y210934D01*
X219707Y210828D01*
X219677Y210722D01*
X219652Y210614D01*
X219630Y210505D01*
X219613Y210396D01*
X219599Y210286D01*
X219589Y210175D01*
X219583Y210065D01*
X219581Y209954D01*
X219581Y204986D01*
X219583Y204875D01*
X219589Y204765D01*
X219599Y204654D01*
X219613Y204544D01*
X219630Y204435D01*
X219652Y204326D01*
X219677Y204218D01*
X219707Y204112D01*
X219740Y204006D01*
X219777Y203901D01*
X219817Y203798D01*
X219862Y203697D01*
X219909Y203597D01*
X219961Y203498D01*
X220016Y203402D01*
X220074Y203308D01*
X220135Y203216D01*
X220200Y203126D01*
X220268Y203038D01*
X220339Y202953D01*
X220413Y202871D01*
X220490Y202791D01*
X220570Y202714D01*
X220652Y202640D01*
X220737Y202569D01*
X220825Y202501D01*
X220915Y202436D01*
X221007Y202375D01*
X221101Y202317D01*
X221197Y202262D01*
X221296Y202210D01*
X221396Y202163D01*
X221497Y202118D01*
X221600Y202078D01*
X221705Y202041D01*
X221811Y202008D01*
X221917Y201978D01*
X222025Y201953D01*
X222134Y201931D01*
X222243Y201914D01*
X222353Y201900D01*
X222464Y201890D01*
X222574Y201884D01*
X222685Y201882D01*
X225790Y201882D01*
X213160Y201882D02*
X213160Y213058D01*
X214402Y201882D02*
X211919Y201882D01*
X211919Y213058D02*
X214402Y213058D01*
X207121Y209954D02*
X207121Y204986D01*
X207120Y209954D02*
X207118Y210065D01*
X207112Y210175D01*
X207102Y210286D01*
X207088Y210396D01*
X207071Y210505D01*
X207049Y210614D01*
X207024Y210722D01*
X206994Y210828D01*
X206961Y210934D01*
X206924Y211039D01*
X206884Y211142D01*
X206839Y211243D01*
X206792Y211343D01*
X206740Y211442D01*
X206685Y211538D01*
X206627Y211632D01*
X206566Y211724D01*
X206501Y211814D01*
X206433Y211902D01*
X206362Y211987D01*
X206288Y212069D01*
X206211Y212149D01*
X206131Y212226D01*
X206049Y212300D01*
X205964Y212371D01*
X205876Y212439D01*
X205786Y212504D01*
X205694Y212565D01*
X205600Y212623D01*
X205504Y212678D01*
X205405Y212730D01*
X205305Y212777D01*
X205204Y212822D01*
X205101Y212862D01*
X204996Y212899D01*
X204890Y212932D01*
X204784Y212962D01*
X204676Y212987D01*
X204567Y213009D01*
X204458Y213026D01*
X204348Y213040D01*
X204237Y213050D01*
X204127Y213056D01*
X204016Y213058D01*
X203905Y213056D01*
X203795Y213050D01*
X203684Y213040D01*
X203574Y213026D01*
X203465Y213009D01*
X203356Y212987D01*
X203248Y212962D01*
X203142Y212932D01*
X203036Y212899D01*
X202931Y212862D01*
X202828Y212822D01*
X202727Y212777D01*
X202627Y212730D01*
X202528Y212678D01*
X202432Y212623D01*
X202338Y212565D01*
X202246Y212504D01*
X202156Y212439D01*
X202068Y212371D01*
X201983Y212300D01*
X201901Y212226D01*
X201821Y212149D01*
X201744Y212069D01*
X201670Y211987D01*
X201599Y211902D01*
X201531Y211814D01*
X201466Y211724D01*
X201405Y211632D01*
X201347Y211538D01*
X201292Y211442D01*
X201240Y211343D01*
X201193Y211243D01*
X201148Y211142D01*
X201108Y211039D01*
X201071Y210934D01*
X201038Y210828D01*
X201008Y210722D01*
X200983Y210614D01*
X200961Y210505D01*
X200944Y210396D01*
X200930Y210286D01*
X200920Y210175D01*
X200914Y210065D01*
X200912Y209954D01*
X200912Y204986D01*
X200914Y204875D01*
X200920Y204765D01*
X200930Y204654D01*
X200944Y204544D01*
X200961Y204435D01*
X200983Y204326D01*
X201008Y204218D01*
X201038Y204112D01*
X201071Y204006D01*
X201108Y203901D01*
X201148Y203798D01*
X201193Y203697D01*
X201240Y203597D01*
X201292Y203498D01*
X201347Y203402D01*
X201405Y203308D01*
X201466Y203216D01*
X201531Y203126D01*
X201599Y203038D01*
X201670Y202953D01*
X201744Y202871D01*
X201821Y202791D01*
X201901Y202714D01*
X201983Y202640D01*
X202068Y202569D01*
X202156Y202501D01*
X202246Y202436D01*
X202338Y202375D01*
X202432Y202317D01*
X202528Y202262D01*
X202627Y202210D01*
X202727Y202163D01*
X202828Y202118D01*
X202931Y202078D01*
X203036Y202041D01*
X203142Y202008D01*
X203248Y201978D01*
X203356Y201953D01*
X203465Y201931D01*
X203574Y201914D01*
X203684Y201900D01*
X203795Y201890D01*
X203905Y201884D01*
X204016Y201882D01*
X204127Y201884D01*
X204237Y201890D01*
X204348Y201900D01*
X204458Y201914D01*
X204567Y201931D01*
X204676Y201953D01*
X204784Y201978D01*
X204890Y202008D01*
X204996Y202041D01*
X205101Y202078D01*
X205204Y202118D01*
X205305Y202163D01*
X205405Y202210D01*
X205504Y202262D01*
X205600Y202317D01*
X205694Y202375D01*
X205786Y202436D01*
X205876Y202501D01*
X205964Y202569D01*
X206049Y202640D01*
X206131Y202714D01*
X206211Y202791D01*
X206288Y202871D01*
X206362Y202953D01*
X206433Y203038D01*
X206501Y203126D01*
X206566Y203216D01*
X206627Y203308D01*
X206685Y203402D01*
X206740Y203498D01*
X206792Y203597D01*
X206839Y203697D01*
X206884Y203798D01*
X206924Y203901D01*
X206961Y204006D01*
X206994Y204112D01*
X207024Y204218D01*
X207049Y204326D01*
X207071Y204435D01*
X207088Y204544D01*
X207102Y204654D01*
X207112Y204765D01*
X207118Y204875D01*
X207120Y204986D01*
X195691Y210574D02*
X192586Y213058D01*
X192586Y201882D01*
X189482Y201882D02*
X195691Y201882D01*
X184261Y204366D02*
X181777Y213058D01*
X184261Y204366D02*
X178052Y204366D01*
X179915Y206849D02*
X179915Y201882D01*
D10*
X243838Y78692D02*
X243838Y75136D01*
X247394Y76321D02*
X238504Y76321D01*
X238422Y76323D01*
X238340Y76329D01*
X238258Y76338D01*
X238177Y76351D01*
X238097Y76368D01*
X238017Y76389D01*
X237939Y76413D01*
X237862Y76441D01*
X237786Y76472D01*
X237711Y76507D01*
X237639Y76546D01*
X237568Y76587D01*
X237499Y76632D01*
X237433Y76680D01*
X237368Y76731D01*
X237306Y76785D01*
X237247Y76842D01*
X237190Y76901D01*
X237136Y76963D01*
X237085Y77028D01*
X237037Y77094D01*
X236992Y77163D01*
X236951Y77234D01*
X236912Y77306D01*
X236877Y77381D01*
X236846Y77457D01*
X236818Y77534D01*
X236794Y77612D01*
X236773Y77692D01*
X236756Y77772D01*
X236743Y77853D01*
X236734Y77935D01*
X236728Y78017D01*
X236726Y78099D01*
X236726Y78692D01*
X236726Y82852D02*
X237319Y82852D01*
X237319Y83445D01*
X236726Y83445D01*
X236726Y82852D01*
X236726Y88737D02*
X243838Y88737D01*
X243838Y94071D01*
X243836Y94153D01*
X243830Y94235D01*
X243821Y94317D01*
X243808Y94398D01*
X243791Y94478D01*
X243770Y94558D01*
X243746Y94636D01*
X243718Y94713D01*
X243687Y94789D01*
X243652Y94864D01*
X243613Y94936D01*
X243572Y95007D01*
X243527Y95076D01*
X243479Y95142D01*
X243428Y95207D01*
X243374Y95269D01*
X243317Y95328D01*
X243258Y95385D01*
X243196Y95439D01*
X243131Y95490D01*
X243065Y95538D01*
X242996Y95583D01*
X242925Y95624D01*
X242853Y95663D01*
X242778Y95698D01*
X242702Y95729D01*
X242625Y95757D01*
X242547Y95781D01*
X242467Y95802D01*
X242387Y95819D01*
X242306Y95832D01*
X242224Y95841D01*
X242142Y95847D01*
X242060Y95849D01*
X236726Y95849D01*
X236726Y92293D02*
X243838Y92293D01*
X236726Y103511D02*
X236726Y106474D01*
X236726Y103511D02*
X236728Y103429D01*
X236734Y103347D01*
X236743Y103265D01*
X236756Y103184D01*
X236773Y103104D01*
X236794Y103024D01*
X236818Y102946D01*
X236846Y102869D01*
X236877Y102793D01*
X236912Y102718D01*
X236951Y102646D01*
X236992Y102575D01*
X237037Y102506D01*
X237085Y102440D01*
X237136Y102375D01*
X237190Y102313D01*
X237247Y102254D01*
X237306Y102197D01*
X237368Y102143D01*
X237433Y102092D01*
X237499Y102044D01*
X237568Y101999D01*
X237639Y101958D01*
X237711Y101919D01*
X237786Y101884D01*
X237862Y101853D01*
X237939Y101825D01*
X238017Y101801D01*
X238097Y101780D01*
X238177Y101763D01*
X238258Y101750D01*
X238340Y101741D01*
X238422Y101735D01*
X238504Y101733D01*
X241467Y101733D01*
X241564Y101735D01*
X241660Y101741D01*
X241756Y101751D01*
X241852Y101765D01*
X241947Y101782D01*
X242042Y101804D01*
X242135Y101829D01*
X242227Y101858D01*
X242318Y101891D01*
X242408Y101928D01*
X242496Y101968D01*
X242582Y102012D01*
X242666Y102059D01*
X242749Y102109D01*
X242829Y102163D01*
X242907Y102221D01*
X242983Y102281D01*
X243056Y102344D01*
X243126Y102410D01*
X243194Y102480D01*
X243259Y102551D01*
X243321Y102626D01*
X243379Y102703D01*
X243435Y102782D01*
X243487Y102863D01*
X243536Y102947D01*
X243582Y103032D01*
X243624Y103119D01*
X243662Y103208D01*
X243697Y103298D01*
X243728Y103390D01*
X243755Y103483D01*
X243779Y103576D01*
X243798Y103671D01*
X243814Y103767D01*
X243826Y103863D01*
X243834Y103959D01*
X243838Y104056D01*
X243838Y104152D01*
X243834Y104249D01*
X243826Y104345D01*
X243814Y104441D01*
X243798Y104537D01*
X243779Y104632D01*
X243755Y104725D01*
X243728Y104818D01*
X243697Y104910D01*
X243662Y105000D01*
X243624Y105089D01*
X243582Y105176D01*
X243536Y105261D01*
X243487Y105345D01*
X243435Y105426D01*
X243379Y105505D01*
X243321Y105582D01*
X243259Y105657D01*
X243194Y105728D01*
X243126Y105798D01*
X243056Y105864D01*
X242983Y105927D01*
X242907Y105987D01*
X242829Y106045D01*
X242749Y106099D01*
X242666Y106149D01*
X242582Y106196D01*
X242496Y106240D01*
X242408Y106280D01*
X242318Y106317D01*
X242227Y106350D01*
X242135Y106379D01*
X242042Y106404D01*
X241947Y106426D01*
X241852Y106443D01*
X241756Y106457D01*
X241660Y106467D01*
X241564Y106473D01*
X241467Y106475D01*
X241467Y106474D02*
X240282Y106474D01*
X240282Y101733D01*
X235541Y111258D02*
X248579Y115999D01*
X247394Y125436D02*
X236726Y125436D01*
X236726Y122472D01*
X236728Y122390D01*
X236734Y122308D01*
X236743Y122226D01*
X236756Y122145D01*
X236773Y122065D01*
X236794Y121985D01*
X236818Y121907D01*
X236846Y121830D01*
X236877Y121754D01*
X236912Y121679D01*
X236951Y121607D01*
X236992Y121536D01*
X237037Y121467D01*
X237085Y121401D01*
X237136Y121336D01*
X237190Y121274D01*
X237247Y121215D01*
X237306Y121158D01*
X237368Y121104D01*
X237433Y121053D01*
X237499Y121005D01*
X237568Y120960D01*
X237639Y120919D01*
X237711Y120880D01*
X237786Y120845D01*
X237862Y120814D01*
X237939Y120786D01*
X238017Y120762D01*
X238097Y120741D01*
X238177Y120724D01*
X238258Y120711D01*
X238340Y120702D01*
X238422Y120696D01*
X238504Y120694D01*
X242060Y120694D01*
X242142Y120696D01*
X242224Y120702D01*
X242306Y120711D01*
X242387Y120724D01*
X242467Y120741D01*
X242547Y120762D01*
X242625Y120786D01*
X242702Y120814D01*
X242778Y120845D01*
X242853Y120880D01*
X242925Y120919D01*
X242996Y120960D01*
X243065Y121005D01*
X243131Y121053D01*
X243196Y121104D01*
X243258Y121158D01*
X243317Y121215D01*
X243374Y121274D01*
X243428Y121336D01*
X243479Y121401D01*
X243527Y121467D01*
X243572Y121536D01*
X243613Y121607D01*
X243652Y121679D01*
X243687Y121754D01*
X243718Y121830D01*
X243746Y121907D01*
X243770Y121985D01*
X243791Y122065D01*
X243808Y122145D01*
X243821Y122226D01*
X243830Y122308D01*
X243836Y122390D01*
X243838Y122472D01*
X243838Y125436D01*
X236726Y132848D02*
X236726Y135811D01*
X236726Y132848D02*
X236728Y132766D01*
X236734Y132684D01*
X236743Y132602D01*
X236756Y132521D01*
X236773Y132441D01*
X236794Y132361D01*
X236818Y132283D01*
X236846Y132206D01*
X236877Y132130D01*
X236912Y132055D01*
X236951Y131983D01*
X236992Y131912D01*
X237037Y131843D01*
X237085Y131777D01*
X237136Y131712D01*
X237190Y131650D01*
X237247Y131591D01*
X237306Y131534D01*
X237368Y131480D01*
X237433Y131429D01*
X237499Y131381D01*
X237568Y131336D01*
X237639Y131295D01*
X237711Y131256D01*
X237786Y131221D01*
X237862Y131190D01*
X237939Y131162D01*
X238017Y131138D01*
X238097Y131117D01*
X238177Y131100D01*
X238258Y131087D01*
X238340Y131078D01*
X238422Y131072D01*
X238504Y131070D01*
X241467Y131070D01*
X241467Y131069D02*
X241564Y131071D01*
X241660Y131077D01*
X241756Y131087D01*
X241852Y131101D01*
X241947Y131118D01*
X242042Y131140D01*
X242135Y131165D01*
X242227Y131194D01*
X242318Y131227D01*
X242408Y131264D01*
X242496Y131304D01*
X242582Y131348D01*
X242666Y131395D01*
X242749Y131445D01*
X242829Y131499D01*
X242907Y131557D01*
X242983Y131617D01*
X243056Y131680D01*
X243126Y131746D01*
X243194Y131816D01*
X243259Y131887D01*
X243321Y131962D01*
X243379Y132039D01*
X243435Y132118D01*
X243487Y132199D01*
X243536Y132283D01*
X243582Y132368D01*
X243624Y132455D01*
X243662Y132544D01*
X243697Y132634D01*
X243728Y132726D01*
X243755Y132819D01*
X243779Y132912D01*
X243798Y133007D01*
X243814Y133103D01*
X243826Y133199D01*
X243834Y133295D01*
X243838Y133392D01*
X243838Y133488D01*
X243834Y133585D01*
X243826Y133681D01*
X243814Y133777D01*
X243798Y133873D01*
X243779Y133968D01*
X243755Y134061D01*
X243728Y134154D01*
X243697Y134246D01*
X243662Y134336D01*
X243624Y134425D01*
X243582Y134512D01*
X243536Y134597D01*
X243487Y134681D01*
X243435Y134762D01*
X243379Y134841D01*
X243321Y134918D01*
X243259Y134993D01*
X243194Y135064D01*
X243126Y135134D01*
X243056Y135200D01*
X242983Y135263D01*
X242907Y135323D01*
X242829Y135381D01*
X242749Y135435D01*
X242666Y135485D01*
X242582Y135532D01*
X242496Y135576D01*
X242408Y135616D01*
X242318Y135653D01*
X242227Y135686D01*
X242135Y135715D01*
X242042Y135740D01*
X241947Y135762D01*
X241852Y135779D01*
X241756Y135793D01*
X241660Y135803D01*
X241564Y135809D01*
X241467Y135811D01*
X240282Y135811D01*
X240282Y131070D01*
X240875Y142962D02*
X240875Y145629D01*
X240874Y142962D02*
X240872Y142873D01*
X240866Y142784D01*
X240857Y142695D01*
X240843Y142607D01*
X240826Y142519D01*
X240805Y142432D01*
X240781Y142347D01*
X240752Y142262D01*
X240720Y142179D01*
X240685Y142097D01*
X240646Y142016D01*
X240604Y141938D01*
X240558Y141861D01*
X240509Y141787D01*
X240457Y141714D01*
X240401Y141644D01*
X240343Y141576D01*
X240282Y141511D01*
X240218Y141449D01*
X240152Y141389D01*
X240083Y141333D01*
X240012Y141279D01*
X239938Y141228D01*
X239863Y141181D01*
X239785Y141137D01*
X239706Y141096D01*
X239625Y141059D01*
X239542Y141025D01*
X239458Y140995D01*
X239373Y140969D01*
X239286Y140946D01*
X239199Y140927D01*
X239111Y140911D01*
X239023Y140900D01*
X238934Y140892D01*
X238845Y140888D01*
X238755Y140888D01*
X238666Y140892D01*
X238577Y140900D01*
X238489Y140911D01*
X238401Y140927D01*
X238314Y140946D01*
X238227Y140969D01*
X238142Y140995D01*
X238058Y141025D01*
X237975Y141059D01*
X237894Y141096D01*
X237815Y141137D01*
X237737Y141181D01*
X237662Y141228D01*
X237588Y141279D01*
X237517Y141333D01*
X237448Y141389D01*
X237382Y141449D01*
X237318Y141511D01*
X237257Y141576D01*
X237199Y141644D01*
X237143Y141714D01*
X237091Y141787D01*
X237042Y141861D01*
X236996Y141938D01*
X236954Y142016D01*
X236915Y142097D01*
X236880Y142179D01*
X236848Y142262D01*
X236819Y142347D01*
X236795Y142432D01*
X236774Y142519D01*
X236757Y142607D01*
X236743Y142695D01*
X236734Y142784D01*
X236728Y142873D01*
X236726Y142962D01*
X236726Y145629D01*
X242060Y145629D01*
X242142Y145627D01*
X242224Y145621D01*
X242306Y145612D01*
X242387Y145599D01*
X242467Y145582D01*
X242547Y145561D01*
X242625Y145537D01*
X242702Y145509D01*
X242778Y145478D01*
X242853Y145443D01*
X242925Y145404D01*
X242996Y145363D01*
X243065Y145318D01*
X243131Y145270D01*
X243196Y145219D01*
X243258Y145165D01*
X243317Y145108D01*
X243374Y145049D01*
X243428Y144987D01*
X243479Y144922D01*
X243527Y144856D01*
X243572Y144787D01*
X243613Y144716D01*
X243652Y144644D01*
X243687Y144569D01*
X243718Y144493D01*
X243746Y144416D01*
X243770Y144338D01*
X243791Y144258D01*
X243808Y144178D01*
X243821Y144097D01*
X243830Y144015D01*
X243836Y143933D01*
X243838Y143851D01*
X243838Y141480D01*
X236726Y150882D02*
X243838Y155623D01*
X243838Y150882D02*
X236726Y155623D01*
X236726Y160026D02*
X243838Y164767D01*
X243838Y160026D02*
X236726Y164767D01*
D12*
X101269Y358443D02*
X93903Y358443D01*
X101269Y358443D02*
X101269Y360489D01*
X101267Y360578D01*
X101261Y360667D01*
X101251Y360756D01*
X101238Y360844D01*
X101221Y360932D01*
X101199Y361019D01*
X101174Y361104D01*
X101146Y361189D01*
X101113Y361272D01*
X101077Y361354D01*
X101038Y361434D01*
X100995Y361512D01*
X100949Y361588D01*
X100899Y361663D01*
X100846Y361735D01*
X100790Y361804D01*
X100731Y361871D01*
X100670Y361936D01*
X100605Y361997D01*
X100538Y362056D01*
X100469Y362112D01*
X100397Y362165D01*
X100322Y362215D01*
X100246Y362261D01*
X100168Y362304D01*
X100088Y362343D01*
X100006Y362379D01*
X99923Y362412D01*
X99838Y362440D01*
X99753Y362465D01*
X99666Y362487D01*
X99578Y362504D01*
X99490Y362517D01*
X99401Y362527D01*
X99312Y362533D01*
X99223Y362535D01*
X99134Y362533D01*
X99045Y362527D01*
X98956Y362517D01*
X98868Y362504D01*
X98780Y362487D01*
X98693Y362465D01*
X98608Y362440D01*
X98523Y362412D01*
X98440Y362379D01*
X98358Y362343D01*
X98278Y362304D01*
X98200Y362261D01*
X98124Y362215D01*
X98049Y362165D01*
X97977Y362112D01*
X97908Y362056D01*
X97841Y361997D01*
X97776Y361936D01*
X97715Y361871D01*
X97656Y361804D01*
X97600Y361735D01*
X97547Y361663D01*
X97497Y361588D01*
X97451Y361512D01*
X97408Y361434D01*
X97369Y361354D01*
X97333Y361272D01*
X97300Y361189D01*
X97272Y361104D01*
X97247Y361019D01*
X97225Y360932D01*
X97208Y360844D01*
X97195Y360756D01*
X97185Y360667D01*
X97179Y360578D01*
X97177Y360489D01*
X97177Y358443D01*
X97177Y360898D02*
X93903Y362535D01*
X97995Y365707D02*
X97995Y368162D01*
X97993Y368240D01*
X97988Y368318D01*
X97978Y368395D01*
X97965Y368472D01*
X97949Y368548D01*
X97929Y368623D01*
X97905Y368697D01*
X97878Y368770D01*
X97847Y368842D01*
X97813Y368912D01*
X97776Y368981D01*
X97735Y369047D01*
X97691Y369112D01*
X97645Y369174D01*
X97595Y369234D01*
X97543Y369292D01*
X97488Y369347D01*
X97430Y369399D01*
X97370Y369449D01*
X97308Y369495D01*
X97243Y369539D01*
X97177Y369580D01*
X97108Y369617D01*
X97038Y369651D01*
X96966Y369682D01*
X96893Y369709D01*
X96819Y369733D01*
X96744Y369753D01*
X96668Y369769D01*
X96591Y369782D01*
X96514Y369792D01*
X96436Y369797D01*
X96358Y369799D01*
X95949Y369799D01*
X95860Y369797D01*
X95771Y369791D01*
X95682Y369781D01*
X95594Y369768D01*
X95506Y369751D01*
X95419Y369729D01*
X95334Y369704D01*
X95249Y369676D01*
X95166Y369643D01*
X95084Y369607D01*
X95004Y369568D01*
X94926Y369525D01*
X94850Y369479D01*
X94775Y369429D01*
X94703Y369376D01*
X94634Y369320D01*
X94567Y369261D01*
X94502Y369200D01*
X94441Y369135D01*
X94382Y369068D01*
X94326Y368999D01*
X94273Y368927D01*
X94223Y368852D01*
X94177Y368776D01*
X94134Y368698D01*
X94095Y368618D01*
X94059Y368536D01*
X94026Y368453D01*
X93998Y368368D01*
X93973Y368283D01*
X93951Y368196D01*
X93934Y368108D01*
X93921Y368020D01*
X93911Y367931D01*
X93905Y367842D01*
X93903Y367753D01*
X93905Y367664D01*
X93911Y367575D01*
X93921Y367486D01*
X93934Y367398D01*
X93951Y367310D01*
X93973Y367223D01*
X93998Y367138D01*
X94026Y367053D01*
X94059Y366970D01*
X94095Y366888D01*
X94134Y366808D01*
X94177Y366730D01*
X94223Y366654D01*
X94273Y366579D01*
X94326Y366507D01*
X94382Y366438D01*
X94441Y366371D01*
X94502Y366306D01*
X94567Y366245D01*
X94634Y366186D01*
X94703Y366130D01*
X94775Y366077D01*
X94850Y366027D01*
X94926Y365981D01*
X95004Y365938D01*
X95084Y365899D01*
X95166Y365863D01*
X95249Y365830D01*
X95334Y365802D01*
X95419Y365777D01*
X95506Y365755D01*
X95594Y365738D01*
X95682Y365725D01*
X95771Y365715D01*
X95860Y365709D01*
X95949Y365707D01*
X97995Y365707D01*
X98109Y365709D01*
X98223Y365715D01*
X98337Y365725D01*
X98451Y365739D01*
X98564Y365757D01*
X98676Y365779D01*
X98787Y365804D01*
X98897Y365834D01*
X99007Y365867D01*
X99115Y365904D01*
X99221Y365945D01*
X99327Y365990D01*
X99430Y366038D01*
X99532Y366090D01*
X99632Y366146D01*
X99730Y366204D01*
X99826Y366267D01*
X99919Y366332D01*
X100011Y366401D01*
X100099Y366473D01*
X100186Y366548D01*
X100269Y366626D01*
X100350Y366707D01*
X100428Y366790D01*
X100503Y366877D01*
X100575Y366965D01*
X100644Y367057D01*
X100709Y367150D01*
X100771Y367246D01*
X100830Y367344D01*
X100886Y367444D01*
X100938Y367546D01*
X100986Y367649D01*
X101031Y367755D01*
X101072Y367861D01*
X101109Y367969D01*
X101142Y368079D01*
X101172Y368189D01*
X101197Y368300D01*
X101219Y368412D01*
X101237Y368525D01*
X101251Y368639D01*
X101261Y368753D01*
X101267Y368867D01*
X101269Y368981D01*
X94311Y337055D02*
X94311Y335418D01*
X94313Y335340D01*
X94318Y335262D01*
X94328Y335185D01*
X94341Y335108D01*
X94357Y335032D01*
X94377Y334957D01*
X94401Y334883D01*
X94428Y334810D01*
X94459Y334738D01*
X94493Y334668D01*
X94530Y334600D01*
X94571Y334533D01*
X94615Y334468D01*
X94661Y334406D01*
X94711Y334346D01*
X94763Y334288D01*
X94818Y334233D01*
X94876Y334181D01*
X94936Y334131D01*
X94998Y334085D01*
X95063Y334041D01*
X95130Y334000D01*
X95198Y333963D01*
X95268Y333929D01*
X95340Y333898D01*
X95413Y333871D01*
X95487Y333847D01*
X95562Y333827D01*
X95638Y333811D01*
X95715Y333798D01*
X95792Y333788D01*
X95870Y333783D01*
X95948Y333781D01*
X100040Y333781D01*
X100118Y333783D01*
X100196Y333788D01*
X100273Y333798D01*
X100350Y333811D01*
X100426Y333827D01*
X100501Y333847D01*
X100575Y333871D01*
X100648Y333898D01*
X100720Y333929D01*
X100790Y333963D01*
X100859Y334000D01*
X100925Y334041D01*
X100990Y334085D01*
X101052Y334131D01*
X101112Y334181D01*
X101170Y334233D01*
X101225Y334288D01*
X101277Y334346D01*
X101327Y334406D01*
X101373Y334468D01*
X101417Y334533D01*
X101458Y334600D01*
X101495Y334668D01*
X101529Y334738D01*
X101560Y334810D01*
X101587Y334883D01*
X101611Y334957D01*
X101631Y335032D01*
X101647Y335108D01*
X101660Y335185D01*
X101670Y335262D01*
X101675Y335340D01*
X101677Y335418D01*
X101677Y337055D01*
X101677Y339900D02*
X100859Y339900D01*
X101677Y339900D02*
X101677Y343992D01*
X94311Y341946D01*
D13*
X107188Y369824D02*
X154432Y369824D01*
X154432Y333756D01*
X107188Y333756D01*
X107188Y369824D01*
D14*
X109220Y364236D02*
X109222Y364355D01*
X109228Y364474D01*
X109238Y364592D01*
X109252Y364710D01*
X109270Y364827D01*
X109291Y364944D01*
X109317Y365060D01*
X109346Y365175D01*
X109380Y365290D01*
X109417Y365402D01*
X109458Y365514D01*
X109502Y365624D01*
X109550Y365733D01*
X109602Y365840D01*
X109658Y365945D01*
X109716Y366048D01*
X109779Y366149D01*
X109844Y366249D01*
X109913Y366345D01*
X109985Y366440D01*
X110060Y366532D01*
X110139Y366621D01*
X110220Y366708D01*
X110304Y366792D01*
X110391Y366873D01*
X110480Y366952D01*
X110572Y367027D01*
X110667Y367099D01*
X110763Y367168D01*
X110863Y367233D01*
X110964Y367296D01*
X111067Y367354D01*
X111172Y367410D01*
X111279Y367462D01*
X111388Y367510D01*
X111498Y367554D01*
X111610Y367595D01*
X111722Y367632D01*
X111837Y367666D01*
X111952Y367695D01*
X112068Y367721D01*
X112185Y367742D01*
X112302Y367760D01*
X112420Y367774D01*
X112538Y367784D01*
X112657Y367790D01*
X112776Y367792D01*
X112895Y367790D01*
X113014Y367784D01*
X113132Y367774D01*
X113250Y367760D01*
X113367Y367742D01*
X113484Y367721D01*
X113600Y367695D01*
X113715Y367666D01*
X113830Y367632D01*
X113942Y367595D01*
X114054Y367554D01*
X114164Y367510D01*
X114273Y367462D01*
X114380Y367410D01*
X114485Y367354D01*
X114588Y367296D01*
X114689Y367233D01*
X114789Y367168D01*
X114885Y367099D01*
X114980Y367027D01*
X115072Y366952D01*
X115161Y366873D01*
X115248Y366792D01*
X115332Y366708D01*
X115413Y366621D01*
X115492Y366532D01*
X115567Y366440D01*
X115639Y366345D01*
X115708Y366249D01*
X115773Y366149D01*
X115836Y366048D01*
X115894Y365945D01*
X115950Y365840D01*
X116002Y365733D01*
X116050Y365624D01*
X116094Y365514D01*
X116135Y365402D01*
X116172Y365290D01*
X116206Y365175D01*
X116235Y365060D01*
X116261Y364944D01*
X116282Y364827D01*
X116300Y364710D01*
X116314Y364592D01*
X116324Y364474D01*
X116330Y364355D01*
X116332Y364236D01*
X116330Y364117D01*
X116324Y363998D01*
X116314Y363880D01*
X116300Y363762D01*
X116282Y363645D01*
X116261Y363528D01*
X116235Y363412D01*
X116206Y363297D01*
X116172Y363182D01*
X116135Y363070D01*
X116094Y362958D01*
X116050Y362848D01*
X116002Y362739D01*
X115950Y362632D01*
X115894Y362527D01*
X115836Y362424D01*
X115773Y362323D01*
X115708Y362223D01*
X115639Y362127D01*
X115567Y362032D01*
X115492Y361940D01*
X115413Y361851D01*
X115332Y361764D01*
X115248Y361680D01*
X115161Y361599D01*
X115072Y361520D01*
X114980Y361445D01*
X114885Y361373D01*
X114789Y361304D01*
X114689Y361239D01*
X114588Y361176D01*
X114485Y361118D01*
X114380Y361062D01*
X114273Y361010D01*
X114164Y360962D01*
X114054Y360918D01*
X113942Y360877D01*
X113830Y360840D01*
X113715Y360806D01*
X113600Y360777D01*
X113484Y360751D01*
X113367Y360730D01*
X113250Y360712D01*
X113132Y360698D01*
X113014Y360688D01*
X112895Y360682D01*
X112776Y360680D01*
X112657Y360682D01*
X112538Y360688D01*
X112420Y360698D01*
X112302Y360712D01*
X112185Y360730D01*
X112068Y360751D01*
X111952Y360777D01*
X111837Y360806D01*
X111722Y360840D01*
X111610Y360877D01*
X111498Y360918D01*
X111388Y360962D01*
X111279Y361010D01*
X111172Y361062D01*
X111067Y361118D01*
X110964Y361176D01*
X110863Y361239D01*
X110763Y361304D01*
X110667Y361373D01*
X110572Y361445D01*
X110480Y361520D01*
X110391Y361599D01*
X110304Y361680D01*
X110220Y361764D01*
X110139Y361851D01*
X110060Y361940D01*
X109985Y362032D01*
X109913Y362127D01*
X109844Y362223D01*
X109779Y362323D01*
X109716Y362424D01*
X109658Y362527D01*
X109602Y362632D01*
X109550Y362739D01*
X109502Y362848D01*
X109458Y362958D01*
X109417Y363070D01*
X109380Y363182D01*
X109346Y363297D01*
X109317Y363412D01*
X109291Y363528D01*
X109270Y363645D01*
X109252Y363762D01*
X109238Y363880D01*
X109228Y363998D01*
X109222Y364117D01*
X109220Y364236D01*
D10*
X6070Y57180D02*
X6070Y29180D01*
X34570Y29180D02*
X34570Y57180D01*
D15*
X35820Y25680D03*
D16*
X43528Y131977D02*
X50132Y131977D01*
X50132Y133811D01*
X50130Y133896D01*
X50124Y133980D01*
X50114Y134064D01*
X50101Y134148D01*
X50083Y134231D01*
X50062Y134313D01*
X50037Y134394D01*
X50008Y134474D01*
X49976Y134552D01*
X49940Y134628D01*
X49900Y134703D01*
X49857Y134776D01*
X49811Y134847D01*
X49762Y134916D01*
X49709Y134983D01*
X49653Y135047D01*
X49595Y135108D01*
X49534Y135166D01*
X49470Y135222D01*
X49403Y135275D01*
X49334Y135324D01*
X49263Y135370D01*
X49190Y135413D01*
X49115Y135453D01*
X49039Y135489D01*
X48961Y135521D01*
X48881Y135550D01*
X48800Y135575D01*
X48718Y135596D01*
X48635Y135614D01*
X48551Y135627D01*
X48467Y135637D01*
X48383Y135643D01*
X48298Y135645D01*
X48213Y135643D01*
X48129Y135637D01*
X48045Y135627D01*
X47961Y135614D01*
X47878Y135596D01*
X47796Y135575D01*
X47715Y135550D01*
X47635Y135521D01*
X47557Y135489D01*
X47481Y135453D01*
X47406Y135413D01*
X47333Y135370D01*
X47262Y135324D01*
X47193Y135275D01*
X47126Y135222D01*
X47062Y135166D01*
X47001Y135108D01*
X46943Y135047D01*
X46887Y134983D01*
X46834Y134916D01*
X46785Y134847D01*
X46739Y134776D01*
X46696Y134703D01*
X46656Y134628D01*
X46620Y134552D01*
X46588Y134474D01*
X46559Y134394D01*
X46534Y134313D01*
X46513Y134231D01*
X46495Y134148D01*
X46482Y134064D01*
X46472Y133980D01*
X46466Y133896D01*
X46464Y133811D01*
X46463Y133811D02*
X46463Y131977D01*
X46463Y134178D02*
X43528Y135646D01*
X43528Y138409D02*
X50132Y142812D01*
X50132Y138409D02*
X43528Y142812D01*
X42794Y145315D02*
X42794Y148250D01*
X48481Y154789D02*
X48560Y154787D01*
X48638Y154782D01*
X48716Y154772D01*
X48793Y154759D01*
X48870Y154742D01*
X48946Y154722D01*
X49021Y154698D01*
X49095Y154671D01*
X49167Y154640D01*
X49238Y154605D01*
X49307Y154568D01*
X49374Y154527D01*
X49439Y154483D01*
X49502Y154436D01*
X49562Y154386D01*
X49620Y154333D01*
X49676Y154277D01*
X49729Y154219D01*
X49779Y154159D01*
X49826Y154096D01*
X49870Y154031D01*
X49911Y153964D01*
X49948Y153895D01*
X49983Y153824D01*
X50014Y153752D01*
X50041Y153678D01*
X50065Y153603D01*
X50085Y153527D01*
X50102Y153450D01*
X50115Y153373D01*
X50125Y153295D01*
X50130Y153217D01*
X50132Y153138D01*
X50130Y153049D01*
X50125Y152960D01*
X50115Y152872D01*
X50102Y152784D01*
X50086Y152697D01*
X50065Y152610D01*
X50041Y152525D01*
X50014Y152440D01*
X49983Y152357D01*
X49948Y152275D01*
X49910Y152194D01*
X49869Y152115D01*
X49825Y152039D01*
X49777Y151963D01*
X49726Y151890D01*
X49673Y151820D01*
X49616Y151751D01*
X49556Y151685D01*
X49494Y151622D01*
X49429Y151561D01*
X49362Y151503D01*
X49292Y151448D01*
X49220Y151395D01*
X49146Y151346D01*
X49070Y151300D01*
X48992Y151258D01*
X48912Y151218D01*
X48831Y151182D01*
X48748Y151149D01*
X48664Y151120D01*
X47197Y154239D02*
X47253Y154295D01*
X47312Y154349D01*
X47373Y154400D01*
X47437Y154449D01*
X47502Y154494D01*
X47570Y154537D01*
X47639Y154576D01*
X47710Y154613D01*
X47783Y154646D01*
X47857Y154675D01*
X47932Y154702D01*
X48008Y154725D01*
X48086Y154744D01*
X48164Y154760D01*
X48242Y154773D01*
X48322Y154782D01*
X48401Y154787D01*
X48481Y154789D01*
X47197Y154239D02*
X43528Y151120D01*
X43528Y154789D01*
X47197Y157978D02*
X47197Y160180D01*
X47195Y160254D01*
X47189Y160329D01*
X47180Y160402D01*
X47167Y160476D01*
X47150Y160548D01*
X47130Y160619D01*
X47106Y160690D01*
X47078Y160759D01*
X47047Y160826D01*
X47013Y160892D01*
X46975Y160957D01*
X46934Y161019D01*
X46890Y161079D01*
X46843Y161136D01*
X46793Y161191D01*
X46740Y161244D01*
X46685Y161294D01*
X46628Y161341D01*
X46568Y161385D01*
X46506Y161426D01*
X46441Y161464D01*
X46375Y161498D01*
X46308Y161529D01*
X46239Y161557D01*
X46168Y161581D01*
X46097Y161601D01*
X46025Y161618D01*
X45951Y161631D01*
X45878Y161640D01*
X45803Y161646D01*
X45729Y161648D01*
X45729Y161647D02*
X45362Y161647D01*
X45277Y161645D01*
X45193Y161639D01*
X45109Y161629D01*
X45025Y161616D01*
X44942Y161598D01*
X44860Y161577D01*
X44779Y161552D01*
X44699Y161523D01*
X44621Y161491D01*
X44545Y161455D01*
X44470Y161415D01*
X44397Y161372D01*
X44326Y161326D01*
X44257Y161277D01*
X44190Y161224D01*
X44126Y161168D01*
X44065Y161110D01*
X44007Y161049D01*
X43951Y160985D01*
X43898Y160918D01*
X43849Y160849D01*
X43803Y160778D01*
X43760Y160705D01*
X43720Y160630D01*
X43684Y160554D01*
X43652Y160476D01*
X43623Y160396D01*
X43598Y160315D01*
X43577Y160233D01*
X43559Y160150D01*
X43546Y160066D01*
X43536Y159982D01*
X43530Y159898D01*
X43528Y159813D01*
X43530Y159728D01*
X43536Y159644D01*
X43546Y159560D01*
X43559Y159476D01*
X43577Y159393D01*
X43598Y159311D01*
X43623Y159230D01*
X43652Y159150D01*
X43684Y159072D01*
X43720Y158996D01*
X43760Y158921D01*
X43803Y158848D01*
X43849Y158777D01*
X43898Y158708D01*
X43951Y158641D01*
X44007Y158577D01*
X44065Y158516D01*
X44126Y158458D01*
X44190Y158402D01*
X44257Y158349D01*
X44326Y158300D01*
X44397Y158254D01*
X44470Y158211D01*
X44545Y158171D01*
X44621Y158135D01*
X44699Y158103D01*
X44779Y158074D01*
X44860Y158049D01*
X44942Y158028D01*
X45025Y158010D01*
X45109Y157997D01*
X45193Y157987D01*
X45277Y157981D01*
X45362Y157979D01*
X45362Y157978D02*
X47197Y157978D01*
X47304Y157980D01*
X47411Y157986D01*
X47518Y157996D01*
X47624Y158009D01*
X47730Y158027D01*
X47835Y158048D01*
X47939Y158073D01*
X48043Y158102D01*
X48145Y158135D01*
X48245Y158172D01*
X48345Y158212D01*
X48443Y158256D01*
X48539Y158303D01*
X48633Y158354D01*
X48726Y158408D01*
X48816Y158465D01*
X48905Y158526D01*
X48991Y158590D01*
X49074Y158657D01*
X49156Y158727D01*
X49234Y158800D01*
X49310Y158876D01*
X49383Y158954D01*
X49453Y159036D01*
X49520Y159119D01*
X49584Y159205D01*
X49645Y159294D01*
X49702Y159384D01*
X49756Y159477D01*
X49807Y159571D01*
X49854Y159667D01*
X49898Y159765D01*
X49938Y159865D01*
X49975Y159965D01*
X50008Y160067D01*
X50037Y160171D01*
X50062Y160275D01*
X50083Y160380D01*
X50101Y160486D01*
X50114Y160592D01*
X50124Y160699D01*
X50130Y160806D01*
X50132Y160913D01*
X43528Y164836D02*
X43528Y167038D01*
X43530Y167112D01*
X43536Y167187D01*
X43545Y167260D01*
X43558Y167334D01*
X43575Y167406D01*
X43595Y167477D01*
X43619Y167548D01*
X43647Y167617D01*
X43678Y167684D01*
X43712Y167750D01*
X43750Y167815D01*
X43791Y167877D01*
X43835Y167937D01*
X43882Y167994D01*
X43932Y168049D01*
X43985Y168102D01*
X44040Y168152D01*
X44097Y168199D01*
X44157Y168243D01*
X44219Y168284D01*
X44284Y168322D01*
X44349Y168356D01*
X44417Y168387D01*
X44486Y168415D01*
X44557Y168439D01*
X44628Y168459D01*
X44700Y168476D01*
X44774Y168489D01*
X44847Y168498D01*
X44922Y168504D01*
X44996Y168506D01*
X44996Y168505D02*
X45729Y168505D01*
X45729Y168506D02*
X45803Y168504D01*
X45878Y168498D01*
X45951Y168489D01*
X46025Y168476D01*
X46097Y168459D01*
X46168Y168439D01*
X46239Y168415D01*
X46308Y168387D01*
X46375Y168356D01*
X46441Y168322D01*
X46506Y168284D01*
X46568Y168243D01*
X46628Y168199D01*
X46685Y168152D01*
X46740Y168102D01*
X46793Y168049D01*
X46843Y167994D01*
X46890Y167937D01*
X46934Y167877D01*
X46975Y167815D01*
X47013Y167750D01*
X47047Y167684D01*
X47078Y167617D01*
X47106Y167548D01*
X47130Y167477D01*
X47150Y167406D01*
X47167Y167334D01*
X47180Y167260D01*
X47189Y167187D01*
X47195Y167112D01*
X47197Y167038D01*
X47197Y164836D01*
X50132Y164836D01*
X50132Y168505D01*
X50132Y173712D02*
X50130Y173791D01*
X50125Y173869D01*
X50115Y173947D01*
X50102Y174024D01*
X50085Y174101D01*
X50065Y174177D01*
X50041Y174252D01*
X50014Y174326D01*
X49983Y174398D01*
X49948Y174469D01*
X49911Y174538D01*
X49870Y174605D01*
X49826Y174670D01*
X49779Y174733D01*
X49729Y174793D01*
X49676Y174851D01*
X49620Y174907D01*
X49562Y174960D01*
X49502Y175010D01*
X49439Y175057D01*
X49374Y175101D01*
X49307Y175142D01*
X49238Y175179D01*
X49167Y175214D01*
X49095Y175245D01*
X49021Y175272D01*
X48946Y175296D01*
X48870Y175316D01*
X48793Y175333D01*
X48716Y175346D01*
X48638Y175356D01*
X48560Y175361D01*
X48481Y175363D01*
X50132Y173712D02*
X50130Y173623D01*
X50125Y173534D01*
X50115Y173446D01*
X50102Y173358D01*
X50086Y173271D01*
X50065Y173184D01*
X50041Y173099D01*
X50014Y173014D01*
X49983Y172931D01*
X49948Y172849D01*
X49910Y172768D01*
X49869Y172689D01*
X49825Y172613D01*
X49777Y172537D01*
X49726Y172464D01*
X49673Y172394D01*
X49616Y172325D01*
X49556Y172259D01*
X49494Y172196D01*
X49429Y172135D01*
X49362Y172077D01*
X49292Y172022D01*
X49220Y171969D01*
X49146Y171920D01*
X49070Y171874D01*
X48992Y171832D01*
X48912Y171792D01*
X48831Y171756D01*
X48748Y171723D01*
X48664Y171694D01*
X47197Y174813D02*
X47253Y174869D01*
X47312Y174923D01*
X47373Y174974D01*
X47437Y175023D01*
X47502Y175068D01*
X47570Y175111D01*
X47639Y175150D01*
X47710Y175187D01*
X47783Y175220D01*
X47857Y175249D01*
X47932Y175276D01*
X48008Y175299D01*
X48086Y175318D01*
X48164Y175334D01*
X48242Y175347D01*
X48322Y175356D01*
X48401Y175361D01*
X48481Y175363D01*
X47197Y174813D02*
X43528Y171694D01*
X43528Y175363D01*
X54958Y132740D02*
X61562Y132740D01*
X61562Y130906D02*
X61562Y134575D01*
X61562Y141343D02*
X54958Y136940D01*
X54958Y141343D02*
X61562Y136940D01*
X54224Y143846D02*
X54224Y146781D01*
X59911Y153320D02*
X59990Y153318D01*
X60068Y153313D01*
X60146Y153303D01*
X60223Y153290D01*
X60300Y153273D01*
X60376Y153253D01*
X60451Y153229D01*
X60525Y153202D01*
X60597Y153171D01*
X60668Y153136D01*
X60737Y153099D01*
X60804Y153058D01*
X60869Y153014D01*
X60932Y152967D01*
X60992Y152917D01*
X61050Y152864D01*
X61106Y152808D01*
X61159Y152750D01*
X61209Y152690D01*
X61256Y152627D01*
X61300Y152562D01*
X61341Y152495D01*
X61378Y152426D01*
X61413Y152355D01*
X61444Y152283D01*
X61471Y152209D01*
X61495Y152134D01*
X61515Y152058D01*
X61532Y151981D01*
X61545Y151904D01*
X61555Y151826D01*
X61560Y151748D01*
X61562Y151669D01*
X61560Y151580D01*
X61555Y151491D01*
X61545Y151403D01*
X61532Y151315D01*
X61516Y151228D01*
X61495Y151141D01*
X61471Y151056D01*
X61444Y150971D01*
X61413Y150888D01*
X61378Y150806D01*
X61340Y150725D01*
X61299Y150646D01*
X61255Y150570D01*
X61207Y150494D01*
X61156Y150421D01*
X61103Y150351D01*
X61046Y150282D01*
X60986Y150216D01*
X60924Y150153D01*
X60859Y150092D01*
X60792Y150034D01*
X60722Y149979D01*
X60650Y149926D01*
X60576Y149877D01*
X60500Y149831D01*
X60422Y149789D01*
X60342Y149749D01*
X60261Y149713D01*
X60178Y149680D01*
X60094Y149651D01*
X58627Y152770D02*
X58683Y152826D01*
X58742Y152880D01*
X58803Y152931D01*
X58867Y152980D01*
X58932Y153025D01*
X59000Y153068D01*
X59069Y153107D01*
X59140Y153144D01*
X59213Y153177D01*
X59287Y153206D01*
X59362Y153233D01*
X59438Y153256D01*
X59516Y153275D01*
X59594Y153291D01*
X59672Y153304D01*
X59752Y153313D01*
X59831Y153318D01*
X59911Y153320D01*
X58627Y152770D02*
X54958Y149651D01*
X54958Y153320D01*
X58627Y156509D02*
X58627Y158710D01*
X58625Y158784D01*
X58619Y158859D01*
X58610Y158932D01*
X58597Y159006D01*
X58580Y159078D01*
X58560Y159149D01*
X58536Y159220D01*
X58508Y159289D01*
X58477Y159356D01*
X58443Y159422D01*
X58405Y159487D01*
X58364Y159549D01*
X58320Y159609D01*
X58273Y159666D01*
X58223Y159721D01*
X58170Y159774D01*
X58115Y159824D01*
X58058Y159871D01*
X57998Y159915D01*
X57936Y159956D01*
X57871Y159994D01*
X57805Y160028D01*
X57738Y160059D01*
X57669Y160087D01*
X57598Y160111D01*
X57527Y160131D01*
X57455Y160148D01*
X57381Y160161D01*
X57308Y160170D01*
X57233Y160176D01*
X57159Y160178D01*
X56792Y160178D01*
X56707Y160176D01*
X56623Y160170D01*
X56539Y160160D01*
X56455Y160147D01*
X56372Y160129D01*
X56290Y160108D01*
X56209Y160083D01*
X56129Y160054D01*
X56051Y160022D01*
X55975Y159986D01*
X55900Y159946D01*
X55827Y159903D01*
X55756Y159857D01*
X55687Y159808D01*
X55620Y159755D01*
X55556Y159699D01*
X55495Y159641D01*
X55437Y159580D01*
X55381Y159516D01*
X55328Y159449D01*
X55279Y159380D01*
X55233Y159309D01*
X55190Y159236D01*
X55150Y159161D01*
X55114Y159085D01*
X55082Y159007D01*
X55053Y158927D01*
X55028Y158846D01*
X55007Y158764D01*
X54989Y158681D01*
X54976Y158597D01*
X54966Y158513D01*
X54960Y158429D01*
X54958Y158344D01*
X54960Y158259D01*
X54966Y158175D01*
X54976Y158091D01*
X54989Y158007D01*
X55007Y157924D01*
X55028Y157842D01*
X55053Y157761D01*
X55082Y157681D01*
X55114Y157603D01*
X55150Y157527D01*
X55190Y157452D01*
X55233Y157379D01*
X55279Y157308D01*
X55328Y157239D01*
X55381Y157172D01*
X55437Y157108D01*
X55495Y157047D01*
X55556Y156989D01*
X55620Y156933D01*
X55687Y156880D01*
X55756Y156831D01*
X55827Y156785D01*
X55900Y156742D01*
X55975Y156702D01*
X56051Y156666D01*
X56129Y156634D01*
X56209Y156605D01*
X56290Y156580D01*
X56372Y156559D01*
X56455Y156541D01*
X56539Y156528D01*
X56623Y156518D01*
X56707Y156512D01*
X56792Y156510D01*
X56792Y156509D02*
X58627Y156509D01*
X58734Y156511D01*
X58841Y156517D01*
X58948Y156527D01*
X59054Y156540D01*
X59160Y156558D01*
X59265Y156579D01*
X59369Y156604D01*
X59473Y156633D01*
X59575Y156666D01*
X59675Y156703D01*
X59775Y156743D01*
X59873Y156787D01*
X59969Y156834D01*
X60063Y156885D01*
X60156Y156939D01*
X60246Y156996D01*
X60335Y157057D01*
X60421Y157121D01*
X60504Y157188D01*
X60586Y157258D01*
X60664Y157331D01*
X60740Y157407D01*
X60813Y157485D01*
X60883Y157567D01*
X60950Y157650D01*
X61014Y157736D01*
X61075Y157825D01*
X61132Y157915D01*
X61186Y158008D01*
X61237Y158102D01*
X61284Y158198D01*
X61328Y158296D01*
X61368Y158396D01*
X61405Y158496D01*
X61438Y158598D01*
X61467Y158702D01*
X61492Y158806D01*
X61513Y158911D01*
X61531Y159017D01*
X61544Y159123D01*
X61554Y159230D01*
X61560Y159337D01*
X61562Y159444D01*
X54958Y163367D02*
X54958Y165568D01*
X54960Y165642D01*
X54966Y165717D01*
X54975Y165790D01*
X54988Y165864D01*
X55005Y165936D01*
X55025Y166007D01*
X55049Y166078D01*
X55077Y166147D01*
X55108Y166214D01*
X55142Y166280D01*
X55180Y166345D01*
X55221Y166407D01*
X55265Y166467D01*
X55312Y166524D01*
X55362Y166579D01*
X55415Y166632D01*
X55470Y166682D01*
X55527Y166729D01*
X55587Y166773D01*
X55649Y166814D01*
X55714Y166852D01*
X55779Y166886D01*
X55847Y166917D01*
X55916Y166945D01*
X55987Y166969D01*
X56058Y166989D01*
X56130Y167006D01*
X56204Y167019D01*
X56277Y167028D01*
X56352Y167034D01*
X56426Y167036D01*
X57159Y167036D01*
X57233Y167034D01*
X57308Y167028D01*
X57381Y167019D01*
X57455Y167006D01*
X57527Y166989D01*
X57598Y166969D01*
X57669Y166945D01*
X57738Y166917D01*
X57805Y166886D01*
X57871Y166852D01*
X57936Y166814D01*
X57998Y166773D01*
X58058Y166729D01*
X58115Y166682D01*
X58170Y166632D01*
X58223Y166579D01*
X58273Y166524D01*
X58320Y166467D01*
X58364Y166407D01*
X58405Y166345D01*
X58443Y166280D01*
X58477Y166214D01*
X58508Y166147D01*
X58536Y166078D01*
X58560Y166007D01*
X58580Y165936D01*
X58597Y165864D01*
X58610Y165790D01*
X58619Y165717D01*
X58625Y165642D01*
X58627Y165568D01*
X58627Y163367D01*
X61562Y163367D01*
X61562Y167036D01*
X61562Y172243D02*
X61560Y172322D01*
X61555Y172400D01*
X61545Y172478D01*
X61532Y172555D01*
X61515Y172632D01*
X61495Y172708D01*
X61471Y172783D01*
X61444Y172857D01*
X61413Y172929D01*
X61378Y173000D01*
X61341Y173069D01*
X61300Y173136D01*
X61256Y173201D01*
X61209Y173264D01*
X61159Y173324D01*
X61106Y173382D01*
X61050Y173438D01*
X60992Y173491D01*
X60932Y173541D01*
X60869Y173588D01*
X60804Y173632D01*
X60737Y173673D01*
X60668Y173710D01*
X60597Y173745D01*
X60525Y173776D01*
X60451Y173803D01*
X60376Y173827D01*
X60300Y173847D01*
X60223Y173864D01*
X60146Y173877D01*
X60068Y173887D01*
X59990Y173892D01*
X59911Y173894D01*
X61562Y172243D02*
X61560Y172154D01*
X61555Y172065D01*
X61545Y171977D01*
X61532Y171889D01*
X61516Y171802D01*
X61495Y171715D01*
X61471Y171630D01*
X61444Y171545D01*
X61413Y171462D01*
X61378Y171380D01*
X61340Y171299D01*
X61299Y171220D01*
X61255Y171144D01*
X61207Y171068D01*
X61156Y170995D01*
X61103Y170925D01*
X61046Y170856D01*
X60986Y170790D01*
X60924Y170727D01*
X60859Y170666D01*
X60792Y170608D01*
X60722Y170553D01*
X60650Y170500D01*
X60576Y170451D01*
X60500Y170405D01*
X60422Y170363D01*
X60342Y170323D01*
X60261Y170287D01*
X60178Y170254D01*
X60094Y170225D01*
X58627Y173344D02*
X58683Y173400D01*
X58742Y173454D01*
X58803Y173505D01*
X58867Y173554D01*
X58932Y173599D01*
X59000Y173642D01*
X59069Y173681D01*
X59140Y173718D01*
X59213Y173751D01*
X59287Y173780D01*
X59362Y173807D01*
X59438Y173830D01*
X59516Y173849D01*
X59594Y173865D01*
X59672Y173878D01*
X59752Y173887D01*
X59831Y173892D01*
X59911Y173894D01*
X58627Y173344D02*
X54958Y170225D01*
X54958Y173894D01*
X73302Y132659D02*
X78072Y132659D01*
X73302Y132659D02*
X73217Y132661D01*
X73133Y132667D01*
X73049Y132677D01*
X72965Y132690D01*
X72882Y132708D01*
X72800Y132729D01*
X72719Y132754D01*
X72639Y132783D01*
X72561Y132815D01*
X72485Y132851D01*
X72410Y132891D01*
X72337Y132934D01*
X72266Y132980D01*
X72197Y133029D01*
X72130Y133082D01*
X72066Y133138D01*
X72005Y133196D01*
X71947Y133257D01*
X71891Y133321D01*
X71838Y133388D01*
X71789Y133457D01*
X71743Y133528D01*
X71700Y133601D01*
X71660Y133676D01*
X71624Y133752D01*
X71592Y133830D01*
X71563Y133910D01*
X71538Y133991D01*
X71517Y134073D01*
X71499Y134156D01*
X71486Y134240D01*
X71476Y134324D01*
X71470Y134408D01*
X71468Y134493D01*
X71470Y134578D01*
X71476Y134662D01*
X71486Y134746D01*
X71499Y134830D01*
X71517Y134913D01*
X71538Y134995D01*
X71563Y135076D01*
X71592Y135156D01*
X71624Y135234D01*
X71660Y135310D01*
X71700Y135385D01*
X71743Y135458D01*
X71789Y135529D01*
X71838Y135598D01*
X71891Y135665D01*
X71947Y135729D01*
X72005Y135790D01*
X72066Y135848D01*
X72130Y135904D01*
X72197Y135957D01*
X72266Y136006D01*
X72337Y136052D01*
X72410Y136095D01*
X72485Y136135D01*
X72561Y136171D01*
X72639Y136203D01*
X72719Y136232D01*
X72800Y136257D01*
X72882Y136278D01*
X72965Y136296D01*
X73049Y136309D01*
X73133Y136319D01*
X73217Y136325D01*
X73302Y136327D01*
X73302Y136328D02*
X78072Y136328D01*
X78072Y141580D02*
X71468Y139378D01*
X71468Y143781D02*
X78072Y141580D01*
X73119Y143231D02*
X73119Y139929D01*
X71468Y146891D02*
X78072Y146891D01*
X78072Y148725D01*
X78070Y148810D01*
X78064Y148894D01*
X78054Y148978D01*
X78041Y149062D01*
X78023Y149145D01*
X78002Y149227D01*
X77977Y149308D01*
X77948Y149388D01*
X77916Y149466D01*
X77880Y149542D01*
X77840Y149617D01*
X77797Y149690D01*
X77751Y149761D01*
X77702Y149830D01*
X77649Y149897D01*
X77593Y149961D01*
X77535Y150022D01*
X77474Y150080D01*
X77410Y150136D01*
X77343Y150189D01*
X77274Y150238D01*
X77203Y150284D01*
X77130Y150327D01*
X77055Y150367D01*
X76979Y150403D01*
X76901Y150435D01*
X76821Y150464D01*
X76740Y150489D01*
X76658Y150510D01*
X76575Y150528D01*
X76491Y150541D01*
X76407Y150551D01*
X76323Y150557D01*
X76238Y150559D01*
X76153Y150557D01*
X76069Y150551D01*
X75985Y150541D01*
X75901Y150528D01*
X75818Y150510D01*
X75736Y150489D01*
X75655Y150464D01*
X75575Y150435D01*
X75497Y150403D01*
X75421Y150367D01*
X75346Y150327D01*
X75273Y150284D01*
X75202Y150238D01*
X75133Y150189D01*
X75066Y150136D01*
X75002Y150080D01*
X74941Y150022D01*
X74883Y149961D01*
X74827Y149897D01*
X74774Y149830D01*
X74725Y149761D01*
X74679Y149690D01*
X74636Y149617D01*
X74596Y149542D01*
X74560Y149466D01*
X74528Y149388D01*
X74499Y149308D01*
X74474Y149227D01*
X74453Y149145D01*
X74435Y149062D01*
X74422Y148978D01*
X74412Y148894D01*
X74406Y148810D01*
X74404Y148725D01*
X74403Y148725D02*
X74403Y146891D01*
X74403Y149092D02*
X71468Y150560D01*
X71468Y155067D02*
X78072Y155067D01*
X78072Y153233D02*
X78072Y156901D01*
M02*
