G04 EAGLE Gerber RS-274X export*
G75*
%MOMM*%
%FSLAX34Y34*%
%LPD*%
%INSilkscreen Top*%
%IPPOS*%
%AMOC8*
5,1,8,0,0,1.08239X$1,22.5*%
G01*
%ADD10C,0.101600*%
%ADD11C,0.127000*%
%ADD12C,0.152400*%
%ADD13C,0.203200*%
%ADD14C,0.254000*%
%ADD15C,0.076200*%
%ADD16C,0.300000*%
%ADD17C,0.050800*%
%ADD18C,0.200000*%
%ADD19C,0.050000*%
%ADD20C,0.020000*%


D10*
X64188Y257633D02*
X73276Y257633D01*
X73276Y257632D02*
X73375Y257630D01*
X73475Y257624D01*
X73574Y257615D01*
X73672Y257602D01*
X73770Y257585D01*
X73868Y257564D01*
X73964Y257539D01*
X74059Y257511D01*
X74153Y257479D01*
X74246Y257444D01*
X74338Y257405D01*
X74428Y257362D01*
X74516Y257317D01*
X74603Y257267D01*
X74687Y257215D01*
X74770Y257159D01*
X74850Y257101D01*
X74928Y257039D01*
X75003Y256974D01*
X75076Y256906D01*
X75146Y256836D01*
X75214Y256763D01*
X75279Y256688D01*
X75341Y256610D01*
X75399Y256530D01*
X75455Y256447D01*
X75507Y256363D01*
X75557Y256276D01*
X75602Y256188D01*
X75645Y256098D01*
X75684Y256006D01*
X75719Y255913D01*
X75751Y255819D01*
X75779Y255724D01*
X75804Y255628D01*
X75825Y255530D01*
X75842Y255432D01*
X75855Y255334D01*
X75864Y255235D01*
X75870Y255135D01*
X75872Y255036D01*
X75872Y253738D01*
X75872Y263310D02*
X64188Y263310D01*
X75872Y263310D02*
X75872Y268503D01*
X75872Y275375D02*
X75872Y277972D01*
X75872Y275375D02*
X75870Y275276D01*
X75864Y275176D01*
X75855Y275077D01*
X75842Y274979D01*
X75825Y274881D01*
X75804Y274783D01*
X75779Y274687D01*
X75751Y274592D01*
X75719Y274498D01*
X75684Y274405D01*
X75645Y274313D01*
X75602Y274223D01*
X75557Y274135D01*
X75507Y274048D01*
X75455Y273964D01*
X75399Y273881D01*
X75341Y273801D01*
X75279Y273723D01*
X75214Y273648D01*
X75146Y273575D01*
X75076Y273505D01*
X75003Y273437D01*
X74928Y273372D01*
X74850Y273310D01*
X74770Y273252D01*
X74687Y273196D01*
X74603Y273144D01*
X74516Y273094D01*
X74428Y273049D01*
X74338Y273006D01*
X74246Y272967D01*
X74153Y272932D01*
X74059Y272900D01*
X73964Y272872D01*
X73868Y272847D01*
X73770Y272826D01*
X73672Y272809D01*
X73574Y272796D01*
X73475Y272787D01*
X73375Y272781D01*
X73276Y272779D01*
X66784Y272779D01*
X66784Y272778D02*
X66685Y272780D01*
X66585Y272786D01*
X66486Y272795D01*
X66388Y272808D01*
X66290Y272826D01*
X66192Y272846D01*
X66096Y272871D01*
X66000Y272899D01*
X65906Y272931D01*
X65813Y272966D01*
X65722Y273005D01*
X65632Y273048D01*
X65543Y273093D01*
X65457Y273143D01*
X65372Y273195D01*
X65290Y273251D01*
X65210Y273310D01*
X65132Y273371D01*
X65056Y273436D01*
X64983Y273504D01*
X64913Y273574D01*
X64845Y273647D01*
X64780Y273723D01*
X64719Y273801D01*
X64660Y273881D01*
X64604Y273963D01*
X64552Y274048D01*
X64503Y274134D01*
X64457Y274223D01*
X64414Y274313D01*
X64375Y274404D01*
X64340Y274497D01*
X64308Y274591D01*
X64280Y274687D01*
X64255Y274783D01*
X64235Y274881D01*
X64217Y274979D01*
X64204Y275077D01*
X64195Y275176D01*
X64189Y275275D01*
X64187Y275375D01*
X64188Y275375D02*
X64188Y277972D01*
X64188Y285065D02*
X73276Y285065D01*
X73276Y285064D02*
X73375Y285062D01*
X73475Y285056D01*
X73574Y285047D01*
X73672Y285034D01*
X73770Y285017D01*
X73868Y284996D01*
X73964Y284971D01*
X74059Y284943D01*
X74153Y284911D01*
X74246Y284876D01*
X74338Y284837D01*
X74428Y284794D01*
X74516Y284749D01*
X74603Y284699D01*
X74687Y284647D01*
X74770Y284591D01*
X74850Y284533D01*
X74928Y284471D01*
X75003Y284406D01*
X75076Y284338D01*
X75146Y284268D01*
X75214Y284195D01*
X75279Y284120D01*
X75341Y284042D01*
X75399Y283962D01*
X75455Y283879D01*
X75507Y283795D01*
X75557Y283708D01*
X75602Y283620D01*
X75645Y283530D01*
X75684Y283438D01*
X75719Y283345D01*
X75751Y283251D01*
X75779Y283156D01*
X75804Y283060D01*
X75825Y282962D01*
X75842Y282864D01*
X75855Y282766D01*
X75864Y282667D01*
X75870Y282567D01*
X75872Y282468D01*
X75872Y281170D01*
X75872Y290742D02*
X64188Y290742D01*
X75872Y290742D02*
X75872Y295935D01*
X75872Y302807D02*
X75872Y305404D01*
X75872Y302807D02*
X75870Y302708D01*
X75864Y302608D01*
X75855Y302509D01*
X75842Y302411D01*
X75825Y302313D01*
X75804Y302215D01*
X75779Y302119D01*
X75751Y302024D01*
X75719Y301930D01*
X75684Y301837D01*
X75645Y301745D01*
X75602Y301655D01*
X75557Y301567D01*
X75507Y301480D01*
X75455Y301396D01*
X75399Y301313D01*
X75341Y301233D01*
X75279Y301155D01*
X75214Y301080D01*
X75146Y301007D01*
X75076Y300937D01*
X75003Y300869D01*
X74928Y300804D01*
X74850Y300742D01*
X74770Y300684D01*
X74687Y300628D01*
X74603Y300576D01*
X74516Y300526D01*
X74428Y300481D01*
X74338Y300438D01*
X74246Y300399D01*
X74153Y300364D01*
X74059Y300332D01*
X73964Y300304D01*
X73868Y300279D01*
X73770Y300258D01*
X73672Y300241D01*
X73574Y300228D01*
X73475Y300219D01*
X73375Y300213D01*
X73276Y300211D01*
X66784Y300211D01*
X66784Y300210D02*
X66685Y300212D01*
X66585Y300218D01*
X66486Y300227D01*
X66388Y300240D01*
X66290Y300258D01*
X66192Y300278D01*
X66096Y300303D01*
X66000Y300331D01*
X65906Y300363D01*
X65813Y300398D01*
X65722Y300437D01*
X65632Y300480D01*
X65543Y300525D01*
X65457Y300575D01*
X65372Y300627D01*
X65290Y300683D01*
X65210Y300742D01*
X65132Y300803D01*
X65056Y300868D01*
X64983Y300936D01*
X64913Y301006D01*
X64845Y301079D01*
X64780Y301155D01*
X64719Y301233D01*
X64660Y301313D01*
X64604Y301395D01*
X64552Y301480D01*
X64503Y301566D01*
X64457Y301655D01*
X64414Y301745D01*
X64375Y301836D01*
X64340Y301929D01*
X64308Y302023D01*
X64280Y302119D01*
X64255Y302215D01*
X64235Y302313D01*
X64217Y302411D01*
X64204Y302509D01*
X64195Y302608D01*
X64189Y302707D01*
X64187Y302807D01*
X64188Y302807D02*
X64188Y305404D01*
X64188Y312497D02*
X73276Y312497D01*
X73276Y312496D02*
X73375Y312494D01*
X73475Y312488D01*
X73574Y312479D01*
X73672Y312466D01*
X73770Y312449D01*
X73868Y312428D01*
X73964Y312403D01*
X74059Y312375D01*
X74153Y312343D01*
X74246Y312308D01*
X74338Y312269D01*
X74428Y312226D01*
X74516Y312181D01*
X74603Y312131D01*
X74687Y312079D01*
X74770Y312023D01*
X74850Y311965D01*
X74928Y311903D01*
X75003Y311838D01*
X75076Y311770D01*
X75146Y311700D01*
X75214Y311627D01*
X75279Y311552D01*
X75341Y311474D01*
X75399Y311394D01*
X75455Y311311D01*
X75507Y311227D01*
X75557Y311140D01*
X75602Y311052D01*
X75645Y310962D01*
X75684Y310870D01*
X75719Y310777D01*
X75751Y310683D01*
X75779Y310588D01*
X75804Y310492D01*
X75825Y310394D01*
X75842Y310296D01*
X75855Y310198D01*
X75864Y310099D01*
X75870Y309999D01*
X75872Y309900D01*
X75872Y308602D01*
X75872Y318174D02*
X64188Y318174D01*
X75872Y318174D02*
X75872Y323367D01*
X75872Y330239D02*
X75872Y332836D01*
X75872Y330239D02*
X75870Y330140D01*
X75864Y330040D01*
X75855Y329941D01*
X75842Y329843D01*
X75825Y329745D01*
X75804Y329647D01*
X75779Y329551D01*
X75751Y329456D01*
X75719Y329362D01*
X75684Y329269D01*
X75645Y329177D01*
X75602Y329087D01*
X75557Y328999D01*
X75507Y328912D01*
X75455Y328828D01*
X75399Y328745D01*
X75341Y328665D01*
X75279Y328587D01*
X75214Y328512D01*
X75146Y328439D01*
X75076Y328369D01*
X75003Y328301D01*
X74928Y328236D01*
X74850Y328174D01*
X74770Y328116D01*
X74687Y328060D01*
X74603Y328008D01*
X74516Y327958D01*
X74428Y327913D01*
X74338Y327870D01*
X74246Y327831D01*
X74153Y327796D01*
X74059Y327764D01*
X73964Y327736D01*
X73868Y327711D01*
X73770Y327690D01*
X73672Y327673D01*
X73574Y327660D01*
X73475Y327651D01*
X73375Y327645D01*
X73276Y327643D01*
X66784Y327643D01*
X66784Y327642D02*
X66685Y327644D01*
X66585Y327650D01*
X66486Y327659D01*
X66388Y327672D01*
X66290Y327690D01*
X66192Y327710D01*
X66096Y327735D01*
X66000Y327763D01*
X65906Y327795D01*
X65813Y327830D01*
X65722Y327869D01*
X65632Y327912D01*
X65543Y327957D01*
X65457Y328007D01*
X65372Y328059D01*
X65290Y328115D01*
X65210Y328174D01*
X65132Y328235D01*
X65056Y328300D01*
X64983Y328368D01*
X64913Y328438D01*
X64845Y328511D01*
X64780Y328587D01*
X64719Y328665D01*
X64660Y328745D01*
X64604Y328827D01*
X64552Y328912D01*
X64503Y328998D01*
X64457Y329087D01*
X64414Y329177D01*
X64375Y329268D01*
X64340Y329361D01*
X64308Y329455D01*
X64280Y329551D01*
X64255Y329647D01*
X64235Y329745D01*
X64217Y329843D01*
X64204Y329941D01*
X64195Y330040D01*
X64189Y330139D01*
X64187Y330239D01*
X64188Y330239D02*
X64188Y332836D01*
X64188Y339929D02*
X73276Y339929D01*
X73276Y339928D02*
X73375Y339926D01*
X73475Y339920D01*
X73574Y339911D01*
X73672Y339898D01*
X73770Y339881D01*
X73868Y339860D01*
X73964Y339835D01*
X74059Y339807D01*
X74153Y339775D01*
X74246Y339740D01*
X74338Y339701D01*
X74428Y339658D01*
X74516Y339613D01*
X74603Y339563D01*
X74687Y339511D01*
X74770Y339455D01*
X74850Y339397D01*
X74928Y339335D01*
X75003Y339270D01*
X75076Y339202D01*
X75146Y339132D01*
X75214Y339059D01*
X75279Y338984D01*
X75341Y338906D01*
X75399Y338826D01*
X75455Y338743D01*
X75507Y338659D01*
X75557Y338572D01*
X75602Y338484D01*
X75645Y338394D01*
X75684Y338302D01*
X75719Y338209D01*
X75751Y338115D01*
X75779Y338020D01*
X75804Y337924D01*
X75825Y337826D01*
X75842Y337728D01*
X75855Y337630D01*
X75864Y337531D01*
X75870Y337431D01*
X75872Y337332D01*
X75872Y336034D01*
X75872Y345606D02*
X64188Y345606D01*
X75872Y345606D02*
X75872Y350799D01*
X75872Y357671D02*
X75872Y360268D01*
X75872Y357671D02*
X75870Y357572D01*
X75864Y357472D01*
X75855Y357373D01*
X75842Y357275D01*
X75825Y357177D01*
X75804Y357079D01*
X75779Y356983D01*
X75751Y356888D01*
X75719Y356794D01*
X75684Y356701D01*
X75645Y356609D01*
X75602Y356519D01*
X75557Y356431D01*
X75507Y356344D01*
X75455Y356260D01*
X75399Y356177D01*
X75341Y356097D01*
X75279Y356019D01*
X75214Y355944D01*
X75146Y355871D01*
X75076Y355801D01*
X75003Y355733D01*
X74928Y355668D01*
X74850Y355606D01*
X74770Y355548D01*
X74687Y355492D01*
X74603Y355440D01*
X74516Y355390D01*
X74428Y355345D01*
X74338Y355302D01*
X74246Y355263D01*
X74153Y355228D01*
X74059Y355196D01*
X73964Y355168D01*
X73868Y355143D01*
X73770Y355122D01*
X73672Y355105D01*
X73574Y355092D01*
X73475Y355083D01*
X73375Y355077D01*
X73276Y355075D01*
X66784Y355075D01*
X66784Y355074D02*
X66685Y355076D01*
X66585Y355082D01*
X66486Y355091D01*
X66388Y355104D01*
X66290Y355122D01*
X66192Y355142D01*
X66096Y355167D01*
X66000Y355195D01*
X65906Y355227D01*
X65813Y355262D01*
X65722Y355301D01*
X65632Y355344D01*
X65543Y355389D01*
X65457Y355439D01*
X65372Y355491D01*
X65290Y355547D01*
X65210Y355606D01*
X65132Y355667D01*
X65056Y355732D01*
X64983Y355800D01*
X64913Y355870D01*
X64845Y355943D01*
X64780Y356019D01*
X64719Y356097D01*
X64660Y356177D01*
X64604Y356259D01*
X64552Y356344D01*
X64503Y356430D01*
X64457Y356519D01*
X64414Y356609D01*
X64375Y356700D01*
X64340Y356793D01*
X64308Y356887D01*
X64280Y356983D01*
X64255Y357079D01*
X64235Y357177D01*
X64217Y357275D01*
X64204Y357373D01*
X64195Y357472D01*
X64189Y357571D01*
X64187Y357671D01*
X64188Y357671D02*
X64188Y360268D01*
D11*
X197681Y139525D02*
X199656Y139525D01*
X197681Y139525D02*
X197595Y139527D01*
X197509Y139533D01*
X197423Y139542D01*
X197338Y139555D01*
X197253Y139572D01*
X197170Y139592D01*
X197087Y139616D01*
X197005Y139644D01*
X196925Y139675D01*
X196846Y139710D01*
X196769Y139748D01*
X196693Y139790D01*
X196619Y139834D01*
X196548Y139882D01*
X196478Y139933D01*
X196411Y139987D01*
X196346Y140044D01*
X196284Y140104D01*
X196224Y140166D01*
X196167Y140231D01*
X196113Y140298D01*
X196062Y140368D01*
X196014Y140439D01*
X195970Y140513D01*
X195928Y140589D01*
X195890Y140666D01*
X195855Y140745D01*
X195824Y140825D01*
X195796Y140907D01*
X195772Y140990D01*
X195752Y141073D01*
X195735Y141158D01*
X195722Y141243D01*
X195713Y141329D01*
X195707Y141415D01*
X195705Y141501D01*
X195705Y146439D01*
X195707Y146528D01*
X195713Y146616D01*
X195723Y146704D01*
X195737Y146792D01*
X195755Y146879D01*
X195776Y146965D01*
X195802Y147050D01*
X195831Y147133D01*
X195864Y147216D01*
X195901Y147296D01*
X195941Y147375D01*
X195985Y147452D01*
X196032Y147528D01*
X196082Y147600D01*
X196136Y147671D01*
X196193Y147739D01*
X196253Y147805D01*
X196315Y147867D01*
X196381Y147927D01*
X196449Y147984D01*
X196520Y148038D01*
X196592Y148088D01*
X196667Y148135D01*
X196745Y148179D01*
X196824Y148219D01*
X196904Y148256D01*
X196987Y148289D01*
X197070Y148318D01*
X197155Y148344D01*
X197241Y148365D01*
X197328Y148383D01*
X197416Y148397D01*
X197504Y148407D01*
X197592Y148413D01*
X197681Y148415D01*
X199656Y148415D01*
X203664Y148415D02*
X203664Y139525D01*
X203664Y144464D02*
X208603Y144464D01*
X208603Y148415D02*
X208603Y139525D01*
X216875Y144464D02*
X218356Y144464D01*
X218356Y139525D01*
X215393Y139525D01*
X215307Y139527D01*
X215221Y139533D01*
X215135Y139542D01*
X215050Y139555D01*
X214965Y139572D01*
X214882Y139592D01*
X214799Y139616D01*
X214717Y139644D01*
X214637Y139675D01*
X214558Y139710D01*
X214481Y139748D01*
X214405Y139790D01*
X214331Y139834D01*
X214260Y139882D01*
X214190Y139933D01*
X214123Y139987D01*
X214058Y140044D01*
X213996Y140104D01*
X213936Y140166D01*
X213879Y140231D01*
X213825Y140298D01*
X213774Y140368D01*
X213726Y140439D01*
X213682Y140513D01*
X213640Y140589D01*
X213602Y140666D01*
X213567Y140745D01*
X213536Y140825D01*
X213508Y140907D01*
X213484Y140990D01*
X213464Y141073D01*
X213447Y141158D01*
X213434Y141243D01*
X213425Y141329D01*
X213419Y141415D01*
X213417Y141501D01*
X213417Y146439D01*
X213419Y146528D01*
X213425Y146616D01*
X213435Y146704D01*
X213449Y146792D01*
X213467Y146879D01*
X213488Y146965D01*
X213514Y147050D01*
X213543Y147133D01*
X213576Y147216D01*
X213613Y147296D01*
X213653Y147375D01*
X213697Y147452D01*
X213744Y147528D01*
X213794Y147600D01*
X213848Y147671D01*
X213905Y147739D01*
X213965Y147805D01*
X214027Y147867D01*
X214093Y147927D01*
X214161Y147984D01*
X214232Y148038D01*
X214304Y148088D01*
X214379Y148135D01*
X214457Y148179D01*
X214536Y148219D01*
X214616Y148256D01*
X214699Y148289D01*
X214782Y148318D01*
X214867Y148344D01*
X214953Y148365D01*
X215040Y148383D01*
X215128Y148397D01*
X215216Y148407D01*
X215304Y148413D01*
X215393Y148415D01*
X218356Y148415D01*
D12*
X9142Y138128D02*
X9142Y129492D01*
X9142Y138128D02*
X11541Y138128D01*
X11638Y138126D01*
X11734Y138120D01*
X11830Y138111D01*
X11926Y138097D01*
X12021Y138080D01*
X12115Y138058D01*
X12208Y138033D01*
X12301Y138005D01*
X12392Y137972D01*
X12481Y137936D01*
X12569Y137896D01*
X12656Y137853D01*
X12741Y137807D01*
X12823Y137757D01*
X12904Y137703D01*
X12982Y137647D01*
X13058Y137587D01*
X13132Y137525D01*
X13203Y137459D01*
X13271Y137391D01*
X13337Y137320D01*
X13399Y137246D01*
X13459Y137170D01*
X13515Y137092D01*
X13569Y137011D01*
X13619Y136928D01*
X13665Y136844D01*
X13708Y136757D01*
X13748Y136669D01*
X13784Y136580D01*
X13817Y136489D01*
X13845Y136396D01*
X13870Y136303D01*
X13892Y136209D01*
X13909Y136114D01*
X13923Y136018D01*
X13932Y135922D01*
X13938Y135826D01*
X13940Y135729D01*
X13938Y135632D01*
X13932Y135536D01*
X13923Y135440D01*
X13909Y135344D01*
X13892Y135249D01*
X13870Y135155D01*
X13845Y135062D01*
X13817Y134969D01*
X13784Y134878D01*
X13748Y134789D01*
X13708Y134701D01*
X13665Y134614D01*
X13619Y134530D01*
X13569Y134447D01*
X13515Y134366D01*
X13459Y134288D01*
X13399Y134212D01*
X13337Y134138D01*
X13271Y134067D01*
X13203Y133999D01*
X13132Y133933D01*
X13058Y133871D01*
X12982Y133811D01*
X12904Y133755D01*
X12823Y133701D01*
X12740Y133651D01*
X12656Y133605D01*
X12569Y133562D01*
X12481Y133522D01*
X12392Y133486D01*
X12301Y133453D01*
X12208Y133425D01*
X12115Y133400D01*
X12021Y133378D01*
X11926Y133361D01*
X11830Y133347D01*
X11734Y133338D01*
X11638Y133332D01*
X11541Y133330D01*
X9142Y133330D01*
X12021Y133330D02*
X13940Y129492D01*
X20775Y129492D02*
X20861Y129494D01*
X20947Y129500D01*
X21033Y129509D01*
X21118Y129523D01*
X21202Y129540D01*
X21286Y129561D01*
X21368Y129586D01*
X21449Y129614D01*
X21529Y129646D01*
X21608Y129682D01*
X21684Y129721D01*
X21759Y129764D01*
X21832Y129809D01*
X21903Y129859D01*
X21971Y129911D01*
X22038Y129966D01*
X22101Y130024D01*
X22162Y130085D01*
X22220Y130148D01*
X22275Y130215D01*
X22328Y130283D01*
X22377Y130354D01*
X22422Y130427D01*
X22465Y130502D01*
X22504Y130578D01*
X22540Y130657D01*
X22572Y130737D01*
X22600Y130818D01*
X22625Y130900D01*
X22646Y130984D01*
X22663Y131068D01*
X22677Y131153D01*
X22686Y131239D01*
X22692Y131325D01*
X22694Y131411D01*
X20775Y129492D02*
X20652Y129494D01*
X20529Y129499D01*
X20406Y129509D01*
X20284Y129522D01*
X20162Y129539D01*
X20040Y129559D01*
X19920Y129583D01*
X19800Y129611D01*
X19681Y129642D01*
X19563Y129677D01*
X19446Y129716D01*
X19330Y129758D01*
X19216Y129804D01*
X19103Y129853D01*
X18992Y129905D01*
X18882Y129961D01*
X18774Y130020D01*
X18668Y130083D01*
X18563Y130148D01*
X18461Y130217D01*
X18361Y130289D01*
X18264Y130364D01*
X18168Y130441D01*
X18075Y130522D01*
X17984Y130605D01*
X17896Y130691D01*
X18137Y136209D02*
X18139Y136295D01*
X18145Y136381D01*
X18154Y136467D01*
X18168Y136552D01*
X18185Y136636D01*
X18206Y136720D01*
X18231Y136802D01*
X18259Y136883D01*
X18291Y136963D01*
X18327Y137042D01*
X18366Y137118D01*
X18409Y137193D01*
X18454Y137266D01*
X18503Y137337D01*
X18556Y137405D01*
X18611Y137472D01*
X18669Y137535D01*
X18730Y137596D01*
X18793Y137654D01*
X18860Y137709D01*
X18928Y137762D01*
X18999Y137811D01*
X19072Y137856D01*
X19147Y137899D01*
X19223Y137938D01*
X19302Y137974D01*
X19382Y138006D01*
X19463Y138034D01*
X19545Y138059D01*
X19629Y138080D01*
X19713Y138097D01*
X19798Y138111D01*
X19884Y138120D01*
X19970Y138126D01*
X20056Y138128D01*
X20172Y138126D01*
X20287Y138121D01*
X20403Y138111D01*
X20518Y138098D01*
X20632Y138082D01*
X20746Y138061D01*
X20860Y138037D01*
X20972Y138009D01*
X21083Y137978D01*
X21194Y137943D01*
X21303Y137905D01*
X21411Y137863D01*
X21517Y137818D01*
X21623Y137769D01*
X21726Y137717D01*
X21828Y137662D01*
X21927Y137603D01*
X22025Y137541D01*
X22121Y137476D01*
X22215Y137408D01*
X19096Y134530D02*
X19022Y134576D01*
X18949Y134626D01*
X18879Y134679D01*
X18811Y134735D01*
X18746Y134794D01*
X18683Y134856D01*
X18624Y134921D01*
X18567Y134988D01*
X18513Y135058D01*
X18463Y135130D01*
X18416Y135204D01*
X18372Y135280D01*
X18332Y135359D01*
X18296Y135439D01*
X18263Y135520D01*
X18234Y135603D01*
X18208Y135688D01*
X18186Y135773D01*
X18169Y135859D01*
X18155Y135946D01*
X18145Y136033D01*
X18139Y136121D01*
X18137Y136209D01*
X21735Y133090D02*
X21809Y133044D01*
X21882Y132994D01*
X21952Y132941D01*
X22020Y132885D01*
X22085Y132826D01*
X22148Y132764D01*
X22207Y132699D01*
X22264Y132632D01*
X22318Y132562D01*
X22368Y132490D01*
X22415Y132416D01*
X22459Y132340D01*
X22499Y132261D01*
X22535Y132181D01*
X22568Y132100D01*
X22597Y132017D01*
X22623Y131932D01*
X22645Y131847D01*
X22662Y131761D01*
X22676Y131674D01*
X22686Y131587D01*
X22692Y131499D01*
X22694Y131411D01*
X21735Y133090D02*
X19096Y134530D01*
X28525Y138128D02*
X28525Y129492D01*
X26126Y138128D02*
X30924Y138128D01*
X13940Y64101D02*
X13938Y64015D01*
X13932Y63929D01*
X13923Y63843D01*
X13909Y63758D01*
X13892Y63674D01*
X13871Y63590D01*
X13846Y63508D01*
X13818Y63427D01*
X13786Y63347D01*
X13750Y63268D01*
X13711Y63192D01*
X13668Y63117D01*
X13623Y63044D01*
X13574Y62973D01*
X13521Y62905D01*
X13466Y62838D01*
X13408Y62775D01*
X13347Y62714D01*
X13284Y62656D01*
X13217Y62601D01*
X13149Y62549D01*
X13078Y62499D01*
X13005Y62454D01*
X12930Y62411D01*
X12854Y62372D01*
X12775Y62336D01*
X12695Y62304D01*
X12614Y62276D01*
X12532Y62251D01*
X12448Y62230D01*
X12364Y62213D01*
X12279Y62199D01*
X12193Y62190D01*
X12107Y62184D01*
X12021Y62182D01*
X11898Y62184D01*
X11775Y62189D01*
X11652Y62199D01*
X11530Y62212D01*
X11408Y62229D01*
X11286Y62249D01*
X11166Y62273D01*
X11046Y62301D01*
X10927Y62332D01*
X10809Y62367D01*
X10692Y62406D01*
X10576Y62448D01*
X10462Y62494D01*
X10349Y62543D01*
X10238Y62595D01*
X10128Y62651D01*
X10020Y62710D01*
X9914Y62773D01*
X9809Y62838D01*
X9707Y62907D01*
X9607Y62979D01*
X9510Y63054D01*
X9414Y63131D01*
X9321Y63212D01*
X9230Y63295D01*
X9142Y63381D01*
X9382Y68899D02*
X9384Y68985D01*
X9390Y69071D01*
X9399Y69157D01*
X9413Y69242D01*
X9430Y69326D01*
X9451Y69410D01*
X9476Y69492D01*
X9504Y69573D01*
X9536Y69653D01*
X9572Y69732D01*
X9611Y69808D01*
X9654Y69883D01*
X9699Y69956D01*
X9748Y70027D01*
X9801Y70095D01*
X9856Y70162D01*
X9914Y70225D01*
X9975Y70286D01*
X10038Y70344D01*
X10105Y70399D01*
X10173Y70452D01*
X10244Y70501D01*
X10317Y70546D01*
X10392Y70589D01*
X10468Y70628D01*
X10547Y70664D01*
X10627Y70696D01*
X10708Y70724D01*
X10790Y70749D01*
X10874Y70770D01*
X10958Y70787D01*
X11043Y70801D01*
X11129Y70810D01*
X11215Y70816D01*
X11301Y70818D01*
X11417Y70816D01*
X11532Y70811D01*
X11648Y70801D01*
X11763Y70788D01*
X11877Y70772D01*
X11991Y70751D01*
X12105Y70727D01*
X12217Y70699D01*
X12328Y70668D01*
X12439Y70633D01*
X12548Y70595D01*
X12656Y70553D01*
X12762Y70508D01*
X12868Y70459D01*
X12971Y70407D01*
X13073Y70352D01*
X13172Y70293D01*
X13270Y70231D01*
X13366Y70166D01*
X13460Y70098D01*
X10341Y67220D02*
X10267Y67266D01*
X10194Y67316D01*
X10124Y67369D01*
X10056Y67425D01*
X9991Y67484D01*
X9928Y67546D01*
X9869Y67611D01*
X9812Y67678D01*
X9758Y67748D01*
X9708Y67820D01*
X9661Y67894D01*
X9617Y67970D01*
X9577Y68049D01*
X9541Y68129D01*
X9508Y68210D01*
X9479Y68293D01*
X9453Y68378D01*
X9431Y68463D01*
X9414Y68549D01*
X9400Y68636D01*
X9390Y68723D01*
X9384Y68811D01*
X9382Y68899D01*
X12981Y65780D02*
X13055Y65734D01*
X13128Y65684D01*
X13198Y65631D01*
X13266Y65575D01*
X13331Y65516D01*
X13394Y65454D01*
X13453Y65389D01*
X13510Y65322D01*
X13564Y65252D01*
X13614Y65180D01*
X13661Y65106D01*
X13705Y65030D01*
X13745Y64951D01*
X13781Y64871D01*
X13814Y64790D01*
X13843Y64707D01*
X13869Y64622D01*
X13891Y64537D01*
X13908Y64451D01*
X13922Y64364D01*
X13932Y64277D01*
X13938Y64189D01*
X13940Y64101D01*
X12980Y65780D02*
X10341Y67220D01*
X18481Y66980D02*
X20880Y66980D01*
X20977Y66978D01*
X21073Y66972D01*
X21169Y66963D01*
X21265Y66949D01*
X21360Y66932D01*
X21454Y66910D01*
X21547Y66885D01*
X21640Y66857D01*
X21731Y66824D01*
X21820Y66788D01*
X21908Y66748D01*
X21995Y66705D01*
X22080Y66659D01*
X22162Y66609D01*
X22243Y66555D01*
X22321Y66499D01*
X22397Y66439D01*
X22471Y66377D01*
X22542Y66311D01*
X22610Y66243D01*
X22676Y66172D01*
X22738Y66098D01*
X22798Y66022D01*
X22854Y65944D01*
X22908Y65863D01*
X22958Y65780D01*
X23004Y65696D01*
X23047Y65609D01*
X23087Y65521D01*
X23123Y65432D01*
X23156Y65341D01*
X23184Y65248D01*
X23209Y65155D01*
X23231Y65061D01*
X23248Y64966D01*
X23262Y64870D01*
X23271Y64774D01*
X23277Y64678D01*
X23279Y64581D01*
X23277Y64484D01*
X23271Y64388D01*
X23262Y64292D01*
X23248Y64196D01*
X23231Y64101D01*
X23209Y64007D01*
X23184Y63914D01*
X23156Y63821D01*
X23123Y63730D01*
X23087Y63641D01*
X23047Y63553D01*
X23004Y63466D01*
X22958Y63381D01*
X22908Y63299D01*
X22854Y63218D01*
X22798Y63140D01*
X22738Y63064D01*
X22676Y62990D01*
X22610Y62919D01*
X22542Y62851D01*
X22471Y62785D01*
X22397Y62723D01*
X22321Y62663D01*
X22243Y62607D01*
X22162Y62553D01*
X22079Y62503D01*
X21995Y62457D01*
X21908Y62414D01*
X21820Y62374D01*
X21731Y62338D01*
X21640Y62305D01*
X21547Y62277D01*
X21454Y62252D01*
X21360Y62230D01*
X21265Y62213D01*
X21169Y62199D01*
X21073Y62190D01*
X20977Y62184D01*
X20880Y62182D01*
X18481Y62182D01*
X18481Y70818D01*
X20880Y70818D01*
X20966Y70816D01*
X21052Y70810D01*
X21138Y70801D01*
X21223Y70787D01*
X21307Y70770D01*
X21391Y70749D01*
X21473Y70724D01*
X21554Y70696D01*
X21634Y70664D01*
X21713Y70628D01*
X21789Y70589D01*
X21864Y70546D01*
X21937Y70501D01*
X22008Y70452D01*
X22076Y70399D01*
X22143Y70344D01*
X22206Y70286D01*
X22267Y70225D01*
X22325Y70162D01*
X22380Y70095D01*
X22433Y70027D01*
X22482Y69956D01*
X22527Y69883D01*
X22570Y69808D01*
X22609Y69732D01*
X22645Y69653D01*
X22677Y69573D01*
X22705Y69492D01*
X22730Y69410D01*
X22751Y69326D01*
X22768Y69242D01*
X22782Y69157D01*
X22791Y69071D01*
X22797Y68985D01*
X22799Y68899D01*
X22797Y68813D01*
X22791Y68727D01*
X22782Y68641D01*
X22768Y68556D01*
X22751Y68472D01*
X22730Y68388D01*
X22705Y68306D01*
X22677Y68225D01*
X22645Y68145D01*
X22609Y68066D01*
X22570Y67990D01*
X22527Y67915D01*
X22482Y67842D01*
X22433Y67771D01*
X22380Y67703D01*
X22325Y67636D01*
X22267Y67573D01*
X22206Y67512D01*
X22143Y67454D01*
X22076Y67399D01*
X22008Y67346D01*
X21937Y67297D01*
X21864Y67252D01*
X21789Y67209D01*
X21713Y67170D01*
X21634Y67134D01*
X21554Y67102D01*
X21473Y67074D01*
X21391Y67049D01*
X21307Y67028D01*
X21223Y67011D01*
X21138Y66997D01*
X21052Y66988D01*
X20966Y66982D01*
X20880Y66980D01*
X27456Y70818D02*
X27456Y62182D01*
X31294Y62182D01*
D11*
X191895Y166195D02*
X191895Y175085D01*
X191895Y166195D02*
X195846Y166195D01*
X200132Y166195D02*
X200132Y175085D01*
X199145Y166195D02*
X201120Y166195D01*
X201120Y175085D02*
X199145Y175085D01*
X205283Y175085D02*
X205283Y166195D01*
X210222Y166195D02*
X205283Y175085D01*
X210222Y175085D02*
X210222Y166195D01*
X215210Y166195D02*
X215210Y175085D01*
X220149Y175085D02*
X215210Y169652D01*
X217186Y171628D02*
X220149Y166195D01*
D13*
X146764Y105960D02*
X138176Y105960D01*
X138176Y80560D02*
X146764Y80560D01*
X135382Y90576D02*
X135382Y95944D01*
D14*
X152630Y77258D03*
D10*
X169983Y115378D02*
X171564Y115378D01*
X169983Y115378D02*
X169905Y115380D01*
X169828Y115386D01*
X169751Y115395D01*
X169675Y115408D01*
X169599Y115425D01*
X169524Y115446D01*
X169451Y115470D01*
X169378Y115498D01*
X169307Y115530D01*
X169238Y115565D01*
X169171Y115603D01*
X169105Y115644D01*
X169042Y115689D01*
X168981Y115737D01*
X168922Y115787D01*
X168866Y115841D01*
X168812Y115897D01*
X168762Y115956D01*
X168714Y116017D01*
X168669Y116080D01*
X168628Y116146D01*
X168590Y116213D01*
X168555Y116282D01*
X168523Y116353D01*
X168495Y116426D01*
X168471Y116499D01*
X168450Y116574D01*
X168433Y116650D01*
X168420Y116726D01*
X168411Y116803D01*
X168405Y116880D01*
X168403Y116958D01*
X168403Y120910D01*
X168405Y120988D01*
X168411Y121065D01*
X168420Y121142D01*
X168433Y121218D01*
X168450Y121294D01*
X168471Y121369D01*
X168495Y121442D01*
X168523Y121515D01*
X168555Y121586D01*
X168590Y121655D01*
X168628Y121722D01*
X168669Y121788D01*
X168714Y121851D01*
X168762Y121912D01*
X168812Y121971D01*
X168866Y122027D01*
X168922Y122081D01*
X168981Y122131D01*
X169042Y122179D01*
X169105Y122224D01*
X169171Y122265D01*
X169238Y122303D01*
X169307Y122338D01*
X169378Y122370D01*
X169451Y122398D01*
X169524Y122422D01*
X169599Y122443D01*
X169675Y122460D01*
X169751Y122473D01*
X169828Y122482D01*
X169905Y122488D01*
X169983Y122490D01*
X171564Y122490D01*
X174526Y120910D02*
X176502Y122490D01*
X176502Y115378D01*
X178477Y115378D02*
X174526Y115378D01*
D13*
X6182Y112896D02*
X6182Y86136D01*
X34182Y86136D02*
X34182Y112896D01*
X21482Y120516D02*
X18882Y120516D01*
X18882Y78516D02*
X21482Y78516D01*
D11*
X12132Y99516D02*
X12134Y99714D01*
X12142Y99911D01*
X12154Y100108D01*
X12171Y100305D01*
X12193Y100501D01*
X12219Y100697D01*
X12251Y100892D01*
X12287Y101086D01*
X12328Y101280D01*
X12373Y101472D01*
X12424Y101663D01*
X12479Y101853D01*
X12538Y102041D01*
X12603Y102228D01*
X12671Y102413D01*
X12745Y102597D01*
X12823Y102778D01*
X12905Y102958D01*
X12992Y103135D01*
X13083Y103311D01*
X13178Y103484D01*
X13277Y103655D01*
X13381Y103823D01*
X13489Y103988D01*
X13600Y104151D01*
X13716Y104311D01*
X13836Y104469D01*
X13959Y104623D01*
X14086Y104774D01*
X14217Y104922D01*
X14352Y105067D01*
X14490Y105208D01*
X14631Y105346D01*
X14776Y105481D01*
X14924Y105612D01*
X15075Y105739D01*
X15229Y105862D01*
X15387Y105982D01*
X15547Y106098D01*
X15710Y106209D01*
X15875Y106317D01*
X16043Y106421D01*
X16214Y106520D01*
X16387Y106615D01*
X16563Y106706D01*
X16740Y106793D01*
X16920Y106875D01*
X17101Y106953D01*
X17285Y107027D01*
X17470Y107095D01*
X17657Y107160D01*
X17845Y107219D01*
X18035Y107274D01*
X18226Y107325D01*
X18418Y107370D01*
X18612Y107411D01*
X18806Y107447D01*
X19001Y107479D01*
X19197Y107505D01*
X19393Y107527D01*
X19590Y107544D01*
X19787Y107556D01*
X19984Y107564D01*
X20182Y107566D01*
X20380Y107564D01*
X20577Y107556D01*
X20774Y107544D01*
X20971Y107527D01*
X21167Y107505D01*
X21363Y107479D01*
X21558Y107447D01*
X21752Y107411D01*
X21946Y107370D01*
X22138Y107325D01*
X22329Y107274D01*
X22519Y107219D01*
X22707Y107160D01*
X22894Y107095D01*
X23079Y107027D01*
X23263Y106953D01*
X23444Y106875D01*
X23624Y106793D01*
X23801Y106706D01*
X23977Y106615D01*
X24150Y106520D01*
X24321Y106421D01*
X24489Y106317D01*
X24654Y106209D01*
X24817Y106098D01*
X24977Y105982D01*
X25135Y105862D01*
X25289Y105739D01*
X25440Y105612D01*
X25588Y105481D01*
X25733Y105346D01*
X25874Y105208D01*
X26012Y105067D01*
X26147Y104922D01*
X26278Y104774D01*
X26405Y104623D01*
X26528Y104469D01*
X26648Y104311D01*
X26764Y104151D01*
X26875Y103988D01*
X26983Y103823D01*
X27087Y103655D01*
X27186Y103484D01*
X27281Y103311D01*
X27372Y103135D01*
X27459Y102958D01*
X27541Y102778D01*
X27619Y102597D01*
X27693Y102413D01*
X27761Y102228D01*
X27826Y102041D01*
X27885Y101853D01*
X27940Y101663D01*
X27991Y101472D01*
X28036Y101280D01*
X28077Y101086D01*
X28113Y100892D01*
X28145Y100697D01*
X28171Y100501D01*
X28193Y100305D01*
X28210Y100108D01*
X28222Y99911D01*
X28230Y99714D01*
X28232Y99516D01*
X28230Y99318D01*
X28222Y99121D01*
X28210Y98924D01*
X28193Y98727D01*
X28171Y98531D01*
X28145Y98335D01*
X28113Y98140D01*
X28077Y97946D01*
X28036Y97752D01*
X27991Y97560D01*
X27940Y97369D01*
X27885Y97179D01*
X27826Y96991D01*
X27761Y96804D01*
X27693Y96619D01*
X27619Y96435D01*
X27541Y96254D01*
X27459Y96074D01*
X27372Y95897D01*
X27281Y95721D01*
X27186Y95548D01*
X27087Y95377D01*
X26983Y95209D01*
X26875Y95044D01*
X26764Y94881D01*
X26648Y94721D01*
X26528Y94563D01*
X26405Y94409D01*
X26278Y94258D01*
X26147Y94110D01*
X26012Y93965D01*
X25874Y93824D01*
X25733Y93686D01*
X25588Y93551D01*
X25440Y93420D01*
X25289Y93293D01*
X25135Y93170D01*
X24977Y93050D01*
X24817Y92934D01*
X24654Y92823D01*
X24489Y92715D01*
X24321Y92611D01*
X24150Y92512D01*
X23977Y92417D01*
X23801Y92326D01*
X23624Y92239D01*
X23444Y92157D01*
X23263Y92079D01*
X23079Y92005D01*
X22894Y91937D01*
X22707Y91872D01*
X22519Y91813D01*
X22329Y91758D01*
X22138Y91707D01*
X21946Y91662D01*
X21752Y91621D01*
X21558Y91585D01*
X21363Y91553D01*
X21167Y91527D01*
X20971Y91505D01*
X20774Y91488D01*
X20577Y91476D01*
X20380Y91468D01*
X20182Y91466D01*
X19984Y91468D01*
X19787Y91476D01*
X19590Y91488D01*
X19393Y91505D01*
X19197Y91527D01*
X19001Y91553D01*
X18806Y91585D01*
X18612Y91621D01*
X18418Y91662D01*
X18226Y91707D01*
X18035Y91758D01*
X17845Y91813D01*
X17657Y91872D01*
X17470Y91937D01*
X17285Y92005D01*
X17101Y92079D01*
X16920Y92157D01*
X16740Y92239D01*
X16563Y92326D01*
X16387Y92417D01*
X16214Y92512D01*
X16043Y92611D01*
X15875Y92715D01*
X15710Y92823D01*
X15547Y92934D01*
X15387Y93050D01*
X15229Y93170D01*
X15075Y93293D01*
X14924Y93420D01*
X14776Y93551D01*
X14631Y93686D01*
X14490Y93824D01*
X14352Y93965D01*
X14217Y94110D01*
X14086Y94258D01*
X13959Y94409D01*
X13836Y94563D01*
X13716Y94721D01*
X13600Y94881D01*
X13489Y95044D01*
X13381Y95209D01*
X13277Y95377D01*
X13178Y95548D01*
X13083Y95721D01*
X12992Y95897D01*
X12905Y96074D01*
X12823Y96254D01*
X12745Y96435D01*
X12671Y96619D01*
X12603Y96804D01*
X12538Y96991D01*
X12479Y97179D01*
X12424Y97369D01*
X12373Y97560D01*
X12328Y97752D01*
X12287Y97946D01*
X12251Y98140D01*
X12219Y98335D01*
X12193Y98531D01*
X12171Y98727D01*
X12154Y98924D01*
X12142Y99121D01*
X12134Y99318D01*
X12132Y99516D01*
D15*
X238222Y94575D02*
X245588Y94575D01*
X238222Y94575D02*
X238222Y96621D01*
X238224Y96710D01*
X238230Y96799D01*
X238240Y96888D01*
X238253Y96976D01*
X238270Y97064D01*
X238292Y97151D01*
X238317Y97236D01*
X238345Y97321D01*
X238378Y97404D01*
X238414Y97486D01*
X238453Y97566D01*
X238496Y97644D01*
X238542Y97720D01*
X238592Y97795D01*
X238645Y97867D01*
X238701Y97936D01*
X238760Y98003D01*
X238821Y98068D01*
X238886Y98129D01*
X238953Y98188D01*
X239022Y98244D01*
X239094Y98297D01*
X239169Y98347D01*
X239245Y98393D01*
X239323Y98436D01*
X239403Y98475D01*
X239485Y98511D01*
X239568Y98544D01*
X239653Y98572D01*
X239738Y98597D01*
X239825Y98619D01*
X239913Y98636D01*
X240001Y98649D01*
X240090Y98659D01*
X240179Y98665D01*
X240268Y98667D01*
X240357Y98665D01*
X240446Y98659D01*
X240535Y98649D01*
X240623Y98636D01*
X240711Y98619D01*
X240798Y98597D01*
X240883Y98572D01*
X240968Y98544D01*
X241051Y98511D01*
X241133Y98475D01*
X241213Y98436D01*
X241291Y98393D01*
X241367Y98347D01*
X241442Y98297D01*
X241514Y98244D01*
X241583Y98188D01*
X241650Y98129D01*
X241715Y98068D01*
X241776Y98003D01*
X241835Y97936D01*
X241891Y97867D01*
X241944Y97795D01*
X241994Y97720D01*
X242040Y97644D01*
X242083Y97566D01*
X242122Y97486D01*
X242158Y97404D01*
X242191Y97321D01*
X242219Y97236D01*
X242244Y97151D01*
X242266Y97064D01*
X242283Y96976D01*
X242296Y96888D01*
X242306Y96799D01*
X242312Y96710D01*
X242314Y96621D01*
X242315Y96621D02*
X242315Y94575D01*
X242315Y97030D02*
X245588Y98667D01*
X240064Y105932D02*
X239979Y105930D01*
X239894Y105924D01*
X239810Y105914D01*
X239726Y105901D01*
X239642Y105883D01*
X239560Y105862D01*
X239479Y105837D01*
X239399Y105808D01*
X239320Y105775D01*
X239243Y105739D01*
X239168Y105699D01*
X239094Y105656D01*
X239023Y105610D01*
X238954Y105560D01*
X238887Y105507D01*
X238823Y105451D01*
X238762Y105392D01*
X238703Y105331D01*
X238647Y105267D01*
X238594Y105200D01*
X238544Y105131D01*
X238498Y105060D01*
X238455Y104986D01*
X238415Y104911D01*
X238379Y104834D01*
X238346Y104755D01*
X238317Y104675D01*
X238292Y104594D01*
X238271Y104512D01*
X238253Y104428D01*
X238240Y104344D01*
X238230Y104260D01*
X238224Y104175D01*
X238222Y104090D01*
X238224Y103994D01*
X238230Y103898D01*
X238240Y103803D01*
X238253Y103708D01*
X238271Y103613D01*
X238292Y103520D01*
X238317Y103427D01*
X238346Y103336D01*
X238378Y103245D01*
X238414Y103156D01*
X238454Y103069D01*
X238497Y102983D01*
X238543Y102899D01*
X238593Y102817D01*
X238647Y102737D01*
X238703Y102660D01*
X238763Y102585D01*
X238825Y102512D01*
X238891Y102442D01*
X238959Y102374D01*
X239030Y102309D01*
X239103Y102248D01*
X239179Y102189D01*
X239258Y102133D01*
X239338Y102081D01*
X239421Y102032D01*
X239505Y101986D01*
X239591Y101944D01*
X239679Y101906D01*
X239768Y101871D01*
X239859Y101839D01*
X241496Y105317D02*
X241437Y105377D01*
X241375Y105434D01*
X241311Y105489D01*
X241244Y105540D01*
X241175Y105589D01*
X241105Y105635D01*
X241032Y105678D01*
X240958Y105718D01*
X240882Y105754D01*
X240804Y105787D01*
X240725Y105817D01*
X240645Y105844D01*
X240564Y105867D01*
X240482Y105886D01*
X240400Y105902D01*
X240316Y105915D01*
X240232Y105924D01*
X240148Y105929D01*
X240064Y105931D01*
X241496Y105317D02*
X245588Y101839D01*
X245588Y105931D01*
D16*
X191845Y91310D02*
X187845Y91310D01*
D10*
X185109Y111680D02*
X185109Y118792D01*
X187085Y118792D01*
X187171Y118790D01*
X187257Y118784D01*
X187343Y118775D01*
X187428Y118762D01*
X187513Y118745D01*
X187596Y118725D01*
X187679Y118701D01*
X187761Y118673D01*
X187841Y118642D01*
X187920Y118607D01*
X187997Y118569D01*
X188073Y118527D01*
X188147Y118483D01*
X188218Y118435D01*
X188288Y118384D01*
X188355Y118330D01*
X188420Y118273D01*
X188482Y118213D01*
X188542Y118151D01*
X188599Y118086D01*
X188653Y118019D01*
X188704Y117949D01*
X188752Y117878D01*
X188796Y117804D01*
X188838Y117728D01*
X188876Y117651D01*
X188911Y117572D01*
X188942Y117492D01*
X188970Y117410D01*
X188994Y117327D01*
X189014Y117244D01*
X189031Y117159D01*
X189044Y117074D01*
X189053Y116988D01*
X189059Y116902D01*
X189061Y116816D01*
X189061Y113656D01*
X189059Y113570D01*
X189053Y113484D01*
X189044Y113398D01*
X189031Y113313D01*
X189014Y113228D01*
X188994Y113145D01*
X188970Y113062D01*
X188942Y112980D01*
X188911Y112900D01*
X188876Y112821D01*
X188838Y112744D01*
X188796Y112668D01*
X188752Y112594D01*
X188704Y112523D01*
X188653Y112453D01*
X188599Y112386D01*
X188542Y112321D01*
X188482Y112259D01*
X188420Y112199D01*
X188355Y112142D01*
X188288Y112088D01*
X188218Y112037D01*
X188147Y111989D01*
X188073Y111945D01*
X187997Y111903D01*
X187920Y111865D01*
X187841Y111830D01*
X187761Y111799D01*
X187679Y111771D01*
X187596Y111747D01*
X187513Y111727D01*
X187428Y111710D01*
X187343Y111697D01*
X187257Y111688D01*
X187171Y111682D01*
X187085Y111680D01*
X185109Y111680D01*
X192669Y111680D02*
X195039Y111680D01*
X195117Y111682D01*
X195194Y111688D01*
X195271Y111697D01*
X195347Y111710D01*
X195423Y111727D01*
X195498Y111748D01*
X195571Y111772D01*
X195644Y111800D01*
X195715Y111832D01*
X195784Y111867D01*
X195851Y111905D01*
X195917Y111946D01*
X195980Y111991D01*
X196041Y112039D01*
X196100Y112089D01*
X196156Y112143D01*
X196210Y112199D01*
X196260Y112258D01*
X196308Y112319D01*
X196353Y112382D01*
X196394Y112448D01*
X196432Y112515D01*
X196467Y112584D01*
X196499Y112655D01*
X196527Y112728D01*
X196551Y112801D01*
X196572Y112876D01*
X196589Y112952D01*
X196602Y113028D01*
X196611Y113105D01*
X196617Y113182D01*
X196619Y113260D01*
X196620Y113260D02*
X196620Y114051D01*
X196619Y114051D02*
X196617Y114129D01*
X196611Y114206D01*
X196602Y114283D01*
X196589Y114359D01*
X196572Y114435D01*
X196551Y114510D01*
X196527Y114583D01*
X196499Y114656D01*
X196467Y114727D01*
X196432Y114796D01*
X196394Y114863D01*
X196353Y114929D01*
X196308Y114992D01*
X196260Y115053D01*
X196210Y115112D01*
X196156Y115168D01*
X196100Y115222D01*
X196041Y115272D01*
X195980Y115320D01*
X195917Y115365D01*
X195851Y115406D01*
X195784Y115444D01*
X195715Y115479D01*
X195644Y115511D01*
X195571Y115539D01*
X195498Y115563D01*
X195423Y115584D01*
X195347Y115601D01*
X195271Y115614D01*
X195194Y115623D01*
X195117Y115629D01*
X195039Y115631D01*
X192669Y115631D01*
X192669Y118792D01*
X196620Y118792D01*
D13*
X211486Y48500D02*
X220074Y48500D01*
X220074Y23100D02*
X211486Y23100D01*
X208692Y33116D02*
X208692Y38484D01*
D14*
X225940Y19798D03*
D15*
X193097Y31618D02*
X185731Y31618D01*
X185731Y33664D01*
X185733Y33753D01*
X185739Y33842D01*
X185749Y33931D01*
X185762Y34019D01*
X185779Y34107D01*
X185801Y34194D01*
X185826Y34279D01*
X185854Y34364D01*
X185887Y34447D01*
X185923Y34529D01*
X185962Y34609D01*
X186005Y34687D01*
X186051Y34763D01*
X186101Y34838D01*
X186154Y34910D01*
X186210Y34979D01*
X186269Y35046D01*
X186330Y35111D01*
X186395Y35172D01*
X186462Y35231D01*
X186531Y35287D01*
X186603Y35340D01*
X186678Y35390D01*
X186754Y35436D01*
X186832Y35479D01*
X186912Y35518D01*
X186994Y35554D01*
X187077Y35587D01*
X187162Y35615D01*
X187247Y35640D01*
X187334Y35662D01*
X187422Y35679D01*
X187510Y35692D01*
X187599Y35702D01*
X187688Y35708D01*
X187777Y35710D01*
X187866Y35708D01*
X187955Y35702D01*
X188044Y35692D01*
X188132Y35679D01*
X188220Y35662D01*
X188307Y35640D01*
X188392Y35615D01*
X188477Y35587D01*
X188560Y35554D01*
X188642Y35518D01*
X188722Y35479D01*
X188800Y35436D01*
X188876Y35390D01*
X188951Y35340D01*
X189023Y35287D01*
X189092Y35231D01*
X189159Y35172D01*
X189224Y35111D01*
X189285Y35046D01*
X189344Y34979D01*
X189400Y34910D01*
X189453Y34838D01*
X189503Y34763D01*
X189549Y34687D01*
X189592Y34609D01*
X189631Y34529D01*
X189667Y34447D01*
X189700Y34364D01*
X189728Y34279D01*
X189753Y34194D01*
X189775Y34107D01*
X189792Y34019D01*
X189805Y33931D01*
X189815Y33842D01*
X189821Y33753D01*
X189823Y33664D01*
X189823Y31618D01*
X189823Y34073D02*
X193097Y35710D01*
X187368Y38882D02*
X185731Y40928D01*
X193097Y40928D01*
X193097Y38882D02*
X193097Y42974D01*
X187368Y46197D02*
X185731Y48243D01*
X193097Y48243D01*
X193097Y46197D02*
X193097Y50289D01*
X231891Y155151D02*
X231891Y162517D01*
X233937Y162517D01*
X234026Y162515D01*
X234115Y162509D01*
X234204Y162499D01*
X234292Y162486D01*
X234380Y162469D01*
X234467Y162447D01*
X234552Y162422D01*
X234637Y162394D01*
X234720Y162361D01*
X234802Y162325D01*
X234882Y162286D01*
X234960Y162243D01*
X235036Y162197D01*
X235111Y162147D01*
X235183Y162094D01*
X235252Y162038D01*
X235319Y161979D01*
X235384Y161918D01*
X235445Y161853D01*
X235504Y161786D01*
X235560Y161717D01*
X235613Y161645D01*
X235663Y161570D01*
X235709Y161494D01*
X235752Y161416D01*
X235791Y161336D01*
X235827Y161254D01*
X235860Y161171D01*
X235888Y161086D01*
X235913Y161001D01*
X235935Y160914D01*
X235952Y160826D01*
X235965Y160738D01*
X235975Y160649D01*
X235981Y160560D01*
X235983Y160471D01*
X235981Y160382D01*
X235975Y160293D01*
X235965Y160204D01*
X235952Y160116D01*
X235935Y160028D01*
X235913Y159941D01*
X235888Y159856D01*
X235860Y159771D01*
X235827Y159688D01*
X235791Y159606D01*
X235752Y159526D01*
X235709Y159448D01*
X235663Y159372D01*
X235613Y159297D01*
X235560Y159225D01*
X235504Y159156D01*
X235445Y159089D01*
X235384Y159024D01*
X235319Y158963D01*
X235252Y158904D01*
X235183Y158848D01*
X235111Y158795D01*
X235036Y158745D01*
X234960Y158699D01*
X234882Y158656D01*
X234802Y158617D01*
X234720Y158581D01*
X234637Y158548D01*
X234552Y158520D01*
X234467Y158495D01*
X234380Y158473D01*
X234292Y158456D01*
X234204Y158443D01*
X234115Y158433D01*
X234026Y158427D01*
X233937Y158425D01*
X231891Y158425D01*
X234346Y158425D02*
X235983Y155151D01*
X239155Y160880D02*
X241201Y162517D01*
X241201Y155151D01*
X239155Y155151D02*
X243247Y155151D01*
X250563Y160676D02*
X250561Y160761D01*
X250555Y160846D01*
X250545Y160930D01*
X250532Y161014D01*
X250514Y161098D01*
X250493Y161180D01*
X250468Y161261D01*
X250439Y161341D01*
X250406Y161420D01*
X250370Y161497D01*
X250330Y161572D01*
X250287Y161646D01*
X250241Y161717D01*
X250191Y161786D01*
X250138Y161853D01*
X250082Y161917D01*
X250023Y161978D01*
X249962Y162037D01*
X249898Y162093D01*
X249831Y162146D01*
X249762Y162196D01*
X249691Y162242D01*
X249617Y162285D01*
X249542Y162325D01*
X249465Y162361D01*
X249386Y162394D01*
X249306Y162423D01*
X249225Y162448D01*
X249143Y162469D01*
X249059Y162487D01*
X248975Y162500D01*
X248891Y162510D01*
X248806Y162516D01*
X248721Y162518D01*
X248721Y162517D02*
X248625Y162515D01*
X248529Y162509D01*
X248434Y162499D01*
X248339Y162486D01*
X248244Y162468D01*
X248151Y162447D01*
X248058Y162422D01*
X247967Y162393D01*
X247876Y162361D01*
X247787Y162325D01*
X247700Y162285D01*
X247614Y162242D01*
X247530Y162196D01*
X247448Y162146D01*
X247368Y162092D01*
X247291Y162036D01*
X247216Y161976D01*
X247143Y161914D01*
X247073Y161848D01*
X247005Y161780D01*
X246940Y161709D01*
X246879Y161636D01*
X246820Y161560D01*
X246764Y161481D01*
X246712Y161401D01*
X246663Y161318D01*
X246617Y161234D01*
X246575Y161148D01*
X246537Y161060D01*
X246502Y160971D01*
X246470Y160880D01*
X249949Y159244D02*
X250009Y159303D01*
X250066Y159365D01*
X250121Y159429D01*
X250172Y159496D01*
X250221Y159565D01*
X250267Y159635D01*
X250310Y159708D01*
X250350Y159782D01*
X250386Y159858D01*
X250419Y159936D01*
X250449Y160015D01*
X250476Y160095D01*
X250499Y160176D01*
X250518Y160258D01*
X250534Y160340D01*
X250547Y160424D01*
X250556Y160508D01*
X250561Y160592D01*
X250563Y160676D01*
X249949Y159243D02*
X246470Y155151D01*
X250562Y155151D01*
D11*
X251395Y149633D02*
X251395Y140108D01*
D17*
X75121Y109815D02*
X68009Y109815D01*
X68009Y111791D01*
X68008Y111791D02*
X68010Y111878D01*
X68016Y111966D01*
X68025Y112053D01*
X68039Y112139D01*
X68056Y112225D01*
X68077Y112309D01*
X68102Y112393D01*
X68131Y112476D01*
X68163Y112557D01*
X68198Y112637D01*
X68237Y112715D01*
X68280Y112792D01*
X68326Y112866D01*
X68375Y112938D01*
X68427Y113008D01*
X68483Y113076D01*
X68541Y113141D01*
X68602Y113204D01*
X68666Y113263D01*
X68733Y113320D01*
X68801Y113374D01*
X68873Y113425D01*
X68946Y113472D01*
X69021Y113517D01*
X69099Y113558D01*
X69178Y113595D01*
X69258Y113629D01*
X69340Y113659D01*
X69423Y113686D01*
X69508Y113709D01*
X69593Y113728D01*
X69679Y113743D01*
X69766Y113755D01*
X69853Y113763D01*
X69940Y113767D01*
X70028Y113767D01*
X70115Y113763D01*
X70202Y113755D01*
X70289Y113743D01*
X70375Y113728D01*
X70460Y113709D01*
X70545Y113686D01*
X70628Y113659D01*
X70710Y113629D01*
X70790Y113595D01*
X70869Y113558D01*
X70947Y113517D01*
X71022Y113472D01*
X71095Y113425D01*
X71167Y113374D01*
X71235Y113320D01*
X71302Y113263D01*
X71366Y113204D01*
X71427Y113141D01*
X71485Y113076D01*
X71541Y113008D01*
X71593Y112938D01*
X71642Y112866D01*
X71688Y112792D01*
X71731Y112715D01*
X71770Y112637D01*
X71805Y112557D01*
X71837Y112476D01*
X71866Y112393D01*
X71891Y112309D01*
X71912Y112225D01*
X71929Y112139D01*
X71943Y112053D01*
X71952Y111966D01*
X71958Y111878D01*
X71960Y111791D01*
X71960Y109815D01*
X71960Y112186D02*
X75121Y113767D01*
X69589Y116633D02*
X68009Y118608D01*
X75121Y118608D01*
X75121Y116633D02*
X75121Y120584D01*
X75121Y123491D02*
X75121Y125466D01*
X75119Y125553D01*
X75113Y125641D01*
X75104Y125728D01*
X75090Y125814D01*
X75073Y125900D01*
X75052Y125984D01*
X75027Y126068D01*
X74998Y126151D01*
X74966Y126232D01*
X74931Y126312D01*
X74892Y126390D01*
X74849Y126467D01*
X74803Y126541D01*
X74754Y126613D01*
X74702Y126683D01*
X74646Y126751D01*
X74588Y126816D01*
X74527Y126879D01*
X74463Y126938D01*
X74396Y126995D01*
X74328Y127049D01*
X74256Y127100D01*
X74183Y127147D01*
X74108Y127192D01*
X74030Y127233D01*
X73951Y127270D01*
X73871Y127304D01*
X73789Y127334D01*
X73706Y127361D01*
X73621Y127384D01*
X73536Y127403D01*
X73450Y127418D01*
X73363Y127430D01*
X73276Y127438D01*
X73189Y127442D01*
X73101Y127442D01*
X73014Y127438D01*
X72927Y127430D01*
X72840Y127418D01*
X72754Y127403D01*
X72669Y127384D01*
X72584Y127361D01*
X72501Y127334D01*
X72419Y127304D01*
X72339Y127270D01*
X72260Y127233D01*
X72182Y127192D01*
X72107Y127147D01*
X72034Y127100D01*
X71962Y127049D01*
X71894Y126995D01*
X71827Y126938D01*
X71763Y126879D01*
X71702Y126816D01*
X71644Y126751D01*
X71588Y126683D01*
X71536Y126613D01*
X71487Y126541D01*
X71441Y126467D01*
X71398Y126390D01*
X71359Y126312D01*
X71324Y126232D01*
X71292Y126151D01*
X71263Y126068D01*
X71238Y125984D01*
X71217Y125900D01*
X71200Y125814D01*
X71186Y125728D01*
X71177Y125641D01*
X71171Y125553D01*
X71169Y125466D01*
X68009Y125862D02*
X68009Y123491D01*
X68009Y125862D02*
X68011Y125941D01*
X68017Y126019D01*
X68027Y126097D01*
X68040Y126175D01*
X68058Y126252D01*
X68079Y126328D01*
X68104Y126402D01*
X68133Y126476D01*
X68165Y126548D01*
X68201Y126618D01*
X68241Y126686D01*
X68284Y126752D01*
X68330Y126816D01*
X68379Y126878D01*
X68431Y126937D01*
X68486Y126993D01*
X68544Y127047D01*
X68604Y127097D01*
X68667Y127145D01*
X68732Y127189D01*
X68799Y127230D01*
X68868Y127268D01*
X68939Y127302D01*
X69012Y127333D01*
X69086Y127360D01*
X69161Y127383D01*
X69237Y127402D01*
X69315Y127418D01*
X69393Y127430D01*
X69471Y127438D01*
X69550Y127442D01*
X69628Y127442D01*
X69707Y127438D01*
X69785Y127430D01*
X69863Y127418D01*
X69941Y127402D01*
X70017Y127383D01*
X70092Y127360D01*
X70166Y127333D01*
X70239Y127302D01*
X70310Y127268D01*
X70379Y127230D01*
X70446Y127189D01*
X70511Y127145D01*
X70574Y127097D01*
X70634Y127047D01*
X70692Y126993D01*
X70747Y126937D01*
X70799Y126878D01*
X70848Y126816D01*
X70894Y126752D01*
X70937Y126686D01*
X70977Y126618D01*
X71013Y126548D01*
X71045Y126476D01*
X71074Y126402D01*
X71099Y126328D01*
X71120Y126252D01*
X71138Y126175D01*
X71151Y126097D01*
X71161Y126019D01*
X71167Y125941D01*
X71169Y125862D01*
X71170Y125862D02*
X71170Y124281D01*
D15*
X123048Y107708D02*
X130414Y107708D01*
X123048Y107708D02*
X123048Y109754D01*
X123050Y109843D01*
X123056Y109932D01*
X123066Y110021D01*
X123079Y110109D01*
X123096Y110197D01*
X123118Y110284D01*
X123143Y110369D01*
X123171Y110454D01*
X123204Y110537D01*
X123240Y110619D01*
X123279Y110699D01*
X123322Y110777D01*
X123368Y110853D01*
X123418Y110928D01*
X123471Y111000D01*
X123527Y111069D01*
X123586Y111136D01*
X123647Y111201D01*
X123712Y111262D01*
X123779Y111321D01*
X123848Y111377D01*
X123920Y111430D01*
X123995Y111480D01*
X124071Y111526D01*
X124149Y111569D01*
X124229Y111608D01*
X124311Y111644D01*
X124394Y111677D01*
X124479Y111705D01*
X124564Y111730D01*
X124651Y111752D01*
X124739Y111769D01*
X124827Y111782D01*
X124916Y111792D01*
X125005Y111798D01*
X125094Y111800D01*
X125183Y111798D01*
X125272Y111792D01*
X125361Y111782D01*
X125449Y111769D01*
X125537Y111752D01*
X125624Y111730D01*
X125709Y111705D01*
X125794Y111677D01*
X125877Y111644D01*
X125959Y111608D01*
X126039Y111569D01*
X126117Y111526D01*
X126193Y111480D01*
X126268Y111430D01*
X126340Y111377D01*
X126409Y111321D01*
X126476Y111262D01*
X126541Y111201D01*
X126602Y111136D01*
X126661Y111069D01*
X126717Y111000D01*
X126770Y110928D01*
X126820Y110853D01*
X126866Y110777D01*
X126909Y110699D01*
X126948Y110619D01*
X126984Y110537D01*
X127017Y110454D01*
X127045Y110369D01*
X127070Y110284D01*
X127092Y110197D01*
X127109Y110109D01*
X127122Y110021D01*
X127132Y109932D01*
X127138Y109843D01*
X127140Y109754D01*
X127141Y109754D02*
X127141Y107708D01*
X127141Y110163D02*
X130414Y111800D01*
X124685Y114972D02*
X123048Y117018D01*
X130414Y117018D01*
X130414Y114972D02*
X130414Y119064D01*
X128777Y122287D02*
X123048Y123924D01*
X128777Y122287D02*
X128777Y126379D01*
X127141Y125151D02*
X130414Y125151D01*
D12*
X110475Y116109D02*
X109007Y116109D01*
X108933Y116111D01*
X108858Y116117D01*
X108785Y116126D01*
X108711Y116139D01*
X108639Y116156D01*
X108568Y116176D01*
X108497Y116200D01*
X108428Y116228D01*
X108361Y116259D01*
X108295Y116293D01*
X108230Y116331D01*
X108168Y116372D01*
X108108Y116416D01*
X108051Y116463D01*
X107996Y116513D01*
X107943Y116566D01*
X107893Y116621D01*
X107846Y116678D01*
X107802Y116738D01*
X107761Y116800D01*
X107723Y116865D01*
X107689Y116931D01*
X107658Y116998D01*
X107630Y117067D01*
X107606Y117138D01*
X107586Y117209D01*
X107569Y117281D01*
X107556Y117355D01*
X107547Y117428D01*
X107541Y117503D01*
X107539Y117577D01*
X107540Y117577D02*
X107540Y121246D01*
X107539Y121246D02*
X107541Y121320D01*
X107547Y121395D01*
X107556Y121468D01*
X107569Y121542D01*
X107586Y121614D01*
X107606Y121685D01*
X107630Y121756D01*
X107658Y121825D01*
X107689Y121892D01*
X107723Y121958D01*
X107761Y122023D01*
X107802Y122085D01*
X107846Y122145D01*
X107893Y122202D01*
X107943Y122257D01*
X107996Y122310D01*
X108051Y122360D01*
X108108Y122407D01*
X108168Y122451D01*
X108230Y122492D01*
X108295Y122530D01*
X108360Y122564D01*
X108428Y122595D01*
X108497Y122623D01*
X108568Y122647D01*
X108639Y122667D01*
X108711Y122684D01*
X108785Y122697D01*
X108858Y122706D01*
X108933Y122712D01*
X109007Y122714D01*
X109007Y122713D02*
X110475Y122713D01*
X115689Y122713D02*
X115768Y122711D01*
X115846Y122706D01*
X115924Y122696D01*
X116001Y122683D01*
X116078Y122666D01*
X116154Y122646D01*
X116229Y122622D01*
X116303Y122595D01*
X116375Y122564D01*
X116446Y122529D01*
X116515Y122492D01*
X116582Y122451D01*
X116647Y122407D01*
X116710Y122360D01*
X116770Y122310D01*
X116828Y122257D01*
X116884Y122201D01*
X116937Y122143D01*
X116987Y122083D01*
X117034Y122020D01*
X117078Y121955D01*
X117119Y121888D01*
X117156Y121819D01*
X117191Y121748D01*
X117222Y121676D01*
X117249Y121602D01*
X117273Y121527D01*
X117293Y121451D01*
X117310Y121374D01*
X117323Y121297D01*
X117333Y121219D01*
X117338Y121141D01*
X117340Y121062D01*
X115689Y122713D02*
X115600Y122711D01*
X115511Y122706D01*
X115423Y122696D01*
X115335Y122683D01*
X115248Y122667D01*
X115161Y122646D01*
X115076Y122622D01*
X114991Y122595D01*
X114908Y122564D01*
X114826Y122529D01*
X114745Y122491D01*
X114666Y122450D01*
X114590Y122406D01*
X114514Y122358D01*
X114441Y122307D01*
X114371Y122254D01*
X114302Y122197D01*
X114236Y122137D01*
X114173Y122075D01*
X114112Y122010D01*
X114054Y121943D01*
X113999Y121873D01*
X113946Y121801D01*
X113897Y121727D01*
X113851Y121651D01*
X113809Y121573D01*
X113769Y121493D01*
X113733Y121412D01*
X113700Y121329D01*
X113671Y121245D01*
X116790Y119778D02*
X116846Y119834D01*
X116900Y119893D01*
X116951Y119954D01*
X117000Y120018D01*
X117045Y120083D01*
X117088Y120151D01*
X117127Y120220D01*
X117164Y120291D01*
X117197Y120364D01*
X117226Y120438D01*
X117253Y120513D01*
X117276Y120589D01*
X117295Y120667D01*
X117311Y120745D01*
X117324Y120823D01*
X117333Y120903D01*
X117338Y120982D01*
X117340Y121062D01*
X116790Y119778D02*
X113671Y116109D01*
X117340Y116109D01*
X236424Y7762D02*
X237891Y7762D01*
X236424Y7761D02*
X236350Y7763D01*
X236275Y7769D01*
X236202Y7778D01*
X236128Y7791D01*
X236056Y7808D01*
X235985Y7828D01*
X235914Y7852D01*
X235845Y7880D01*
X235778Y7911D01*
X235712Y7945D01*
X235647Y7983D01*
X235585Y8024D01*
X235525Y8068D01*
X235468Y8115D01*
X235413Y8165D01*
X235360Y8218D01*
X235310Y8273D01*
X235263Y8330D01*
X235219Y8390D01*
X235178Y8452D01*
X235140Y8517D01*
X235106Y8583D01*
X235075Y8650D01*
X235047Y8719D01*
X235023Y8790D01*
X235003Y8861D01*
X234986Y8933D01*
X234973Y9007D01*
X234964Y9080D01*
X234958Y9155D01*
X234956Y9229D01*
X234956Y12898D01*
X234958Y12972D01*
X234964Y13047D01*
X234973Y13120D01*
X234986Y13194D01*
X235003Y13266D01*
X235023Y13337D01*
X235047Y13408D01*
X235075Y13477D01*
X235106Y13544D01*
X235140Y13610D01*
X235178Y13675D01*
X235219Y13737D01*
X235263Y13797D01*
X235310Y13854D01*
X235360Y13909D01*
X235413Y13962D01*
X235468Y14012D01*
X235525Y14059D01*
X235585Y14103D01*
X235647Y14144D01*
X235712Y14182D01*
X235777Y14216D01*
X235845Y14247D01*
X235914Y14275D01*
X235985Y14299D01*
X236056Y14319D01*
X236128Y14336D01*
X236202Y14349D01*
X236275Y14358D01*
X236350Y14364D01*
X236424Y14366D01*
X237891Y14366D01*
X242555Y14366D02*
X241088Y9229D01*
X244757Y9229D01*
X243656Y7762D02*
X243656Y10697D01*
D13*
X6320Y20910D02*
X6320Y47670D01*
X34320Y47670D02*
X34320Y20910D01*
X21620Y55290D02*
X19020Y55290D01*
X19020Y13290D02*
X21620Y13290D01*
D11*
X12270Y34290D02*
X12272Y34488D01*
X12280Y34685D01*
X12292Y34882D01*
X12309Y35079D01*
X12331Y35275D01*
X12357Y35471D01*
X12389Y35666D01*
X12425Y35860D01*
X12466Y36054D01*
X12511Y36246D01*
X12562Y36437D01*
X12617Y36627D01*
X12676Y36815D01*
X12741Y37002D01*
X12809Y37187D01*
X12883Y37371D01*
X12961Y37552D01*
X13043Y37732D01*
X13130Y37909D01*
X13221Y38085D01*
X13316Y38258D01*
X13415Y38429D01*
X13519Y38597D01*
X13627Y38762D01*
X13738Y38925D01*
X13854Y39085D01*
X13974Y39243D01*
X14097Y39397D01*
X14224Y39548D01*
X14355Y39696D01*
X14490Y39841D01*
X14628Y39982D01*
X14769Y40120D01*
X14914Y40255D01*
X15062Y40386D01*
X15213Y40513D01*
X15367Y40636D01*
X15525Y40756D01*
X15685Y40872D01*
X15848Y40983D01*
X16013Y41091D01*
X16181Y41195D01*
X16352Y41294D01*
X16525Y41389D01*
X16701Y41480D01*
X16878Y41567D01*
X17058Y41649D01*
X17239Y41727D01*
X17423Y41801D01*
X17608Y41869D01*
X17795Y41934D01*
X17983Y41993D01*
X18173Y42048D01*
X18364Y42099D01*
X18556Y42144D01*
X18750Y42185D01*
X18944Y42221D01*
X19139Y42253D01*
X19335Y42279D01*
X19531Y42301D01*
X19728Y42318D01*
X19925Y42330D01*
X20122Y42338D01*
X20320Y42340D01*
X20518Y42338D01*
X20715Y42330D01*
X20912Y42318D01*
X21109Y42301D01*
X21305Y42279D01*
X21501Y42253D01*
X21696Y42221D01*
X21890Y42185D01*
X22084Y42144D01*
X22276Y42099D01*
X22467Y42048D01*
X22657Y41993D01*
X22845Y41934D01*
X23032Y41869D01*
X23217Y41801D01*
X23401Y41727D01*
X23582Y41649D01*
X23762Y41567D01*
X23939Y41480D01*
X24115Y41389D01*
X24288Y41294D01*
X24459Y41195D01*
X24627Y41091D01*
X24792Y40983D01*
X24955Y40872D01*
X25115Y40756D01*
X25273Y40636D01*
X25427Y40513D01*
X25578Y40386D01*
X25726Y40255D01*
X25871Y40120D01*
X26012Y39982D01*
X26150Y39841D01*
X26285Y39696D01*
X26416Y39548D01*
X26543Y39397D01*
X26666Y39243D01*
X26786Y39085D01*
X26902Y38925D01*
X27013Y38762D01*
X27121Y38597D01*
X27225Y38429D01*
X27324Y38258D01*
X27419Y38085D01*
X27510Y37909D01*
X27597Y37732D01*
X27679Y37552D01*
X27757Y37371D01*
X27831Y37187D01*
X27899Y37002D01*
X27964Y36815D01*
X28023Y36627D01*
X28078Y36437D01*
X28129Y36246D01*
X28174Y36054D01*
X28215Y35860D01*
X28251Y35666D01*
X28283Y35471D01*
X28309Y35275D01*
X28331Y35079D01*
X28348Y34882D01*
X28360Y34685D01*
X28368Y34488D01*
X28370Y34290D01*
X28368Y34092D01*
X28360Y33895D01*
X28348Y33698D01*
X28331Y33501D01*
X28309Y33305D01*
X28283Y33109D01*
X28251Y32914D01*
X28215Y32720D01*
X28174Y32526D01*
X28129Y32334D01*
X28078Y32143D01*
X28023Y31953D01*
X27964Y31765D01*
X27899Y31578D01*
X27831Y31393D01*
X27757Y31209D01*
X27679Y31028D01*
X27597Y30848D01*
X27510Y30671D01*
X27419Y30495D01*
X27324Y30322D01*
X27225Y30151D01*
X27121Y29983D01*
X27013Y29818D01*
X26902Y29655D01*
X26786Y29495D01*
X26666Y29337D01*
X26543Y29183D01*
X26416Y29032D01*
X26285Y28884D01*
X26150Y28739D01*
X26012Y28598D01*
X25871Y28460D01*
X25726Y28325D01*
X25578Y28194D01*
X25427Y28067D01*
X25273Y27944D01*
X25115Y27824D01*
X24955Y27708D01*
X24792Y27597D01*
X24627Y27489D01*
X24459Y27385D01*
X24288Y27286D01*
X24115Y27191D01*
X23939Y27100D01*
X23762Y27013D01*
X23582Y26931D01*
X23401Y26853D01*
X23217Y26779D01*
X23032Y26711D01*
X22845Y26646D01*
X22657Y26587D01*
X22467Y26532D01*
X22276Y26481D01*
X22084Y26436D01*
X21890Y26395D01*
X21696Y26359D01*
X21501Y26327D01*
X21305Y26301D01*
X21109Y26279D01*
X20912Y26262D01*
X20715Y26250D01*
X20518Y26242D01*
X20320Y26240D01*
X20122Y26242D01*
X19925Y26250D01*
X19728Y26262D01*
X19531Y26279D01*
X19335Y26301D01*
X19139Y26327D01*
X18944Y26359D01*
X18750Y26395D01*
X18556Y26436D01*
X18364Y26481D01*
X18173Y26532D01*
X17983Y26587D01*
X17795Y26646D01*
X17608Y26711D01*
X17423Y26779D01*
X17239Y26853D01*
X17058Y26931D01*
X16878Y27013D01*
X16701Y27100D01*
X16525Y27191D01*
X16352Y27286D01*
X16181Y27385D01*
X16013Y27489D01*
X15848Y27597D01*
X15685Y27708D01*
X15525Y27824D01*
X15367Y27944D01*
X15213Y28067D01*
X15062Y28194D01*
X14914Y28325D01*
X14769Y28460D01*
X14628Y28598D01*
X14490Y28739D01*
X14355Y28884D01*
X14224Y29032D01*
X14097Y29183D01*
X13974Y29337D01*
X13854Y29495D01*
X13738Y29655D01*
X13627Y29818D01*
X13519Y29983D01*
X13415Y30151D01*
X13316Y30322D01*
X13221Y30495D01*
X13130Y30671D01*
X13043Y30848D01*
X12961Y31028D01*
X12883Y31209D01*
X12809Y31393D01*
X12741Y31578D01*
X12676Y31765D01*
X12617Y31953D01*
X12562Y32143D01*
X12511Y32334D01*
X12466Y32526D01*
X12425Y32720D01*
X12389Y32914D01*
X12357Y33109D01*
X12331Y33305D01*
X12309Y33501D01*
X12292Y33698D01*
X12280Y33895D01*
X12272Y34092D01*
X12270Y34290D01*
D15*
X79833Y110211D02*
X87199Y110211D01*
X79833Y110211D02*
X79833Y112257D01*
X79835Y112346D01*
X79841Y112435D01*
X79851Y112524D01*
X79864Y112612D01*
X79881Y112700D01*
X79903Y112787D01*
X79928Y112872D01*
X79956Y112957D01*
X79989Y113040D01*
X80025Y113122D01*
X80064Y113202D01*
X80107Y113280D01*
X80153Y113356D01*
X80203Y113431D01*
X80256Y113503D01*
X80312Y113572D01*
X80371Y113639D01*
X80432Y113704D01*
X80497Y113765D01*
X80564Y113824D01*
X80633Y113880D01*
X80705Y113933D01*
X80780Y113983D01*
X80856Y114029D01*
X80934Y114072D01*
X81014Y114111D01*
X81096Y114147D01*
X81179Y114180D01*
X81264Y114208D01*
X81349Y114233D01*
X81436Y114255D01*
X81524Y114272D01*
X81612Y114285D01*
X81701Y114295D01*
X81790Y114301D01*
X81879Y114303D01*
X81968Y114301D01*
X82057Y114295D01*
X82146Y114285D01*
X82234Y114272D01*
X82322Y114255D01*
X82409Y114233D01*
X82494Y114208D01*
X82579Y114180D01*
X82662Y114147D01*
X82744Y114111D01*
X82824Y114072D01*
X82902Y114029D01*
X82978Y113983D01*
X83053Y113933D01*
X83125Y113880D01*
X83194Y113824D01*
X83261Y113765D01*
X83326Y113704D01*
X83387Y113639D01*
X83446Y113572D01*
X83502Y113503D01*
X83555Y113431D01*
X83605Y113356D01*
X83651Y113280D01*
X83694Y113202D01*
X83733Y113122D01*
X83769Y113040D01*
X83802Y112957D01*
X83830Y112872D01*
X83855Y112787D01*
X83877Y112700D01*
X83894Y112612D01*
X83907Y112524D01*
X83917Y112435D01*
X83923Y112346D01*
X83925Y112257D01*
X83925Y110211D01*
X83925Y112666D02*
X87199Y114303D01*
X81470Y117475D02*
X79833Y119521D01*
X87199Y119521D01*
X87199Y117475D02*
X87199Y121567D01*
X93803Y110211D02*
X101169Y110211D01*
X93803Y110211D02*
X93803Y112257D01*
X93805Y112346D01*
X93811Y112435D01*
X93821Y112524D01*
X93834Y112612D01*
X93851Y112700D01*
X93873Y112787D01*
X93898Y112872D01*
X93926Y112957D01*
X93959Y113040D01*
X93995Y113122D01*
X94034Y113202D01*
X94077Y113280D01*
X94123Y113356D01*
X94173Y113431D01*
X94226Y113503D01*
X94282Y113572D01*
X94341Y113639D01*
X94402Y113704D01*
X94467Y113765D01*
X94534Y113824D01*
X94603Y113880D01*
X94675Y113933D01*
X94750Y113983D01*
X94826Y114029D01*
X94904Y114072D01*
X94984Y114111D01*
X95066Y114147D01*
X95149Y114180D01*
X95234Y114208D01*
X95319Y114233D01*
X95406Y114255D01*
X95494Y114272D01*
X95582Y114285D01*
X95671Y114295D01*
X95760Y114301D01*
X95849Y114303D01*
X95938Y114301D01*
X96027Y114295D01*
X96116Y114285D01*
X96204Y114272D01*
X96292Y114255D01*
X96379Y114233D01*
X96464Y114208D01*
X96549Y114180D01*
X96632Y114147D01*
X96714Y114111D01*
X96794Y114072D01*
X96872Y114029D01*
X96948Y113983D01*
X97023Y113933D01*
X97095Y113880D01*
X97164Y113824D01*
X97231Y113765D01*
X97296Y113704D01*
X97357Y113639D01*
X97416Y113572D01*
X97472Y113503D01*
X97525Y113431D01*
X97575Y113356D01*
X97621Y113280D01*
X97664Y113202D01*
X97703Y113122D01*
X97739Y113040D01*
X97772Y112957D01*
X97800Y112872D01*
X97825Y112787D01*
X97847Y112700D01*
X97864Y112612D01*
X97877Y112524D01*
X97887Y112435D01*
X97893Y112346D01*
X97895Y112257D01*
X97895Y110211D01*
X97895Y112666D02*
X101169Y114303D01*
X101169Y117475D02*
X101169Y119521D01*
X101167Y119610D01*
X101161Y119699D01*
X101151Y119788D01*
X101138Y119876D01*
X101121Y119964D01*
X101099Y120051D01*
X101074Y120136D01*
X101046Y120221D01*
X101013Y120304D01*
X100977Y120386D01*
X100938Y120466D01*
X100895Y120544D01*
X100849Y120620D01*
X100799Y120695D01*
X100746Y120767D01*
X100690Y120836D01*
X100631Y120903D01*
X100570Y120968D01*
X100505Y121029D01*
X100438Y121088D01*
X100369Y121144D01*
X100297Y121197D01*
X100222Y121247D01*
X100146Y121293D01*
X100068Y121336D01*
X99988Y121375D01*
X99906Y121411D01*
X99823Y121444D01*
X99738Y121472D01*
X99653Y121497D01*
X99566Y121519D01*
X99478Y121536D01*
X99390Y121549D01*
X99301Y121559D01*
X99212Y121565D01*
X99123Y121567D01*
X99034Y121565D01*
X98945Y121559D01*
X98856Y121549D01*
X98768Y121536D01*
X98680Y121519D01*
X98593Y121497D01*
X98508Y121472D01*
X98423Y121444D01*
X98340Y121411D01*
X98258Y121375D01*
X98178Y121336D01*
X98100Y121293D01*
X98024Y121247D01*
X97949Y121197D01*
X97877Y121144D01*
X97808Y121088D01*
X97741Y121029D01*
X97676Y120968D01*
X97615Y120903D01*
X97556Y120836D01*
X97500Y120767D01*
X97447Y120695D01*
X97397Y120620D01*
X97351Y120544D01*
X97308Y120466D01*
X97269Y120386D01*
X97233Y120304D01*
X97200Y120221D01*
X97172Y120136D01*
X97147Y120051D01*
X97125Y119964D01*
X97108Y119876D01*
X97095Y119788D01*
X97085Y119699D01*
X97079Y119610D01*
X97077Y119521D01*
X93803Y119930D02*
X93803Y117475D01*
X93803Y119930D02*
X93805Y120009D01*
X93811Y120088D01*
X93820Y120167D01*
X93833Y120245D01*
X93851Y120322D01*
X93871Y120398D01*
X93896Y120473D01*
X93924Y120547D01*
X93955Y120620D01*
X93991Y120691D01*
X94029Y120760D01*
X94071Y120827D01*
X94116Y120892D01*
X94164Y120955D01*
X94215Y121016D01*
X94269Y121073D01*
X94325Y121129D01*
X94384Y121181D01*
X94446Y121231D01*
X94510Y121277D01*
X94576Y121321D01*
X94644Y121361D01*
X94714Y121397D01*
X94786Y121431D01*
X94860Y121461D01*
X94934Y121487D01*
X95010Y121510D01*
X95087Y121528D01*
X95164Y121544D01*
X95243Y121555D01*
X95321Y121563D01*
X95400Y121567D01*
X95480Y121567D01*
X95559Y121563D01*
X95637Y121555D01*
X95716Y121544D01*
X95793Y121528D01*
X95870Y121510D01*
X95946Y121487D01*
X96020Y121461D01*
X96094Y121431D01*
X96166Y121397D01*
X96236Y121361D01*
X96304Y121321D01*
X96370Y121277D01*
X96434Y121231D01*
X96496Y121181D01*
X96555Y121129D01*
X96611Y121073D01*
X96665Y121016D01*
X96716Y120955D01*
X96764Y120892D01*
X96809Y120827D01*
X96851Y120760D01*
X96889Y120691D01*
X96925Y120620D01*
X96956Y120547D01*
X96984Y120473D01*
X97009Y120398D01*
X97029Y120322D01*
X97047Y120245D01*
X97060Y120167D01*
X97069Y120088D01*
X97075Y120009D01*
X97077Y119930D01*
X97077Y118293D01*
D11*
X164280Y132380D02*
X182580Y132380D01*
X99880Y132380D02*
X81580Y132380D01*
X81580Y150680D01*
X81580Y215080D02*
X81580Y233380D01*
X164280Y233380D02*
X182580Y233380D01*
X99880Y233380D02*
X81580Y233380D01*
X182580Y233380D02*
X182580Y215080D01*
D18*
X187810Y157880D02*
X187812Y157943D01*
X187818Y158005D01*
X187828Y158067D01*
X187841Y158129D01*
X187859Y158189D01*
X187880Y158248D01*
X187905Y158306D01*
X187934Y158362D01*
X187966Y158416D01*
X188001Y158468D01*
X188039Y158517D01*
X188081Y158565D01*
X188125Y158609D01*
X188173Y158651D01*
X188222Y158689D01*
X188274Y158724D01*
X188328Y158756D01*
X188384Y158785D01*
X188442Y158810D01*
X188501Y158831D01*
X188561Y158849D01*
X188623Y158862D01*
X188685Y158872D01*
X188747Y158878D01*
X188810Y158880D01*
X188873Y158878D01*
X188935Y158872D01*
X188997Y158862D01*
X189059Y158849D01*
X189119Y158831D01*
X189178Y158810D01*
X189236Y158785D01*
X189292Y158756D01*
X189346Y158724D01*
X189398Y158689D01*
X189447Y158651D01*
X189495Y158609D01*
X189539Y158565D01*
X189581Y158517D01*
X189619Y158468D01*
X189654Y158416D01*
X189686Y158362D01*
X189715Y158306D01*
X189740Y158248D01*
X189761Y158189D01*
X189779Y158129D01*
X189792Y158067D01*
X189802Y158005D01*
X189808Y157943D01*
X189810Y157880D01*
X189808Y157817D01*
X189802Y157755D01*
X189792Y157693D01*
X189779Y157631D01*
X189761Y157571D01*
X189740Y157512D01*
X189715Y157454D01*
X189686Y157398D01*
X189654Y157344D01*
X189619Y157292D01*
X189581Y157243D01*
X189539Y157195D01*
X189495Y157151D01*
X189447Y157109D01*
X189398Y157071D01*
X189346Y157036D01*
X189292Y157004D01*
X189236Y156975D01*
X189178Y156950D01*
X189119Y156929D01*
X189059Y156911D01*
X188997Y156898D01*
X188935Y156888D01*
X188873Y156882D01*
X188810Y156880D01*
X188747Y156882D01*
X188685Y156888D01*
X188623Y156898D01*
X188561Y156911D01*
X188501Y156929D01*
X188442Y156950D01*
X188384Y156975D01*
X188328Y157004D01*
X188274Y157036D01*
X188222Y157071D01*
X188173Y157109D01*
X188125Y157151D01*
X188081Y157195D01*
X188039Y157243D01*
X188001Y157292D01*
X187966Y157344D01*
X187934Y157398D01*
X187905Y157454D01*
X187880Y157512D01*
X187859Y157571D01*
X187841Y157631D01*
X187828Y157693D01*
X187818Y157755D01*
X187812Y157817D01*
X187810Y157880D01*
D11*
X182580Y150680D02*
X182580Y132380D01*
D19*
X35360Y505030D02*
X35358Y505106D01*
X35352Y505182D01*
X35343Y505257D01*
X35329Y505332D01*
X35312Y505406D01*
X35291Y505479D01*
X35267Y505551D01*
X35238Y505622D01*
X35207Y505691D01*
X35172Y505758D01*
X35133Y505823D01*
X35091Y505887D01*
X35046Y505948D01*
X34998Y506007D01*
X34947Y506063D01*
X34893Y506117D01*
X34837Y506168D01*
X34778Y506216D01*
X34717Y506261D01*
X34653Y506303D01*
X34588Y506342D01*
X34521Y506377D01*
X34452Y506408D01*
X34381Y506437D01*
X34309Y506461D01*
X34236Y506482D01*
X34162Y506499D01*
X34087Y506513D01*
X34012Y506522D01*
X33936Y506528D01*
X33860Y506530D01*
X35360Y505030D02*
X35360Y483530D01*
X35360Y483030D01*
X35358Y482954D01*
X35352Y482878D01*
X35343Y482803D01*
X35329Y482728D01*
X35312Y482654D01*
X35291Y482581D01*
X35267Y482509D01*
X35238Y482438D01*
X35207Y482369D01*
X35172Y482302D01*
X35133Y482237D01*
X35091Y482173D01*
X35046Y482112D01*
X34998Y482053D01*
X34947Y481997D01*
X34893Y481943D01*
X34837Y481892D01*
X34778Y481844D01*
X34717Y481799D01*
X34653Y481757D01*
X34588Y481718D01*
X34521Y481683D01*
X34452Y481652D01*
X34381Y481623D01*
X34309Y481599D01*
X34236Y481578D01*
X34162Y481561D01*
X34087Y481547D01*
X34012Y481538D01*
X33936Y481532D01*
X33860Y481530D01*
X12360Y481530D01*
X11860Y481530D01*
X11784Y481532D01*
X11708Y481538D01*
X11633Y481547D01*
X11558Y481561D01*
X11484Y481578D01*
X11411Y481599D01*
X11339Y481623D01*
X11268Y481652D01*
X11199Y481683D01*
X11132Y481718D01*
X11067Y481757D01*
X11003Y481799D01*
X10942Y481844D01*
X10883Y481892D01*
X10827Y481943D01*
X10773Y481997D01*
X10722Y482053D01*
X10674Y482112D01*
X10629Y482173D01*
X10587Y482237D01*
X10548Y482302D01*
X10513Y482369D01*
X10482Y482438D01*
X10453Y482509D01*
X10429Y482581D01*
X10408Y482654D01*
X10391Y482728D01*
X10377Y482803D01*
X10368Y482878D01*
X10362Y482954D01*
X10360Y483030D01*
X10360Y504530D01*
X10360Y505030D01*
X10362Y505106D01*
X10368Y505182D01*
X10377Y505257D01*
X10391Y505332D01*
X10408Y505406D01*
X10429Y505479D01*
X10453Y505551D01*
X10482Y505622D01*
X10513Y505691D01*
X10548Y505758D01*
X10587Y505823D01*
X10629Y505887D01*
X10674Y505948D01*
X10722Y506007D01*
X10773Y506063D01*
X10827Y506117D01*
X10883Y506168D01*
X10942Y506216D01*
X11003Y506261D01*
X11067Y506303D01*
X11132Y506342D01*
X11199Y506377D01*
X11268Y506408D01*
X11339Y506437D01*
X11411Y506461D01*
X11484Y506482D01*
X11558Y506499D01*
X11633Y506513D01*
X11708Y506522D01*
X11784Y506528D01*
X11860Y506530D01*
X33860Y506530D01*
D20*
X32860Y505030D02*
X32920Y505028D01*
X32981Y505023D01*
X33040Y505014D01*
X33099Y505001D01*
X33158Y504985D01*
X33215Y504965D01*
X33270Y504942D01*
X33325Y504915D01*
X33377Y504886D01*
X33428Y504853D01*
X33477Y504817D01*
X33523Y504779D01*
X33567Y504737D01*
X33609Y504693D01*
X33647Y504647D01*
X33683Y504598D01*
X33716Y504547D01*
X33745Y504495D01*
X33772Y504440D01*
X33795Y504385D01*
X33815Y504328D01*
X33831Y504269D01*
X33844Y504210D01*
X33853Y504151D01*
X33858Y504090D01*
X33860Y504030D01*
X12860Y505030D02*
X12800Y505028D01*
X12739Y505023D01*
X12680Y505014D01*
X12621Y505001D01*
X12562Y504985D01*
X12505Y504965D01*
X12450Y504942D01*
X12395Y504915D01*
X12343Y504886D01*
X12292Y504853D01*
X12243Y504817D01*
X12197Y504779D01*
X12153Y504737D01*
X12111Y504693D01*
X12073Y504647D01*
X12037Y504598D01*
X12004Y504547D01*
X11975Y504495D01*
X11948Y504440D01*
X11925Y504385D01*
X11905Y504328D01*
X11889Y504269D01*
X11876Y504210D01*
X11867Y504151D01*
X11862Y504090D01*
X11860Y504030D01*
X11860Y484030D02*
X11862Y483970D01*
X11867Y483909D01*
X11876Y483850D01*
X11889Y483791D01*
X11905Y483732D01*
X11925Y483675D01*
X11948Y483620D01*
X11975Y483565D01*
X12004Y483513D01*
X12037Y483462D01*
X12073Y483413D01*
X12111Y483367D01*
X12153Y483323D01*
X12197Y483281D01*
X12243Y483243D01*
X12292Y483207D01*
X12343Y483174D01*
X12395Y483145D01*
X12450Y483118D01*
X12505Y483095D01*
X12562Y483075D01*
X12621Y483059D01*
X12680Y483046D01*
X12739Y483037D01*
X12800Y483032D01*
X12860Y483030D01*
X32860Y483030D02*
X32920Y483032D01*
X32981Y483037D01*
X33040Y483046D01*
X33099Y483059D01*
X33158Y483075D01*
X33215Y483095D01*
X33270Y483118D01*
X33325Y483145D01*
X33377Y483174D01*
X33428Y483207D01*
X33477Y483243D01*
X33523Y483281D01*
X33567Y483323D01*
X33609Y483367D01*
X33647Y483413D01*
X33683Y483462D01*
X33716Y483513D01*
X33745Y483565D01*
X33772Y483620D01*
X33795Y483675D01*
X33815Y483732D01*
X33831Y483791D01*
X33844Y483850D01*
X33853Y483909D01*
X33858Y483970D01*
X33860Y484030D01*
D19*
X16860Y484530D02*
X16862Y484593D01*
X16868Y484655D01*
X16878Y484717D01*
X16891Y484779D01*
X16909Y484839D01*
X16930Y484898D01*
X16955Y484956D01*
X16984Y485012D01*
X17016Y485066D01*
X17051Y485118D01*
X17089Y485167D01*
X17131Y485215D01*
X17175Y485259D01*
X17223Y485301D01*
X17272Y485339D01*
X17324Y485374D01*
X17378Y485406D01*
X17434Y485435D01*
X17492Y485460D01*
X17551Y485481D01*
X17611Y485499D01*
X17673Y485512D01*
X17735Y485522D01*
X17797Y485528D01*
X17860Y485530D01*
X17923Y485528D01*
X17985Y485522D01*
X18047Y485512D01*
X18109Y485499D01*
X18169Y485481D01*
X18228Y485460D01*
X18286Y485435D01*
X18342Y485406D01*
X18396Y485374D01*
X18448Y485339D01*
X18497Y485301D01*
X18545Y485259D01*
X18589Y485215D01*
X18631Y485167D01*
X18669Y485118D01*
X18704Y485066D01*
X18736Y485012D01*
X18765Y484956D01*
X18790Y484898D01*
X18811Y484839D01*
X18829Y484779D01*
X18842Y484717D01*
X18852Y484655D01*
X18858Y484593D01*
X18860Y484530D01*
X18858Y484467D01*
X18852Y484405D01*
X18842Y484343D01*
X18829Y484281D01*
X18811Y484221D01*
X18790Y484162D01*
X18765Y484104D01*
X18736Y484048D01*
X18704Y483994D01*
X18669Y483942D01*
X18631Y483893D01*
X18589Y483845D01*
X18545Y483801D01*
X18497Y483759D01*
X18448Y483721D01*
X18396Y483686D01*
X18342Y483654D01*
X18286Y483625D01*
X18228Y483600D01*
X18169Y483579D01*
X18109Y483561D01*
X18047Y483548D01*
X17985Y483538D01*
X17923Y483532D01*
X17860Y483530D01*
X17797Y483532D01*
X17735Y483538D01*
X17673Y483548D01*
X17611Y483561D01*
X17551Y483579D01*
X17492Y483600D01*
X17434Y483625D01*
X17378Y483654D01*
X17324Y483686D01*
X17272Y483721D01*
X17223Y483759D01*
X17175Y483801D01*
X17131Y483845D01*
X17089Y483893D01*
X17051Y483942D01*
X17016Y483994D01*
X16984Y484048D01*
X16955Y484104D01*
X16930Y484162D01*
X16909Y484221D01*
X16891Y484281D01*
X16878Y484343D01*
X16868Y484405D01*
X16862Y484467D01*
X16860Y484530D01*
D11*
X75070Y219610D02*
X75070Y143610D01*
X29070Y143610D02*
X29070Y219610D01*
D15*
X56147Y176121D02*
X56147Y174484D01*
X56145Y174406D01*
X56140Y174328D01*
X56130Y174251D01*
X56117Y174174D01*
X56101Y174098D01*
X56081Y174023D01*
X56057Y173949D01*
X56030Y173876D01*
X55999Y173804D01*
X55965Y173734D01*
X55928Y173666D01*
X55887Y173599D01*
X55843Y173534D01*
X55797Y173472D01*
X55747Y173412D01*
X55695Y173354D01*
X55640Y173299D01*
X55582Y173247D01*
X55522Y173197D01*
X55460Y173151D01*
X55395Y173107D01*
X55329Y173066D01*
X55260Y173029D01*
X55190Y172995D01*
X55118Y172964D01*
X55045Y172937D01*
X54971Y172913D01*
X54896Y172893D01*
X54820Y172877D01*
X54743Y172864D01*
X54666Y172854D01*
X54588Y172849D01*
X54510Y172847D01*
X50418Y172847D01*
X50338Y172849D01*
X50258Y172855D01*
X50178Y172865D01*
X50099Y172878D01*
X50020Y172896D01*
X49943Y172917D01*
X49867Y172943D01*
X49792Y172972D01*
X49718Y173004D01*
X49646Y173040D01*
X49576Y173080D01*
X49509Y173123D01*
X49443Y173169D01*
X49380Y173219D01*
X49319Y173271D01*
X49260Y173326D01*
X49205Y173385D01*
X49153Y173445D01*
X49103Y173509D01*
X49057Y173574D01*
X49014Y173642D01*
X48974Y173712D01*
X48938Y173784D01*
X48906Y173858D01*
X48877Y173932D01*
X48852Y174009D01*
X48830Y174086D01*
X48812Y174165D01*
X48799Y174244D01*
X48789Y174323D01*
X48783Y174404D01*
X48781Y174484D01*
X48781Y176121D01*
X50418Y178966D02*
X48781Y181012D01*
X56147Y181012D01*
X56147Y178966D02*
X56147Y183058D01*
X56147Y186281D02*
X56147Y188327D01*
X56145Y188416D01*
X56139Y188505D01*
X56129Y188594D01*
X56116Y188682D01*
X56099Y188770D01*
X56077Y188857D01*
X56052Y188942D01*
X56024Y189027D01*
X55991Y189110D01*
X55955Y189192D01*
X55916Y189272D01*
X55873Y189350D01*
X55827Y189426D01*
X55777Y189501D01*
X55724Y189573D01*
X55668Y189642D01*
X55609Y189709D01*
X55548Y189774D01*
X55483Y189835D01*
X55416Y189894D01*
X55347Y189950D01*
X55275Y190003D01*
X55200Y190053D01*
X55124Y190099D01*
X55046Y190142D01*
X54966Y190181D01*
X54884Y190217D01*
X54801Y190250D01*
X54716Y190278D01*
X54631Y190303D01*
X54544Y190325D01*
X54456Y190342D01*
X54368Y190355D01*
X54279Y190365D01*
X54190Y190371D01*
X54101Y190373D01*
X54012Y190371D01*
X53923Y190365D01*
X53834Y190355D01*
X53746Y190342D01*
X53658Y190325D01*
X53571Y190303D01*
X53486Y190278D01*
X53401Y190250D01*
X53318Y190217D01*
X53236Y190181D01*
X53156Y190142D01*
X53078Y190099D01*
X53002Y190053D01*
X52927Y190003D01*
X52855Y189950D01*
X52786Y189894D01*
X52719Y189835D01*
X52654Y189774D01*
X52593Y189709D01*
X52534Y189642D01*
X52478Y189573D01*
X52425Y189501D01*
X52375Y189426D01*
X52329Y189350D01*
X52286Y189272D01*
X52247Y189192D01*
X52211Y189110D01*
X52178Y189027D01*
X52150Y188942D01*
X52125Y188857D01*
X52103Y188770D01*
X52086Y188682D01*
X52073Y188594D01*
X52063Y188505D01*
X52057Y188416D01*
X52055Y188327D01*
X48781Y188736D02*
X48781Y186281D01*
X48781Y188736D02*
X48783Y188815D01*
X48789Y188894D01*
X48798Y188973D01*
X48811Y189051D01*
X48829Y189128D01*
X48849Y189204D01*
X48874Y189279D01*
X48902Y189353D01*
X48933Y189426D01*
X48969Y189497D01*
X49007Y189566D01*
X49049Y189633D01*
X49094Y189698D01*
X49142Y189761D01*
X49193Y189822D01*
X49247Y189879D01*
X49303Y189935D01*
X49362Y189987D01*
X49424Y190037D01*
X49488Y190083D01*
X49554Y190127D01*
X49622Y190167D01*
X49692Y190203D01*
X49764Y190237D01*
X49838Y190267D01*
X49912Y190293D01*
X49988Y190316D01*
X50065Y190334D01*
X50142Y190350D01*
X50221Y190361D01*
X50299Y190369D01*
X50378Y190373D01*
X50458Y190373D01*
X50537Y190369D01*
X50615Y190361D01*
X50694Y190350D01*
X50771Y190334D01*
X50848Y190316D01*
X50924Y190293D01*
X50998Y190267D01*
X51072Y190237D01*
X51144Y190203D01*
X51214Y190167D01*
X51282Y190127D01*
X51348Y190083D01*
X51412Y190037D01*
X51474Y189987D01*
X51533Y189935D01*
X51589Y189879D01*
X51643Y189822D01*
X51694Y189761D01*
X51742Y189698D01*
X51787Y189633D01*
X51829Y189566D01*
X51867Y189497D01*
X51903Y189426D01*
X51934Y189353D01*
X51962Y189279D01*
X51987Y189204D01*
X52007Y189128D01*
X52025Y189051D01*
X52038Y188973D01*
X52047Y188894D01*
X52053Y188815D01*
X52055Y188736D01*
X52055Y187099D01*
X61391Y24483D02*
X68757Y24483D01*
X61391Y24483D02*
X61391Y26529D01*
X61393Y26618D01*
X61399Y26707D01*
X61409Y26796D01*
X61422Y26884D01*
X61439Y26972D01*
X61461Y27059D01*
X61486Y27144D01*
X61514Y27229D01*
X61547Y27312D01*
X61583Y27394D01*
X61622Y27474D01*
X61665Y27552D01*
X61711Y27628D01*
X61761Y27703D01*
X61814Y27775D01*
X61870Y27844D01*
X61929Y27911D01*
X61990Y27976D01*
X62055Y28037D01*
X62122Y28096D01*
X62191Y28152D01*
X62263Y28205D01*
X62338Y28255D01*
X62414Y28301D01*
X62492Y28344D01*
X62572Y28383D01*
X62654Y28419D01*
X62737Y28452D01*
X62822Y28480D01*
X62907Y28505D01*
X62994Y28527D01*
X63082Y28544D01*
X63170Y28557D01*
X63259Y28567D01*
X63348Y28573D01*
X63437Y28575D01*
X63526Y28573D01*
X63615Y28567D01*
X63704Y28557D01*
X63792Y28544D01*
X63880Y28527D01*
X63967Y28505D01*
X64052Y28480D01*
X64137Y28452D01*
X64220Y28419D01*
X64302Y28383D01*
X64382Y28344D01*
X64460Y28301D01*
X64536Y28255D01*
X64611Y28205D01*
X64683Y28152D01*
X64752Y28096D01*
X64819Y28037D01*
X64884Y27976D01*
X64945Y27911D01*
X65004Y27844D01*
X65060Y27775D01*
X65113Y27703D01*
X65163Y27628D01*
X65209Y27552D01*
X65252Y27474D01*
X65291Y27394D01*
X65327Y27312D01*
X65360Y27229D01*
X65388Y27144D01*
X65413Y27059D01*
X65435Y26972D01*
X65452Y26884D01*
X65465Y26796D01*
X65475Y26707D01*
X65481Y26618D01*
X65483Y26529D01*
X65483Y24483D01*
X65483Y26938D02*
X68757Y28575D01*
X67120Y31747D02*
X61391Y33384D01*
X67120Y31747D02*
X67120Y35839D01*
X65483Y34611D02*
X68757Y34611D01*
X54279Y22631D02*
X46913Y22631D01*
X46913Y24677D01*
X46915Y24766D01*
X46921Y24855D01*
X46931Y24944D01*
X46944Y25032D01*
X46961Y25120D01*
X46983Y25207D01*
X47008Y25292D01*
X47036Y25377D01*
X47069Y25460D01*
X47105Y25542D01*
X47144Y25622D01*
X47187Y25700D01*
X47233Y25776D01*
X47283Y25851D01*
X47336Y25923D01*
X47392Y25992D01*
X47451Y26059D01*
X47512Y26124D01*
X47577Y26185D01*
X47644Y26244D01*
X47713Y26300D01*
X47785Y26353D01*
X47860Y26403D01*
X47936Y26449D01*
X48014Y26492D01*
X48094Y26531D01*
X48176Y26567D01*
X48259Y26600D01*
X48344Y26628D01*
X48429Y26653D01*
X48516Y26675D01*
X48604Y26692D01*
X48692Y26705D01*
X48781Y26715D01*
X48870Y26721D01*
X48959Y26723D01*
X49048Y26721D01*
X49137Y26715D01*
X49226Y26705D01*
X49314Y26692D01*
X49402Y26675D01*
X49489Y26653D01*
X49574Y26628D01*
X49659Y26600D01*
X49742Y26567D01*
X49824Y26531D01*
X49904Y26492D01*
X49982Y26449D01*
X50058Y26403D01*
X50133Y26353D01*
X50205Y26300D01*
X50274Y26244D01*
X50341Y26185D01*
X50406Y26124D01*
X50467Y26059D01*
X50526Y25992D01*
X50582Y25923D01*
X50635Y25851D01*
X50685Y25776D01*
X50731Y25700D01*
X50774Y25622D01*
X50813Y25542D01*
X50849Y25460D01*
X50882Y25377D01*
X50910Y25292D01*
X50935Y25207D01*
X50957Y25120D01*
X50974Y25032D01*
X50987Y24944D01*
X50997Y24855D01*
X51003Y24766D01*
X51005Y24677D01*
X51005Y22631D01*
X51005Y25086D02*
X54279Y26723D01*
X54279Y29895D02*
X54279Y32350D01*
X54277Y32428D01*
X54272Y32506D01*
X54262Y32583D01*
X54249Y32660D01*
X54233Y32736D01*
X54213Y32811D01*
X54189Y32885D01*
X54162Y32958D01*
X54131Y33030D01*
X54097Y33100D01*
X54060Y33169D01*
X54019Y33235D01*
X53975Y33300D01*
X53929Y33362D01*
X53879Y33422D01*
X53827Y33480D01*
X53772Y33535D01*
X53714Y33587D01*
X53654Y33637D01*
X53592Y33683D01*
X53527Y33727D01*
X53461Y33768D01*
X53392Y33805D01*
X53322Y33839D01*
X53250Y33870D01*
X53177Y33897D01*
X53103Y33921D01*
X53028Y33941D01*
X52952Y33957D01*
X52875Y33970D01*
X52798Y33980D01*
X52720Y33985D01*
X52642Y33987D01*
X51824Y33987D01*
X51744Y33985D01*
X51664Y33979D01*
X51584Y33969D01*
X51505Y33956D01*
X51426Y33938D01*
X51349Y33917D01*
X51273Y33891D01*
X51198Y33862D01*
X51124Y33830D01*
X51052Y33794D01*
X50982Y33754D01*
X50915Y33711D01*
X50849Y33665D01*
X50786Y33615D01*
X50725Y33563D01*
X50666Y33508D01*
X50611Y33449D01*
X50559Y33389D01*
X50509Y33325D01*
X50463Y33259D01*
X50420Y33192D01*
X50380Y33122D01*
X50344Y33050D01*
X50312Y32976D01*
X50283Y32902D01*
X50257Y32825D01*
X50236Y32748D01*
X50218Y32669D01*
X50205Y32590D01*
X50195Y32510D01*
X50189Y32430D01*
X50187Y32350D01*
X50187Y29895D01*
X46913Y29895D01*
X46913Y33987D01*
D18*
X252280Y489030D02*
X252282Y489093D01*
X252288Y489155D01*
X252298Y489217D01*
X252311Y489279D01*
X252329Y489339D01*
X252350Y489398D01*
X252375Y489456D01*
X252404Y489512D01*
X252436Y489566D01*
X252471Y489618D01*
X252509Y489667D01*
X252551Y489715D01*
X252595Y489759D01*
X252643Y489801D01*
X252692Y489839D01*
X252744Y489874D01*
X252798Y489906D01*
X252854Y489935D01*
X252912Y489960D01*
X252971Y489981D01*
X253031Y489999D01*
X253093Y490012D01*
X253155Y490022D01*
X253217Y490028D01*
X253280Y490030D01*
X253343Y490028D01*
X253405Y490022D01*
X253467Y490012D01*
X253529Y489999D01*
X253589Y489981D01*
X253648Y489960D01*
X253706Y489935D01*
X253762Y489906D01*
X253816Y489874D01*
X253868Y489839D01*
X253917Y489801D01*
X253965Y489759D01*
X254009Y489715D01*
X254051Y489667D01*
X254089Y489618D01*
X254124Y489566D01*
X254156Y489512D01*
X254185Y489456D01*
X254210Y489398D01*
X254231Y489339D01*
X254249Y489279D01*
X254262Y489217D01*
X254272Y489155D01*
X254278Y489093D01*
X254280Y489030D01*
X254278Y488967D01*
X254272Y488905D01*
X254262Y488843D01*
X254249Y488781D01*
X254231Y488721D01*
X254210Y488662D01*
X254185Y488604D01*
X254156Y488548D01*
X254124Y488494D01*
X254089Y488442D01*
X254051Y488393D01*
X254009Y488345D01*
X253965Y488301D01*
X253917Y488259D01*
X253868Y488221D01*
X253816Y488186D01*
X253762Y488154D01*
X253706Y488125D01*
X253648Y488100D01*
X253589Y488079D01*
X253529Y488061D01*
X253467Y488048D01*
X253405Y488038D01*
X253343Y488032D01*
X253280Y488030D01*
X253217Y488032D01*
X253155Y488038D01*
X253093Y488048D01*
X253031Y488061D01*
X252971Y488079D01*
X252912Y488100D01*
X252854Y488125D01*
X252798Y488154D01*
X252744Y488186D01*
X252692Y488221D01*
X252643Y488259D01*
X252595Y488301D01*
X252551Y488345D01*
X252509Y488393D01*
X252471Y488442D01*
X252436Y488494D01*
X252404Y488548D01*
X252375Y488604D01*
X252350Y488662D01*
X252329Y488721D01*
X252311Y488781D01*
X252298Y488843D01*
X252288Y488905D01*
X252282Y488967D01*
X252280Y489030D01*
D11*
X243680Y482830D02*
X223680Y482830D01*
X223680Y505230D02*
X243680Y505230D01*
D12*
X202505Y217932D02*
X201037Y217932D01*
X200963Y217934D01*
X200888Y217940D01*
X200815Y217949D01*
X200741Y217962D01*
X200669Y217979D01*
X200598Y217999D01*
X200527Y218023D01*
X200458Y218051D01*
X200391Y218082D01*
X200325Y218116D01*
X200260Y218154D01*
X200198Y218195D01*
X200138Y218239D01*
X200081Y218286D01*
X200026Y218336D01*
X199973Y218389D01*
X199923Y218444D01*
X199876Y218501D01*
X199832Y218561D01*
X199791Y218623D01*
X199753Y218688D01*
X199719Y218754D01*
X199688Y218821D01*
X199660Y218890D01*
X199636Y218961D01*
X199616Y219032D01*
X199599Y219104D01*
X199586Y219178D01*
X199577Y219251D01*
X199571Y219326D01*
X199569Y219400D01*
X199570Y219400D02*
X199570Y223068D01*
X199569Y223068D02*
X199571Y223142D01*
X199577Y223217D01*
X199586Y223290D01*
X199599Y223364D01*
X199616Y223436D01*
X199636Y223507D01*
X199660Y223578D01*
X199688Y223647D01*
X199719Y223714D01*
X199753Y223780D01*
X199791Y223845D01*
X199832Y223907D01*
X199876Y223967D01*
X199923Y224024D01*
X199973Y224079D01*
X200026Y224132D01*
X200081Y224182D01*
X200138Y224229D01*
X200198Y224273D01*
X200260Y224314D01*
X200325Y224352D01*
X200390Y224386D01*
X200458Y224417D01*
X200527Y224445D01*
X200598Y224469D01*
X200669Y224489D01*
X200741Y224506D01*
X200815Y224519D01*
X200888Y224528D01*
X200963Y224534D01*
X201037Y224536D01*
X202505Y224536D01*
X205701Y217932D02*
X207536Y217932D01*
X207621Y217934D01*
X207705Y217940D01*
X207789Y217950D01*
X207873Y217963D01*
X207956Y217981D01*
X208038Y218002D01*
X208119Y218027D01*
X208199Y218056D01*
X208277Y218088D01*
X208353Y218124D01*
X208428Y218164D01*
X208501Y218207D01*
X208572Y218253D01*
X208641Y218302D01*
X208708Y218355D01*
X208772Y218411D01*
X208833Y218469D01*
X208891Y218530D01*
X208947Y218594D01*
X209000Y218661D01*
X209049Y218730D01*
X209095Y218801D01*
X209138Y218874D01*
X209178Y218949D01*
X209214Y219025D01*
X209246Y219103D01*
X209275Y219183D01*
X209300Y219264D01*
X209321Y219346D01*
X209339Y219429D01*
X209352Y219513D01*
X209362Y219597D01*
X209368Y219681D01*
X209370Y219766D01*
X209368Y219851D01*
X209362Y219935D01*
X209352Y220019D01*
X209339Y220103D01*
X209321Y220186D01*
X209300Y220268D01*
X209275Y220349D01*
X209246Y220429D01*
X209214Y220507D01*
X209178Y220583D01*
X209138Y220658D01*
X209095Y220731D01*
X209049Y220802D01*
X209000Y220871D01*
X208947Y220938D01*
X208891Y221002D01*
X208833Y221063D01*
X208772Y221121D01*
X208708Y221177D01*
X208641Y221230D01*
X208572Y221279D01*
X208501Y221325D01*
X208428Y221368D01*
X208353Y221408D01*
X208277Y221444D01*
X208199Y221476D01*
X208119Y221505D01*
X208038Y221530D01*
X207956Y221551D01*
X207873Y221569D01*
X207789Y221582D01*
X207705Y221592D01*
X207621Y221598D01*
X207536Y221600D01*
X207903Y224536D02*
X205701Y224536D01*
X207903Y224536D02*
X207979Y224534D01*
X208054Y224528D01*
X208129Y224519D01*
X208203Y224505D01*
X208277Y224488D01*
X208349Y224466D01*
X208421Y224442D01*
X208491Y224413D01*
X208559Y224381D01*
X208626Y224346D01*
X208691Y224307D01*
X208754Y224264D01*
X208814Y224219D01*
X208872Y224171D01*
X208928Y224119D01*
X208980Y224065D01*
X209030Y224008D01*
X209077Y223949D01*
X209121Y223888D01*
X209162Y223824D01*
X209199Y223758D01*
X209233Y223690D01*
X209263Y223621D01*
X209290Y223550D01*
X209313Y223478D01*
X209332Y223405D01*
X209347Y223331D01*
X209359Y223256D01*
X209367Y223181D01*
X209371Y223106D01*
X209371Y223030D01*
X209367Y222955D01*
X209359Y222880D01*
X209347Y222805D01*
X209332Y222731D01*
X209313Y222658D01*
X209290Y222586D01*
X209263Y222515D01*
X209233Y222446D01*
X209199Y222378D01*
X209162Y222312D01*
X209121Y222248D01*
X209077Y222187D01*
X209030Y222128D01*
X208980Y222071D01*
X208928Y222017D01*
X208872Y221965D01*
X208814Y221917D01*
X208754Y221872D01*
X208691Y221829D01*
X208626Y221790D01*
X208559Y221755D01*
X208491Y221723D01*
X208421Y221694D01*
X208349Y221670D01*
X208277Y221648D01*
X208203Y221631D01*
X208129Y221617D01*
X208054Y221608D01*
X207979Y221602D01*
X207903Y221600D01*
X207903Y221601D02*
X206435Y221601D01*
X26416Y461387D02*
X26416Y462855D01*
X26416Y461387D02*
X26414Y461313D01*
X26408Y461238D01*
X26399Y461165D01*
X26386Y461091D01*
X26369Y461019D01*
X26349Y460948D01*
X26325Y460877D01*
X26297Y460808D01*
X26266Y460741D01*
X26232Y460675D01*
X26194Y460610D01*
X26153Y460548D01*
X26109Y460488D01*
X26062Y460431D01*
X26012Y460376D01*
X25959Y460323D01*
X25904Y460273D01*
X25847Y460226D01*
X25787Y460182D01*
X25725Y460141D01*
X25660Y460103D01*
X25595Y460069D01*
X25527Y460038D01*
X25458Y460010D01*
X25387Y459986D01*
X25316Y459966D01*
X25244Y459949D01*
X25170Y459936D01*
X25097Y459927D01*
X25022Y459921D01*
X24948Y459919D01*
X24948Y459920D02*
X21280Y459920D01*
X21280Y459919D02*
X21206Y459921D01*
X21131Y459927D01*
X21058Y459936D01*
X20984Y459949D01*
X20912Y459966D01*
X20841Y459986D01*
X20770Y460010D01*
X20701Y460038D01*
X20634Y460069D01*
X20568Y460103D01*
X20503Y460141D01*
X20441Y460182D01*
X20381Y460226D01*
X20324Y460273D01*
X20269Y460323D01*
X20216Y460376D01*
X20166Y460431D01*
X20119Y460488D01*
X20075Y460548D01*
X20034Y460610D01*
X19996Y460675D01*
X19962Y460740D01*
X19931Y460808D01*
X19903Y460877D01*
X19879Y460948D01*
X19859Y461019D01*
X19842Y461091D01*
X19829Y461165D01*
X19820Y461238D01*
X19814Y461313D01*
X19812Y461387D01*
X19812Y462855D01*
X26416Y466051D02*
X26416Y468253D01*
X26414Y468327D01*
X26408Y468402D01*
X26399Y468475D01*
X26386Y468548D01*
X26369Y468621D01*
X26349Y468692D01*
X26325Y468763D01*
X26297Y468832D01*
X26266Y468899D01*
X26232Y468965D01*
X26194Y469030D01*
X26153Y469092D01*
X26109Y469152D01*
X26062Y469209D01*
X26012Y469264D01*
X25959Y469317D01*
X25904Y469367D01*
X25847Y469414D01*
X25787Y469458D01*
X25725Y469499D01*
X25660Y469537D01*
X25595Y469571D01*
X25527Y469602D01*
X25458Y469630D01*
X25388Y469654D01*
X25316Y469674D01*
X25244Y469691D01*
X25170Y469704D01*
X25097Y469713D01*
X25022Y469719D01*
X24948Y469721D01*
X24948Y469720D02*
X24215Y469720D01*
X24215Y469721D02*
X24141Y469719D01*
X24066Y469713D01*
X23993Y469704D01*
X23919Y469691D01*
X23847Y469674D01*
X23776Y469654D01*
X23705Y469630D01*
X23636Y469602D01*
X23569Y469571D01*
X23503Y469537D01*
X23438Y469499D01*
X23376Y469458D01*
X23316Y469414D01*
X23259Y469367D01*
X23204Y469317D01*
X23151Y469264D01*
X23101Y469209D01*
X23054Y469152D01*
X23010Y469092D01*
X22969Y469030D01*
X22931Y468965D01*
X22897Y468899D01*
X22866Y468832D01*
X22838Y468763D01*
X22814Y468692D01*
X22794Y468621D01*
X22777Y468549D01*
X22764Y468475D01*
X22755Y468402D01*
X22749Y468327D01*
X22747Y468253D01*
X22747Y466051D01*
X19812Y466051D01*
X19812Y469720D01*
X236728Y464125D02*
X236728Y462657D01*
X236726Y462583D01*
X236720Y462508D01*
X236711Y462435D01*
X236698Y462361D01*
X236681Y462289D01*
X236661Y462218D01*
X236637Y462147D01*
X236609Y462078D01*
X236578Y462011D01*
X236544Y461945D01*
X236506Y461880D01*
X236465Y461818D01*
X236421Y461758D01*
X236374Y461701D01*
X236324Y461646D01*
X236271Y461593D01*
X236216Y461543D01*
X236159Y461496D01*
X236099Y461452D01*
X236037Y461411D01*
X235972Y461373D01*
X235907Y461339D01*
X235839Y461308D01*
X235770Y461280D01*
X235699Y461256D01*
X235628Y461236D01*
X235556Y461219D01*
X235482Y461206D01*
X235409Y461197D01*
X235334Y461191D01*
X235260Y461189D01*
X235260Y461190D02*
X231592Y461190D01*
X231592Y461189D02*
X231518Y461191D01*
X231443Y461197D01*
X231370Y461206D01*
X231296Y461219D01*
X231224Y461236D01*
X231153Y461256D01*
X231082Y461280D01*
X231013Y461308D01*
X230946Y461339D01*
X230880Y461373D01*
X230815Y461411D01*
X230753Y461452D01*
X230693Y461496D01*
X230636Y461543D01*
X230581Y461593D01*
X230528Y461646D01*
X230478Y461701D01*
X230431Y461758D01*
X230387Y461818D01*
X230346Y461880D01*
X230308Y461945D01*
X230274Y462010D01*
X230243Y462078D01*
X230215Y462147D01*
X230191Y462218D01*
X230171Y462289D01*
X230154Y462361D01*
X230141Y462435D01*
X230132Y462508D01*
X230126Y462583D01*
X230124Y462657D01*
X230124Y464125D01*
X233059Y467321D02*
X233059Y469523D01*
X233061Y469597D01*
X233067Y469672D01*
X233076Y469745D01*
X233089Y469819D01*
X233106Y469891D01*
X233126Y469962D01*
X233150Y470033D01*
X233178Y470102D01*
X233209Y470169D01*
X233243Y470235D01*
X233281Y470300D01*
X233322Y470362D01*
X233366Y470422D01*
X233413Y470479D01*
X233463Y470534D01*
X233516Y470587D01*
X233571Y470637D01*
X233628Y470684D01*
X233688Y470728D01*
X233750Y470769D01*
X233815Y470807D01*
X233881Y470841D01*
X233948Y470872D01*
X234017Y470900D01*
X234088Y470924D01*
X234159Y470944D01*
X234231Y470961D01*
X234305Y470974D01*
X234378Y470983D01*
X234453Y470989D01*
X234527Y470991D01*
X234527Y470990D02*
X234894Y470990D01*
X234979Y470988D01*
X235063Y470982D01*
X235147Y470972D01*
X235231Y470959D01*
X235314Y470941D01*
X235396Y470920D01*
X235477Y470895D01*
X235557Y470866D01*
X235635Y470834D01*
X235711Y470798D01*
X235786Y470758D01*
X235859Y470715D01*
X235930Y470669D01*
X235999Y470620D01*
X236066Y470567D01*
X236130Y470511D01*
X236191Y470453D01*
X236249Y470392D01*
X236305Y470328D01*
X236358Y470261D01*
X236407Y470192D01*
X236453Y470121D01*
X236496Y470048D01*
X236536Y469973D01*
X236572Y469897D01*
X236604Y469819D01*
X236633Y469739D01*
X236658Y469658D01*
X236679Y469576D01*
X236697Y469493D01*
X236710Y469409D01*
X236720Y469325D01*
X236726Y469241D01*
X236728Y469156D01*
X236726Y469071D01*
X236720Y468987D01*
X236710Y468903D01*
X236697Y468819D01*
X236679Y468736D01*
X236658Y468654D01*
X236633Y468573D01*
X236604Y468493D01*
X236572Y468415D01*
X236536Y468339D01*
X236496Y468264D01*
X236453Y468191D01*
X236407Y468120D01*
X236358Y468051D01*
X236305Y467984D01*
X236249Y467920D01*
X236191Y467859D01*
X236130Y467801D01*
X236066Y467745D01*
X235999Y467692D01*
X235930Y467643D01*
X235859Y467597D01*
X235786Y467554D01*
X235711Y467514D01*
X235635Y467478D01*
X235557Y467446D01*
X235477Y467417D01*
X235396Y467392D01*
X235314Y467371D01*
X235231Y467353D01*
X235147Y467340D01*
X235063Y467330D01*
X234979Y467324D01*
X234894Y467322D01*
X234894Y467321D02*
X233059Y467321D01*
X232952Y467323D01*
X232845Y467329D01*
X232738Y467339D01*
X232632Y467352D01*
X232526Y467370D01*
X232421Y467391D01*
X232317Y467416D01*
X232213Y467445D01*
X232111Y467478D01*
X232011Y467515D01*
X231911Y467555D01*
X231813Y467599D01*
X231717Y467646D01*
X231623Y467697D01*
X231530Y467751D01*
X231440Y467808D01*
X231351Y467869D01*
X231265Y467933D01*
X231182Y468000D01*
X231100Y468070D01*
X231022Y468143D01*
X230946Y468219D01*
X230873Y468297D01*
X230803Y468379D01*
X230736Y468462D01*
X230672Y468548D01*
X230611Y468637D01*
X230554Y468727D01*
X230500Y468820D01*
X230449Y468914D01*
X230402Y469010D01*
X230358Y469108D01*
X230318Y469208D01*
X230281Y469308D01*
X230248Y469410D01*
X230219Y469514D01*
X230194Y469618D01*
X230173Y469723D01*
X230155Y469829D01*
X230142Y469935D01*
X230132Y470042D01*
X230126Y470149D01*
X230124Y470256D01*
D11*
X253241Y175221D02*
X253241Y165696D01*
D15*
X233635Y180393D02*
X233635Y187759D01*
X235681Y187759D01*
X235770Y187757D01*
X235859Y187751D01*
X235948Y187741D01*
X236036Y187728D01*
X236124Y187711D01*
X236211Y187689D01*
X236296Y187664D01*
X236381Y187636D01*
X236464Y187603D01*
X236546Y187567D01*
X236626Y187528D01*
X236704Y187485D01*
X236780Y187439D01*
X236855Y187389D01*
X236927Y187336D01*
X236996Y187280D01*
X237063Y187221D01*
X237128Y187160D01*
X237189Y187095D01*
X237248Y187028D01*
X237304Y186959D01*
X237357Y186887D01*
X237407Y186812D01*
X237453Y186736D01*
X237496Y186658D01*
X237535Y186578D01*
X237571Y186496D01*
X237604Y186413D01*
X237632Y186328D01*
X237657Y186243D01*
X237679Y186156D01*
X237696Y186068D01*
X237709Y185980D01*
X237719Y185891D01*
X237725Y185802D01*
X237727Y185713D01*
X237725Y185624D01*
X237719Y185535D01*
X237709Y185446D01*
X237696Y185358D01*
X237679Y185270D01*
X237657Y185183D01*
X237632Y185098D01*
X237604Y185013D01*
X237571Y184930D01*
X237535Y184848D01*
X237496Y184768D01*
X237453Y184690D01*
X237407Y184614D01*
X237357Y184539D01*
X237304Y184467D01*
X237248Y184398D01*
X237189Y184331D01*
X237128Y184266D01*
X237063Y184205D01*
X236996Y184146D01*
X236927Y184090D01*
X236855Y184037D01*
X236780Y183987D01*
X236704Y183941D01*
X236626Y183898D01*
X236546Y183859D01*
X236464Y183823D01*
X236381Y183790D01*
X236296Y183762D01*
X236211Y183737D01*
X236124Y183715D01*
X236036Y183698D01*
X235948Y183685D01*
X235859Y183675D01*
X235770Y183669D01*
X235681Y183667D01*
X235681Y183666D02*
X233635Y183666D01*
X236090Y183666D02*
X237727Y180393D01*
X240899Y186940D02*
X240899Y187759D01*
X244991Y187759D01*
X242945Y180393D01*
D11*
X46990Y240030D02*
X46990Y540030D01*
X210990Y540030D01*
X210990Y240030D01*
X46990Y240030D01*
X71990Y490030D02*
X71990Y530030D01*
X91990Y530030D01*
X91990Y500030D01*
X111990Y500030D01*
X111990Y530030D01*
X131990Y530030D01*
X131990Y500030D01*
X151990Y500030D01*
X151990Y530030D01*
X171990Y530030D01*
X191990Y530030D01*
X191990Y480030D01*
X171990Y480030D02*
X171990Y530030D01*
X166990Y470030D02*
X166990Y430030D01*
X196990Y430030D01*
X196990Y470030D01*
X166990Y470030D01*
X172091Y451030D02*
X172094Y451273D01*
X172103Y451516D01*
X172118Y451758D01*
X172139Y452000D01*
X172165Y452242D01*
X172198Y452482D01*
X172237Y452722D01*
X172281Y452961D01*
X172332Y453199D01*
X172388Y453435D01*
X172450Y453670D01*
X172517Y453904D01*
X172591Y454135D01*
X172670Y454365D01*
X172754Y454593D01*
X172845Y454818D01*
X172940Y455041D01*
X173041Y455262D01*
X173148Y455481D01*
X173260Y455696D01*
X173377Y455909D01*
X173499Y456119D01*
X173627Y456326D01*
X173759Y456530D01*
X173897Y456730D01*
X174039Y456927D01*
X174186Y457120D01*
X174338Y457310D01*
X174494Y457496D01*
X174655Y457678D01*
X174821Y457856D01*
X174990Y458030D01*
X175164Y458199D01*
X175342Y458365D01*
X175524Y458526D01*
X175710Y458682D01*
X175900Y458834D01*
X176093Y458981D01*
X176290Y459123D01*
X176490Y459261D01*
X176694Y459393D01*
X176901Y459521D01*
X177111Y459643D01*
X177324Y459760D01*
X177539Y459872D01*
X177758Y459979D01*
X177979Y460080D01*
X178202Y460175D01*
X178427Y460266D01*
X178655Y460350D01*
X178885Y460429D01*
X179116Y460503D01*
X179350Y460570D01*
X179585Y460632D01*
X179821Y460688D01*
X180059Y460739D01*
X180298Y460783D01*
X180538Y460822D01*
X180778Y460855D01*
X181020Y460881D01*
X181262Y460902D01*
X181504Y460917D01*
X181747Y460926D01*
X181990Y460929D01*
X182233Y460926D01*
X182476Y460917D01*
X182718Y460902D01*
X182960Y460881D01*
X183202Y460855D01*
X183442Y460822D01*
X183682Y460783D01*
X183921Y460739D01*
X184159Y460688D01*
X184395Y460632D01*
X184630Y460570D01*
X184864Y460503D01*
X185095Y460429D01*
X185325Y460350D01*
X185553Y460266D01*
X185778Y460175D01*
X186001Y460080D01*
X186222Y459979D01*
X186441Y459872D01*
X186656Y459760D01*
X186869Y459643D01*
X187079Y459521D01*
X187286Y459393D01*
X187490Y459261D01*
X187690Y459123D01*
X187887Y458981D01*
X188080Y458834D01*
X188270Y458682D01*
X188456Y458526D01*
X188638Y458365D01*
X188816Y458199D01*
X188990Y458030D01*
X189159Y457856D01*
X189325Y457678D01*
X189486Y457496D01*
X189642Y457310D01*
X189794Y457120D01*
X189941Y456927D01*
X190083Y456730D01*
X190221Y456530D01*
X190353Y456326D01*
X190481Y456119D01*
X190603Y455909D01*
X190720Y455696D01*
X190832Y455481D01*
X190939Y455262D01*
X191040Y455041D01*
X191135Y454818D01*
X191226Y454593D01*
X191310Y454365D01*
X191389Y454135D01*
X191463Y453904D01*
X191530Y453670D01*
X191592Y453435D01*
X191648Y453199D01*
X191699Y452961D01*
X191743Y452722D01*
X191782Y452482D01*
X191815Y452242D01*
X191841Y452000D01*
X191862Y451758D01*
X191877Y451516D01*
X191886Y451273D01*
X191889Y451030D01*
X191886Y450787D01*
X191877Y450544D01*
X191862Y450302D01*
X191841Y450060D01*
X191815Y449818D01*
X191782Y449578D01*
X191743Y449338D01*
X191699Y449099D01*
X191648Y448861D01*
X191592Y448625D01*
X191530Y448390D01*
X191463Y448156D01*
X191389Y447925D01*
X191310Y447695D01*
X191226Y447467D01*
X191135Y447242D01*
X191040Y447019D01*
X190939Y446798D01*
X190832Y446579D01*
X190720Y446364D01*
X190603Y446151D01*
X190481Y445941D01*
X190353Y445734D01*
X190221Y445530D01*
X190083Y445330D01*
X189941Y445133D01*
X189794Y444940D01*
X189642Y444750D01*
X189486Y444564D01*
X189325Y444382D01*
X189159Y444204D01*
X188990Y444030D01*
X188816Y443861D01*
X188638Y443695D01*
X188456Y443534D01*
X188270Y443378D01*
X188080Y443226D01*
X187887Y443079D01*
X187690Y442937D01*
X187490Y442799D01*
X187286Y442667D01*
X187079Y442539D01*
X186869Y442417D01*
X186656Y442300D01*
X186441Y442188D01*
X186222Y442081D01*
X186001Y441980D01*
X185778Y441885D01*
X185553Y441794D01*
X185325Y441710D01*
X185095Y441631D01*
X184864Y441557D01*
X184630Y441490D01*
X184395Y441428D01*
X184159Y441372D01*
X183921Y441321D01*
X183682Y441277D01*
X183442Y441238D01*
X183202Y441205D01*
X182960Y441179D01*
X182718Y441158D01*
X182476Y441143D01*
X182233Y441134D01*
X181990Y441131D01*
X181747Y441134D01*
X181504Y441143D01*
X181262Y441158D01*
X181020Y441179D01*
X180778Y441205D01*
X180538Y441238D01*
X180298Y441277D01*
X180059Y441321D01*
X179821Y441372D01*
X179585Y441428D01*
X179350Y441490D01*
X179116Y441557D01*
X178885Y441631D01*
X178655Y441710D01*
X178427Y441794D01*
X178202Y441885D01*
X177979Y441980D01*
X177758Y442081D01*
X177539Y442188D01*
X177324Y442300D01*
X177111Y442417D01*
X176901Y442539D01*
X176694Y442667D01*
X176490Y442799D01*
X176290Y442937D01*
X176093Y443079D01*
X175900Y443226D01*
X175710Y443378D01*
X175524Y443534D01*
X175342Y443695D01*
X175164Y443861D01*
X174990Y444030D01*
X174821Y444204D01*
X174655Y444382D01*
X174494Y444564D01*
X174338Y444750D01*
X174186Y444940D01*
X174039Y445133D01*
X173897Y445330D01*
X173759Y445530D01*
X173627Y445734D01*
X173499Y445941D01*
X173377Y446151D01*
X173260Y446364D01*
X173148Y446579D01*
X173041Y446798D01*
X172940Y447019D01*
X172845Y447242D01*
X172754Y447467D01*
X172670Y447695D01*
X172591Y447925D01*
X172517Y448156D01*
X172450Y448390D01*
X172388Y448625D01*
X172332Y448861D01*
X172281Y449099D01*
X172237Y449338D01*
X172198Y449578D01*
X172165Y449818D01*
X172139Y450060D01*
X172118Y450302D01*
X172103Y450544D01*
X172094Y450787D01*
X172091Y451030D01*
X83570Y42070D02*
X83570Y27670D01*
X172970Y27670D02*
X172970Y42070D01*
X172970Y270D02*
X172970Y-12030D01*
X83570Y-12030D01*
X83570Y270D01*
D18*
X93270Y77970D02*
X93272Y78033D01*
X93278Y78095D01*
X93288Y78157D01*
X93301Y78219D01*
X93319Y78279D01*
X93340Y78338D01*
X93365Y78396D01*
X93394Y78452D01*
X93426Y78506D01*
X93461Y78558D01*
X93499Y78607D01*
X93541Y78655D01*
X93585Y78699D01*
X93633Y78741D01*
X93682Y78779D01*
X93734Y78814D01*
X93788Y78846D01*
X93844Y78875D01*
X93902Y78900D01*
X93961Y78921D01*
X94021Y78939D01*
X94083Y78952D01*
X94145Y78962D01*
X94207Y78968D01*
X94270Y78970D01*
X94333Y78968D01*
X94395Y78962D01*
X94457Y78952D01*
X94519Y78939D01*
X94579Y78921D01*
X94638Y78900D01*
X94696Y78875D01*
X94752Y78846D01*
X94806Y78814D01*
X94858Y78779D01*
X94907Y78741D01*
X94955Y78699D01*
X94999Y78655D01*
X95041Y78607D01*
X95079Y78558D01*
X95114Y78506D01*
X95146Y78452D01*
X95175Y78396D01*
X95200Y78338D01*
X95221Y78279D01*
X95239Y78219D01*
X95252Y78157D01*
X95262Y78095D01*
X95268Y78033D01*
X95270Y77970D01*
X95268Y77907D01*
X95262Y77845D01*
X95252Y77783D01*
X95239Y77721D01*
X95221Y77661D01*
X95200Y77602D01*
X95175Y77544D01*
X95146Y77488D01*
X95114Y77434D01*
X95079Y77382D01*
X95041Y77333D01*
X94999Y77285D01*
X94955Y77241D01*
X94907Y77199D01*
X94858Y77161D01*
X94806Y77126D01*
X94752Y77094D01*
X94696Y77065D01*
X94638Y77040D01*
X94579Y77019D01*
X94519Y77001D01*
X94457Y76988D01*
X94395Y76978D01*
X94333Y76972D01*
X94270Y76970D01*
X94207Y76972D01*
X94145Y76978D01*
X94083Y76988D01*
X94021Y77001D01*
X93961Y77019D01*
X93902Y77040D01*
X93844Y77065D01*
X93788Y77094D01*
X93734Y77126D01*
X93682Y77161D01*
X93633Y77199D01*
X93585Y77241D01*
X93541Y77285D01*
X93499Y77333D01*
X93461Y77382D01*
X93426Y77434D01*
X93394Y77488D01*
X93365Y77544D01*
X93340Y77602D01*
X93319Y77661D01*
X93301Y77721D01*
X93288Y77783D01*
X93278Y77845D01*
X93272Y77907D01*
X93270Y77970D01*
D15*
X50469Y111531D02*
X43103Y111531D01*
X43103Y113577D01*
X43105Y113666D01*
X43111Y113755D01*
X43121Y113844D01*
X43134Y113932D01*
X43151Y114020D01*
X43173Y114107D01*
X43198Y114192D01*
X43226Y114277D01*
X43259Y114360D01*
X43295Y114442D01*
X43334Y114522D01*
X43377Y114600D01*
X43423Y114676D01*
X43473Y114751D01*
X43526Y114823D01*
X43582Y114892D01*
X43641Y114959D01*
X43702Y115024D01*
X43767Y115085D01*
X43834Y115144D01*
X43903Y115200D01*
X43975Y115253D01*
X44050Y115303D01*
X44126Y115349D01*
X44204Y115392D01*
X44284Y115431D01*
X44366Y115467D01*
X44449Y115500D01*
X44534Y115528D01*
X44619Y115553D01*
X44706Y115575D01*
X44794Y115592D01*
X44882Y115605D01*
X44971Y115615D01*
X45060Y115621D01*
X45149Y115623D01*
X45238Y115621D01*
X45327Y115615D01*
X45416Y115605D01*
X45504Y115592D01*
X45592Y115575D01*
X45679Y115553D01*
X45764Y115528D01*
X45849Y115500D01*
X45932Y115467D01*
X46014Y115431D01*
X46094Y115392D01*
X46172Y115349D01*
X46248Y115303D01*
X46323Y115253D01*
X46395Y115200D01*
X46464Y115144D01*
X46531Y115085D01*
X46596Y115024D01*
X46657Y114959D01*
X46716Y114892D01*
X46772Y114823D01*
X46825Y114751D01*
X46875Y114676D01*
X46921Y114600D01*
X46964Y114522D01*
X47003Y114442D01*
X47039Y114360D01*
X47072Y114277D01*
X47100Y114192D01*
X47125Y114107D01*
X47147Y114020D01*
X47164Y113932D01*
X47177Y113844D01*
X47187Y113755D01*
X47193Y113666D01*
X47195Y113577D01*
X47195Y111531D01*
X47195Y113986D02*
X50469Y115623D01*
X48423Y118795D02*
X48334Y118797D01*
X48245Y118803D01*
X48156Y118813D01*
X48068Y118826D01*
X47980Y118843D01*
X47893Y118865D01*
X47808Y118890D01*
X47723Y118918D01*
X47640Y118951D01*
X47558Y118987D01*
X47478Y119026D01*
X47400Y119069D01*
X47324Y119115D01*
X47249Y119165D01*
X47177Y119218D01*
X47108Y119274D01*
X47041Y119333D01*
X46976Y119394D01*
X46915Y119459D01*
X46856Y119526D01*
X46800Y119595D01*
X46747Y119667D01*
X46697Y119742D01*
X46651Y119818D01*
X46608Y119896D01*
X46569Y119976D01*
X46533Y120058D01*
X46500Y120141D01*
X46472Y120226D01*
X46447Y120311D01*
X46425Y120398D01*
X46408Y120486D01*
X46395Y120574D01*
X46385Y120663D01*
X46379Y120752D01*
X46377Y120841D01*
X46379Y120930D01*
X46385Y121019D01*
X46395Y121108D01*
X46408Y121196D01*
X46425Y121284D01*
X46447Y121371D01*
X46472Y121456D01*
X46500Y121541D01*
X46533Y121624D01*
X46569Y121706D01*
X46608Y121786D01*
X46651Y121864D01*
X46697Y121940D01*
X46747Y122015D01*
X46800Y122087D01*
X46856Y122156D01*
X46915Y122223D01*
X46976Y122288D01*
X47041Y122349D01*
X47108Y122408D01*
X47177Y122464D01*
X47249Y122517D01*
X47324Y122567D01*
X47400Y122613D01*
X47478Y122656D01*
X47558Y122695D01*
X47640Y122731D01*
X47723Y122764D01*
X47808Y122792D01*
X47893Y122817D01*
X47980Y122839D01*
X48068Y122856D01*
X48156Y122869D01*
X48245Y122879D01*
X48334Y122885D01*
X48423Y122887D01*
X48512Y122885D01*
X48601Y122879D01*
X48690Y122869D01*
X48778Y122856D01*
X48866Y122839D01*
X48953Y122817D01*
X49038Y122792D01*
X49123Y122764D01*
X49206Y122731D01*
X49288Y122695D01*
X49368Y122656D01*
X49446Y122613D01*
X49522Y122567D01*
X49597Y122517D01*
X49669Y122464D01*
X49738Y122408D01*
X49805Y122349D01*
X49870Y122288D01*
X49931Y122223D01*
X49990Y122156D01*
X50046Y122087D01*
X50099Y122015D01*
X50149Y121940D01*
X50195Y121864D01*
X50238Y121786D01*
X50277Y121706D01*
X50313Y121624D01*
X50346Y121541D01*
X50374Y121456D01*
X50399Y121371D01*
X50421Y121284D01*
X50438Y121196D01*
X50451Y121108D01*
X50461Y121019D01*
X50467Y120930D01*
X50469Y120841D01*
X50467Y120752D01*
X50461Y120663D01*
X50451Y120574D01*
X50438Y120486D01*
X50421Y120398D01*
X50399Y120311D01*
X50374Y120226D01*
X50346Y120141D01*
X50313Y120058D01*
X50277Y119976D01*
X50238Y119896D01*
X50195Y119818D01*
X50149Y119742D01*
X50099Y119667D01*
X50046Y119595D01*
X49990Y119526D01*
X49931Y119459D01*
X49870Y119394D01*
X49805Y119333D01*
X49738Y119274D01*
X49669Y119218D01*
X49597Y119165D01*
X49522Y119115D01*
X49446Y119069D01*
X49368Y119026D01*
X49288Y118987D01*
X49206Y118951D01*
X49123Y118918D01*
X49038Y118890D01*
X48953Y118865D01*
X48866Y118843D01*
X48778Y118826D01*
X48690Y118813D01*
X48601Y118803D01*
X48512Y118797D01*
X48423Y118795D01*
X44740Y119204D02*
X44661Y119206D01*
X44582Y119212D01*
X44503Y119221D01*
X44425Y119234D01*
X44348Y119252D01*
X44272Y119272D01*
X44197Y119297D01*
X44123Y119325D01*
X44050Y119356D01*
X43979Y119392D01*
X43910Y119430D01*
X43843Y119472D01*
X43778Y119517D01*
X43715Y119565D01*
X43654Y119616D01*
X43597Y119670D01*
X43541Y119726D01*
X43489Y119785D01*
X43439Y119847D01*
X43393Y119911D01*
X43349Y119977D01*
X43309Y120045D01*
X43273Y120115D01*
X43239Y120187D01*
X43209Y120261D01*
X43183Y120335D01*
X43160Y120411D01*
X43142Y120488D01*
X43126Y120565D01*
X43115Y120644D01*
X43107Y120722D01*
X43103Y120801D01*
X43103Y120881D01*
X43107Y120960D01*
X43115Y121038D01*
X43126Y121117D01*
X43142Y121194D01*
X43160Y121271D01*
X43183Y121347D01*
X43209Y121421D01*
X43239Y121495D01*
X43273Y121567D01*
X43309Y121637D01*
X43349Y121705D01*
X43393Y121771D01*
X43439Y121835D01*
X43489Y121897D01*
X43541Y121956D01*
X43597Y122012D01*
X43654Y122066D01*
X43715Y122117D01*
X43778Y122165D01*
X43843Y122210D01*
X43910Y122252D01*
X43979Y122290D01*
X44050Y122326D01*
X44123Y122357D01*
X44197Y122385D01*
X44272Y122410D01*
X44348Y122430D01*
X44425Y122448D01*
X44503Y122461D01*
X44582Y122470D01*
X44661Y122476D01*
X44740Y122478D01*
X44819Y122476D01*
X44898Y122470D01*
X44977Y122461D01*
X45055Y122448D01*
X45132Y122430D01*
X45208Y122410D01*
X45283Y122385D01*
X45357Y122357D01*
X45430Y122326D01*
X45501Y122290D01*
X45570Y122252D01*
X45637Y122210D01*
X45702Y122165D01*
X45765Y122117D01*
X45826Y122066D01*
X45883Y122012D01*
X45939Y121956D01*
X45991Y121897D01*
X46041Y121835D01*
X46087Y121771D01*
X46131Y121705D01*
X46171Y121637D01*
X46207Y121567D01*
X46241Y121495D01*
X46271Y121421D01*
X46297Y121347D01*
X46320Y121271D01*
X46338Y121194D01*
X46354Y121117D01*
X46365Y121038D01*
X46373Y120960D01*
X46377Y120881D01*
X46377Y120801D01*
X46373Y120722D01*
X46365Y120644D01*
X46354Y120565D01*
X46338Y120488D01*
X46320Y120411D01*
X46297Y120335D01*
X46271Y120261D01*
X46241Y120187D01*
X46207Y120115D01*
X46171Y120045D01*
X46131Y119977D01*
X46087Y119911D01*
X46041Y119847D01*
X45991Y119785D01*
X45939Y119726D01*
X45883Y119670D01*
X45826Y119616D01*
X45765Y119565D01*
X45702Y119517D01*
X45637Y119472D01*
X45570Y119430D01*
X45501Y119392D01*
X45430Y119356D01*
X45357Y119325D01*
X45283Y119297D01*
X45208Y119272D01*
X45132Y119252D01*
X45055Y119234D01*
X44977Y119221D01*
X44898Y119212D01*
X44819Y119206D01*
X44740Y119204D01*
X63169Y114805D02*
X63169Y113168D01*
X63167Y113090D01*
X63162Y113012D01*
X63152Y112935D01*
X63139Y112858D01*
X63123Y112782D01*
X63103Y112707D01*
X63079Y112633D01*
X63052Y112560D01*
X63021Y112488D01*
X62987Y112418D01*
X62950Y112350D01*
X62909Y112283D01*
X62865Y112218D01*
X62819Y112156D01*
X62769Y112096D01*
X62717Y112038D01*
X62662Y111983D01*
X62604Y111931D01*
X62544Y111881D01*
X62482Y111835D01*
X62417Y111791D01*
X62351Y111750D01*
X62282Y111713D01*
X62212Y111679D01*
X62140Y111648D01*
X62067Y111621D01*
X61993Y111597D01*
X61918Y111577D01*
X61842Y111561D01*
X61765Y111548D01*
X61688Y111538D01*
X61610Y111533D01*
X61532Y111531D01*
X57440Y111531D01*
X57360Y111533D01*
X57280Y111539D01*
X57200Y111549D01*
X57121Y111562D01*
X57042Y111580D01*
X56965Y111601D01*
X56889Y111627D01*
X56814Y111656D01*
X56740Y111688D01*
X56668Y111724D01*
X56598Y111764D01*
X56531Y111807D01*
X56465Y111853D01*
X56402Y111903D01*
X56341Y111955D01*
X56282Y112010D01*
X56227Y112069D01*
X56175Y112129D01*
X56125Y112193D01*
X56079Y112258D01*
X56036Y112326D01*
X55996Y112396D01*
X55960Y112468D01*
X55928Y112542D01*
X55899Y112616D01*
X55874Y112693D01*
X55852Y112770D01*
X55834Y112849D01*
X55821Y112928D01*
X55811Y113007D01*
X55805Y113088D01*
X55803Y113168D01*
X55803Y114805D01*
X61123Y117650D02*
X61034Y117652D01*
X60945Y117658D01*
X60856Y117668D01*
X60768Y117681D01*
X60680Y117698D01*
X60593Y117720D01*
X60508Y117745D01*
X60423Y117773D01*
X60340Y117806D01*
X60258Y117842D01*
X60178Y117881D01*
X60100Y117924D01*
X60024Y117970D01*
X59949Y118020D01*
X59877Y118073D01*
X59808Y118129D01*
X59741Y118188D01*
X59676Y118249D01*
X59615Y118314D01*
X59556Y118381D01*
X59500Y118450D01*
X59447Y118522D01*
X59397Y118597D01*
X59351Y118673D01*
X59308Y118751D01*
X59269Y118831D01*
X59233Y118913D01*
X59200Y118996D01*
X59172Y119081D01*
X59147Y119166D01*
X59125Y119253D01*
X59108Y119341D01*
X59095Y119429D01*
X59085Y119518D01*
X59079Y119607D01*
X59077Y119696D01*
X59079Y119785D01*
X59085Y119874D01*
X59095Y119963D01*
X59108Y120051D01*
X59125Y120139D01*
X59147Y120226D01*
X59172Y120311D01*
X59200Y120396D01*
X59233Y120479D01*
X59269Y120561D01*
X59308Y120641D01*
X59351Y120719D01*
X59397Y120795D01*
X59447Y120870D01*
X59500Y120942D01*
X59556Y121011D01*
X59615Y121078D01*
X59676Y121143D01*
X59741Y121204D01*
X59808Y121263D01*
X59877Y121319D01*
X59949Y121372D01*
X60024Y121422D01*
X60100Y121468D01*
X60178Y121511D01*
X60258Y121550D01*
X60340Y121586D01*
X60423Y121619D01*
X60508Y121647D01*
X60593Y121672D01*
X60680Y121694D01*
X60768Y121711D01*
X60856Y121724D01*
X60945Y121734D01*
X61034Y121740D01*
X61123Y121742D01*
X61212Y121740D01*
X61301Y121734D01*
X61390Y121724D01*
X61478Y121711D01*
X61566Y121694D01*
X61653Y121672D01*
X61738Y121647D01*
X61823Y121619D01*
X61906Y121586D01*
X61988Y121550D01*
X62068Y121511D01*
X62146Y121468D01*
X62222Y121422D01*
X62297Y121372D01*
X62369Y121319D01*
X62438Y121263D01*
X62505Y121204D01*
X62570Y121143D01*
X62631Y121078D01*
X62690Y121011D01*
X62746Y120942D01*
X62799Y120870D01*
X62849Y120795D01*
X62895Y120719D01*
X62938Y120641D01*
X62977Y120561D01*
X63013Y120479D01*
X63046Y120396D01*
X63074Y120311D01*
X63099Y120226D01*
X63121Y120139D01*
X63138Y120051D01*
X63151Y119963D01*
X63161Y119874D01*
X63167Y119785D01*
X63169Y119696D01*
X63167Y119607D01*
X63161Y119518D01*
X63151Y119429D01*
X63138Y119341D01*
X63121Y119253D01*
X63099Y119166D01*
X63074Y119081D01*
X63046Y118996D01*
X63013Y118913D01*
X62977Y118831D01*
X62938Y118751D01*
X62895Y118673D01*
X62849Y118597D01*
X62799Y118522D01*
X62746Y118450D01*
X62690Y118381D01*
X62631Y118314D01*
X62570Y118249D01*
X62505Y118188D01*
X62438Y118129D01*
X62369Y118073D01*
X62297Y118020D01*
X62222Y117970D01*
X62146Y117924D01*
X62068Y117881D01*
X61988Y117842D01*
X61906Y117806D01*
X61823Y117773D01*
X61738Y117745D01*
X61653Y117720D01*
X61566Y117698D01*
X61478Y117681D01*
X61390Y117668D01*
X61301Y117658D01*
X61212Y117652D01*
X61123Y117650D01*
X57440Y118059D02*
X57361Y118061D01*
X57282Y118067D01*
X57203Y118076D01*
X57125Y118089D01*
X57048Y118107D01*
X56972Y118127D01*
X56897Y118152D01*
X56823Y118180D01*
X56750Y118211D01*
X56679Y118247D01*
X56610Y118285D01*
X56543Y118327D01*
X56478Y118372D01*
X56415Y118420D01*
X56354Y118471D01*
X56297Y118525D01*
X56241Y118581D01*
X56189Y118640D01*
X56139Y118702D01*
X56093Y118766D01*
X56049Y118832D01*
X56009Y118900D01*
X55973Y118970D01*
X55939Y119042D01*
X55909Y119116D01*
X55883Y119190D01*
X55860Y119266D01*
X55842Y119343D01*
X55826Y119420D01*
X55815Y119499D01*
X55807Y119577D01*
X55803Y119656D01*
X55803Y119736D01*
X55807Y119815D01*
X55815Y119893D01*
X55826Y119972D01*
X55842Y120049D01*
X55860Y120126D01*
X55883Y120202D01*
X55909Y120276D01*
X55939Y120350D01*
X55973Y120422D01*
X56009Y120492D01*
X56049Y120560D01*
X56093Y120626D01*
X56139Y120690D01*
X56189Y120752D01*
X56241Y120811D01*
X56297Y120867D01*
X56354Y120921D01*
X56415Y120972D01*
X56478Y121020D01*
X56543Y121065D01*
X56610Y121107D01*
X56679Y121145D01*
X56750Y121181D01*
X56823Y121212D01*
X56897Y121240D01*
X56972Y121265D01*
X57048Y121285D01*
X57125Y121303D01*
X57203Y121316D01*
X57282Y121325D01*
X57361Y121331D01*
X57440Y121333D01*
X57519Y121331D01*
X57598Y121325D01*
X57677Y121316D01*
X57755Y121303D01*
X57832Y121285D01*
X57908Y121265D01*
X57983Y121240D01*
X58057Y121212D01*
X58130Y121181D01*
X58201Y121145D01*
X58270Y121107D01*
X58337Y121065D01*
X58402Y121020D01*
X58465Y120972D01*
X58526Y120921D01*
X58583Y120867D01*
X58639Y120811D01*
X58691Y120752D01*
X58741Y120690D01*
X58787Y120626D01*
X58831Y120560D01*
X58871Y120492D01*
X58907Y120422D01*
X58941Y120350D01*
X58971Y120276D01*
X58997Y120202D01*
X59020Y120126D01*
X59038Y120049D01*
X59054Y119972D01*
X59065Y119893D01*
X59073Y119815D01*
X59077Y119736D01*
X59077Y119656D01*
X59073Y119577D01*
X59065Y119499D01*
X59054Y119420D01*
X59038Y119343D01*
X59020Y119266D01*
X58997Y119190D01*
X58971Y119116D01*
X58941Y119042D01*
X58907Y118970D01*
X58871Y118900D01*
X58831Y118832D01*
X58787Y118766D01*
X58741Y118702D01*
X58691Y118640D01*
X58639Y118581D01*
X58583Y118525D01*
X58526Y118471D01*
X58465Y118420D01*
X58402Y118372D01*
X58337Y118327D01*
X58270Y118285D01*
X58201Y118247D01*
X58130Y118211D01*
X58057Y118180D01*
X57983Y118152D01*
X57908Y118127D01*
X57832Y118107D01*
X57755Y118089D01*
X57677Y118076D01*
X57598Y118067D01*
X57519Y118061D01*
X57440Y118059D01*
M02*
