G04 EAGLE Gerber RS-274X export*
G75*
%MOMM*%
%FSLAX34Y34*%
%LPD*%
%INSoldermask Bottom*%
%IPPOS*%
%AMOC8*
5,1,8,0,0,1.08239X$1,22.5*%
G01*
%ADD10C,1.981200*%
%ADD11R,1.371600X2.641600*%
%ADD12R,0.701600X0.641600*%
%ADD13C,0.372125*%
%ADD14R,0.711200X2.387600*%
%ADD15C,1.259600*%
%ADD16C,0.801600*%
%ADD17R,0.400000X1.100000*%
%ADD18C,0.257809*%

G36*
X76265Y113677D02*
X76265Y113677D01*
X76331Y113679D01*
X76374Y113697D01*
X76421Y113705D01*
X76478Y113739D01*
X76538Y113764D01*
X76573Y113795D01*
X76614Y113820D01*
X76656Y113871D01*
X76704Y113915D01*
X76726Y113957D01*
X76755Y113994D01*
X76776Y114056D01*
X76807Y114115D01*
X76815Y114169D01*
X76827Y114206D01*
X76826Y114246D01*
X76834Y114300D01*
X76834Y124460D01*
X76823Y124525D01*
X76821Y124591D01*
X76803Y124634D01*
X76795Y124681D01*
X76761Y124738D01*
X76736Y124798D01*
X76705Y124833D01*
X76680Y124874D01*
X76629Y124916D01*
X76585Y124964D01*
X76543Y124986D01*
X76506Y125015D01*
X76444Y125036D01*
X76385Y125067D01*
X76331Y125075D01*
X76294Y125087D01*
X76254Y125086D01*
X76200Y125094D01*
X71120Y125094D01*
X71055Y125083D01*
X70989Y125081D01*
X70946Y125063D01*
X70899Y125055D01*
X70842Y125021D01*
X70782Y124996D01*
X70747Y124965D01*
X70706Y124940D01*
X70665Y124889D01*
X70616Y124845D01*
X70594Y124803D01*
X70565Y124766D01*
X70544Y124704D01*
X70513Y124645D01*
X70505Y124591D01*
X70493Y124554D01*
X70493Y124543D01*
X70493Y124542D01*
X70494Y124512D01*
X70486Y124460D01*
X70486Y114300D01*
X70497Y114235D01*
X70499Y114169D01*
X70517Y114126D01*
X70525Y114079D01*
X70559Y114022D01*
X70584Y113962D01*
X70615Y113927D01*
X70640Y113886D01*
X70691Y113845D01*
X70735Y113796D01*
X70777Y113774D01*
X70814Y113745D01*
X70876Y113724D01*
X70935Y113693D01*
X70989Y113685D01*
X71026Y113673D01*
X71066Y113674D01*
X71120Y113666D01*
X76200Y113666D01*
X76265Y113677D01*
G37*
G36*
X61025Y113677D02*
X61025Y113677D01*
X61091Y113679D01*
X61134Y113697D01*
X61181Y113705D01*
X61238Y113739D01*
X61298Y113764D01*
X61333Y113795D01*
X61374Y113820D01*
X61416Y113871D01*
X61464Y113915D01*
X61486Y113957D01*
X61515Y113994D01*
X61536Y114056D01*
X61567Y114115D01*
X61575Y114169D01*
X61587Y114206D01*
X61586Y114246D01*
X61594Y114300D01*
X61594Y124460D01*
X61583Y124525D01*
X61581Y124591D01*
X61563Y124634D01*
X61555Y124681D01*
X61521Y124738D01*
X61496Y124798D01*
X61465Y124833D01*
X61440Y124874D01*
X61389Y124916D01*
X61345Y124964D01*
X61303Y124986D01*
X61266Y125015D01*
X61204Y125036D01*
X61145Y125067D01*
X61091Y125075D01*
X61054Y125087D01*
X61014Y125086D01*
X60960Y125094D01*
X55880Y125094D01*
X55815Y125083D01*
X55749Y125081D01*
X55706Y125063D01*
X55659Y125055D01*
X55602Y125021D01*
X55542Y124996D01*
X55507Y124965D01*
X55466Y124940D01*
X55425Y124889D01*
X55376Y124845D01*
X55354Y124803D01*
X55325Y124766D01*
X55304Y124704D01*
X55273Y124645D01*
X55265Y124591D01*
X55253Y124554D01*
X55253Y124543D01*
X55253Y124542D01*
X55254Y124512D01*
X55246Y124460D01*
X55246Y114300D01*
X55257Y114235D01*
X55259Y114169D01*
X55277Y114126D01*
X55285Y114079D01*
X55319Y114022D01*
X55344Y113962D01*
X55375Y113927D01*
X55400Y113886D01*
X55451Y113845D01*
X55495Y113796D01*
X55537Y113774D01*
X55574Y113745D01*
X55636Y113724D01*
X55695Y113693D01*
X55749Y113685D01*
X55786Y113673D01*
X55826Y113674D01*
X55880Y113666D01*
X60960Y113666D01*
X61025Y113677D01*
G37*
G36*
X49595Y113677D02*
X49595Y113677D01*
X49661Y113679D01*
X49704Y113697D01*
X49751Y113705D01*
X49808Y113739D01*
X49868Y113764D01*
X49903Y113795D01*
X49944Y113820D01*
X49986Y113871D01*
X50034Y113915D01*
X50056Y113957D01*
X50085Y113994D01*
X50106Y114056D01*
X50137Y114115D01*
X50145Y114169D01*
X50157Y114206D01*
X50156Y114246D01*
X50164Y114300D01*
X50164Y124460D01*
X50153Y124525D01*
X50151Y124591D01*
X50133Y124634D01*
X50125Y124681D01*
X50091Y124738D01*
X50066Y124798D01*
X50035Y124833D01*
X50010Y124874D01*
X49959Y124916D01*
X49915Y124964D01*
X49873Y124986D01*
X49836Y125015D01*
X49774Y125036D01*
X49715Y125067D01*
X49661Y125075D01*
X49624Y125087D01*
X49584Y125086D01*
X49530Y125094D01*
X44450Y125094D01*
X44385Y125083D01*
X44319Y125081D01*
X44276Y125063D01*
X44229Y125055D01*
X44172Y125021D01*
X44112Y124996D01*
X44077Y124965D01*
X44036Y124940D01*
X43995Y124889D01*
X43946Y124845D01*
X43924Y124803D01*
X43895Y124766D01*
X43874Y124704D01*
X43843Y124645D01*
X43835Y124591D01*
X43823Y124554D01*
X43823Y124543D01*
X43823Y124542D01*
X43824Y124512D01*
X43816Y124460D01*
X43816Y114300D01*
X43827Y114235D01*
X43829Y114169D01*
X43847Y114126D01*
X43855Y114079D01*
X43889Y114022D01*
X43914Y113962D01*
X43945Y113927D01*
X43970Y113886D01*
X44021Y113845D01*
X44065Y113796D01*
X44107Y113774D01*
X44144Y113745D01*
X44206Y113724D01*
X44265Y113693D01*
X44319Y113685D01*
X44356Y113673D01*
X44396Y113674D01*
X44450Y113666D01*
X49530Y113666D01*
X49595Y113677D01*
G37*
D10*
X13970Y436880D03*
X13970Y411480D03*
X13970Y386080D03*
X13970Y360680D03*
X13970Y335280D03*
X13970Y309880D03*
X13970Y284480D03*
X13970Y259080D03*
X13970Y233680D03*
X13970Y208280D03*
X242570Y436880D03*
X242570Y411480D03*
X242570Y386080D03*
X242570Y360680D03*
X242570Y335280D03*
X242570Y309880D03*
X242570Y284480D03*
X242570Y259080D03*
X242570Y233680D03*
X242570Y208280D03*
D11*
X114300Y13970D03*
X140970Y13970D03*
D12*
X97790Y385320D03*
X97790Y376680D03*
D13*
X99438Y319608D02*
X99438Y316912D01*
X96142Y316912D01*
X96142Y319608D01*
X99438Y319608D01*
X99438Y325552D02*
X99438Y328248D01*
X99438Y325552D02*
X96142Y325552D01*
X96142Y328248D01*
X99438Y328248D01*
D14*
X111760Y385572D03*
X111760Y318008D03*
X124460Y385572D03*
X137160Y385572D03*
X124460Y318008D03*
X137160Y318008D03*
X149860Y385572D03*
X149860Y318008D03*
D15*
X85070Y19760D02*
X85070Y8180D01*
X171470Y8180D02*
X171470Y19760D01*
D16*
X99370Y50470D03*
X157170Y50470D03*
D15*
X85117Y50086D02*
X85117Y61666D01*
X171446Y61564D02*
X171446Y49984D01*
X85139Y49997D02*
X85139Y61577D01*
X171451Y61633D02*
X171451Y50053D01*
D17*
X30320Y20680D03*
X25320Y20680D03*
X20320Y20680D03*
X15320Y20680D03*
X10320Y20680D03*
X10320Y65680D03*
X15320Y65680D03*
X20320Y65680D03*
X25320Y65680D03*
X30320Y65680D03*
D18*
X49384Y110636D02*
X49384Y115424D01*
X49384Y110636D02*
X44596Y110636D01*
X44596Y115424D01*
X49384Y115424D01*
X49384Y113085D02*
X44596Y113085D01*
X49384Y123336D02*
X49384Y128124D01*
X49384Y123336D02*
X44596Y123336D01*
X44596Y128124D01*
X49384Y128124D01*
X49384Y125785D02*
X44596Y125785D01*
X60814Y115424D02*
X60814Y110636D01*
X56026Y110636D01*
X56026Y115424D01*
X60814Y115424D01*
X60814Y113085D02*
X56026Y113085D01*
X60814Y123336D02*
X60814Y128124D01*
X60814Y123336D02*
X56026Y123336D01*
X56026Y128124D01*
X60814Y128124D01*
X60814Y125785D02*
X56026Y125785D01*
X76054Y115424D02*
X76054Y110636D01*
X71266Y110636D01*
X71266Y115424D01*
X76054Y115424D01*
X76054Y113085D02*
X71266Y113085D01*
X76054Y123336D02*
X76054Y128124D01*
X76054Y123336D02*
X71266Y123336D01*
X71266Y128124D01*
X76054Y128124D01*
X76054Y125785D02*
X71266Y125785D01*
M02*
