G04 EAGLE Gerber RS-274X export*
G75*
%MOMM*%
%FSLAX34Y34*%
%LPD*%
%INSolderpaste Top*%
%IPPOS*%
%AMOC8*
5,1,8,0,0,1.08239X$1,22.5*%
G01*
%ADD10R,1.200000X0.550000*%
%ADD11R,1.000000X1.100000*%
%ADD12R,1.000000X0.900000*%
%ADD13R,0.600000X0.540000*%
%ADD14R,0.800000X1.000000*%
%ADD15R,1.000000X1.400000*%
%ADD16R,0.540000X0.600000*%
%ADD17C,0.300000*%
%ADD18R,0.482600X1.117600*%
%ADD19R,1.100000X1.000000*%
%ADD20R,1.800000X1.800000*%
%ADD21R,1.250000X0.550000*%
%ADD22R,0.550000X1.250000*%
%ADD23R,0.500000X0.350000*%
%ADD24R,2.403600X2.368000*%
%ADD25C,0.087500*%
%ADD26R,0.700000X1.600000*%
%ADD27C,0.270000*%
%ADD28R,1.600000X0.940000*%
%ADD29C,0.037600*%
%ADD30R,0.600000X1.450000*%
%ADD31R,0.300000X1.450000*%

G36*
X178377Y155117D02*
X178377Y155117D01*
X178372Y155124D01*
X178379Y155130D01*
X178379Y160630D01*
X178343Y160677D01*
X178336Y160672D01*
X178330Y160679D01*
X165830Y160679D01*
X165783Y160643D01*
X165788Y160636D01*
X165781Y160630D01*
X165781Y156930D01*
X165797Y156909D01*
X165795Y156895D01*
X167595Y155095D01*
X167622Y155092D01*
X167630Y155081D01*
X178330Y155081D01*
X178377Y155117D01*
G37*
D10*
X155471Y83760D03*
X155471Y93260D03*
X155471Y102760D03*
X129469Y102760D03*
X129469Y83760D03*
D11*
X173030Y89210D03*
X173030Y106210D03*
D12*
X28182Y79016D03*
X12182Y79016D03*
X12182Y120016D03*
X28182Y120016D03*
D13*
X241790Y121540D03*
X241790Y112900D03*
D14*
X189845Y104810D03*
X189845Y81810D03*
D15*
X215880Y60360D03*
X206380Y82360D03*
X225380Y82360D03*
D10*
X228781Y26300D03*
X228781Y35800D03*
X228781Y45300D03*
X202779Y45300D03*
X202779Y26300D03*
D13*
X189110Y18190D03*
X189110Y26830D03*
D16*
X217230Y157900D03*
X225870Y157900D03*
D17*
X240790Y148370D02*
X240790Y141370D01*
X240790Y148370D02*
X247790Y148370D01*
X247790Y141370D01*
X240790Y141370D01*
X240790Y144220D02*
X247790Y144220D01*
X247790Y147070D02*
X240790Y147070D01*
X223250Y148370D02*
X223250Y141370D01*
X223250Y148370D02*
X230250Y148370D01*
X230250Y141370D01*
X223250Y141370D01*
X223250Y144220D02*
X230250Y144220D01*
X230250Y147070D02*
X223250Y147070D01*
D18*
X226690Y129108D03*
X207690Y129108D03*
X217190Y105232D03*
D13*
X72294Y104190D03*
X72294Y95550D03*
D16*
X146177Y117150D03*
X137537Y117150D03*
D11*
X113031Y106453D03*
X113031Y89453D03*
D19*
X225843Y10083D03*
X208843Y10083D03*
D12*
X28320Y13790D03*
X12320Y13790D03*
X12320Y54790D03*
X28320Y54790D03*
D13*
X85090Y104650D03*
X85090Y96010D03*
X97790Y104650D03*
X97790Y96010D03*
D20*
X144580Y170380D03*
X119580Y170380D03*
X119580Y195380D03*
X144580Y195380D03*
D21*
X172080Y182880D03*
X172080Y170380D03*
X172080Y195380D03*
X172080Y207880D03*
X92080Y182880D03*
X92080Y170380D03*
X92080Y195380D03*
X92080Y207880D03*
X92080Y157880D03*
D22*
X132080Y222880D03*
X144580Y222880D03*
X157080Y222880D03*
X119580Y222880D03*
X107080Y222880D03*
X132080Y142880D03*
X144580Y142880D03*
X157080Y142880D03*
X119580Y142880D03*
X107080Y142880D03*
D23*
X33110Y497280D03*
X33110Y490780D03*
X33110Y484280D03*
X33110Y503780D03*
X12610Y490780D03*
X12610Y497280D03*
X12610Y503780D03*
X12610Y484280D03*
D24*
X52070Y212822D03*
X52070Y150398D03*
D13*
X64770Y7110D03*
X64770Y15750D03*
X52070Y7110D03*
X52070Y15750D03*
D25*
X240067Y490343D02*
X246693Y490343D01*
X246693Y487717D01*
X240067Y487717D01*
X240067Y490343D01*
X240067Y488548D02*
X246693Y488548D01*
X246693Y489379D02*
X240067Y489379D01*
X240067Y490210D02*
X246693Y490210D01*
X246693Y500343D02*
X240067Y500343D01*
X246693Y500343D02*
X246693Y497717D01*
X240067Y497717D01*
X240067Y500343D01*
X240067Y498548D02*
X246693Y498548D01*
X246693Y499379D02*
X240067Y499379D01*
X240067Y500210D02*
X246693Y500210D01*
X227293Y500343D02*
X220667Y500343D01*
X227293Y500343D02*
X227293Y497717D01*
X220667Y497717D01*
X220667Y500343D01*
X220667Y498548D02*
X227293Y498548D01*
X227293Y499379D02*
X220667Y499379D01*
X220667Y500210D02*
X227293Y500210D01*
X227293Y490343D02*
X220667Y490343D01*
X227293Y490343D02*
X227293Y487717D01*
X220667Y487717D01*
X220667Y490343D01*
X220667Y488548D02*
X227293Y488548D01*
X227293Y489379D02*
X220667Y489379D01*
X220667Y490210D02*
X227293Y490210D01*
D26*
X233680Y494030D03*
D27*
X200230Y229490D02*
X197530Y229490D01*
X197530Y232790D01*
X200230Y232790D01*
X200230Y229490D01*
X200230Y232055D02*
X197530Y232055D01*
X206170Y229490D02*
X208870Y229490D01*
X206170Y229490D02*
X206170Y232790D01*
X208870Y232790D01*
X208870Y229490D01*
X208870Y232055D02*
X206170Y232055D01*
X31370Y467790D02*
X31370Y470490D01*
X34670Y470490D01*
X34670Y467790D01*
X31370Y467790D01*
X31370Y470355D02*
X34670Y470355D01*
X31370Y461850D02*
X31370Y459150D01*
X31370Y461850D02*
X34670Y461850D01*
X34670Y459150D01*
X31370Y459150D01*
X31370Y461715D02*
X34670Y461715D01*
X245490Y460420D02*
X245490Y463120D01*
X245490Y460420D02*
X242190Y460420D01*
X242190Y463120D01*
X245490Y463120D01*
X245490Y462985D02*
X242190Y462985D01*
X245490Y469060D02*
X245490Y471760D01*
X245490Y469060D02*
X242190Y469060D01*
X242190Y471760D01*
X245490Y471760D01*
X245490Y471625D02*
X242190Y471625D01*
D17*
X242636Y173958D02*
X242636Y166958D01*
X242636Y173958D02*
X249636Y173958D01*
X249636Y166958D01*
X242636Y166958D01*
X242636Y169808D02*
X249636Y169808D01*
X249636Y172658D02*
X242636Y172658D01*
X225096Y173958D02*
X225096Y166958D01*
X225096Y173958D02*
X232096Y173958D01*
X232096Y166958D01*
X225096Y166958D01*
X225096Y169808D02*
X232096Y169808D01*
X232096Y172658D02*
X225096Y172658D01*
D16*
X218114Y182602D03*
X226754Y182602D03*
D28*
X46260Y254030D03*
X46260Y266730D03*
X46260Y279430D03*
X46260Y292130D03*
X46260Y304830D03*
X46260Y317530D03*
X46260Y330230D03*
X46260Y342930D03*
X46260Y355630D03*
X46260Y368330D03*
X46260Y381030D03*
X46260Y393730D03*
X46260Y406430D03*
D29*
X202638Y249518D02*
X218262Y249518D01*
X202638Y249518D02*
X202638Y258542D01*
X218262Y258542D01*
X218262Y249518D01*
X218262Y249875D02*
X202638Y249875D01*
X202638Y250232D02*
X218262Y250232D01*
X218262Y250589D02*
X202638Y250589D01*
X202638Y250946D02*
X218262Y250946D01*
X218262Y251303D02*
X202638Y251303D01*
X202638Y251660D02*
X218262Y251660D01*
X218262Y252017D02*
X202638Y252017D01*
X202638Y252374D02*
X218262Y252374D01*
X218262Y252731D02*
X202638Y252731D01*
X202638Y253088D02*
X218262Y253088D01*
X218262Y253445D02*
X202638Y253445D01*
X202638Y253802D02*
X218262Y253802D01*
X218262Y254159D02*
X202638Y254159D01*
X202638Y254516D02*
X218262Y254516D01*
X218262Y254873D02*
X202638Y254873D01*
X202638Y255230D02*
X218262Y255230D01*
X218262Y255587D02*
X202638Y255587D01*
X202638Y255944D02*
X218262Y255944D01*
X218262Y256301D02*
X202638Y256301D01*
X202638Y256658D02*
X218262Y256658D01*
X218262Y257015D02*
X202638Y257015D01*
X202638Y257372D02*
X218262Y257372D01*
X218262Y257729D02*
X202638Y257729D01*
X202638Y258086D02*
X218262Y258086D01*
X218262Y258443D02*
X202638Y258443D01*
D28*
X210450Y266730D03*
X210450Y279430D03*
X210450Y292130D03*
X210450Y304830D03*
X210450Y317530D03*
X210450Y330230D03*
X210450Y342930D03*
X210450Y355630D03*
X210450Y368330D03*
X210450Y381030D03*
X210450Y393730D03*
X210450Y406430D03*
X210450Y460030D03*
X210450Y472730D03*
X46260Y419130D03*
X210450Y419130D03*
D30*
X95770Y64920D03*
X103770Y64920D03*
D31*
X125770Y64920D03*
X120770Y64920D03*
X115770Y64920D03*
X110770Y64920D03*
X130770Y64920D03*
X135770Y64920D03*
X140770Y64920D03*
X145770Y64920D03*
D30*
X152770Y64920D03*
X160770Y64920D03*
M02*
