M48
;GenerationSoftware,Autodesk,EAGLE,9.6.2*%
;CreationDate,2023-02-18T06:26:02Z*%
FMAT,2
ICI,OFF
METRIC,TZ,000.000
T4C0.300
T3C0.650
T2C0.700
T1C1.016
%
G90
M71
T1
X24257Y38608
X1397Y43688
X1397Y41148
X1397Y38608
X1397Y36068
X1397Y33528
X1397Y30988
X1397Y28448
X1397Y25908
X1397Y23368
X1397Y20828
X24257Y43688
X24257Y41148
X24257Y36068
X24257Y33528
X24257Y30988
X24257Y28448
X24257Y25908
X24257Y23368
X24257Y20828
T2
X15717Y5047
X9937Y5047
T3
X8507Y1397
X17147Y1397
X8512Y5588
X17145Y5577
X8514Y5579
X17145Y5584
T4
X19050Y12827
X17018Y14478
X9271Y14351
X20701Y10541
X22987Y9906
X18923Y6477
X2032Y3937
X7112Y8001
X7112Y6223
X20574Y15240
X20828Y19431
X18796Y21844
X18288Y27305
X8763Y27559
X8890Y30099
X8763Y33655
X14097Y1397
X14097Y2159
X14097Y635
X19812Y1016
X7239Y2159
X23495Y7239
X23876Y15748
X14478Y12954
X16510Y47498
X5207Y19431
X4572Y46355
X11938Y23622
X6477Y41783
X1270Y51181
X24257Y50673
X2286Y50419
X10668Y23622
X6477Y40513
X22352Y50673
X2794Y10160
X8128Y39243
X8075Y35698
X5969Y4318
X6223Y32893
X5969Y31750
X5207Y3175
X19558Y36830
X13716Y36703
X14986Y34417
X13716Y34417
X12573Y4318
X13081Y5080
X24003Y4064
X24003Y3302
X24003Y4826
X24003Y5588
X3175Y24638
X1270Y47498
X4699Y47498
X6223Y47498
X7874Y47498
X9652Y47498
X11430Y47498
X13081Y47498
X14859Y47498
X18542Y47498
X14478Y23622
X22479Y47371
X19685Y46736
X1270Y45974
X3302Y44958
X3048Y39370
X7874Y44958
X11684Y44958
X15494Y44958
X16764Y28448
X16764Y33528
X16764Y38608
X16764Y31115
X1524Y17018
M30